<?xml version="1.0" encoding="UTF-8" standalone="no"?>
<svg
   version="1.1"
   id="svg23"
   sodipodi:docname="kip18_gabarito2.svg"
   inkscape:version="1.2-alpha1 (unknown)"
   xmlns:inkscape="http://www.inkscape.org/namespaces/inkscape"
   xmlns:sodipodi="http://sodipodi.sourceforge.net/DTD/sodipodi-0.dtd"
   xmlns="http://www.w3.org/2000/svg"
   xmlns:svg="http://www.w3.org/2000/svg">
  <defs
     id="defs23" />
  <sodipodi:namedview
     id="namedview23"
     pagecolor="#ffffff"
     bordercolor="#000000"
     borderopacity="0.25"
     inkscape:showpageshadow="2"
     inkscape:pageopacity="0.0"
     inkscape:pagecheckerboard="0"
     inkscape:deskcolor="#d1d1d1"
     inkscape:pageshadow="2"
     showgrid="false"
     inkscape:zoom="4"
     inkscape:cx="32.25"
     inkscape:cy="-28.875"
     inkscape:window-width="1920"
     inkscape:window-height="991"
     inkscape:window-x="-9"
     inkscape:window-y="-9"
     inkscape:window-maximized="1"
     inkscape:current-layer="svg23" />
  <path
     d="m 42.802104,-97.30288 q 0,0.0641 0.0096,0.13148 0.0096,0.0673 0.02565,0.10903 h -0.214853 q -0.02245,-0.0449 -0.03527,-0.12827 -0.01603,-0.0834 -0.01603,-0.16034 0,-0.13468 0.04489,-0.25012 0.0481,-0.11224 0.163544,-0.18279 0.115443,-0.0705 0.323882,-0.0705 h 1.000506 v -0.24371 h 0.134683 l 0.112236,0.24692 0.36557,0.11224 v 0.16675 h -0.39443 v 0.49704 h -0.218059 v -0.49704 H 43.10993 q -0.15713,0 -0.234092,0.0738 -0.07376,0.077 -0.07376,0.19561 z m 1.552067,1.24743 q 0,0.21806 -0.0962,0.3784 -0.0962,0.16033 -0.272574,0.24371 -0.173164,0.0866 -0.407257,0.0866 h -0.16996 v -1.17688 q -0.291814,0.006 -0.445738,0.14751 -0.150717,0.14431 -0.150717,0.40085 0,0.16354 0.02886,0.2886 0.03207,0.12827 0.08979,0.26296 h -0.246919 q -0.05772,-0.13148 -0.08338,-0.25975 -0.02886,-0.12827 -0.02886,-0.30464 0,-0.24692 0.09941,-0.43291 0.09941,-0.18599 0.295021,-0.29182 0.195611,-0.10261 0.484219,-0.10261 0.282194,0 0.484219,0.093 0.202025,0.0962 0.311055,0.26616 0.109029,0.17316 0.109029,0.40084 z m -0.230886,-0.003 q 0,-0.20203 -0.131476,-0.32067 -0.12827,-0.11545 -0.359156,-0.13789 v 0.87544 q 0.218059,-0.003 0.352742,-0.10262 0.13789,-0.0994 0.13789,-0.31426 z m -1.0454,2.26717 q -0.250127,0 -0.378397,-0.18599 -0.12827,-0.18599 -0.12827,-0.50026 0,-0.17957 0.02886,-0.31105 0.02886,-0.12827 0.08017,-0.22768 h 0.25654 q -0.05131,0.10262 -0.0962,0.24692 -0.04169,0.14751 -0.04169,0.29823 0,0.21485 0.06734,0.31105 0.07055,0.0962 0.185992,0.0962 0.06414,0 0.115443,-0.0353 0.05131,-0.0353 0.102616,-0.12827 0.05131,-0.0898 0.115443,-0.25974 0.06414,-0.16676 0.12827,-0.28541 0.06414,-0.11864 0.153924,-0.18278 0.08979,-0.0641 0.230886,-0.0641 0.218059,0 0.336708,0.17637 0.11865,0.17958 0.11865,0.46819 0,0.15713 -0.03207,0.29181 -0.03207,0.13789 -0.08338,0.25654 l -0.224472,-0.0962 q 0.04489,-0.10903 0.07696,-0.22768 0.03207,-0.11865 0.03207,-0.24371 0,-0.17317 -0.05772,-0.26616 -0.05452,-0.0898 -0.150717,-0.0898 -0.07376,0 -0.121857,0.0417 -0.0481,0.0417 -0.0962,0.13789 -0.0481,0.0994 -0.10903,0.26295 -0.06093,0.16355 -0.125063,0.27899 -0.06413,0.11544 -0.157131,0.17637 -0.08979,0.0609 -0.227679,0.0609 z m -0.275781,0.99089 q 0,0.0641 0.0096,0.13147 0.0096,0.0673 0.02565,0.10903 h -0.214853 q -0.02245,-0.0449 -0.03527,-0.12827 -0.01603,-0.0834 -0.01603,-0.16034 0,-0.13468 0.04489,-0.25012 0.0481,-0.11224 0.163544,-0.18279 0.115443,-0.0706 0.323882,-0.0706 h 1.000506 v -0.24371 h 0.134683 l 0.112236,0.24692 0.36557,0.11224 v 0.16675 h -0.39443 v 0.49704 h -0.218059 v -0.49704 H 43.10993 q -0.15713,0 -0.234092,0.0738 -0.07376,0.077 -0.07376,0.19561 z m 1.552067,1.24742 q 0,0.21806 -0.0962,0.3784 -0.0962,0.16033 -0.272574,0.24371 -0.173164,0.0866 -0.407257,0.0866 h -0.16996 v -1.17688 q -0.291814,0.006 -0.445738,0.14751 -0.150717,0.14431 -0.150717,0.40085 0,0.16354 0.02886,0.28861 0.03207,0.12827 0.08979,0.26295 h -0.246919 q -0.05772,-0.13148 -0.08338,-0.25975 -0.02886,-0.12827 -0.02886,-0.30464 0,-0.24692 0.09941,-0.43291 0.09941,-0.18599 0.295021,-0.29181 0.195611,-0.10262 0.484219,-0.10262 0.282194,0 0.484219,0.093 0.202025,0.0962 0.311055,0.26616 0.109029,0.17316 0.109029,0.40084 z m -0.230886,-0.003 q 0,-0.20203 -0.131476,-0.32067 -0.12827,-0.11545 -0.359156,-0.13789 v 0.87544 q 0.218059,-0.003 0.352742,-0.10262 0.13789,-0.0994 0.13789,-0.31426 z"
     id="text1"
     style="font-size:12px;text-anchor:middle;fill:#ff0000;stroke:#ff0000;stroke-width:0.01"
     aria-label="teste"
     inkscape:engrave="0"
     inkscape:feed="50"
     inkscape:power="50" />
  <path
     d="m 31.671899,-97.30288 q 0,0.0641 0.0096,0.13148 0.0096,0.0673 0.02565,0.10903 h -0.214853 q -0.02245,-0.0449 -0.03527,-0.12827 -0.01603,-0.0834 -0.01603,-0.16034 0,-0.13468 0.0449,-0.25012 0.0481,-0.11224 0.163544,-0.18279 0.115443,-0.0705 0.323882,-0.0705 h 1.000506 v -0.24371 h 0.134683 l 0.112236,0.24692 0.36557,0.11224 v 0.16675 h -0.39443 v 0.49704 H 32.97384 v -0.49704 h -0.994093 q -0.15713,0 -0.234092,0.0738 -0.07376,0.077 -0.07376,0.19561 z m 1.552067,1.24743 q 0,0.21806 -0.0962,0.3784 -0.0962,0.16033 -0.272574,0.24371 -0.173164,0.0866 -0.407257,0.0866 h -0.169958 v -1.17688 q -0.291814,0.006 -0.445738,0.14751 -0.150717,0.14431 -0.150717,0.40085 0,0.16354 0.02886,0.2886 0.03207,0.12827 0.08979,0.26296 H 31.55325 q -0.05772,-0.13148 -0.08338,-0.25975 -0.02886,-0.12827 -0.02886,-0.30464 0,-0.24692 0.09941,-0.43291 0.09941,-0.18599 0.295021,-0.29182 0.195611,-0.10261 0.484219,-0.10261 0.282194,0 0.484219,0.093 0.202025,0.0962 0.311055,0.26616 0.109029,0.17316 0.109029,0.40084 z m -0.230886,-0.003 q 0,-0.20203 -0.131476,-0.32067 -0.12827,-0.11545 -0.359156,-0.13789 v 0.87544 q 0.218059,-0.003 0.352742,-0.10262 0.13789,-0.0994 0.13789,-0.31426 z m -1.0454,2.26717 q -0.250127,0 -0.378397,-0.18599 -0.12827,-0.18599 -0.12827,-0.50026 0,-0.17957 0.02886,-0.31105 0.02886,-0.12827 0.08017,-0.22768 h 0.25654 q -0.05131,0.10262 -0.0962,0.24692 -0.04169,0.14751 -0.04169,0.29823 0,0.21485 0.06734,0.31105 0.07055,0.0962 0.185992,0.0962 0.06414,0 0.115443,-0.0353 0.05131,-0.0353 0.102616,-0.12827 0.05131,-0.0898 0.115443,-0.25974 0.06414,-0.16676 0.12827,-0.28541 0.06414,-0.11864 0.153924,-0.18278 0.08979,-0.0641 0.230886,-0.0641 0.218059,0 0.336709,0.17637 0.118649,0.17958 0.118649,0.46819 0,0.15713 -0.03207,0.29181 -0.03207,0.13789 -0.08338,0.25654 l -0.224472,-0.0962 q 0.04489,-0.10903 0.07696,-0.22768 0.03207,-0.11865 0.03207,-0.24371 0,-0.17317 -0.05772,-0.26616 -0.05451,-0.0898 -0.150717,-0.0898 -0.07376,0 -0.121857,0.0417 -0.0481,0.0417 -0.0962,0.13789 -0.0481,0.0994 -0.10903,0.26295 -0.06093,0.16355 -0.125063,0.27899 -0.06414,0.11544 -0.157131,0.17637 -0.08979,0.0609 -0.227679,0.0609 z m -0.275781,0.99089 q 0,0.0641 0.0096,0.13147 0.0096,0.0673 0.02565,0.10903 h -0.214853 q -0.02245,-0.0449 -0.03527,-0.12827 -0.01603,-0.0834 -0.01603,-0.16034 0,-0.13468 0.0449,-0.25012 0.0481,-0.11224 0.163544,-0.18279 0.115443,-0.0706 0.323882,-0.0706 h 1.000506 v -0.24371 h 0.134683 l 0.112236,0.24692 0.36557,0.11224 v 0.16675 h -0.39443 v 0.49704 H 32.97384 v -0.49704 h -0.994093 q -0.15713,0 -0.234092,0.0738 -0.07376,0.077 -0.07376,0.19561 z m 1.552067,1.24742 q 0,0.21806 -0.0962,0.3784 -0.0962,0.16033 -0.272574,0.24371 -0.173164,0.0866 -0.407257,0.0866 h -0.169958 v -1.17688 q -0.291814,0.006 -0.445738,0.14751 -0.150717,0.14431 -0.150717,0.40085 0,0.16354 0.02886,0.28861 0.03207,0.12827 0.08979,0.26295 H 31.55325 q -0.05772,-0.13148 -0.08338,-0.25975 -0.02886,-0.12827 -0.02886,-0.30464 0,-0.24692 0.09941,-0.43291 0.09941,-0.18599 0.295021,-0.29181 0.195611,-0.10262 0.484219,-0.10262 0.282194,0 0.484219,0.093 0.202025,0.0962 0.311055,0.26616 0.109029,0.17316 0.109029,0.40084 z m -0.230886,-0.003 q 0,-0.20203 -0.131476,-0.32067 -0.12827,-0.11545 -0.359156,-0.13789 v 0.87544 q 0.218059,-0.003 0.352742,-0.10262 0.13789,-0.0994 0.13789,-0.31426 z"
     id="text2"
     style="font-size:12px;text-anchor:middle;fill:#ff0000;stroke:#ff0000;stroke-width:0.01"
     aria-label="teste"
     inkscape:engrave="0"
     inkscape:feed="50"
     inkscape:power="50" />
  <path
     d="m 20.541702,-97.30288 q 0,0.0641 0.0096,0.13148 0.0096,0.0673 0.02565,0.10903 H 20.3621 q -0.02245,-0.0449 -0.03527,-0.12827 -0.01603,-0.0834 -0.01603,-0.16034 0,-0.13468 0.04489,-0.25012 0.0481,-0.11224 0.163545,-0.18279 0.115443,-0.0705 0.323881,-0.0705 h 1.000506 v -0.24371 h 0.134684 l 0.112236,0.24692 0.365569,0.11224 v 0.16675 h -0.39443 v 0.49704 h -0.218059 v -0.49704 H 20.84955 q -0.157131,0 -0.234093,0.0738 -0.07375,0.077 -0.07375,0.19561 z m 1.552067,1.24743 q 0,0.21806 -0.0962,0.3784 -0.0962,0.16033 -0.272573,0.24371 -0.173165,0.0866 -0.407258,0.0866 h -0.169957 v -1.17688 q -0.291815,0.006 -0.445739,0.14751 -0.150717,0.14431 -0.150717,0.40085 0,0.16354 0.02886,0.2886 0.03207,0.12827 0.08979,0.26296 h -0.24692 q -0.05772,-0.13148 -0.08338,-0.25975 -0.02886,-0.12827 -0.02886,-0.30464 0,-0.24692 0.09941,-0.43291 0.09941,-0.18599 0.295021,-0.29182 0.195612,-0.10261 0.484219,-0.10261 0.282194,0 0.48422,0.093 0.202025,0.0962 0.311054,0.26616 0.10903,0.17316 0.10903,0.40084 z m -0.230886,-0.003 q 0,-0.20203 -0.131477,-0.32067 -0.12827,-0.11545 -0.359156,-0.13789 v 0.87544 q 0.218059,-0.003 0.352743,-0.10262 0.13789,-0.0994 0.13789,-0.31426 z m -1.045401,2.26717 q -0.250126,0 -0.378396,-0.18599 -0.12827,-0.18599 -0.12827,-0.50026 0,-0.17957 0.02886,-0.31105 0.02886,-0.12827 0.08017,-0.22768 h 0.25654 q -0.05131,0.10262 -0.0962,0.24692 -0.04169,0.14751 -0.04169,0.29823 0,0.21485 0.06734,0.31105 0.07055,0.0962 0.185991,0.0962 0.06414,0 0.115443,-0.0353 0.05131,-0.0353 0.102616,-0.12827 0.05131,-0.0898 0.115443,-0.25974 0.06413,-0.16676 0.12827,-0.28541 0.06414,-0.11864 0.153924,-0.18278 0.08979,-0.0641 0.230886,-0.0641 0.218059,0 0.336709,0.17637 0.11865,0.17958 0.11865,0.46819 0,0.15713 -0.03207,0.29181 -0.03207,0.13789 -0.08338,0.25654 l -0.224473,-0.0962 q 0.0449,-0.10903 0.07696,-0.22768 0.03207,-0.11865 0.03207,-0.24371 0,-0.17317 -0.05772,-0.26616 -0.05451,-0.0898 -0.150717,-0.0898 -0.07376,0 -0.121856,0.0417 -0.0481,0.0417 -0.0962,0.13789 -0.0481,0.0994 -0.109029,0.26295 -0.06093,0.16355 -0.125064,0.27899 -0.06414,0.11544 -0.15713,0.17637 -0.08979,0.0609 -0.22768,0.0609 z m -0.27578,0.99089 q 0,0.0641 0.0096,0.13147 0.0096,0.0673 0.02565,0.10903 H 20.3621 q -0.02245,-0.0449 -0.03527,-0.12827 -0.01603,-0.0834 -0.01603,-0.16034 0,-0.13468 0.04489,-0.25012 0.0481,-0.11224 0.163545,-0.18279 0.115443,-0.0706 0.323881,-0.0706 h 1.000506 v -0.24371 h 0.134684 l 0.112236,0.24692 0.365569,0.11224 v 0.16675 h -0.39443 v 0.49704 h -0.218059 v -0.49704 H 20.84955 q -0.157131,0 -0.234093,0.0738 -0.07375,0.077 -0.07375,0.19561 z m 1.552067,1.24742 q 0,0.21806 -0.0962,0.3784 -0.0962,0.16033 -0.272573,0.24371 -0.173165,0.0866 -0.407258,0.0866 h -0.169957 v -1.17688 q -0.291815,0.006 -0.445739,0.14751 -0.150717,0.14431 -0.150717,0.40085 0,0.16354 0.02886,0.28861 0.03207,0.12827 0.08979,0.26295 h -0.24692 q -0.05772,-0.13148 -0.08338,-0.25975 -0.02886,-0.12827 -0.02886,-0.30464 0,-0.24692 0.09941,-0.43291 0.09941,-0.18599 0.295021,-0.29181 0.195612,-0.10262 0.484219,-0.10262 0.282194,0 0.48422,0.093 0.202025,0.0962 0.311054,0.26616 0.10903,0.17316 0.10903,0.40084 z m -0.230886,-0.003 q 0,-0.20203 -0.131477,-0.32067 -0.12827,-0.11545 -0.359156,-0.13789 v 0.87544 q 0.218059,-0.003 0.352743,-0.10262 0.13789,-0.0994 0.13789,-0.31426 z"
     id="text3"
     style="font-size:12px;text-anchor:middle;fill:#ff0000;stroke:#ff0000;stroke-width:0.01"
     aria-label="teste"
     inkscape:engrave="0"
     inkscape:feed="50"
     inkscape:power="50" />
  <path
     d="m 9.411499,-97.30288 q 0,0.0641 0.0096,0.13148 0.0096,0.0673 0.02565,0.10903 H 9.231897 q -0.02245,-0.0449 -0.03527,-0.12827 -0.01603,-0.0834 -0.01603,-0.16034 0,-0.13468 0.0449,-0.25012 0.0481,-0.11224 0.163544,-0.18279 0.115443,-0.0705 0.323882,-0.0705 h 1.000505 v -0.24371 h 0.134684 l 0.112236,0.24692 0.36557,0.11224 v 0.16675 h -0.394431 v 0.49704 h -0.218059 v -0.49704 H 9.719336 q -0.157131,0 -0.234093,0.0738 -0.07376,0.077 -0.07376,0.19561 z m 1.552067,1.24743 q 0,0.21806 -0.0962,0.3784 -0.0962,0.16033 -0.272573,0.24371 -0.173165,0.0866 -0.407257,0.0866 h -0.169958 v -1.17688 q -0.291814,0.006 -0.445738,0.14751 -0.150718,0.14431 -0.150718,0.40085 0,0.16354 0.02886,0.2886 0.03207,0.12827 0.08979,0.26296 h -0.24692 q -0.05772,-0.13148 -0.08338,-0.25975 -0.02886,-0.12827 -0.02886,-0.30464 0,-0.24692 0.09941,-0.43291 0.09941,-0.18599 0.295021,-0.29182 0.195612,-0.10261 0.48422,-0.10261 0.282194,0 0.484219,0.093 0.202025,0.0962 0.311054,0.26616 0.10903,0.17316 0.10903,0.40084 z m -0.230886,-0.003 q 0,-0.20203 -0.131477,-0.32067 -0.12827,-0.11545 -0.359156,-0.13789 v 0.87544 q 0.218059,-0.003 0.352743,-0.10262 0.13789,-0.0994 0.13789,-0.31426 z m -1.0454,2.26717 q -0.250127,0 -0.378397,-0.18599 -0.12827,-0.18599 -0.12827,-0.50026 0,-0.17957 0.02886,-0.31105 0.02886,-0.12827 0.08017,-0.22768 h 0.25654 q -0.05131,0.10262 -0.0962,0.24692 -0.04169,0.14751 -0.04169,0.29823 0,0.21485 0.06734,0.31105 0.07055,0.0962 0.185992,0.0962 0.06414,0 0.115443,-0.0353 0.05131,-0.0353 0.102616,-0.12827 0.05131,-0.0898 0.115443,-0.25974 0.06414,-0.16676 0.12827,-0.28541 0.06414,-0.11864 0.153924,-0.18278 0.08979,-0.0641 0.230885,-0.0641 0.218059,0 0.336709,0.17637 0.11865,0.17958 0.11865,0.46819 0,0.15713 -0.03207,0.29181 -0.03207,0.13789 -0.08338,0.25654 l -0.224473,-0.0962 q 0.0449,-0.10903 0.07696,-0.22768 0.03207,-0.11865 0.03207,-0.24371 0,-0.17317 -0.05772,-0.26616 -0.05451,-0.0898 -0.150717,-0.0898 -0.07376,0 -0.121856,0.0417 -0.0481,0.0417 -0.0962,0.13789 -0.0481,0.0994 -0.109029,0.26295 -0.06093,0.16355 -0.125063,0.27899 -0.06413,0.11544 -0.157131,0.17637 -0.08979,0.0609 -0.227679,0.0609 z m -0.275781,0.99089 q 0,0.0641 0.0096,0.13147 0.0096,0.0673 0.02565,0.10903 H 9.231897 q -0.02245,-0.0449 -0.03527,-0.12827 -0.01603,-0.0834 -0.01603,-0.16034 0,-0.13468 0.0449,-0.25012 0.0481,-0.11224 0.163544,-0.18279 0.115443,-0.0706 0.323882,-0.0706 h 1.000505 v -0.24371 h 0.134684 l 0.112236,0.24692 0.36557,0.11224 v 0.16675 h -0.394431 v 0.49704 h -0.218059 v -0.49704 H 9.719336 q -0.157131,0 -0.234093,0.0738 -0.07376,0.077 -0.07376,0.19561 z m 1.552067,1.24742 q 0,0.21806 -0.0962,0.3784 -0.0962,0.16033 -0.272573,0.24371 -0.173165,0.0866 -0.407257,0.0866 h -0.169958 v -1.17688 q -0.291814,0.006 -0.445738,0.14751 -0.150718,0.14431 -0.150718,0.40085 0,0.16354 0.02886,0.28861 0.03207,0.12827 0.08979,0.26295 h -0.24692 q -0.05772,-0.13148 -0.08338,-0.25975 -0.02886,-0.12827 -0.02886,-0.30464 0,-0.24692 0.09941,-0.43291 0.09941,-0.18599 0.295021,-0.29181 0.195612,-0.10262 0.48422,-0.10262 0.282194,0 0.484219,0.093 0.202025,0.0962 0.311054,0.26616 0.10903,0.17316 0.10903,0.40084 z m -0.230886,-0.003 q 0,-0.20203 -0.131477,-0.32067 -0.12827,-0.11545 -0.359156,-0.13789 v 0.87544 q 0.218059,-0.003 0.352743,-0.10262 0.13789,-0.0994 0.13789,-0.31426 z"
     id="text4"
     style="font-size:12px;text-anchor:middle;fill:#ff0000;stroke:#ff0000;stroke-width:0.01"
     aria-label="teste"
     inkscape:engrave="0"
     inkscape:feed="50"
     inkscape:power="50" />
  <path
     d="m -1.7187037,-97.30288 q 0,0.0641 0.00962,0.13148 0.00962,0.0673 0.025654,0.10903 h -0.214852 q -0.022447,-0.0449 -0.035274,-0.12827 -0.016034,-0.0834 -0.016034,-0.16034 0,-0.13468 0.044894,-0.25012 0.048101,-0.11224 0.1635443,-0.18279 0.115443,-0.0705 0.3238817,-0.0705 h 1.0005058 v -0.24371 h 0.1346835 l 0.1122363,0.24692 0.3655694,0.11224 v 0.16675 h -0.3944302 v 0.49704 h -0.218059 v -0.49704 h -0.9940923 q -0.1571308,0 -0.2340927,0.0738 -0.073755,0.077 -0.073755,0.19561 z m 1.5520668,1.24743 q 0,0.21806 -0.096202,0.3784 -0.096202,0.16033 -0.2725737,0.24371 -0.1731645,0.0866 -0.4072572,0.0866 H -1.112628 v -1.17688 q -0.2918142,0.006 -0.4457382,0.14751 -0.1507172,0.14431 -0.1507172,0.40085 0,0.16354 0.028861,0.2886 0.032068,0.12827 0.089789,0.26296 h -0.2469197 q -0.057721,-0.13148 -0.083376,-0.25975 -0.028861,-0.12827 -0.028861,-0.30464 0,-0.24692 0.099409,-0.43291 0.099409,-0.18599 0.2950209,-0.29182 0.1956118,-0.10261 0.4842192,-0.10261 0.282194,0 0.4842192,0.093 0.2020252,0.0962 0.3110547,0.26616 0.1090295,0.17316 0.1090295,0.40084 z m -0.230886,-0.003 q 0,-0.20203 -0.1314767,-0.32067 -0.12827,-0.11545 -0.3591559,-0.13789 v 0.87544 q 0.2180589,-0.003 0.3527424,-0.10262 0.1378902,-0.0994 0.1378902,-0.31426 z m -1.0454003,2.26717 q -0.2501265,0 -0.3783965,-0.18599 -0.1282699,-0.18599 -0.1282699,-0.50026 0,-0.17957 0.028861,-0.31105 0.028861,-0.12827 0.080169,-0.22768 h 0.25654 q -0.051308,0.10262 -0.096202,0.24692 -0.041688,0.14751 -0.041688,0.29823 0,0.21485 0.067342,0.31105 0.070548,0.0962 0.1859915,0.0962 0.064135,0 0.1154429,-0.0353 0.051308,-0.0353 0.102616,-0.12827 0.051308,-0.0898 0.115443,-0.25974 0.064135,-0.16676 0.12827,-0.28541 0.064135,-0.11864 0.153924,-0.18278 0.089789,-0.0641 0.230886,-0.0641 0.2180589,0 0.3367087,0.17637 0.1186497,0.17958 0.1186497,0.46819 0,0.15713 -0.032067,0.29181 -0.032067,0.13789 -0.083376,0.25654 l -0.2244725,-0.0962 q 0.044894,-0.10903 0.076962,-0.22768 0.032067,-0.11865 0.032067,-0.24371 0,-0.17317 -0.057721,-0.26616 -0.054515,-0.0898 -0.1507172,-0.0898 -0.073755,0 -0.1218565,0.0417 -0.048101,0.0417 -0.096203,0.13789 -0.048101,0.0994 -0.1090294,0.26295 -0.060928,0.16355 -0.1250633,0.27899 -0.064135,0.11544 -0.1571307,0.17637 -0.089789,0.0609 -0.2276792,0.0609 z m -0.2757805,0.99089 q 0,0.0641 0.00962,0.13147 0.00962,0.0673 0.025654,0.10903 h -0.214852 q -0.022447,-0.0449 -0.035274,-0.12827 -0.016034,-0.0834 -0.016034,-0.16034 0,-0.13468 0.044894,-0.25012 0.048101,-0.11224 0.1635443,-0.18279 0.115443,-0.0706 0.3238817,-0.0706 h 1.0005058 v -0.24371 h 0.1346835 l 0.1122363,0.24692 0.3655694,0.11224 v 0.16675 h -0.3944302 v 0.49704 h -0.218059 v -0.49704 h -0.9940923 q -0.1571308,0 -0.2340927,0.0738 -0.073755,0.077 -0.073755,0.19561 z m 1.5520668,1.24742 q 0,0.21806 -0.096202,0.3784 -0.096202,0.16033 -0.2725737,0.24371 -0.1731645,0.0866 -0.4072572,0.0866 H -1.112628 v -1.17688 q -0.2918142,0.006 -0.4457382,0.14751 -0.1507172,0.14431 -0.1507172,0.40085 0,0.16354 0.028861,0.28861 0.032068,0.12827 0.089789,0.26295 h -0.2469197 q -0.057721,-0.13148 -0.083376,-0.25975 -0.028861,-0.12827 -0.028861,-0.30464 0,-0.24692 0.099409,-0.43291 0.099409,-0.18599 0.2950209,-0.29181 0.1956118,-0.10262 0.4842192,-0.10262 0.282194,0 0.4842192,0.093 0.2020252,0.0962 0.3110547,0.26616 0.1090295,0.17316 0.1090295,0.40084 z m -0.230886,-0.003 q 0,-0.20203 -0.1314767,-0.32067 -0.12827,-0.11545 -0.3591559,-0.13789 v 0.87544 q 0.2180589,-0.003 0.3527424,-0.10262 0.1378902,-0.0994 0.1378902,-0.31426 z"
     id="text5"
     style="font-size:12px;text-anchor:middle;fill:#ff0000;stroke:#ff0000;stroke-width:0.01"
     aria-label="teste"
     inkscape:engrave="0"
     inkscape:feed="50"
     inkscape:power="50" />
  <path
     d="m -12.848904,-97.30288 q 0,0.0641 0.0096,0.13148 0.0096,0.0673 0.02565,0.10903 h -0.214852 q -0.02245,-0.0449 -0.03527,-0.12827 -0.01603,-0.0834 -0.01603,-0.16034 0,-0.13468 0.04489,-0.25012 0.0481,-0.11224 0.163544,-0.18279 0.115443,-0.0705 0.323882,-0.0705 h 1.000505 v -0.24371 h 0.134705 l 0.112236,0.24692 0.36557,0.11224 v 0.16675 h -0.394431 v 0.49704 h -0.218059 v -0.49704 h -0.994092 q -0.157131,0 -0.234093,0.0738 -0.07375,0.077 -0.07375,0.19561 z m 1.552067,1.24743 q 0,0.21806 -0.0962,0.3784 -0.0962,0.16033 -0.272574,0.24371 -0.173164,0.0866 -0.407257,0.0866 h -0.169958 v -1.17688 q -0.291814,0.006 -0.445738,0.14751 -0.150718,0.14431 -0.150718,0.40085 0,0.16354 0.02886,0.2886 0.03207,0.12827 0.08979,0.26296 h -0.24692 q -0.05772,-0.13148 -0.08338,-0.25975 -0.02886,-0.12827 -0.02886,-0.30464 0,-0.24692 0.09941,-0.43291 0.09941,-0.18599 0.295021,-0.29182 0.195612,-0.10261 0.48422,-0.10261 0.282194,0 0.484219,0.093 0.202025,0.0962 0.311055,0.26616 0.109029,0.17316 0.109029,0.40084 z m -0.230886,-0.003 q 0,-0.20203 -0.131477,-0.32067 -0.12827,-0.11545 -0.359156,-0.13789 v 0.87544 q 0.218059,-0.003 0.352743,-0.10262 0.13789,-0.0994 0.13789,-0.31426 z m -1.0454,2.26717 q -0.250127,0 -0.378397,-0.18599 -0.12827,-0.18599 -0.12827,-0.50026 0,-0.17957 0.02886,-0.31105 0.02886,-0.12827 0.08017,-0.22768 h 0.25654 q -0.05131,0.10262 -0.0962,0.24692 -0.04169,0.14751 -0.04169,0.29823 0,0.21485 0.06734,0.31105 0.07055,0.0962 0.185992,0.0962 0.06414,0 0.115443,-0.0353 0.05131,-0.0353 0.102616,-0.12827 0.05131,-0.0898 0.115443,-0.25974 0.06414,-0.16676 0.12827,-0.28541 0.06414,-0.11864 0.153924,-0.18278 0.08979,-0.0641 0.230886,-0.0641 0.218059,0 0.336708,0.17637 0.11865,0.17958 0.11865,0.46819 0,0.15713 -0.03207,0.29181 -0.03207,0.13789 -0.08338,0.25654 l -0.224473,-0.0962 q 0.04489,-0.10903 0.07696,-0.22768 0.03207,-0.11865 0.03207,-0.24371 0,-0.17317 -0.05772,-0.26616 -0.05452,-0.0898 -0.150717,-0.0898 -0.07376,0 -0.121856,0.0417 -0.0481,0.0417 -0.0962,0.13789 -0.0481,0.0994 -0.10903,0.26295 -0.06093,0.16355 -0.125063,0.27899 -0.06413,0.11544 -0.157131,0.17637 -0.08979,0.0609 -0.227679,0.0609 z m -0.275781,0.99089 q 0,0.0641 0.0096,0.13147 0.0096,0.0673 0.02565,0.10903 h -0.214852 q -0.02245,-0.0449 -0.03527,-0.12827 -0.01603,-0.0834 -0.01603,-0.16034 0,-0.13468 0.04489,-0.25012 0.0481,-0.11224 0.163544,-0.18279 0.115443,-0.0706 0.323882,-0.0706 h 1.000505 v -0.24391 h 0.134705 l 0.112236,0.24692 0.36557,0.11224 v 0.16675 h -0.394431 v 0.49704 h -0.218059 v -0.49704 h -0.994092 q -0.157131,0 -0.234093,0.0738 -0.07375,0.077 -0.07375,0.19561 z m 1.552067,1.24742 q 0,0.21806 -0.0962,0.3784 -0.0962,0.16033 -0.272574,0.24371 -0.173164,0.0866 -0.407257,0.0866 h -0.169958 v -1.17688 q -0.291814,0.006 -0.445738,0.14751 -0.150718,0.14431 -0.150718,0.40085 0,0.16354 0.02886,0.28861 0.03207,0.12827 0.08979,0.26295 h -0.24692 q -0.05772,-0.13148 -0.08338,-0.25975 -0.02886,-0.12827 -0.02886,-0.30464 0,-0.24692 0.09941,-0.43291 0.09941,-0.18599 0.295021,-0.29181 0.195612,-0.10262 0.48422,-0.10262 0.282194,0 0.484219,0.093 0.202025,0.0962 0.311055,0.26616 0.109029,0.17316 0.109029,0.40084 z m -0.230886,-0.003 q 0,-0.20203 -0.131477,-0.32067 -0.12827,-0.11545 -0.359156,-0.13789 v 0.87544 q 0.218059,-0.003 0.352743,-0.10262 0.13789,-0.0994 0.13789,-0.31426 z"
     id="text6"
     style="font-size:12px;text-anchor:middle;fill:#ff0000;stroke:#ff0000;stroke-width:0.01"
     aria-label="teste"
     inkscape:engrave="0"
     inkscape:feed="50"
     inkscape:power="50" />
  <path
     d="m -23.979101,-97.30288 q 0,0.0641 0.0096,0.13148 0.0096,0.0673 0.02565,0.10903 h -0.214852 q -0.02245,-0.0449 -0.03528,-0.12827 -0.01603,-0.0834 -0.01603,-0.16034 0,-0.13468 0.04489,-0.25012 0.0481,-0.11224 0.163544,-0.18279 0.115443,-0.0705 0.323882,-0.0705 h 1.000506 v -0.24371 h 0.134683 l 0.112237,0.24692 0.365569,0.11224 v 0.16675 h -0.39443 v 0.49704 h -0.218059 v -0.49704 h -0.994092 q -0.157131,0 -0.234093,0.0738 -0.07375,0.077 -0.07375,0.19561 z m 1.552066,1.24743 q 0,0.21806 -0.0962,0.3784 -0.0962,0.16033 -0.272574,0.24371 -0.173164,0.0866 -0.407257,0.0866 h -0.169958 v -1.17688 q -0.291814,0.006 -0.445738,0.14751 -0.150717,0.14431 -0.150717,0.40085 0,0.16354 0.02886,0.2886 0.03207,0.12827 0.08979,0.26296 h -0.24692 q -0.05772,-0.13148 -0.08338,-0.25975 -0.02886,-0.12827 -0.02886,-0.30464 0,-0.24692 0.09941,-0.43291 0.09941,-0.18599 0.295021,-0.29182 0.195612,-0.10261 0.484219,-0.10261 0.282194,0 0.484219,0.093 0.202025,0.0962 0.311055,0.26616 0.109029,0.17316 0.109029,0.40084 z m -0.230886,-0.003 q 0,-0.20203 -0.131476,-0.32067 -0.12827,-0.11545 -0.359156,-0.13789 v 0.87544 q 0.218059,-0.003 0.352742,-0.10262 0.13789,-0.0994 0.13789,-0.31426 z m -1.0454,2.26717 q -0.250126,0 -0.378396,-0.18599 -0.12827,-0.18599 -0.12827,-0.50026 0,-0.17957 0.02886,-0.31105 0.02886,-0.12827 0.08017,-0.22768 h 0.25654 q -0.05131,0.10262 -0.0962,0.24692 -0.04169,0.14751 -0.04169,0.29823 0,0.21485 0.06734,0.31105 0.07055,0.0962 0.185991,0.0962 0.06413,0 0.115443,-0.0353 0.05131,-0.0353 0.102616,-0.12827 0.05131,-0.0898 0.115443,-0.25974 0.06414,-0.16676 0.12827,-0.28541 0.06414,-0.11864 0.153924,-0.18278 0.08979,-0.0641 0.230886,-0.0641 0.218059,0 0.336709,0.17637 0.118649,0.17958 0.118649,0.46819 0,0.15713 -0.03207,0.29181 -0.03207,0.13789 -0.08338,0.25654 l -0.224472,-0.0962 q 0.0449,-0.10903 0.07696,-0.22768 0.03207,-0.11865 0.03207,-0.24371 0,-0.17317 -0.05772,-0.26616 -0.05452,-0.0898 -0.150717,-0.0898 -0.07376,0 -0.121857,0.0417 -0.0481,0.0417 -0.0962,0.13789 -0.0481,0.0994 -0.10903,0.26295 -0.06093,0.16355 -0.125063,0.27899 -0.06414,0.11544 -0.157131,0.17637 -0.08979,0.0609 -0.227679,0.0609 z m -0.27578,0.99089 q 0,0.0641 0.0096,0.13147 0.0096,0.0673 0.02565,0.10903 h -0.214852 q -0.02245,-0.0449 -0.03528,-0.12827 -0.01603,-0.0834 -0.01603,-0.16034 0,-0.13468 0.04489,-0.25012 0.0481,-0.11224 0.163544,-0.18279 0.115443,-0.0706 0.323882,-0.0706 h 1.000506 v -0.24371 h 0.134683 l 0.112237,0.24692 0.365569,0.11224 v 0.16675 h -0.39443 v 0.49704 h -0.218059 v -0.49704 h -0.994092 q -0.157131,0 -0.234093,0.0738 -0.07375,0.077 -0.07375,0.19561 z m 1.552066,1.24742 q 0,0.21806 -0.0962,0.3784 -0.0962,0.16033 -0.272574,0.24371 -0.173164,0.0866 -0.407257,0.0866 h -0.169958 v -1.17688 q -0.291814,0.006 -0.445738,0.14751 -0.150717,0.14431 -0.150717,0.40085 0,0.16354 0.02886,0.28861 0.03207,0.12827 0.08979,0.26295 h -0.24692 q -0.05772,-0.13148 -0.08338,-0.25975 -0.02886,-0.12827 -0.02886,-0.30464 0,-0.24692 0.09941,-0.43291 0.09941,-0.18599 0.295021,-0.29181 0.195612,-0.10262 0.484219,-0.10262 0.282194,0 0.484219,0.093 0.202025,0.0962 0.311055,0.26616 0.109029,0.17316 0.109029,0.40084 z m -0.230886,-0.003 q 0,-0.20203 -0.131476,-0.32067 -0.12827,-0.11545 -0.359156,-0.13789 v 0.87544 q 0.218059,-0.003 0.352742,-0.10262 0.13789,-0.0994 0.13789,-0.31426 z"
     id="text7"
     style="font-size:12px;text-anchor:middle;fill:#ff0000;stroke:#ff0000;stroke-width:0.01"
     aria-label="teste"
     inkscape:engrave="0"
     inkscape:feed="50"
     inkscape:power="50" />
  <path
     d="m -35.109299,-97.30288 q 0,0.0641 0.0096,0.13148 0.0096,0.0673 0.02565,0.10903 h -0.214852 q -0.02245,-0.0449 -0.03527,-0.12827 -0.01603,-0.0834 -0.01603,-0.16034 0,-0.13468 0.04489,-0.25012 0.0481,-0.11224 0.163544,-0.18279 0.115443,-0.0705 0.323882,-0.0705 h 1.000506 v -0.24371 h 0.134683 l 0.112236,0.24692 0.36557,0.11224 v 0.16675 h -0.39441 v 0.49704 h -0.218058 v -0.49704 h -0.994093 q -0.157131,0 -0.234093,0.0738 -0.07375,0.077 -0.07375,0.19561 z m 1.552067,1.24743 q 0,0.21806 -0.0962,0.3784 -0.0962,0.16033 -0.272573,0.24371 -0.173165,0.0866 -0.407257,0.0866 h -0.169958 v -1.17688 q -0.291814,0.006 -0.445738,0.14751 -0.150718,0.14431 -0.150718,0.40085 0,0.16354 0.02886,0.2886 0.03207,0.12827 0.08979,0.26296 h -0.24692 q -0.05772,-0.13148 -0.08337,-0.25975 -0.02886,-0.12827 -0.02886,-0.30464 0,-0.24692 0.09941,-0.43291 0.09941,-0.18599 0.295021,-0.29182 0.195612,-0.10261 0.48422,-0.10261 0.282194,0 0.484219,0.093 0.202025,0.0962 0.311054,0.26616 0.10903,0.17316 0.10903,0.40084 z m -0.230886,-0.003 q 0,-0.20203 -0.131477,-0.32067 -0.12827,-0.11545 -0.359156,-0.13789 v 0.87544 q 0.218059,-0.003 0.352743,-0.10262 0.13789,-0.0994 0.13789,-0.31426 z m -1.0454,2.26717 q -0.250127,0 -0.378397,-0.18599 -0.12827,-0.18599 -0.12827,-0.50026 0,-0.17957 0.02886,-0.31105 0.02886,-0.12827 0.08017,-0.22768 h 0.25654 q -0.05131,0.10262 -0.0962,0.24692 -0.04169,0.14751 -0.04169,0.29823 0,0.21485 0.06734,0.31105 0.07055,0.0962 0.185992,0.0962 0.06414,0 0.115443,-0.0353 0.05131,-0.0353 0.102616,-0.12827 0.05131,-0.0898 0.115443,-0.25974 0.06414,-0.16676 0.12827,-0.28541 0.06414,-0.11864 0.153924,-0.18278 0.08979,-0.0641 0.230886,-0.0641 0.218059,0 0.336708,0.17637 0.11865,0.17958 0.11865,0.46819 0,0.15713 -0.03207,0.29181 -0.03207,0.13789 -0.08338,0.25654 l -0.224472,-0.0962 q 0.04489,-0.10903 0.07696,-0.22768 0.03207,-0.11865 0.03207,-0.24371 0,-0.17317 -0.05772,-0.26616 -0.05451,-0.0898 -0.150718,-0.0898 -0.07376,0 -0.121856,0.0417 -0.0481,0.0417 -0.0962,0.13789 -0.0481,0.0994 -0.109029,0.26295 -0.06093,0.16355 -0.125063,0.27899 -0.06413,0.11544 -0.157131,0.17637 -0.08979,0.0609 -0.227679,0.0609 z m -0.275781,0.99089 q 0,0.0641 0.0096,0.13147 0.0096,0.0673 0.02565,0.10903 h -0.214852 q -0.02245,-0.0449 -0.03527,-0.12827 -0.01603,-0.0834 -0.01603,-0.16034 0,-0.13468 0.04489,-0.25012 0.0481,-0.11224 0.163544,-0.18279 0.115443,-0.0706 0.323882,-0.0706 h 1.000506 v -0.24371 h 0.134683 l 0.112236,0.24692 0.36557,0.11224 v 0.16675 h -0.39441 v 0.49704 h -0.218058 v -0.49704 h -0.994093 q -0.157131,0 -0.234093,0.0738 -0.07375,0.077 -0.07375,0.19561 z m 1.552067,1.24742 q 0,0.21806 -0.0962,0.3784 -0.0962,0.16033 -0.272573,0.24371 -0.173165,0.0866 -0.407257,0.0866 h -0.169958 v -1.17688 q -0.291814,0.006 -0.445738,0.14751 -0.150718,0.14431 -0.150718,0.40085 0,0.16354 0.02886,0.28861 0.03207,0.12827 0.08979,0.26295 h -0.24692 q -0.05772,-0.13148 -0.08337,-0.25975 -0.02886,-0.12827 -0.02886,-0.30464 0,-0.24692 0.09941,-0.43291 0.09941,-0.18599 0.295021,-0.29181 0.195612,-0.10262 0.48422,-0.10262 0.282194,0 0.484219,0.093 0.202025,0.0962 0.311054,0.26616 0.10903,0.17316 0.10903,0.40084 z m -0.230886,-0.003 q 0,-0.20203 -0.131477,-0.32067 -0.12827,-0.11545 -0.359156,-0.13789 v 0.87544 q 0.218059,-0.003 0.352743,-0.10262 0.13789,-0.0994 0.13789,-0.31426 z"
     id="text8"
     style="font-size:12px;text-anchor:middle;fill:#ff0000;stroke:#ff0000;stroke-width:0.01"
     aria-label="teste"
     inkscape:engrave="0"
     inkscape:feed="50"
     inkscape:power="50" />
  <path
     d="m -46.239504,-97.30288 q 0,0.0641 0.0096,0.13148 0.0096,0.0673 0.02565,0.10903 h -0.214852 q -0.02245,-0.0449 -0.03527,-0.12827 -0.01603,-0.0834 -0.01603,-0.16034 0,-0.13468 0.04489,-0.25012 0.0481,-0.11224 0.163544,-0.18279 0.115443,-0.0705 0.323882,-0.0705 h 1.000506 v -0.24371 h 0.134683 l 0.112237,0.24692 0.365569,0.11224 v 0.16675 h -0.39443 v 0.49704 h -0.218059 v -0.49704 h -0.994092 q -0.157131,0 -0.234093,0.0738 -0.07375,0.077 -0.07375,0.19561 z m 1.552066,1.24743 q 0,0.21806 -0.0962,0.3784 -0.0962,0.16033 -0.272574,0.24371 -0.173164,0.0866 -0.407257,0.0866 h -0.169958 v -1.17688 q -0.291814,0.006 -0.445738,0.14751 -0.150717,0.14431 -0.150717,0.40085 0,0.16354 0.02886,0.2886 0.03207,0.12827 0.08979,0.26296 h -0.24692 q -0.05772,-0.13148 -0.08338,-0.25975 -0.02886,-0.12827 -0.02886,-0.30464 0,-0.24692 0.09941,-0.43291 0.09941,-0.18599 0.295021,-0.29182 0.195612,-0.10261 0.484219,-0.10261 0.282194,0 0.484219,0.093 0.202026,0.0962 0.311055,0.26616 0.109029,0.17316 0.10903,0.40084 z m -0.230885,-0.003 q 0,-0.20203 -0.131477,-0.32067 -0.12827,-0.11545 -0.359156,-0.13789 v 0.87544 q 0.218059,-0.003 0.352742,-0.10262 0.137891,-0.0994 0.137891,-0.31426 z m -1.045401,2.26717 q -0.250126,0 -0.378396,-0.18599 -0.12827,-0.18599 -0.12827,-0.50026 0,-0.17957 0.02886,-0.31105 0.02886,-0.12827 0.08017,-0.22768 h 0.25654 q -0.05131,0.10262 -0.0962,0.24692 -0.04169,0.14751 -0.04169,0.29823 0,0.21485 0.06734,0.31105 0.07055,0.0962 0.185991,0.0962 0.06414,0 0.115443,-0.0353 0.05131,-0.0353 0.102616,-0.12827 0.05131,-0.0898 0.115443,-0.25974 0.06414,-0.16676 0.12827,-0.28541 0.06414,-0.11864 0.153924,-0.18278 0.08979,-0.0641 0.230886,-0.0641 0.218059,0 0.336709,0.17637 0.118649,0.17958 0.118649,0.46819 0,0.15713 -0.03207,0.29181 -0.03207,0.13789 -0.08338,0.25654 l -0.224472,-0.0962 q 0.04489,-0.10903 0.07696,-0.22768 0.03207,-0.11865 0.03207,-0.24371 0,-0.17317 -0.05772,-0.26616 -0.05452,-0.0898 -0.150717,-0.0898 -0.07375,0 -0.121857,0.0417 -0.0481,0.0417 -0.0962,0.13789 -0.0481,0.0994 -0.10903,0.26295 -0.06093,0.16355 -0.125063,0.27899 -0.06414,0.11544 -0.157131,0.17637 -0.08979,0.0609 -0.227679,0.0609 z m -0.27578,0.99089 q 0,0.0641 0.0096,0.13147 0.0096,0.0673 0.02565,0.10903 h -0.214852 q -0.02245,-0.0449 -0.03527,-0.12827 -0.01603,-0.0834 -0.01603,-0.16034 0,-0.13468 0.04489,-0.25012 0.0481,-0.11224 0.163544,-0.18279 0.115443,-0.0706 0.323882,-0.0706 h 1.000506 v -0.24371 h 0.134683 l 0.112237,0.24692 0.365569,0.11224 v 0.16675 h -0.39443 v 0.49704 h -0.218059 v -0.49704 h -0.994092 q -0.157131,0 -0.234093,0.0738 -0.07375,0.077 -0.07375,0.19561 z m 1.552066,1.24742 q 0,0.21806 -0.0962,0.3784 -0.0962,0.16033 -0.272574,0.24371 -0.173164,0.0866 -0.407257,0.0866 h -0.169958 v -1.17688 q -0.291814,0.006 -0.445738,0.14751 -0.150717,0.14431 -0.150717,0.40085 0,0.16354 0.02886,0.28861 0.03207,0.12827 0.08979,0.26295 h -0.24692 q -0.05772,-0.13148 -0.08338,-0.25975 -0.02886,-0.12827 -0.02886,-0.30464 0,-0.24692 0.09941,-0.43291 0.09941,-0.18599 0.295021,-0.29181 0.195612,-0.10262 0.484219,-0.10262 0.282194,0 0.484219,0.093 0.202026,0.0962 0.311055,0.26616 0.109029,0.17316 0.109029,0.40084 z m -0.230885,-0.003 q 0,-0.20203 -0.131477,-0.32067 -0.12827,-0.11545 -0.359156,-0.13789 v 0.87544 q 0.218059,-0.003 0.352742,-0.10262 0.137891,-0.0994 0.137891,-0.31426 z"
     id="text9"
     style="font-size:12px;text-anchor:middle;fill:#ff0000;stroke:#ff0000;stroke-width:0.01"
     aria-label="teste"
     inkscape:engrave="0"
     inkscape:feed="50"
     inkscape:power="50" />
  <path
     d="m -57.369678,-97.30288 q 0,0.0641 0.0096,0.13148 0.0096,0.0673 0.02565,0.10903 h -0.214853 q -0.02245,-0.0449 -0.03527,-0.12827 -0.01603,-0.0834 -0.01603,-0.16034 0,-0.13468 0.04489,-0.25012 0.0481,-0.11224 0.163544,-0.18279 0.115443,-0.0705 0.323882,-0.0705 h 1.000506 v -0.24371 h 0.134683 l 0.112236,0.24692 0.36557,0.11224 v 0.16675 h -0.39443 v 0.49704 h -0.218059 v -0.49704 h -0.994093 q -0.157131,0 -0.234093,0.0738 -0.07375,0.077 -0.07375,0.19561 z m 1.552067,1.24743 q 0,0.21806 -0.0962,0.3784 -0.0962,0.16033 -0.272574,0.24371 -0.173165,0.0866 -0.407257,0.0866 H -56.7636 v -1.17688 q -0.291814,0.006 -0.445738,0.14751 -0.150717,0.14431 -0.150717,0.40085 0,0.16354 0.02886,0.2886 0.03207,0.12827 0.08979,0.26296 h -0.246919 q -0.05772,-0.13148 -0.08338,-0.25975 -0.02886,-0.12827 -0.02886,-0.30464 0,-0.24692 0.09941,-0.43291 0.09941,-0.18599 0.29502,-0.29182 0.195612,-0.10261 0.48422,-0.10261 0.282194,0 0.484219,0.093 0.202025,0.0962 0.311055,0.26616 0.109029,0.17316 0.109029,0.40084 z m -0.230886,-0.003 q 0,-0.20203 -0.131477,-0.32067 -0.12827,-0.11545 -0.359156,-0.13789 v 0.87544 q 0.218059,-0.003 0.352743,-0.10262 0.13789,-0.0994 0.13789,-0.31426 z m -1.0454,2.26717 q -0.250127,0 -0.378397,-0.18599 -0.12827,-0.18599 -0.12827,-0.50026 0,-0.17957 0.02886,-0.31105 0.02886,-0.12827 0.08017,-0.22768 h 0.25654 q -0.05131,0.10262 -0.0962,0.24692 -0.04169,0.14751 -0.04169,0.29823 0,0.21485 0.06734,0.31105 0.07055,0.0962 0.185992,0.0962 0.06414,0 0.115443,-0.0353 0.05131,-0.0353 0.102616,-0.12827 0.05131,-0.0898 0.115443,-0.25974 0.06414,-0.16676 0.12827,-0.28541 0.06414,-0.11864 0.153924,-0.18278 0.08979,-0.0641 0.230886,-0.0641 0.218059,0 0.336708,0.17637 0.11865,0.17958 0.11865,0.46819 0,0.15713 -0.03207,0.29181 -0.03207,0.13789 -0.08338,0.25654 l -0.224472,-0.0962 q 0.04489,-0.10903 0.07696,-0.22768 0.03207,-0.11865 0.03207,-0.24371 0,-0.17317 -0.05772,-0.26616 -0.05452,-0.0898 -0.150718,-0.0898 -0.07375,0 -0.121856,0.0417 -0.0481,0.0417 -0.0962,0.13789 -0.0481,0.0994 -0.109029,0.26295 -0.06093,0.16355 -0.125063,0.27899 -0.06414,0.11544 -0.157131,0.17637 -0.08979,0.0609 -0.227679,0.0609 z m -0.275781,0.99089 q 0,0.0641 0.0096,0.13147 0.0096,0.0673 0.02565,0.10903 h -0.214853 q -0.02245,-0.0449 -0.03527,-0.12827 -0.01603,-0.0834 -0.01603,-0.16034 0,-0.13468 0.04489,-0.25012 0.0481,-0.11224 0.163544,-0.18279 0.115443,-0.0706 0.323882,-0.0706 h 1.000506 v -0.24371 h 0.134683 l 0.112236,0.24692 0.36557,0.11224 v 0.16675 h -0.39443 v 0.49704 h -0.218059 v -0.49704 h -0.994093 q -0.157131,0 -0.234093,0.0738 -0.07375,0.077 -0.07375,0.19561 z m 1.552067,1.24742 q 0,0.21806 -0.0962,0.3784 -0.0962,0.16033 -0.272574,0.24371 -0.173165,0.0866 -0.407257,0.0866 H -56.7636 v -1.17688 q -0.291814,0.006 -0.445738,0.14751 -0.150717,0.14431 -0.150717,0.40085 0,0.16354 0.02886,0.28861 0.03207,0.12827 0.08979,0.26295 h -0.246919 q -0.05772,-0.13148 -0.08338,-0.25975 -0.02886,-0.12827 -0.02886,-0.30464 0,-0.24692 0.09941,-0.43291 0.09941,-0.18599 0.29502,-0.29181 0.195612,-0.10262 0.48422,-0.10262 0.282194,0 0.484219,0.093 0.202025,0.0962 0.311055,0.26616 0.109029,0.17316 0.109029,0.40084 z m -0.230886,-0.003 q 0,-0.20203 -0.131477,-0.32067 -0.12827,-0.11545 -0.359156,-0.13789 v 0.87544 q 0.218059,-0.003 0.352743,-0.10262 0.13789,-0.0994 0.13789,-0.31426 z"
     id="text10"
     style="font-size:12px;text-anchor:middle;fill:#ff0000;stroke:#ff0000;stroke-width:0.01"
     aria-label="teste"
     inkscape:engrave="0"
     inkscape:feed="50"
     inkscape:power="50" />
  <path
     d="m 48.094503,-70.477272 q 0,0.06413 0.0096,0.131477 0.0096,0.06734 0.02565,0.10903 h -0.214852 q -0.02245,-0.04489 -0.03527,-0.12827 -0.01603,-0.08338 -0.01603,-0.160338 0,-0.134683 0.0449,-0.250126 0.0481,-0.112237 0.163544,-0.182785 0.115443,-0.07055 0.323882,-0.07055 h 1.000505 v -0.243713 h 0.134684 l 0.112236,0.24692 0.36557,0.112236 v 0.166751 h -0.394431 v 0.497047 H 49.396432 V -70.74664 H 48.40234 q -0.157131,0 -0.234093,0.07376 -0.07375,0.07696 -0.07375,0.195611 z m 1.552067,1.247426 q 0,0.218059 -0.0962,0.378396 -0.0962,0.160338 -0.272573,0.243713 -0.173165,0.08658 -0.407258,0.08658 h -0.169957 v -1.176878 q -0.291814,0.0064 -0.445738,0.147511 -0.150718,0.144304 -0.150718,0.400844 0,0.163544 0.02886,0.288607 0.03207,0.12827 0.08979,0.262954 h -0.24692 q -0.05772,-0.131477 -0.08338,-0.259747 -0.02886,-0.12827 -0.02886,-0.304641 0,-0.24692 0.09941,-0.432912 0.09941,-0.185991 0.295021,-0.291814 0.195612,-0.102616 0.484219,-0.102616 0.282194,0 0.48422,0.093 0.202025,0.0962 0.311054,0.26616 0.10903,0.173165 0.10903,0.400843 z m -0.230886,-0.0032 q 0,-0.202025 -0.131477,-0.320675 -0.12827,-0.115443 -0.359156,-0.13789 v 0.875443 q 0.218059,-0.0032 0.352743,-0.102616 0.13789,-0.09941 0.13789,-0.314262 z m -1.0454,2.267169 q -0.250127,0 -0.378397,-0.185991 -0.12827,-0.185991 -0.12827,-0.500253 0,-0.179578 0.02886,-0.311055 0.02886,-0.12827 0.08017,-0.227679 h 0.25654 q -0.05131,0.102616 -0.0962,0.24692 -0.04169,0.14751 -0.04169,0.298228 0,0.214852 0.06734,0.311054 0.07055,0.0962 0.185992,0.0962 0.06414,0 0.115443,-0.03528 0.05131,-0.03527 0.102615,-0.128269 0.05131,-0.08979 0.115443,-0.259747 0.06414,-0.166751 0.12827,-0.285401 0.06414,-0.11865 0.153924,-0.182785 0.08979,-0.06413 0.230886,-0.06413 0.218059,0 0.336709,0.176372 0.11865,0.179578 0.11865,0.468185 0,0.157131 -0.03207,0.291814 -0.03207,0.13789 -0.08338,0.25654 l -0.224473,-0.0962 q 0.04489,-0.10903 0.07696,-0.22768 0.03207,-0.118649 0.03207,-0.243712 0,-0.173165 -0.05772,-0.266161 -0.05451,-0.08979 -0.150717,-0.08979 -0.07375,0 -0.121856,0.04169 -0.0481,0.04169 -0.0962,0.13789 -0.0481,0.09941 -0.109029,0.262954 -0.06093,0.163544 -0.125064,0.278987 -0.06414,0.115443 -0.15713,0.176371 -0.08979,0.06093 -0.227679,0.06093 z m -0.275781,0.990886 q 0,0.06414 0.0096,0.131477 0.0096,0.06734 0.02565,0.109029 h -0.214852 q -0.02245,-0.04489 -0.03527,-0.12827 -0.01603,-0.08338 -0.01603,-0.160337 0,-0.134684 0.0449,-0.250127 0.0481,-0.112236 0.163544,-0.182784 0.115443,-0.07055 0.323882,-0.07055 h 1.000505 v -0.243713 h 0.134684 l 0.112236,0.24692 0.36557,0.112236 v 0.166751 h -0.394431 v 0.497046 h -0.218059 v -0.497046 H 48.40234 q -0.157131,0 -0.234093,0.07375 -0.07375,0.07696 -0.07375,0.195612 z m 1.552067,1.247426 q 0,0.218059 -0.0962,0.378396 -0.0962,0.160338 -0.272573,0.243713 -0.173165,0.08658 -0.407258,0.08658 h -0.169957 v -1.176877 q -0.291814,0.0064 -0.445738,0.147511 -0.150718,0.144303 -0.150718,0.400843 0,0.163545 0.02886,0.288608 0.03207,0.12827 0.08979,0.262953 h -0.24692 q -0.05772,-0.131476 -0.08338,-0.259746 -0.02886,-0.12827 -0.02886,-0.304642 0,-0.246919 0.09941,-0.432911 0.09941,-0.185991 0.295021,-0.291814 0.195612,-0.102616 0.484219,-0.102616 0.282194,0 0.48422,0.093 0.202025,0.0962 0.311054,0.26616 0.10903,0.173164 0.10903,0.400844 z m -0.230886,-0.0032 q 0,-0.202025 -0.131477,-0.320675 -0.12827,-0.115443 -0.359156,-0.13789 v 0.875442 q 0.218059,-0.0032 0.352743,-0.102616 0.13789,-0.09941 0.13789,-0.314261 z"
     id="text11"
     style="font-size:12px;text-anchor:middle;fill:#ff0000;stroke:#ff0000;stroke-width:0.01"
     aria-label="teste"
     inkscape:engrave="0"
     inkscape:feed="50"
     inkscape:power="50" />
  <path
     d="m 36.964306,-70.477272 q 0,0.06413 0.0096,0.131477 0.0096,0.06734 0.02565,0.10903 h -0.214853 q -0.02245,-0.04489 -0.03527,-0.12827 -0.01603,-0.08338 -0.01603,-0.160338 0,-0.134683 0.04489,-0.250126 0.0481,-0.112237 0.163544,-0.182785 0.115443,-0.07055 0.323882,-0.07055 h 1.000506 v -0.243713 h 0.134683 l 0.112236,0.24692 0.36557,0.112236 v 0.166751 h -0.39443 v 0.497047 h -0.218059 v -0.497047 h -0.994093 q -0.15713,0 -0.234092,0.07376 -0.07376,0.07696 -0.07376,0.195611 z m 1.552067,1.247426 q 0,0.218059 -0.0962,0.378396 -0.0962,0.160338 -0.272574,0.243713 -0.173165,0.08658 -0.407257,0.08658 h -0.169958 v -1.176878 q -0.291814,0.0064 -0.445738,0.147511 -0.150717,0.144304 -0.150717,0.400844 0,0.163544 0.02886,0.288607 0.03207,0.12827 0.08979,0.262954 H 36.84566 q -0.05772,-0.131477 -0.08338,-0.259747 -0.02886,-0.12827 -0.02886,-0.304641 0,-0.24692 0.09941,-0.432912 0.09941,-0.185991 0.295021,-0.291814 0.195611,-0.102616 0.484219,-0.102616 0.282194,0 0.484219,0.093 0.202025,0.0962 0.311055,0.26616 0.109029,0.173165 0.109029,0.400843 z m -0.230886,-0.0032 q 0,-0.202025 -0.131477,-0.320675 -0.12827,-0.115443 -0.359155,-0.13789 v 0.875443 q 0.218058,-0.0032 0.352742,-0.102616 0.13789,-0.09941 0.13789,-0.314262 z m -1.0454,2.267169 q -0.250127,0 -0.378397,-0.185991 -0.12827,-0.185991 -0.12827,-0.500253 0,-0.179578 0.02886,-0.311055 0.02886,-0.12827 0.08017,-0.227679 h 0.25654 q -0.05131,0.102616 -0.0962,0.24692 -0.04169,0.14751 -0.04169,0.298228 0,0.214852 0.06734,0.311054 0.07055,0.0962 0.185992,0.0962 0.06414,0 0.115443,-0.03528 0.05131,-0.03527 0.102616,-0.128269 0.05131,-0.08979 0.115443,-0.259747 0.06414,-0.166751 0.12827,-0.285401 0.06414,-0.11865 0.153924,-0.182785 0.08979,-0.06413 0.230886,-0.06413 0.218059,0 0.336708,0.176372 0.11865,0.179578 0.11865,0.468185 0,0.157131 -0.03207,0.291814 -0.03207,0.13789 -0.08338,0.25654 l -0.224472,-0.0962 q 0.04489,-0.10903 0.07696,-0.22768 0.03207,-0.118649 0.03207,-0.243712 0,-0.173165 -0.05772,-0.266161 -0.05452,-0.08979 -0.150718,-0.08979 -0.07375,0 -0.121856,0.04169 -0.0481,0.04169 -0.0962,0.13789 -0.0481,0.09941 -0.109029,0.262954 -0.06093,0.163544 -0.125063,0.278987 -0.06414,0.115443 -0.157131,0.176371 -0.08979,0.06093 -0.227679,0.06093 z m -0.275781,0.990886 q 0,0.06414 0.0096,0.131477 0.0096,0.06734 0.02565,0.109029 h -0.214853 q -0.02245,-0.04489 -0.03527,-0.12827 -0.01603,-0.08338 -0.01603,-0.160337 0,-0.134684 0.04489,-0.250127 0.0481,-0.112236 0.163544,-0.182784 0.115443,-0.07055 0.323882,-0.07055 h 1.000506 v -0.243713 h 0.134683 l 0.112236,0.24692 0.36557,0.112236 v 0.166751 h -0.39443 v 0.497046 h -0.218059 v -0.497046 h -0.994093 q -0.15713,0 -0.234092,0.07375 -0.07376,0.07696 -0.07376,0.195612 z m 1.552067,1.247426 q 0,0.218059 -0.0962,0.378396 -0.0962,0.160338 -0.272574,0.243713 -0.173165,0.08658 -0.407257,0.08658 h -0.169958 v -1.176877 q -0.291814,0.0064 -0.445738,0.147511 -0.150717,0.144303 -0.150717,0.400843 0,0.163545 0.02886,0.288608 0.03207,0.12827 0.08979,0.262953 H 36.84566 q -0.05772,-0.131476 -0.08338,-0.259746 -0.02886,-0.12827 -0.02886,-0.304642 0,-0.246919 0.09941,-0.432911 0.09941,-0.185991 0.295021,-0.291814 0.195611,-0.102616 0.484219,-0.102616 0.282194,0 0.484219,0.093 0.202025,0.0962 0.311055,0.26616 0.109029,0.173164 0.109029,0.400844 z m -0.230886,-0.0032 q 0,-0.202025 -0.131477,-0.320675 -0.12827,-0.115443 -0.359155,-0.13789 v 0.875442 q 0.218058,-0.0032 0.352742,-0.102616 0.13789,-0.09941 0.13789,-0.314261 z"
     id="text12"
     style="font-size:12px;text-anchor:middle;fill:#ff0000;stroke:#ff0000;stroke-width:0.01"
     aria-label="teste"
     inkscape:engrave="0"
     inkscape:feed="50"
     inkscape:power="50" />
  <path
     d="m 25.834119,-70.477272 q 0,0.06413 0.0096,0.131477 0.0096,0.06734 0.02565,0.10903 h -0.214852 q -0.02245,-0.04489 -0.03527,-0.12827 -0.01603,-0.08338 -0.01603,-0.160338 0,-0.134683 0.04489,-0.250126 0.0481,-0.112237 0.163545,-0.182785 0.115443,-0.07055 0.323881,-0.07055 h 1.000506 v -0.243713 h 0.134684 l 0.112236,0.24692 0.365569,0.112236 v 0.166751 h -0.39443 v 0.497047 h -0.218059 v -0.497047 h -0.994092 q -0.157131,0 -0.234093,0.07376 -0.07375,0.07696 -0.07375,0.195611 z m 1.552067,1.247426 q 0,0.218059 -0.0962,0.378396 -0.0962,0.160338 -0.272574,0.243713 -0.173164,0.08658 -0.407257,0.08658 h -0.169958 v -1.176878 q -0.291814,0.0064 -0.445738,0.147511 -0.150717,0.144304 -0.150717,0.400844 0,0.163544 0.02886,0.288607 0.03207,0.12827 0.08979,0.262954 h -0.24692 q -0.05772,-0.131477 -0.08338,-0.259747 -0.02886,-0.12827 -0.02886,-0.304641 0,-0.24692 0.09941,-0.432912 0.09941,-0.185991 0.295021,-0.291814 0.195612,-0.102616 0.484219,-0.102616 0.282194,0 0.484219,0.093 0.202026,0.0962 0.311055,0.26616 0.10903,0.173165 0.10903,0.400843 z m -0.230886,-0.0032 q 0,-0.202025 -0.131477,-0.320675 -0.12827,-0.115443 -0.359156,-0.13789 v 0.875443 q 0.218059,-0.0032 0.352742,-0.102616 0.137891,-0.09941 0.137891,-0.314262 z m -1.045401,2.267169 q -0.250126,0 -0.378396,-0.185991 -0.12827,-0.185991 -0.12827,-0.500253 0,-0.179578 0.02886,-0.311055 0.02886,-0.12827 0.08017,-0.227679 h 0.25654 q -0.05131,0.102616 -0.0962,0.24692 -0.04169,0.14751 -0.04169,0.298228 0,0.214852 0.06734,0.311054 0.07055,0.0962 0.185991,0.0962 0.06414,0 0.115443,-0.03528 0.05131,-0.03527 0.102616,-0.128269 0.05131,-0.08979 0.115443,-0.259747 0.06414,-0.166751 0.12827,-0.285401 0.06414,-0.11865 0.153924,-0.182785 0.08979,-0.06413 0.230886,-0.06413 0.218059,0 0.336709,0.176372 0.11865,0.179578 0.11865,0.468185 0,0.157131 -0.03207,0.291814 -0.03207,0.13789 -0.08338,0.25654 l -0.224473,-0.0962 q 0.0449,-0.10903 0.07696,-0.22768 0.03207,-0.118649 0.03207,-0.243712 0,-0.173165 -0.05772,-0.266161 -0.05451,-0.08979 -0.150717,-0.08979 -0.07375,0 -0.121857,0.04169 -0.0481,0.04169 -0.0962,0.13789 -0.0481,0.09941 -0.10903,0.262954 -0.06093,0.163544 -0.125063,0.278987 -0.06414,0.115443 -0.157131,0.176371 -0.08979,0.06093 -0.227679,0.06093 z m -0.27578,0.990886 q 0,0.06414 0.0096,0.131477 0.0096,0.06734 0.02565,0.109029 h -0.214852 q -0.02245,-0.04489 -0.03527,-0.12827 -0.01603,-0.08338 -0.01603,-0.160337 0,-0.134684 0.04489,-0.250127 0.0481,-0.112236 0.163545,-0.182784 0.115443,-0.07055 0.323881,-0.07055 h 1.000506 v -0.243713 h 0.134684 l 0.112236,0.24692 0.365569,0.112236 v 0.166751 h -0.39443 v 0.497046 h -0.218059 v -0.497046 h -0.994092 q -0.157131,0 -0.234093,0.07375 -0.07375,0.07696 -0.07375,0.195612 z m 1.552067,1.247426 q 0,0.218059 -0.0962,0.378396 -0.0962,0.160338 -0.272574,0.243713 -0.173164,0.08658 -0.407257,0.08658 h -0.169958 v -1.176877 q -0.291814,0.0064 -0.445738,0.147511 -0.150717,0.144303 -0.150717,0.400843 0,0.163545 0.02886,0.288608 0.03207,0.12827 0.08979,0.262953 h -0.24692 q -0.05772,-0.131476 -0.08338,-0.259746 -0.02886,-0.12827 -0.02886,-0.304642 0,-0.246919 0.09941,-0.432911 0.09941,-0.185991 0.295021,-0.291814 0.195612,-0.102616 0.484219,-0.102616 0.282194,0 0.484219,0.093 0.202026,0.0962 0.311055,0.26616 0.10903,0.173164 0.10903,0.400844 z m -0.230886,-0.0032 q 0,-0.202025 -0.131477,-0.320675 -0.12827,-0.115443 -0.359156,-0.13789 v 0.875442 q 0.218059,-0.0032 0.352742,-0.102616 0.137891,-0.09941 0.137891,-0.314261 z"
     id="text13"
     style="font-size:12px;text-anchor:middle;fill:#ff0000;stroke:#ff0000;stroke-width:0.01"
     aria-label="teste"
     inkscape:engrave="0"
     inkscape:feed="50"
     inkscape:power="50" />
  <path
     d="m 14.703892,-70.477272 q 0,0.06413 0.0096,0.131477 0.0096,0.06734 0.02565,0.10903 H 14.52429 q -0.02245,-0.04489 -0.03527,-0.12827 -0.01603,-0.08338 -0.01603,-0.160338 0,-0.134683 0.04489,-0.250126 0.0481,-0.112237 0.163545,-0.182785 0.115443,-0.07055 0.323881,-0.07055 h 1.000506 v -0.243713 h 0.134684 l 0.112236,0.24692 0.365569,0.112236 v 0.166751 h -0.39443 v 0.497047 H 16.005812 V -70.74664 H 15.01174 q -0.157131,0 -0.234093,0.07376 -0.07376,0.07696 -0.07376,0.195611 z m 1.552067,1.247426 q 0,0.218059 -0.0962,0.378396 -0.0962,0.160338 -0.272574,0.243713 -0.173164,0.08658 -0.407257,0.08658 h -0.169957 v -1.176878 q -0.291815,0.0064 -0.445739,0.147511 -0.150717,0.144304 -0.150717,0.400844 0,0.163544 0.02886,0.288607 0.03207,0.12827 0.08979,0.262954 h -0.24692 q -0.05772,-0.131477 -0.08338,-0.259747 -0.02886,-0.12827 -0.02886,-0.304641 0,-0.24692 0.09941,-0.432912 0.09941,-0.185991 0.295021,-0.291814 0.195612,-0.102616 0.484219,-0.102616 0.282194,0 0.484219,0.093 0.202026,0.0962 0.311055,0.26616 0.10903,0.173165 0.10903,0.400843 z m -0.230886,-0.0032 q 0,-0.202025 -0.131477,-0.320675 -0.12827,-0.115443 -0.359156,-0.13789 v 0.875443 q 0.218059,-0.0032 0.352742,-0.102616 0.137891,-0.09941 0.137891,-0.314262 z m -1.045401,2.267169 q -0.250126,0 -0.378396,-0.185991 -0.12827,-0.185991 -0.12827,-0.500253 0,-0.179578 0.02886,-0.311055 0.02886,-0.12827 0.08017,-0.227679 h 0.25654 q -0.05131,0.102616 -0.0962,0.24692 -0.04169,0.14751 -0.04169,0.298228 0,0.214852 0.06734,0.311054 0.07055,0.0962 0.185991,0.0962 0.06414,0 0.115443,-0.03528 0.05131,-0.03527 0.102616,-0.128269 0.05131,-0.08979 0.115443,-0.259747 0.06414,-0.166751 0.12827,-0.285401 0.06414,-0.11865 0.153924,-0.182785 0.08979,-0.06413 0.230886,-0.06413 0.218059,0 0.336709,0.176372 0.11865,0.179578 0.11865,0.468185 0,0.157131 -0.03207,0.291814 -0.03207,0.13789 -0.08337,0.25654 l -0.224473,-0.0962 q 0.0449,-0.10903 0.07696,-0.22768 0.03207,-0.118649 0.03207,-0.243712 0,-0.173165 -0.05772,-0.266161 -0.05452,-0.08979 -0.150717,-0.08979 -0.07376,0 -0.121856,0.04169 -0.0481,0.04169 -0.0962,0.13789 -0.0481,0.09941 -0.109029,0.262954 -0.06093,0.163544 -0.125064,0.278987 -0.06414,0.115443 -0.15713,0.176371 -0.08979,0.06093 -0.22768,0.06093 z m -0.27578,0.990886 q 0,0.06414 0.0096,0.131477 0.0096,0.06734 0.02565,0.109029 H 14.52429 q -0.02245,-0.04489 -0.03527,-0.12827 -0.01603,-0.08338 -0.01603,-0.160337 0,-0.134684 0.04489,-0.250127 0.0481,-0.112236 0.163545,-0.182784 0.115443,-0.07055 0.323881,-0.07055 h 1.000506 v -0.243713 h 0.134684 l 0.112236,0.24692 0.365569,0.112236 v 0.166751 h -0.39443 v 0.497046 h -0.218059 v -0.497046 H 15.01174 q -0.157131,0 -0.234093,0.07375 -0.07376,0.07696 -0.07376,0.195612 z m 1.552067,1.247426 q 0,0.218059 -0.0962,0.378396 -0.0962,0.160338 -0.272574,0.243713 -0.173164,0.08658 -0.407257,0.08658 h -0.169957 v -1.176877 q -0.291815,0.0064 -0.445739,0.147511 -0.150717,0.144303 -0.150717,0.400843 0,0.163545 0.02886,0.288608 0.03207,0.12827 0.08979,0.262953 h -0.24692 q -0.05772,-0.131476 -0.08338,-0.259746 -0.02886,-0.12827 -0.02886,-0.304642 0,-0.246919 0.09941,-0.432911 0.09941,-0.185991 0.295021,-0.291814 0.195612,-0.102616 0.484219,-0.102616 0.282194,0 0.484219,0.093 0.202026,0.0962 0.311055,0.26616 0.10903,0.173164 0.10903,0.400844 z m -0.230886,-0.0032 q 0,-0.202025 -0.131477,-0.320675 -0.12827,-0.115443 -0.359156,-0.13789 v 0.875442 q 0.218059,-0.0032 0.352742,-0.102616 0.137891,-0.09941 0.137891,-0.314261 z"
     id="text14"
     style="font-size:12px;text-anchor:middle;fill:#ff0000;stroke:#ff0000;stroke-width:0.01"
     aria-label="teste"
     inkscape:engrave="0"
     inkscape:feed="50"
     inkscape:power="50" />
  <path
     d="m 3.5737185,-70.477272 q 0,0.06413 0.00962,0.131477 0.00962,0.06734 0.025654,0.10903 h -0.214852 q -0.022447,-0.04489 -0.035274,-0.12827 -0.016034,-0.08338 -0.016034,-0.160338 0,-0.134683 0.044894,-0.250126 0.048101,-0.112237 0.1635442,-0.182785 0.115443,-0.07055 0.3238817,-0.07055 h 1.0005059 v -0.243713 h 0.1346835 l 0.1122362,0.24692 0.3655694,0.112236 v 0.166751 H 5.0937178 v 0.497047 H 4.8756588 V -70.74664 H 3.8815664 q -0.1571307,0 -0.2340927,0.07376 -0.073755,0.07696 -0.073755,0.195611 z m 1.5520667,1.247426 q 0,0.218059 -0.096202,0.378396 -0.096203,0.160338 -0.2725738,0.243713 -0.1731644,0.08658 -0.4072571,0.08658 H 4.1797941 v -1.176878 q -0.2918142,0.0064 -0.4457382,0.147511 -0.1507172,0.144304 -0.1507172,0.400844 0,0.163544 0.028861,0.288607 0.032068,0.12827 0.089789,0.262954 h -0.24692 q -0.057722,-0.131477 -0.083375,-0.259747 -0.028861,-0.12827 -0.028861,-0.304641 0,-0.24692 0.099409,-0.432912 0.099409,-0.185991 0.295021,-0.291814 0.1956117,-0.102616 0.4842192,-0.102616 0.2821939,0 0.4842192,0.093 0.2020252,0.0962 0.3110547,0.26616 0.1090294,0.173165 0.1090294,0.400843 z m -0.2308859,-0.0032 q 0,-0.202025 -0.1314768,-0.320675 -0.1282699,-0.115443 -0.3591559,-0.13789 v 0.875443 q 0.218059,-0.0032 0.3527424,-0.102616 0.1378903,-0.09941 0.1378903,-0.314262 z m -1.0454004,2.267169 q -0.2501264,0 -0.3783964,-0.185991 -0.12827,-0.185991 -0.12827,-0.500253 0,-0.179578 0.028861,-0.311055 0.028861,-0.12827 0.080169,-0.227679 h 0.2565399 q -0.051308,0.102616 -0.096202,0.24692 -0.041688,0.14751 -0.041688,0.298228 0,0.214852 0.067342,0.311054 0.070548,0.0962 0.1859914,0.0962 0.064135,0 0.115443,-0.03528 0.051308,-0.03527 0.102616,-0.128269 0.051308,-0.08979 0.115443,-0.259747 0.064135,-0.166751 0.12827,-0.285401 0.064135,-0.11865 0.1539239,-0.182785 0.089789,-0.06413 0.230886,-0.06413 0.218059,0 0.3367087,0.176372 0.1186497,0.179578 0.1186497,0.468185 0,0.157131 -0.032067,0.291814 -0.032068,0.13789 -0.083376,0.25654 l -0.2244725,-0.0962 q 0.044894,-0.10903 0.076962,-0.22768 0.032067,-0.118649 0.032067,-0.243712 0,-0.173165 -0.057721,-0.266161 -0.054515,-0.08979 -0.1507172,-0.08979 -0.073755,0 -0.1218565,0.04169 -0.048101,0.04169 -0.096203,0.13789 -0.048101,0.09941 -0.1090295,0.262954 -0.060928,0.163544 -0.1250632,0.278987 -0.064135,0.115443 -0.1571308,0.176371 -0.089789,0.06093 -0.2276792,0.06093 z m -0.2757804,0.990886 q 0,0.06414 0.00962,0.131477 0.00962,0.06734 0.025654,0.109029 h -0.214852 q -0.022447,-0.04489 -0.035274,-0.12827 -0.016034,-0.08338 -0.016034,-0.160337 0,-0.134684 0.044894,-0.250127 0.048101,-0.112236 0.1635442,-0.182784 0.115443,-0.07055 0.3238817,-0.07055 h 1.0005059 v -0.243713 h 0.1346835 l 0.1122362,0.24692 0.3655694,0.112236 v 0.166751 H 5.0937178 v 0.497046 h -0.218059 v -0.497046 H 3.8815664 q -0.1571307,0 -0.2340927,0.07375 -0.073755,0.07696 -0.073755,0.195612 z m 1.5520667,1.247426 q 0,0.218059 -0.096202,0.378396 -0.096203,0.160338 -0.2725738,0.243713 -0.1731644,0.08658 -0.4072571,0.08658 H 4.1797941 v -1.176877 q -0.2918142,0.0064 -0.4457382,0.147511 -0.1507172,0.144303 -0.1507172,0.400843 0,0.163545 0.028861,0.288608 0.032068,0.12827 0.089789,0.262953 h -0.24692 q -0.057722,-0.131476 -0.083375,-0.259746 -0.028861,-0.12827 -0.028861,-0.304642 0,-0.246919 0.099409,-0.432911 0.099409,-0.185991 0.295021,-0.291814 0.1956117,-0.102616 0.4842192,-0.102616 0.2821939,0 0.4842192,0.093 0.2020252,0.0962 0.3110547,0.26616 0.1090294,0.173164 0.1090294,0.400844 z m -0.2308859,-0.0032 q 0,-0.202025 -0.1314768,-0.320675 -0.1282699,-0.115443 -0.3591559,-0.13789 v 0.875442 q 0.218059,-0.0032 0.3527424,-0.102616 0.1378903,-0.09941 0.1378903,-0.314261 z"
     id="text15"
     style="font-size:12px;text-anchor:middle;fill:#ff0000;stroke:#ff0000;stroke-width:0.01"
     aria-label="teste"
     inkscape:engrave="0"
     inkscape:feed="50"
     inkscape:power="50" />
  <path
     d="m -7.5564817,-70.477272 q 0,0.06413 0.00962,0.131477 0.00962,0.06734 0.025654,0.10903 H -7.73606 q -0.022447,-0.04489 -0.035274,-0.12827 -0.016034,-0.08338 -0.016034,-0.160338 0,-0.134683 0.044894,-0.250126 0.048101,-0.112237 0.1635443,-0.182785 0.1154429,-0.07055 0.3238817,-0.07055 h 1.0005058 v -0.243713 h 0.1346835 l 0.1122362,0.24692 0.3655695,0.112236 v 0.166751 h -0.3944302 v 0.497047 h -0.218059 v -0.497047 h -0.9940923 q -0.1571308,0 -0.2340928,0.07376 -0.073755,0.07696 -0.073755,0.195611 z m 1.5520668,1.247426 q 0,0.218059 -0.096202,0.378396 -0.096203,0.160338 -0.2725737,0.243713 -0.1731645,0.08658 -0.4072572,0.08658 H -6.950406 v -1.176878 q -0.2918142,0.0064 -0.4457382,0.147511 -0.1507172,0.144304 -0.1507172,0.400844 0,0.163544 0.028861,0.288607 0.032068,0.12827 0.089789,0.262954 h -0.2469197 q -0.057722,-0.131477 -0.083376,-0.259747 -0.028861,-0.12827 -0.028861,-0.304641 0,-0.24692 0.099409,-0.432912 0.099409,-0.185991 0.2950209,-0.291814 0.1956118,-0.102616 0.4842192,-0.102616 0.282194,0 0.4842192,0.093 0.2020252,0.0962 0.3110547,0.26616 0.1090295,0.173165 0.1090295,0.400844 z m -0.230886,-0.0032 q 0,-0.202025 -0.1314767,-0.320675 -0.12827,-0.115443 -0.359156,-0.13789 v 0.875443 q 0.218059,-0.0032 0.3527425,-0.102616 0.1378902,-0.09941 0.1378902,-0.314262 z m -1.0454003,2.267169 q -0.2501265,0 -0.3783965,-0.185991 -0.12827,-0.185991 -0.12827,-0.500253 0,-0.179578 0.028861,-0.311055 0.028861,-0.12827 0.080169,-0.227679 h 0.25654 q -0.051308,0.102616 -0.096203,0.24692 -0.041688,0.14751 -0.041688,0.298228 0,0.214852 0.067342,0.311054 0.070549,0.0962 0.1859915,0.0962 0.064135,0 0.115443,-0.03528 0.051308,-0.03527 0.1026159,-0.128269 0.051308,-0.08979 0.115443,-0.259747 0.064135,-0.166751 0.12827,-0.285401 0.064135,-0.11865 0.153924,-0.182785 0.089789,-0.06413 0.230886,-0.06413 0.2180589,0 0.3367087,0.176372 0.1186497,0.179578 0.1186497,0.468185 0,0.157131 -0.032067,0.291814 -0.032068,0.13789 -0.083376,0.25654 l -0.2244725,-0.0962 q 0.044894,-0.10903 0.076962,-0.22768 0.032067,-0.118649 0.032067,-0.243712 0,-0.173165 -0.057721,-0.266161 -0.054515,-0.08979 -0.1507172,-0.08979 -0.073755,0 -0.1218565,0.04169 -0.048101,0.04169 -0.096203,0.13789 -0.048101,0.09941 -0.1090295,0.262954 -0.060928,0.163544 -0.1250632,0.278987 -0.064135,0.115443 -0.1571307,0.176371 -0.089789,0.06093 -0.2276792,0.06093 z m -0.2757805,0.990886 q 0,0.06414 0.00962,0.131477 0.00962,0.06734 0.025654,0.109029 H -7.73606 q -0.022447,-0.04489 -0.035274,-0.12827 -0.016034,-0.08338 -0.016034,-0.160337 0,-0.134684 0.044894,-0.250127 0.048101,-0.112236 0.1635443,-0.182784 0.1154429,-0.07055 0.3238817,-0.07055 h 1.0005058 v -0.243713 h 0.1346835 l 0.1122362,0.24692 0.3655695,0.112236 v 0.166751 h -0.3944302 v 0.497046 h -0.218059 v -0.497046 h -0.9940923 q -0.1571308,0 -0.2340928,0.07375 -0.073755,0.07696 -0.073755,0.195612 z m 1.5520668,1.247426 q 0,0.218059 -0.096202,0.378396 -0.096203,0.160338 -0.2725737,0.243713 -0.1731645,0.08658 -0.4072572,0.08658 H -6.950406 v -1.176877 q -0.2918142,0.0064 -0.4457382,0.147511 -0.1507172,0.144303 -0.1507172,0.400843 0,0.163545 0.028861,0.288608 0.032068,0.12827 0.089789,0.262953 h -0.2469197 q -0.057722,-0.131476 -0.083376,-0.259746 -0.028861,-0.12827 -0.028861,-0.304642 0,-0.246919 0.099409,-0.432911 0.099409,-0.185991 0.2950209,-0.291814 0.1956118,-0.102616 0.4842192,-0.102616 0.282194,0 0.4842192,0.093 0.2020252,0.0962 0.3110547,0.26616 0.1090295,0.173164 0.1090295,0.400844 z m -0.230886,-0.0032 q 0,-0.202025 -0.1314767,-0.320675 -0.12827,-0.115443 -0.359156,-0.13789 v 0.875442 q 0.218059,-0.0032 0.3527425,-0.102616 0.1378902,-0.09941 0.1378902,-0.314261 z"
     id="text16"
     style="font-size:12px;text-anchor:middle;fill:#ff0000;stroke:#ff0000;stroke-width:0.01"
     aria-label="teste"
     inkscape:engrave="0"
     inkscape:feed="50"
     inkscape:power="50" />
  <path
     d="m -18.686679,-70.477272 q 0,0.06413 0.0096,0.131477 0.0096,0.06734 0.02565,0.10903 h -0.214852 q -0.02245,-0.04489 -0.03527,-0.12827 -0.01603,-0.08338 -0.01603,-0.160338 0,-0.134683 0.04489,-0.250126 0.0481,-0.112237 0.163545,-0.182785 0.115443,-0.07055 0.323881,-0.07055 h 1.000506 v -0.243713 h 0.134684 l 0.112236,0.24692 0.365569,0.112236 v 0.166751 h -0.39443 v 0.497047 h -0.218059 v -0.497047 h -0.994092 q -0.157131,0 -0.234093,0.07376 -0.07376,0.07696 -0.07376,0.195611 z m 1.552067,1.247426 q 0,0.218059 -0.0962,0.378396 -0.0962,0.160338 -0.272574,0.243713 -0.173164,0.08658 -0.407257,0.08658 h -0.169958 v -1.176878 q -0.291814,0.0064 -0.445738,0.147511 -0.150717,0.144304 -0.150717,0.400844 0,0.163544 0.02886,0.288607 0.03207,0.12827 0.08979,0.262954 h -0.24692 q -0.05772,-0.131477 -0.08338,-0.259747 -0.02886,-0.12827 -0.02886,-0.304641 0,-0.24692 0.09941,-0.432912 0.09941,-0.185991 0.295021,-0.291814 0.195612,-0.102616 0.484219,-0.102616 0.282194,0 0.484219,0.093 0.202026,0.0962 0.311055,0.26616 0.10903,0.173165 0.10903,0.400843 z m -0.230886,-0.0032 q 0,-0.202025 -0.131477,-0.320675 -0.12827,-0.115443 -0.359156,-0.13789 v 0.875443 q 0.218059,-0.0032 0.352742,-0.102616 0.137891,-0.09941 0.137891,-0.314262 z m -1.045401,2.267169 q -0.250126,0 -0.378396,-0.185991 -0.12827,-0.185991 -0.12827,-0.500253 0,-0.179578 0.02886,-0.311055 0.02886,-0.12827 0.08017,-0.227679 h 0.25654 q -0.05131,0.102616 -0.0962,0.24692 -0.04169,0.14751 -0.04169,0.298228 0,0.214852 0.06734,0.311054 0.07055,0.0962 0.185991,0.0962 0.06414,0 0.115443,-0.03528 0.05131,-0.03527 0.102616,-0.128269 0.05131,-0.08979 0.115443,-0.259747 0.06414,-0.166751 0.12827,-0.285401 0.06414,-0.11865 0.153924,-0.182785 0.08979,-0.06413 0.230886,-0.06413 0.218059,0 0.336709,0.176372 0.11865,0.179578 0.11865,0.468185 0,0.157131 -0.03207,0.291814 -0.03207,0.13789 -0.08338,0.25654 l -0.224473,-0.0962 q 0.04489,-0.10903 0.07696,-0.22768 0.03207,-0.118649 0.03207,-0.243712 0,-0.173165 -0.05772,-0.266161 -0.05451,-0.08979 -0.150717,-0.08979 -0.07375,0 -0.121857,0.04169 -0.0481,0.04169 -0.0962,0.13789 -0.0481,0.09941 -0.10903,0.262954 -0.06093,0.163544 -0.125063,0.278987 -0.06414,0.115443 -0.15713,0.176371 -0.08979,0.06093 -0.22768,0.06093 z m -0.27578,0.990886 q 0,0.06414 0.0096,0.131477 0.0096,0.06734 0.02565,0.109029 h -0.214852 q -0.02245,-0.04489 -0.03527,-0.12827 -0.01603,-0.08338 -0.01603,-0.160337 0,-0.134684 0.04489,-0.250127 0.0481,-0.112236 0.163545,-0.182784 0.115443,-0.07055 0.323881,-0.07055 h 1.000506 v -0.243713 h 0.134684 l 0.112236,0.24692 0.365569,0.112236 v 0.166751 h -0.39443 v 0.497046 h -0.218059 v -0.497046 h -0.994092 q -0.157131,0 -0.234093,0.07375 -0.07376,0.07696 -0.07376,0.195612 z m 1.552067,1.247426 q 0,0.218059 -0.0962,0.378396 -0.0962,0.160338 -0.272574,0.243713 -0.173164,0.08658 -0.407257,0.08658 h -0.169958 v -1.176877 q -0.291814,0.0064 -0.445738,0.147511 -0.150717,0.144303 -0.150717,0.400843 0,0.163545 0.02886,0.288608 0.03207,0.12827 0.08979,0.262953 h -0.24692 q -0.05772,-0.131476 -0.08338,-0.259746 -0.02886,-0.12827 -0.02886,-0.304642 0,-0.246919 0.09941,-0.432911 0.09941,-0.185991 0.295021,-0.291814 0.195612,-0.102616 0.484219,-0.102616 0.282194,0 0.484219,0.093 0.202026,0.0962 0.311055,0.26616 0.10903,0.173164 0.10903,0.400844 z m -0.230886,-0.0032 q 0,-0.202025 -0.131477,-0.320675 -0.12827,-0.115443 -0.359156,-0.13789 v 0.875442 q 0.218059,-0.0032 0.352742,-0.102616 0.137891,-0.09941 0.137891,-0.314261 z"
     id="text17"
     style="font-size:12px;text-anchor:middle;fill:#ff0000;stroke:#ff0000;stroke-width:0.01"
     aria-label="teste"
     inkscape:engrave="0"
     inkscape:feed="50"
     inkscape:power="50" />
  <path
     d="m -29.816885,-70.477272 q 0,0.06413 0.0096,0.131477 0.0096,0.06734 0.02565,0.10903 h -0.214853 q -0.02245,-0.04489 -0.03527,-0.12827 -0.01603,-0.08338 -0.01603,-0.160338 0,-0.134683 0.0449,-0.250126 0.0481,-0.112237 0.163544,-0.182785 0.115443,-0.07055 0.323882,-0.07055 h 1.000506 v -0.243713 h 0.134683 l 0.112236,0.24692 0.36557,0.112236 v 0.166751 h -0.39443 v 0.497047 h -0.218059 v -0.497047 h -0.994093 q -0.15713,0 -0.234092,0.07376 -0.07376,0.07696 -0.07376,0.195611 z m 1.552067,1.247426 q 0,0.218059 -0.0962,0.378396 -0.0962,0.160338 -0.272574,0.243713 -0.173165,0.08658 -0.407257,0.08658 h -0.169958 v -1.176878 q -0.291814,0.0064 -0.445738,0.147511 -0.150717,0.144304 -0.150717,0.400844 0,0.163544 0.02886,0.288607 0.03207,0.12827 0.08979,0.262954 h -0.246919 q -0.05772,-0.131477 -0.08338,-0.259747 -0.02886,-0.12827 -0.02886,-0.304641 0,-0.24692 0.09941,-0.432912 0.09941,-0.185991 0.295021,-0.291814 0.195611,-0.102616 0.484219,-0.102616 0.282194,0 0.484219,0.093 0.202025,0.0962 0.311055,0.26616 0.109029,0.173165 0.109029,0.400843 z m -0.230886,-0.0032 q 0,-0.202025 -0.131477,-0.320675 -0.12827,-0.115443 -0.359156,-0.13789 v 0.875443 q 0.218059,-0.0032 0.352743,-0.102616 0.13789,-0.09941 0.13789,-0.314262 z m -1.0454,2.267169 q -0.250127,0 -0.378397,-0.185991 -0.12827,-0.185991 -0.12827,-0.500253 0,-0.179578 0.02886,-0.311055 0.02886,-0.12827 0.08017,-0.227679 h 0.25654 q -0.05131,0.102616 -0.0962,0.24692 -0.04169,0.14751 -0.04169,0.298228 0,0.214852 0.06734,0.311054 0.07055,0.0962 0.185992,0.0962 0.06414,0 0.115443,-0.03528 0.05131,-0.03527 0.102616,-0.128269 0.05131,-0.08979 0.115443,-0.259747 0.06414,-0.166751 0.12827,-0.285401 0.06414,-0.11865 0.153924,-0.182785 0.08979,-0.06413 0.230886,-0.06413 0.218059,0 0.336708,0.176372 0.11865,0.179578 0.11865,0.468185 0,0.157131 -0.03207,0.291814 -0.03207,0.13789 -0.08338,0.25654 l -0.224472,-0.0962 q 0.04489,-0.10903 0.07696,-0.22768 0.03207,-0.118649 0.03207,-0.243712 0,-0.173165 -0.05772,-0.266161 -0.05451,-0.08979 -0.150718,-0.08979 -0.07376,0 -0.121856,0.04169 -0.0481,0.04169 -0.0962,0.13789 -0.0481,0.09941 -0.109029,0.262954 -0.06093,0.163544 -0.125063,0.278987 -0.06414,0.115443 -0.157131,0.176371 -0.08979,0.06093 -0.227679,0.06093 z m -0.275781,0.990886 q 0,0.06414 0.0096,0.131477 0.0096,0.06734 0.02565,0.109029 h -0.214853 q -0.02245,-0.04489 -0.03527,-0.12827 -0.01603,-0.08338 -0.01603,-0.160337 0,-0.134684 0.0449,-0.250127 0.0481,-0.112236 0.163544,-0.182784 0.115443,-0.07055 0.323882,-0.07055 h 1.000506 v -0.243713 h 0.134683 l 0.112236,0.24692 0.36557,0.112236 v 0.166751 h -0.39443 v 0.497046 h -0.218059 v -0.497046 h -0.994093 q -0.15713,0 -0.234092,0.07375 -0.07376,0.07696 -0.07376,0.195612 z m 1.552067,1.247426 q 0,0.218059 -0.0962,0.378396 -0.0962,0.160338 -0.272574,0.243713 -0.173165,0.08658 -0.407257,0.08658 h -0.169958 v -1.176877 q -0.291814,0.0064 -0.445738,0.147511 -0.150717,0.144303 -0.150717,0.400843 0,0.163545 0.02886,0.288608 0.03207,0.12827 0.08979,0.262953 h -0.246919 q -0.05772,-0.131476 -0.08338,-0.259746 -0.02886,-0.12827 -0.02886,-0.304642 0,-0.246919 0.09941,-0.432911 0.09941,-0.185991 0.295021,-0.291814 0.195611,-0.102616 0.484219,-0.102616 0.282194,0 0.484219,0.093 0.202025,0.0962 0.311055,0.26616 0.109029,0.173164 0.109029,0.400844 z m -0.230886,-0.0032 q 0,-0.202025 -0.131477,-0.320675 -0.12827,-0.115443 -0.359156,-0.13789 v 0.875442 q 0.218059,-0.0032 0.352743,-0.102616 0.13789,-0.09941 0.13789,-0.314261 z"
     id="text18"
     style="font-size:12px;text-anchor:middle;fill:#ff0000;stroke:#ff0000;stroke-width:0.01"
     aria-label="teste"
     inkscape:engrave="0"
     inkscape:feed="50"
     inkscape:power="50" />
  <path
     d="m -40.947082,-70.477272 q 0,0.06413 0.0096,0.131477 0.0096,0.06734 0.02565,0.10903 h -0.214852 q -0.02245,-0.04489 -0.03527,-0.12827 -0.01603,-0.08338 -0.01603,-0.160338 0,-0.134683 0.04489,-0.250126 0.0481,-0.112237 0.163545,-0.182785 0.115443,-0.07055 0.323881,-0.07055 h 1.000506 v -0.243713 h 0.134684 l 0.112236,0.24692 0.365569,0.112236 v 0.166751 h -0.39443 v 0.497047 h -0.218059 v -0.497047 h -0.994092 q -0.157131,0 -0.234093,0.07376 -0.07375,0.07696 -0.07375,0.195611 z m 1.552067,1.247426 q 0,0.218059 -0.0962,0.378396 -0.0962,0.160338 -0.272574,0.243713 -0.173164,0.08658 -0.407257,0.08658 h -0.169957 v -1.176878 q -0.291815,0.0064 -0.445739,0.147511 -0.150717,0.144304 -0.150717,0.400844 0,0.163544 0.02886,0.288607 0.03207,0.12827 0.08979,0.262954 h -0.24692 q -0.05772,-0.131477 -0.08338,-0.259747 -0.02886,-0.12827 -0.02886,-0.304641 0,-0.24692 0.09941,-0.432912 0.09941,-0.185991 0.295021,-0.291814 0.195612,-0.102616 0.484219,-0.102616 0.282194,0 0.484219,0.093 0.202026,0.0962 0.311055,0.26616 0.10903,0.173165 0.10903,0.400843 z m -0.230886,-0.0032 q 0,-0.202025 -0.131477,-0.320675 -0.12827,-0.115443 -0.359156,-0.13789 v 0.875443 q 0.218059,-0.0032 0.352742,-0.102616 0.137891,-0.09941 0.137891,-0.314262 z m -1.045401,2.267169 q -0.250126,0 -0.378396,-0.185991 -0.12827,-0.185991 -0.12827,-0.500253 0,-0.179578 0.02886,-0.311055 0.02886,-0.12827 0.08017,-0.227679 h 0.25654 q -0.05131,0.102616 -0.0962,0.24692 -0.04169,0.14751 -0.04169,0.298228 0,0.214852 0.06734,0.311054 0.07055,0.0962 0.185991,0.0962 0.06414,0 0.115443,-0.03528 0.05131,-0.03527 0.102616,-0.128269 0.05131,-0.08979 0.115443,-0.259747 0.06414,-0.166751 0.12827,-0.285401 0.06414,-0.11865 0.153924,-0.182785 0.08979,-0.06413 0.230886,-0.06413 0.218059,0 0.336709,0.176372 0.11865,0.179578 0.11865,0.468185 0,0.157131 -0.03207,0.291814 -0.03207,0.13789 -0.08337,0.25654 l -0.224473,-0.0962 q 0.0449,-0.10903 0.07696,-0.22768 0.03207,-0.118649 0.03207,-0.243712 0,-0.173165 -0.05772,-0.266161 -0.05452,-0.08979 -0.150717,-0.08979 -0.07376,0 -0.121857,0.04169 -0.0481,0.04169 -0.0962,0.13789 -0.0481,0.09941 -0.10903,0.262954 -0.06093,0.163544 -0.125063,0.278987 -0.06414,0.115443 -0.15713,0.176371 -0.08979,0.06093 -0.22768,0.06093 z m -0.27578,0.990886 q 0,0.06414 0.0096,0.131477 0.0096,0.06734 0.02565,0.109029 h -0.214852 q -0.02245,-0.04489 -0.03527,-0.12827 -0.01603,-0.08338 -0.01603,-0.160337 0,-0.134684 0.04489,-0.250127 0.0481,-0.112236 0.163545,-0.182784 0.115443,-0.07055 0.323881,-0.07055 h 1.000506 v -0.243713 h 0.134684 l 0.112236,0.24692 0.365569,0.112236 v 0.166751 h -0.39443 v 0.497046 h -0.218059 v -0.497046 h -0.994092 q -0.157131,0 -0.234093,0.07375 -0.07375,0.07696 -0.07375,0.195612 z m 1.552067,1.247426 q 0,0.218059 -0.0962,0.378396 -0.0962,0.160338 -0.272574,0.243713 -0.173164,0.08658 -0.407257,0.08658 h -0.169957 v -1.176877 q -0.291815,0.0064 -0.445739,0.147511 -0.150717,0.144303 -0.150717,0.400843 0,0.163545 0.02886,0.288608 0.03207,0.12827 0.08979,0.262953 h -0.24692 q -0.05772,-0.131476 -0.08338,-0.259746 -0.02886,-0.12827 -0.02886,-0.304642 0,-0.246919 0.09941,-0.432911 0.09941,-0.185991 0.295021,-0.291814 0.195612,-0.102616 0.484219,-0.102616 0.282194,0 0.484219,0.093 0.202026,0.0962 0.311055,0.26616 0.10903,0.173164 0.10903,0.400844 z m -0.230886,-0.0032 q 0,-0.202025 -0.131477,-0.320675 -0.12827,-0.115443 -0.359156,-0.13789 v 0.875442 q 0.218059,-0.0032 0.352742,-0.102616 0.137891,-0.09941 0.137891,-0.314261 z"
     id="text19"
     style="font-size:12px;text-anchor:middle;fill:#ff0000;stroke:#ff0000;stroke-width:0.01"
     aria-label="teste"
     inkscape:engrave="0"
     inkscape:feed="50"
     inkscape:power="50" />
  <path
     d="m -52.077282,-70.477272 q 0,0.06413 0.0096,0.131477 0.0096,0.06734 0.02565,0.10903 h -0.214852 q -0.02245,-0.04489 -0.03527,-0.12827 -0.01603,-0.08338 -0.01603,-0.160338 0,-0.134683 0.04489,-0.250126 0.0481,-0.112237 0.163544,-0.182785 0.115443,-0.07055 0.323882,-0.07055 h 1.000506 v -0.243713 h 0.134683 l 0.112237,0.24692 0.365569,0.112236 v 0.166751 h -0.39443 v 0.497047 h -0.218059 v -0.497047 h -0.994092 q -0.157131,0 -0.234093,0.07376 -0.07375,0.07696 -0.07375,0.195611 z m 1.552066,1.247426 q 0,0.218059 -0.0962,0.378396 -0.0962,0.160338 -0.272574,0.243713 -0.173164,0.08658 -0.407257,0.08658 h -0.169958 v -1.176878 q -0.291814,0.0064 -0.445738,0.147511 -0.150717,0.144304 -0.150717,0.400844 0,0.163544 0.02886,0.288607 0.03207,0.12827 0.08979,0.262954 h -0.24692 q -0.05772,-0.131477 -0.08338,-0.259747 -0.02886,-0.12827 -0.02886,-0.304641 0,-0.24692 0.09941,-0.432912 0.09941,-0.185991 0.295021,-0.291814 0.195612,-0.102616 0.484219,-0.102616 0.282194,0 0.484219,0.093 0.202025,0.0962 0.311055,0.26616 0.109029,0.173165 0.109029,0.400844 z m -0.230886,-0.0032 q 0,-0.202025 -0.131476,-0.320675 -0.12827,-0.115443 -0.359156,-0.13789 v 0.875443 q 0.218059,-0.0032 0.352742,-0.102616 0.13789,-0.09941 0.13789,-0.314262 z m -1.0454,2.267169 q -0.250126,0 -0.378396,-0.185991 -0.12827,-0.185991 -0.12827,-0.500253 0,-0.179578 0.02886,-0.311055 0.02886,-0.12827 0.08017,-0.227679 h 0.25654 q -0.05131,0.102616 -0.0962,0.24692 -0.04169,0.14751 -0.04169,0.298228 0,0.214852 0.06734,0.311054 0.07055,0.0962 0.185991,0.0962 0.06414,0 0.115443,-0.03528 0.05131,-0.03527 0.102616,-0.128269 0.05131,-0.08979 0.115443,-0.259747 0.06414,-0.166751 0.12827,-0.285401 0.06414,-0.11865 0.153924,-0.182785 0.08979,-0.06413 0.230886,-0.06413 0.218059,0 0.336709,0.176372 0.118649,0.179578 0.118649,0.468185 0,0.157131 -0.03207,0.291814 -0.03207,0.13789 -0.08338,0.25654 l -0.224472,-0.0962 q 0.04489,-0.10903 0.07696,-0.22768 0.03207,-0.118649 0.03207,-0.243712 0,-0.173165 -0.05772,-0.266161 -0.05452,-0.08979 -0.150717,-0.08979 -0.07375,0 -0.121857,0.04169 -0.0481,0.04169 -0.0962,0.13789 -0.0481,0.09941 -0.10903,0.262954 -0.06093,0.163544 -0.125063,0.278987 -0.06414,0.115443 -0.157131,0.176371 -0.08979,0.06093 -0.227679,0.06093 z m -0.27578,0.990886 q 0,0.06414 0.0096,0.131477 0.0096,0.06734 0.02565,0.109029 h -0.214852 q -0.02245,-0.04489 -0.03527,-0.12827 -0.01603,-0.08338 -0.01603,-0.160337 0,-0.134684 0.04489,-0.250127 0.0481,-0.112236 0.163544,-0.182784 0.115443,-0.07055 0.323882,-0.07055 h 1.000506 v -0.243713 h 0.134683 l 0.112237,0.24692 0.365569,0.112236 v 0.166751 h -0.39443 v 0.497046 h -0.218059 v -0.497046 h -0.994092 q -0.157131,0 -0.234093,0.07375 -0.07375,0.07696 -0.07375,0.195612 z m 1.552066,1.247426 q 0,0.218059 -0.0962,0.378396 -0.0962,0.160338 -0.272574,0.243713 -0.173164,0.08658 -0.407257,0.08658 h -0.169958 v -1.176877 q -0.291814,0.0064 -0.445738,0.147511 -0.150717,0.144303 -0.150717,0.400843 0,0.163545 0.02886,0.288608 0.03207,0.12827 0.08979,0.262953 h -0.24692 q -0.05772,-0.131476 -0.08338,-0.259746 -0.02886,-0.12827 -0.02886,-0.304642 0,-0.246919 0.09941,-0.432911 0.09941,-0.185991 0.295021,-0.291814 0.195612,-0.102616 0.484219,-0.102616 0.282194,0 0.484219,0.093 0.202025,0.0962 0.311055,0.26616 0.109029,0.173164 0.109029,0.400844 z m -0.230886,-0.0032 q 0,-0.202025 -0.131476,-0.320675 -0.12827,-0.115443 -0.359156,-0.13789 v 0.875442 q 0.218059,-0.0032 0.352742,-0.102616 0.13789,-0.09941 0.13789,-0.314261 z"
     id="text20"
     style="font-size:12px;text-anchor:middle;fill:#ff0000;stroke:#ff0000;stroke-width:0.01"
     aria-label="teste"
     inkscape:engrave="0"
     inkscape:feed="50"
     inkscape:power="50" />
  <path
     d="m 61.240959,-101.94291 -0.27558,-0.0188 v 0.16806 q 0,0.0313 -0.01253,0.0449 -0.01148,0.0136 -0.03132,0.0136 -0.01983,0 -0.03236,-0.0136 -0.01148,-0.0136 -0.01148,-0.0449 v -0.17432 l -0.488529,-0.0344 q -0.03132,-0.002 -0.04384,-0.0146 -0.01253,-0.0115 -0.01253,-0.0292 l 0.0042,-0.0177 q 0.01566,-0.0261 0.0428,-0.0261 h 0.01566 l 0.482265,0.0345 v -0.19834 l -0.488529,-0.0334 q -0.03132,-0.002 -0.04384,-0.0146 -0.01253,-0.0125 -0.01253,-0.0292 l 0.0042,-0.0188 q 0.01566,-0.0261 0.0428,-0.0261 l 0.01566,0.001 0.482265,0.0334 v -0.18267 q 0,-0.0313 0.01148,-0.0449 0.01253,-0.0136 0.03236,-0.0136 0.01983,0 0.03132,0.0136 0.01253,0.0136 0.01253,0.0449 v 0.18894 l 0.27558,0.0188 v -0.16285 q 0,-0.0324 0.01148,-0.0459 0.01253,-0.0136 0.03236,-0.0136 0.01983,0 0.03132,0.0136 0.01253,0.0136 0.01253,0.0459 v 0.16911 l 0.488528,0.0345 q 0.03027,0.002 0.0428,0.0146 0.01357,0.0125 0.01357,0.0292 l -0.0042,0.0188 q -0.0167,0.0261 -0.04175,0.0261 l -0.0167,-10e-4 -0.482265,-0.0334 v 0.19729 l 0.488528,0.0344 q 0.03027,0.002 0.0428,0.0136 0.01357,0.0125 0.01357,0.0303 l -0.0042,0.0178 q -0.0167,0.0271 -0.04175,0.0271 l -0.0167,-10e-4 -0.482265,-0.0345 v 0.18685 q 0,0.0313 -0.01253,0.0449 -0.01148,0.0136 -0.03132,0.0136 -0.01983,0 -0.03236,-0.0136 -0.01148,-0.0136 -0.01148,-0.0449 z m 0,-0.0877 v -0.19729 l -0.27558,-0.0198 v 0.19834 z m 0.555336,1.22028 h -1.24011 v 0.30063 q 0,0.0313 -0.01253,0.0449 -0.01148,0.0136 -0.03132,0.0136 -0.01879,0 -0.03132,-0.0136 -0.01253,-0.0136 -0.01253,-0.0449 v -0.68895 q 0,-0.0313 0.01253,-0.0449 0.01253,-0.0136 0.03132,-0.0136 0.01983,0 0.03132,0.0136 0.01253,0.0136 0.01253,0.0449 v 0.30063 h 1.119022 l -0.08977,-0.28601 q -0.0063,-0.0209 -0.0063,-0.0303 0,-0.0157 0.01253,-0.0292 0.01357,-0.0125 0.03132,-0.0125 0.01566,0 0.02923,0.0104 0.0084,0.008 0.01774,0.0344 z m 0.04593,1.63365 -1.511515,-0.70566 q -0.03862,-0.0178 -0.03862,-0.0459 0,-0.0178 0.01357,-0.0313 0.01253,-0.0125 0.02819,-0.0125 0.01253,0 0.03445,0.0104 l 1.511515,0.70461 q 0.02401,0.0115 0.03132,0.0219 0.0073,0.0104 0.0073,0.0251 0,0.0177 -0.01357,0.0303 -0.01253,0.0136 -0.02819,0.0136 -0.01148,0 -0.03445,-0.0104 z m -0.04593,0.93217 h -1.24011 v 0.30063 q 0,0.0313 -0.01253,0.0449 -0.01148,0.0136 -0.03132,0.0136 -0.01879,0 -0.03132,-0.0136 -0.01253,-0.0136 -0.01253,-0.0449 v -0.68895 q 0,-0.0313 0.01253,-0.0449 0.01253,-0.0136 0.03132,-0.0136 0.01983,0 0.03132,0.0136 0.01253,0.0136 0.01253,0.0449 v 0.30063 h 1.119022 l -0.08977,-0.28602 q -0.0063,-0.0209 -0.0063,-0.0303 0,-0.0157 0.01253,-0.0292 0.01357,-0.0125 0.03132,-0.0125 0.01566,0 0.02923,0.0104 0.0084,0.008 0.01774,0.0345 z"
     id="text21"
     style="font-size:8px;font-family:'Courier New';fill:#ff0000;stroke:#ff0000;stroke-width:0.01"
     aria-label="#1/1"
     inkscape:engrave="0"
     inkscape:feed="50"
     inkscape:power="50" />
  <path
     d="m 57.916591,-102.421 h -0.390405 v 0.1618 q 0,0.0324 -0.01253,0.0459 -0.01148,0.0136 -0.03132,0.0136 -0.01879,0 -0.03132,-0.0136 -0.01252,-0.0136 -0.01252,-0.0459 v -0.36744 q 0,-0.0313 0.01252,-0.0449 0.01253,-0.0136 0.03132,-0.0136 0.01983,0 0.03132,0.0136 0.01253,0.0136 0.01253,0.0449 v 0.11796 h 1.045951 v -0.11796 q 0,-0.0313 0.01148,-0.0449 0.01252,-0.0136 0.03236,-0.0136 0.01983,0 0.03132,0.0136 0.01253,0.0136 0.01253,0.0449 v 0.36744 q 0,0.0324 -0.01253,0.0459 -0.01148,0.0136 -0.03132,0.0136 -0.01983,0 -0.03236,-0.0136 -0.01148,-0.0136 -0.01148,-0.0459 v -0.1618 H 58.03246 l 0.539677,0.60544 v -0.096 q 0,-0.0324 0.01148,-0.0459 0.01252,-0.0136 0.03236,-0.0136 0.01983,0 0.03132,0.0136 0.01253,0.0136 0.01253,0.0459 v 0.25784 q 0,0.0313 -0.01253,0.0449 -0.01148,0.0136 -0.03132,0.0136 -0.01983,0 -0.03236,-0.0136 -0.01148,-0.0136 -0.01148,-0.0449 v -0.0355 l -0.431116,-0.48227 q -0.04384,0.10752 -0.109605,0.1785 -0.06576,0.071 -0.186852,0.13675 -0.06785,0.0376 -0.318378,0.13779 v 0.1096 q 0,0.0324 -0.01253,0.0459 -0.01148,0.0136 -0.03132,0.0136 -0.01879,0 -0.03132,-0.0136 -0.01252,-0.0136 -0.01252,-0.0459 v -0.1691 q 0.376835,-0.13779 0.484353,-0.23174 0.108562,-0.0939 0.152404,-0.23487 z m 0.875801,1.61068 h -0.226518 v -0.12944 h 0.226518 z m -0.449905,0.003 h -0.816301 v 0.34448 q 0,0.0324 -0.01253,0.0459 -0.01148,0.0136 -0.03132,0.0136 -0.01879,0 -0.03132,-0.0136 -0.01252,-0.0136 -0.01252,-0.0459 v -0.77664 q 0,-0.0313 0.01252,-0.0449 0.01253,-0.0136 0.03132,-0.0136 0.01983,0 0.03132,0.0136 0.01253,0.0136 0.01253,0.0449 v 0.34448 h 0.727573 v -0.25575 q 0,-0.0313 0.01252,-0.0459 0.01253,-0.0136 0.03132,-0.0136 0.01983,0 0.03236,0.0136 0.01252,0.0136 0.01252,0.0459 z m 0,0.90608 h -0.159711 q 0.09499,0.0783 0.143009,0.16806 0.04802,0.0898 0.04802,0.2119 0,0.12944 -0.06054,0.23905 -0.06054,0.1096 -0.169106,0.1691 -0.107518,0.0605 -0.226518,0.0605 -0.18894,0 -0.323598,-0.1357 -0.133615,-0.13466 -0.133615,-0.33195 0,-0.23487 0.191027,-0.38101 H 57.12326 v 0.21295 q 0,0.0313 -0.01148,0.0449 -0.01252,0.0136 -0.03236,0.0136 -0.01879,0 -0.03132,-0.0136 -0.01253,-0.0136 -0.01253,-0.0449 v -0.41859 q 0,-0.0313 0.01253,-0.0449 0.01148,-0.0136 0.03132,-0.0136 0.01983,0 0.03236,0.0136 0.01148,0.0136 0.01148,0.0449 v 0.11796 h 1.130505 v -0.11796 q 0,-0.0313 0.01252,-0.0449 0.01253,-0.0136 0.03236,-0.0136 0.01879,0 0.03131,0.0136 0.01252,0.0136 0.01252,0.0449 z m -0.424852,0.75993 q 0.15136,0 0.258878,-0.11065 0.108562,-0.10961 0.108562,-0.26827 0,-0.15971 -0.108562,-0.27036 -0.108562,-0.11065 -0.258878,-0.11065 -0.151361,0 -0.259923,0.11065 -0.108561,0.11065 -0.108561,0.27036 0,0.15762 0.107518,0.26827 0.108562,0.11065 0.260966,0.11065 z m 0.848661,0.89668 h -1.24011 v 0.30063 q 0,0.0313 -0.01253,0.0449 -0.01148,0.0136 -0.03132,0.0136 -0.01879,0 -0.03132,-0.0136 -0.01252,-0.0136 -0.01252,-0.0449 v -0.68895 q 0,-0.0313 0.01252,-0.0449 0.01253,-0.0136 0.03132,-0.0136 0.01983,0 0.03132,0.0136 0.01253,0.0136 0.01253,0.0449 v 0.30063 h 1.119022 l -0.08977,-0.28601 q -0.0063,-0.0209 -0.0063,-0.0303 0,-0.0157 0.01253,-0.0292 0.01357,-0.0125 0.03131,-0.0125 0.01566,0 0.02923,0.0104 0.0084,0.008 0.01775,0.0344 z m -0.648239,1.41965 q -0.05324,0.10961 -0.140922,0.16493 -0.08664,0.0564 -0.186852,0.0564 -0.155535,0 -0.269316,-0.11691 -0.113782,-0.11691 -0.113782,-0.28393 0,-0.16702 0.113782,-0.28393 0.113781,-0.11691 0.269316,-0.11691 0.09917,0 0.185808,0.0553 0.08769,0.0564 0.141966,0.16701 0.05532,-0.096 0.114824,-0.13987 0.08455,-0.0605 0.186852,-0.0605 0.144053,0 0.251571,0.11065 0.108562,0.11169 0.108562,0.26827 0,0.15762 -0.108562,0.26827 -0.107518,0.11065 -0.251571,0.11065 -0.102299,0 -0.185808,-0.0605 -0.06054,-0.0428 -0.115868,-0.13883 z m 0.298545,0.10961 q 0.112737,0 0.193114,-0.0846 0.08142,-0.0835 0.08142,-0.20564 0,-0.12109 -0.08142,-0.20564 -0.08142,-0.0835 -0.192071,-0.0835 -0.102298,0 -0.179544,0.0825 -0.0762,0.0835 -0.0762,0.20668 0,0.12422 0.0762,0.20669 0.07725,0.0835 0.178501,0.0835 z m -0.628406,0.024 q 0.115868,0 0.201465,-0.0898 0.0856,-0.0898 0.0856,-0.22339 0,-0.13361 -0.0856,-0.22339 -0.0856,-0.0898 -0.200422,-0.0898 -0.119,0 -0.206685,0.0898 -0.08768,0.0908 -0.08768,0.22339 0,0.13257 0.08768,0.22234 0.08769,0.0908 0.205642,0.0908 z"
     id="text22"
     style="font-size:8px;font-family:'Courier New';fill:#ff0000;stroke:#ff0000;stroke-width:0.01"
     aria-label="Kip18"
     inkscape:engrave="0"
     inkscape:feed="50"
     inkscape:power="50" />
  <path
     d="m 55.736294,-102.09323 h -1.24011 v 0.30064 q 0,0.0313 -0.01252,0.0449 -0.01148,0.0136 -0.03132,0.0136 -0.01879,0 -0.03132,-0.0136 -0.01253,-0.0136 -0.01253,-0.0449 v -0.68895 q 0,-0.0313 0.01253,-0.0449 0.01252,-0.0136 0.03132,-0.0136 0.01983,0 0.03132,0.0136 0.01252,0.0136 0.01252,0.0449 v 0.30063 h 1.119022 l -0.08977,-0.28602 q -0.0063,-0.0209 -0.0063,-0.0303 0,-0.0157 0.01252,-0.0292 0.01357,-0.0125 0.03132,-0.0125 0.01566,0 0.02923,0.0104 0.0084,0.008 0.01775,0.0345 z m -0.648239,1.41966 q -0.05324,0.1096 -0.140922,0.16493 -0.08664,0.0564 -0.186851,0.0564 -0.155536,0 -0.269317,-0.11691 -0.113781,-0.11692 -0.113781,-0.28393 0,-0.16702 0.113781,-0.28394 0.113781,-0.11691 0.269317,-0.11691 0.09917,0 0.185807,0.0553 0.08769,0.0564 0.141966,0.16702 0.05533,-0.096 0.114825,-0.13988 0.08455,-0.0605 0.186851,-0.0605 0.144054,0 0.251572,0.11065 0.108562,0.1117 0.108562,0.26827 0,0.15763 -0.108562,0.26828 -0.107518,0.11065 -0.251572,0.11065 -0.102298,0 -0.185807,-0.0605 -0.06054,-0.0428 -0.115869,-0.13884 z m 0.298545,0.1096 q 0.112737,0 0.193115,-0.0846 0.08142,-0.0835 0.08142,-0.20564 0,-0.12108 -0.08142,-0.20564 -0.08142,-0.0835 -0.192071,-0.0835 -0.102299,0 -0.179545,0.0825 -0.0762,0.0835 -0.0762,0.20669 0,0.12422 0.0762,0.20668 0.07725,0.0835 0.178501,0.0835 z m -0.628406,0.024 q 0.115869,0 0.201465,-0.0898 0.0856,-0.0898 0.0856,-0.22338 0,-0.13362 -0.0856,-0.22339 -0.0856,-0.0898 -0.200421,-0.0898 -0.119001,0 -0.206685,0.0898 -0.08769,0.0908 -0.08769,0.22339 0,0.13257 0.08769,0.22234 0.08768,0.0908 0.205641,0.0908 z m -0.03445,0.79543 v 0.28497 l -0.576212,-0.31002 q -0.05219,-0.0282 -0.05219,-0.0679 0,-0.0261 0.01879,-0.0449 0.01775,-0.0178 0.04384,-0.0178 0.01044,0 0.02297,0.003 z m 0.906074,1.21506 H 55.20079 q 0.03236,0.0773 0.04802,0.14822 0.0167,0.071 0.0167,0.13466 0,0.16493 -0.115869,0.27558 -0.115869,0.1117 -0.304808,0.1117 -0.208773,0 -0.338212,-0.12527 -0.129439,-0.12526 -0.129439,-0.31316 0,-0.12422 0.05532,-0.23904 0.03862,-0.0814 0.09604,-0.14823 0.03445,-0.0397 0.05741,-0.0397 0.01879,0 0.03132,0.0125 0.01357,0.0125 0.01357,0.0292 0,0.0178 -0.01879,0.0376 -0.147185,0.15762 -0.147185,0.34343 0,0.15345 0.104387,0.25366 0.10543,0.10021 0.279755,0.10021 0.148229,0 0.238001,-0.0866 0.09082,-0.0866 0.09082,-0.22025 0,-0.13675 -0.07203,-0.2735 -0.0167,-0.0334 -0.0167,-0.047 0,-0.0188 0.01253,-0.0303 0.01252,-0.0115 0.03549,-0.0115 h 0.581432 v 0.61171 q 0,0.0313 -0.01253,0.0449 -0.01252,0.0136 -0.03236,0.0136 -0.01879,0 -0.03132,-0.0136 -0.01253,-0.0136 -0.01253,-0.0449 z m -0.667029,1.26307 q 0.120045,0.0814 0.177457,0.16702 0.05741,0.0866 0.05741,0.19207 0,0.13988 -0.116912,0.24844 -0.115869,0.10856 -0.287063,0.10856 -0.156579,0 -0.287062,-0.0992 -0.129439,-0.0992 -0.129439,-0.27349 0,-0.11378 0.06994,-0.21295 0.06994,-0.0981 0.215035,-0.15449 0.180589,-0.0699 0.3998,-0.0699 0.164931,0 0.306896,0.0658 0.109606,0.0501 0.192071,0.13361 0.08351,0.0835 0.135702,0.19416 0.05324,0.1117 0.05324,0.24114 0,0.0877 -0.03549,0.14614 -0.01566,0.025 -0.04175,0.025 -0.01879,0 -0.03132,-0.0115 -0.01148,-0.0115 -0.01148,-0.0292 0,-0.0136 0.01044,-0.0324 0.02088,-0.0428 0.02088,-0.10648 0,-0.20355 -0.175369,-0.37161 -0.174325,-0.16702 -0.415457,-0.16702 -0.03445,0 -0.107518,0.006 z m -0.145097,0.0198 q -0.189983,0.0397 -0.271405,0.12422 -0.08142,0.0856 -0.08142,0.20147 0,0.11691 0.09082,0.19938 0.09186,0.0835 0.238001,0.0835 0.136746,0 0.226519,-0.0835 0.08977,-0.0835 0.08977,-0.18894 0,-0.10126 -0.08664,-0.19521 -0.05741,-0.0626 -0.205641,-0.14092 z m 0.494792,2.4082 h -0.08873 q 0.120044,0.11169 0.120044,0.22443 0,0.0678 -0.03654,0.119 -0.03549,0.0511 -0.108562,0.0856 0.07307,0.0585 0.108562,0.11795 0.03654,0.0605 0.03654,0.12109 0,0.095 -0.06159,0.15136 -0.07933,0.0741 -0.173282,0.0741 h -0.612748 v 0.0741 q 0,0.0313 -0.01252,0.0449 -0.01148,0.0136 -0.03132,0.0136 -0.01879,0 -0.03132,-0.0136 -0.01253,-0.0136 -0.01253,-0.0449 v -0.1618 h 0.692082 q 0.06681,0 0.11065,-0.0407 0.04384,-0.0407 0.04384,-0.0939 0,-0.048 -0.03654,-0.10125 -0.03549,-0.0532 -0.140921,-0.12109 h -0.581432 v 0.0731 q 0,0.0313 -0.01252,0.0449 -0.01148,0.0136 -0.03132,0.0136 -0.01879,0 -0.03132,-0.0136 -0.01253,-0.0136 -0.01253,-0.0449 v -0.1618 h 0.685818 q 0.06994,0 0.114825,-0.0418 0.04593,-0.0407 0.04593,-0.0919 0,-0.047 -0.03027,-0.0929 -0.0428,-0.0637 -0.147184,-0.13361 h -0.581433 v 0.0741 q 0,0.0313 -0.01253,0.0449 -0.01148,0.0136 -0.03132,0.0136 -0.01879,0 -0.03132,-0.0136 -0.01252,-0.0136 -0.01252,-0.0449 v -0.23592 q 0,-0.0313 0.01252,-0.0449 0.01253,-0.0136 0.03132,-0.0136 0.01983,0 0.03132,0.0136 0.01253,0.0136 0.01253,0.0449 v 0.0741 h 0.727574 v -0.0741 q 0,-0.0313 0.01253,-0.0449 0.01252,-0.0136 0.03236,-0.0136 0.01879,0 0.03132,0.0136 0.01253,0.0136 0.01253,0.0449 z m 0,1.2829 h -0.08873 q 0.120044,0.1117 0.120044,0.22443 0,0.0679 -0.03654,0.11901 -0.03549,0.0511 -0.108562,0.0856 0.07307,0.0585 0.108562,0.11795 0.03654,0.0605 0.03654,0.12109 0,0.095 -0.06159,0.15136 -0.07933,0.0741 -0.173282,0.0741 h -0.612748 v 0.0741 q 0,0.0313 -0.01252,0.0449 -0.01148,0.0136 -0.03132,0.0136 -0.01879,0 -0.03132,-0.0136 -0.01253,-0.0136 -0.01253,-0.0449 v -0.1618 h 0.692082 q 0.06681,0 0.11065,-0.0407 0.04384,-0.0407 0.04384,-0.0939 0,-0.048 -0.03654,-0.10125 -0.03549,-0.0532 -0.140921,-0.12109 h -0.581432 v 0.0731 q 0,0.0313 -0.01252,0.0449 -0.01148,0.0136 -0.03132,0.0136 -0.01879,0 -0.03132,-0.0136 -0.01253,-0.0136 -0.01253,-0.0449 v -0.1618 h 0.685818 q 0.06994,0 0.114825,-0.0418 0.04593,-0.0407 0.04593,-0.0919 0,-0.047 -0.03027,-0.0929 -0.0428,-0.0637 -0.147184,-0.13361 h -0.581433 v 0.0741 q 0,0.0313 -0.01253,0.0449 -0.01148,0.0136 -0.03132,0.0136 -0.01879,0 -0.03132,-0.0136 -0.01252,-0.0136 -0.01252,-0.0449 v -0.23592 q 0,-0.0313 0.01252,-0.0449 0.01253,-0.0136 0.03132,-0.0136 0.01983,0 0.03132,0.0136 0.01253,0.0136 0.01253,0.0449 v 0.0741 h 0.727574 v -0.0741 q 0,-0.0313 0.01253,-0.0449 0.01252,-0.0136 0.03236,-0.0136 0.01879,0 0.03132,0.0136 0.01253,0.0136 0.01253,0.0449 z m -0.431116,3.02512 -0.385186,0.40189 q 0,0.0397 -0.0042,0.0501 -0.0031,0.0104 -0.01461,0.0177 -0.01148,0.008 -0.02505,0.008 -0.01879,0 -0.03132,-0.0136 -0.01253,-0.0136 -0.01253,-0.0459 v -0.28184 q 0,-0.0324 0.01253,-0.0459 0.01252,-0.0136 0.03132,-0.0136 0.01983,0 0.03131,0.0136 0.01253,0.0136 0.01253,0.0459 v 0.14509 l 0.32673,-0.34134 -0.32673,-0.33926 v 0.14614 q 0,0.0313 -0.01253,0.0449 -0.01148,0.0136 -0.03131,0.0136 -0.01879,0 -0.03132,-0.0136 -0.01253,-0.0136 -0.01253,-0.0449 v -0.28497 q 0,-0.0313 0.01253,-0.0449 0.01252,-0.0136 0.03132,-0.0136 0.01357,0 0.02505,0.007 0.01148,0.008 0.01461,0.0177 0.0042,0.0104 0.0042,0.0501 l 0.385186,0.40189 0.342387,-0.35701 q 0,-0.0376 0.0042,-0.048 0.0042,-0.009 0.01566,-0.0177 0.01148,-0.007 0.02505,-0.007 0.01879,0 0.03132,0.0136 0.01253,0.0136 0.01253,0.0459 v 0.23905 q 0,0.0324 -0.01253,0.0449 -0.01252,0.0136 -0.03236,0.0136 -0.01879,0 -0.03132,-0.0136 -0.01252,-0.0125 -0.01252,-0.0449 v -0.10439 l -0.284975,0.29542 0.284975,0.2975 v -0.10439 q 0,-0.0313 0.01252,-0.0459 0.01253,-0.0136 0.03236,-0.0136 0.01879,0 0.03132,0.0136 0.01253,0.0136 0.01253,0.0459 v 0.23905 q 0,0.0313 -0.01253,0.0449 -0.01252,0.0136 -0.03236,0.0136 -0.01253,0 -0.02401,-0.008 -0.01148,-0.007 -0.01566,-0.0177 -0.0042,-0.009 -0.0042,-0.047 z m -0.106474,2.66916 v -0.58143 h 0.101254 l 0.842399,0.48748 v 0.18268 H 54.86258 v 0.0731 q 0,0.0324 -0.01253,0.0459 -0.01148,0.0136 -0.03132,0.0136 -0.01879,0 -0.03132,-0.0136 -0.01252,-0.0136 -0.01252,-0.0459 v -0.0731 h -0.278711 v 0.0731 q 0,0.0324 -0.01252,0.0459 -0.01148,0.0136 -0.03132,0.0136 -0.01879,0 -0.03132,-0.0136 -0.01253,-0.0136 -0.01253,-0.0459 v -0.32568 q 0,-0.0324 0.01253,-0.0459 0.01252,-0.0136 0.03132,-0.0136 0.01983,0 0.03132,0.0136 0.01252,0.0136 0.01252,0.0459 v 0.16388 z m 0.08768,0 h 0.76724 v -0.0459 l -0.76724,-0.44364 z m -0.138834,0.94574 v 0.28498 l -0.576212,-0.30999 q -0.05219,-0.0282 -0.05219,-0.0678 0,-0.0261 0.01879,-0.0449 0.01775,-0.0177 0.04384,-0.0177 0.01044,0 0.02297,0.003 z m 0.447818,1.85912 H 54.95444 q -0.282887,0 -0.447817,-0.13466 -0.129439,-0.10543 -0.129439,-0.26618 0,-0.0772 0.03131,-0.14614 0.03027,-0.0678 0.0856,-0.11587 0.03445,-0.0303 0.11065,-0.0668 0.0762,-0.0355 0.139878,-0.0512 0.08977,-0.024 0.209816,-0.024 h 0.217124 q 0.283931,0 0.448861,0.13466 0.12944,0.10543 0.12944,0.26618 0,0.0783 -0.03132,0.14614 -0.03027,0.0679 -0.0856,0.11587 -0.03549,0.0313 -0.111694,0.0668 -0.0762,0.0355 -0.138833,0.0522 -0.08977,0.023 -0.210861,0.023 z m -0.01148,-0.0877 q 0.12422,0 0.230694,-0.0355 0.107518,-0.0344 0.171194,-0.0783 0.03654,-0.0261 0.06263,-0.0679 0.03654,-0.0595 0.03654,-0.13361 0,-0.14719 -0.150317,-0.2307 -0.150316,-0.0835 -0.350738,-0.0835 h -0.193115 q -0.12422,0 -0.231737,0.0344 -0.107518,0.0355 -0.171194,0.0804 -0.03549,0.0251 -0.06159,0.0668 -0.03758,0.0595 -0.03758,0.13466 0,0.14614 0.150316,0.22965 0.15136,0.0835 0.351782,0.0835 z m -0.19729,0.7067 q 0.120044,0.0814 0.177457,0.16702 0.05741,0.0866 0.05741,0.19207 0,0.139877 -0.116913,0.248439 -0.115868,0.108562 -0.287062,0.108562 -0.15658,0 -0.287063,-0.09917 -0.129439,-0.09917 -0.129439,-0.273491 0,-0.11378 0.06994,-0.21295 0.06994,-0.0981 0.215036,-0.15449 0.180588,-0.0699 0.3998,-0.0699 0.16493,0 0.306896,0.0658 0.109606,0.0501 0.192071,0.13361 0.08351,0.0835 0.135702,0.19416 0.05324,0.11169 0.05324,0.241134 0,0.08768 -0.03549,0.146141 -0.01566,0.02505 -0.04176,0.02505 -0.01879,0 -0.03132,-0.01148 -0.01148,-0.01148 -0.01148,-0.02923 0,-0.01357 0.01044,-0.03236 0.02088,-0.0428 0.02088,-0.106474 0,-0.203551 -0.175369,-0.371611 -0.174325,-0.16702 -0.415458,-0.16702 -0.03445,0 -0.107518,0.006 z m -0.145097,0.0198 q -0.189983,0.0397 -0.271405,0.12422 -0.08142,0.0856 -0.08142,0.20146 0,0.116918 0.09082,0.199383 0.09186,0.08351 0.238001,0.08351 0.136746,0 0.226518,-0.08351 0.08977,-0.08351 0.08977,-0.188943 0,-0.10125 -0.08664,-0.1952 -0.05741,-0.0626 -0.205641,-0.14092 z m 0.494791,2.408193 h -0.08873 q 0.120044,0.111694 0.120044,0.224431 0,0.06785 -0.03654,0.119001 -0.03549,0.05115 -0.108562,0.0856 0.07307,0.05846 0.108562,0.117957 0.03654,0.06054 0.03654,0.121088 0,0.09499 -0.06159,0.15136 -0.07933,0.07411 -0.173281,0.07411 h -0.612748 v 0.07411 q 0,0.03132 -0.01252,0.04489 -0.01148,0.01357 -0.03132,0.01357 -0.01879,0 -0.03132,-0.01357 -0.01253,-0.01357 -0.01253,-0.04489 v -0.161799 h 0.692082 q 0.06681,0 0.110649,-0.04071 0.04384,-0.04071 0.04384,-0.09395 0,-0.04802 -0.03654,-0.101255 -0.03549,-0.05324 -0.140921,-0.121088 h -0.581433 v 0.07307 q 0,0.03132 -0.01253,0.04489 -0.01148,0.01357 -0.03131,0.01357 -0.01879,0 -0.03132,-0.01357 -0.01253,-0.01357 -0.01253,-0.04489 v -0.161799 h 0.685819 q 0.06994,0 0.114825,-0.04175 0.04593,-0.04071 0.04593,-0.09186 0,-0.04697 -0.03027,-0.0929 -0.0428,-0.06368 -0.147185,-0.133615 h -0.581432 v 0.07412 q 0,0.03132 -0.01253,0.04489 -0.01148,0.01357 -0.03132,0.01357 -0.01879,0 -0.03132,-0.01357 -0.01252,-0.01357 -0.01252,-0.04489 v -0.235914 q 0,-0.03131 0.01252,-0.04489 0.01253,-0.01357 0.03132,-0.01357 0.01983,0 0.03132,0.01357 0.01253,0.01357 0.01253,0.04489 v 0.07412 h 0.727573 v -0.07412 q 0,-0.03131 0.01252,-0.04489 0.01253,-0.01357 0.03236,-0.01357 0.01879,0 0.03132,0.01357 0.01253,0.01357 0.01253,0.04489 z m 0,1.282909 h -0.08873 q 0.120044,0.111693 0.120044,0.224431 0,0.06785 -0.03654,0.119 -0.03549,0.05115 -0.108562,0.0856 0.07307,0.05846 0.108562,0.117957 0.03654,0.06054 0.03654,0.121088 0,0.09499 -0.06159,0.15136 -0.07933,0.07411 -0.173281,0.07411 h -0.612748 v 0.07411 q 0,0.03132 -0.01252,0.04489 -0.01148,0.01357 -0.03132,0.01357 -0.01879,0 -0.03132,-0.01357 -0.01253,-0.01357 -0.01253,-0.04489 v -0.161799 h 0.692082 q 0.06681,0 0.110649,-0.04071 0.04384,-0.04071 0.04384,-0.09395 0,-0.04802 -0.03654,-0.101254 -0.03549,-0.05324 -0.140921,-0.121089 h -0.581433 v 0.07307 q 0,0.03132 -0.01253,0.04489 -0.01148,0.01357 -0.03131,0.01357 -0.01879,0 -0.03132,-0.01357 -0.01253,-0.01357 -0.01253,-0.04489 v -0.161799 h 0.685819 q 0.06994,0 0.114825,-0.04175 0.04593,-0.04071 0.04593,-0.09186 0,-0.04697 -0.03027,-0.0929 -0.0428,-0.06368 -0.147185,-0.133614 h -0.581432 v 0.07411 q 0,0.03132 -0.01253,0.04489 -0.01148,0.01357 -0.03132,0.01357 -0.01879,0 -0.03132,-0.01357 -0.01252,-0.01357 -0.01252,-0.04489 v -0.235912 q 0,-0.03132 0.01252,-0.04489 0.01253,-0.01357 0.03132,-0.01357 0.01983,0 0.03132,0.01357 0.01253,0.01357 0.01253,0.04489 v 0.07411 h 0.727568 v -0.07411 q 0,-0.03132 0.01253,-0.04489 0.01252,-0.01357 0.03236,-0.01357 0.01879,0 0.03132,0.01357 0.01253,0.01357 0.01253,0.04489 z"
     id="text23"
     style="font-size:8px;font-family:'Courier New';fill:#ff0000;stroke:#ff0000;stroke-width:0.01"
     aria-label="18,56 mm x 4,06 mm"
     inkscape:engrave="0"
     inkscape:feed="50"
     inkscape:power="50" />
</svg>
