<?xml version="1.0" encoding="UTF-8" standalone="no"?>
<svg
   version="1.1"
   id="svg23"
   sodipodi:docname="output.svg"
   xmlns:inkscape="http://www.inkscape.org/namespaces/inkscape"
   xmlns:sodipodi="http://sodipodi.sourceforge.net/DTD/sodipodi-0.dtd"
   xmlns="http://www.w3.org/2000/svg"
   xmlns:svg="http://www.w3.org/2000/svg">
  <defs
     id="defs23" />
  <sodipodi:namedview
     id="namedview23"
     pagecolor="#ffffff"
     bordercolor="#000000"
     borderopacity="0.25"
     inkscape:showpageshadow="2"
     inkscape:pageopacity="0.0"
     inkscape:pagecheckerboard="0"
     inkscape:deskcolor="#d1d1d1" />
  <path
     d="m 44.802104,-93.302876 q 0,0.06413 0.0096,0.131477 0.0096,0.06734 0.02565,0.109029 h -0.214853 q -0.02245,-0.04489 -0.03527,-0.128269 -0.01603,-0.08338 -0.01603,-0.160338 0,-0.134683 0.04489,-0.250126 0.0481,-0.112237 0.163544,-0.182785 0.115443,-0.07055 0.323882,-0.07055 h 1.000506 v -0.243713 h 0.134683 l 0.112236,0.24692 0.36557,0.112236 v 0.166751 h -0.39443 v 0.497046 h -0.218059 v -0.497046 H 45.10993 q -0.15713,0 -0.234092,0.07376 -0.07376,0.07696 -0.07376,0.195611 z m 1.552067,1.247426 q 0,0.218059 -0.0962,0.378397 -0.0962,0.160337 -0.272574,0.243713 -0.173164,0.08658 -0.407257,0.08658 h -0.16996 v -1.176877 q -0.291814,0.0064 -0.445738,0.14751 -0.150717,0.144304 -0.150717,0.400844 0,0.163544 0.02886,0.288607 0.03207,0.12827 0.08979,0.262954 h -0.246919 q -0.05772,-0.131477 -0.08338,-0.259747 -0.02886,-0.12827 -0.02886,-0.304641 0,-0.24692 0.09941,-0.432911 0.09941,-0.185992 0.295021,-0.291815 0.195611,-0.102616 0.484219,-0.102616 0.282194,0 0.484219,0.093 0.202025,0.0962 0.311055,0.26616 0.109029,0.173165 0.109029,0.400844 z m -0.230886,-0.0032 q 0,-0.202025 -0.131476,-0.320675 -0.12827,-0.115443 -0.359156,-0.13789 v 0.875443 q 0.218059,-0.0032 0.352742,-0.102616 0.13789,-0.09941 0.13789,-0.314262 z m -1.0454,2.26717 q -0.250127,0 -0.378397,-0.185992 -0.12827,-0.185991 -0.12827,-0.500253 0,-0.179578 0.02886,-0.311054 0.02886,-0.12827 0.08017,-0.22768 h 0.25654 q -0.05131,0.102616 -0.0962,0.24692 -0.04169,0.147511 -0.04169,0.298228 0,0.214852 0.06734,0.311054 0.07055,0.0962 0.185992,0.0962 0.06414,0 0.115443,-0.03527 0.05131,-0.03527 0.102616,-0.12827 0.05131,-0.08979 0.115443,-0.259747 0.06414,-0.166751 0.12827,-0.285401 0.06414,-0.118649 0.153924,-0.182784 0.08979,-0.06413 0.230886,-0.06413 0.218059,0 0.336708,0.176371 0.11865,0.179578 0.11865,0.468185 0,0.157131 -0.03207,0.291814 -0.03207,0.137891 -0.08338,0.25654 l -0.224472,-0.0962 q 0.04489,-0.10903 0.07696,-0.227679 0.03207,-0.11865 0.03207,-0.243713 0,-0.173165 -0.05772,-0.26616 -0.05452,-0.08979 -0.150717,-0.08979 -0.07376,0 -0.121857,0.04169 -0.0481,0.04169 -0.0962,0.13789 -0.0481,0.09941 -0.10903,0.262954 -0.06093,0.163544 -0.125063,0.278987 -0.06413,0.115443 -0.157131,0.176371 -0.08979,0.06093 -0.227679,0.06093 z m -0.275781,0.990886 q 0,0.06414 0.0096,0.131476 0.0096,0.06734 0.02565,0.10903 h -0.214853 q -0.02245,-0.04489 -0.03527,-0.12827 -0.01603,-0.08338 -0.01603,-0.160338 0,-0.134683 0.04489,-0.250126 0.0481,-0.112236 0.163544,-0.182785 0.115443,-0.07055 0.323882,-0.07055 h 1.000506 v -0.243713 h 0.134683 l 0.112236,0.246919 0.36557,0.112237 v 0.166751 h -0.39443 v 0.497046 h -0.218059 v -0.497046 H 45.10993 q -0.15713,0 -0.234092,0.07376 -0.07376,0.07696 -0.07376,0.195612 z m 1.552067,1.247425 q 0,0.218059 -0.0962,0.378397 -0.0962,0.160337 -0.272574,0.243713 -0.173164,0.08658 -0.407257,0.08658 h -0.16996 v -1.176877 q -0.291814,0.0064 -0.445738,0.14751 -0.150717,0.144304 -0.150717,0.400844 0,0.163544 0.02886,0.288608 0.03207,0.12827 0.08979,0.262953 h -0.246919 q -0.05772,-0.131477 -0.08338,-0.259747 -0.02886,-0.12827 -0.02886,-0.304641 0,-0.24692 0.09941,-0.432911 0.09941,-0.185992 0.295021,-0.291814 0.195611,-0.102616 0.484219,-0.102616 0.282194,0 0.484219,0.093 0.202025,0.0962 0.311055,0.266161 0.109029,0.173164 0.109029,0.400843 z m -0.230886,-0.0032 q 0,-0.202026 -0.131476,-0.320675 -0.12827,-0.115443 -0.359156,-0.137891 v 0.875443 q 0.218059,-0.0032 0.352742,-0.102616 0.13789,-0.09941 0.13789,-0.314261 z"
     id="text1"
     style="font-size:12px;text-anchor:middle;stroke:#FF0000;stroke-width:0.01;fill:#FF0000"
     aria-label="teste" />
  <path
     d="m 33.671899,-93.302876 q 0,0.06413 0.0096,0.131477 0.0096,0.06734 0.02565,0.109029 h -0.214853 q -0.02245,-0.04489 -0.03527,-0.128269 -0.01603,-0.08338 -0.01603,-0.160338 0,-0.134683 0.0449,-0.250126 0.0481,-0.112237 0.163544,-0.182785 0.115443,-0.07055 0.323882,-0.07055 h 1.000506 v -0.243713 h 0.134683 l 0.112236,0.24692 0.36557,0.112236 v 0.166751 h -0.39443 v 0.497046 H 34.97384 v -0.497046 h -0.994093 q -0.15713,0 -0.234092,0.07376 -0.07376,0.07696 -0.07376,0.195611 z m 1.552067,1.247426 q 0,0.218059 -0.0962,0.378397 -0.0962,0.160337 -0.272574,0.243713 -0.173164,0.08658 -0.407257,0.08658 h -0.169958 v -1.176877 q -0.291814,0.0064 -0.445738,0.14751 -0.150717,0.144304 -0.150717,0.400844 0,0.163544 0.02886,0.288607 0.03207,0.12827 0.08979,0.262954 H 33.55325 q -0.05772,-0.131477 -0.08338,-0.259747 -0.02886,-0.12827 -0.02886,-0.304641 0,-0.24692 0.09941,-0.432911 0.09941,-0.185992 0.295021,-0.291815 0.195611,-0.102616 0.484219,-0.102616 0.282194,0 0.484219,0.093 0.202025,0.0962 0.311055,0.26616 0.109029,0.173165 0.109029,0.400844 z m -0.230886,-0.0032 q 0,-0.202025 -0.131476,-0.320675 -0.12827,-0.115443 -0.359156,-0.13789 v 0.875443 q 0.218059,-0.0032 0.352742,-0.102616 0.13789,-0.09941 0.13789,-0.314262 z m -1.0454,2.26717 q -0.250127,0 -0.378397,-0.185992 -0.12827,-0.185991 -0.12827,-0.500253 0,-0.179578 0.02886,-0.311054 0.02886,-0.12827 0.08017,-0.22768 h 0.25654 q -0.05131,0.102616 -0.0962,0.24692 -0.04169,0.147511 -0.04169,0.298228 0,0.214852 0.06734,0.311054 0.07055,0.0962 0.185992,0.0962 0.06414,0 0.115443,-0.03527 0.05131,-0.03527 0.102616,-0.12827 0.05131,-0.08979 0.115443,-0.259747 0.06414,-0.166751 0.12827,-0.285401 0.06414,-0.118649 0.153924,-0.182784 0.08979,-0.06413 0.230886,-0.06413 0.218059,0 0.336709,0.176371 0.118649,0.179578 0.118649,0.468185 0,0.157131 -0.03207,0.291814 -0.03207,0.137891 -0.08338,0.25654 l -0.224472,-0.0962 q 0.04489,-0.10903 0.07696,-0.227679 0.03207,-0.11865 0.03207,-0.243713 0,-0.173165 -0.05772,-0.26616 -0.05451,-0.08979 -0.150717,-0.08979 -0.07376,0 -0.121857,0.04169 -0.0481,0.04169 -0.0962,0.13789 -0.0481,0.09941 -0.10903,0.262954 -0.06093,0.163544 -0.125063,0.278987 -0.06414,0.115443 -0.157131,0.176371 -0.08979,0.06093 -0.227679,0.06093 z m -0.275781,0.990886 q 0,0.06414 0.0096,0.131476 0.0096,0.06734 0.02565,0.10903 h -0.214853 q -0.02245,-0.04489 -0.03527,-0.12827 -0.01603,-0.08338 -0.01603,-0.160338 0,-0.134683 0.0449,-0.250126 0.0481,-0.112236 0.163544,-0.182785 0.115443,-0.07055 0.323882,-0.07055 h 1.000506 v -0.243713 h 0.134683 l 0.112236,0.246919 0.36557,0.112237 v 0.166751 h -0.39443 v 0.497046 H 34.97384 v -0.497046 h -0.994093 q -0.15713,0 -0.234092,0.07376 -0.07376,0.07696 -0.07376,0.195612 z m 1.552067,1.247425 q 0,0.218059 -0.0962,0.378397 -0.0962,0.160337 -0.272574,0.243713 -0.173164,0.08658 -0.407257,0.08658 h -0.169958 v -1.176877 q -0.291814,0.0064 -0.445738,0.14751 -0.150717,0.144304 -0.150717,0.400844 0,0.163544 0.02886,0.288608 0.03207,0.12827 0.08979,0.262953 H 33.55325 q -0.05772,-0.131477 -0.08338,-0.259747 -0.02886,-0.12827 -0.02886,-0.304641 0,-0.24692 0.09941,-0.432911 0.09941,-0.185992 0.295021,-0.291814 0.195611,-0.102616 0.484219,-0.102616 0.282194,0 0.484219,0.093 0.202025,0.0962 0.311055,0.266161 0.109029,0.173164 0.109029,0.400843 z m -0.230886,-0.0032 q 0,-0.202026 -0.131476,-0.320675 -0.12827,-0.115443 -0.359156,-0.137891 v 0.875443 q 0.218059,-0.0032 0.352742,-0.102616 0.13789,-0.09941 0.13789,-0.314261 z"
     id="text2"
     style="font-size:12px;text-anchor:middle;stroke:#FF0000;stroke-width:0.01;fill:#FF0000"
     aria-label="teste" />
  <path
     d="m 22.541702,-93.302876 q 0,0.06413 0.0096,0.131477 0.0096,0.06734 0.02565,0.109029 H 22.3621 q -0.02245,-0.04489 -0.03527,-0.128269 -0.01603,-0.08338 -0.01603,-0.160338 0,-0.134683 0.04489,-0.250126 0.0481,-0.112237 0.163545,-0.182785 0.115443,-0.07055 0.323881,-0.07055 h 1.000506 v -0.243713 h 0.134684 l 0.112236,0.24692 0.365569,0.112236 v 0.166751 h -0.39443 v 0.497046 h -0.218059 v -0.497046 H 22.84955 q -0.157131,0 -0.234093,0.07376 -0.07375,0.07696 -0.07375,0.195611 z m 1.552067,1.247426 q 0,0.218059 -0.0962,0.378397 -0.0962,0.160337 -0.272573,0.243713 -0.173165,0.08658 -0.407258,0.08658 h -0.169957 v -1.176877 q -0.291815,0.0064 -0.445739,0.14751 -0.150717,0.144304 -0.150717,0.400844 0,0.163544 0.02886,0.288607 0.03207,0.12827 0.08979,0.262954 h -0.24692 q -0.05772,-0.131477 -0.08338,-0.259747 -0.02886,-0.12827 -0.02886,-0.304641 0,-0.24692 0.09941,-0.432911 0.09941,-0.185992 0.295021,-0.291815 0.195612,-0.102616 0.484219,-0.102616 0.282194,0 0.48422,0.093 0.202025,0.0962 0.311054,0.26616 0.10903,0.173165 0.10903,0.400844 z m -0.230886,-0.0032 q 0,-0.202025 -0.131477,-0.320675 -0.12827,-0.115443 -0.359156,-0.13789 v 0.875443 q 0.218059,-0.0032 0.352743,-0.102616 0.13789,-0.09941 0.13789,-0.314262 z m -1.045401,2.26717 q -0.250126,0 -0.378396,-0.185992 -0.12827,-0.185991 -0.12827,-0.500253 0,-0.179578 0.02886,-0.311054 0.02886,-0.12827 0.08017,-0.22768 h 0.25654 q -0.05131,0.102616 -0.0962,0.24692 -0.04169,0.147511 -0.04169,0.298228 0,0.214852 0.06734,0.311054 0.07055,0.0962 0.185991,0.0962 0.06414,0 0.115443,-0.03527 0.05131,-0.03527 0.102616,-0.12827 0.05131,-0.08979 0.115443,-0.259747 0.06413,-0.166751 0.12827,-0.285401 0.06414,-0.118649 0.153924,-0.182784 0.08979,-0.06413 0.230886,-0.06413 0.218059,0 0.336709,0.176371 0.11865,0.179578 0.11865,0.468185 0,0.157131 -0.03207,0.291814 -0.03207,0.137891 -0.08338,0.25654 l -0.224473,-0.0962 q 0.0449,-0.10903 0.07696,-0.227679 0.03207,-0.11865 0.03207,-0.243713 0,-0.173165 -0.05772,-0.26616 -0.05451,-0.08979 -0.150717,-0.08979 -0.07376,0 -0.121856,0.04169 -0.0481,0.04169 -0.0962,0.13789 -0.0481,0.09941 -0.109029,0.262954 -0.06093,0.163544 -0.125064,0.278987 -0.06414,0.115443 -0.15713,0.176371 -0.08979,0.06093 -0.22768,0.06093 z m -0.27578,0.990886 q 0,0.06414 0.0096,0.131476 0.0096,0.06734 0.02565,0.10903 H 22.3621 q -0.02245,-0.04489 -0.03527,-0.12827 -0.01603,-0.08338 -0.01603,-0.160338 0,-0.134683 0.04489,-0.250126 0.0481,-0.112236 0.163545,-0.182785 0.115443,-0.07055 0.323881,-0.07055 h 1.000506 v -0.243713 h 0.134684 l 0.112236,0.246919 0.365569,0.112237 v 0.166751 h -0.39443 v 0.497046 h -0.218059 v -0.497046 H 22.84955 q -0.157131,0 -0.234093,0.07376 -0.07375,0.07696 -0.07375,0.195612 z m 1.552067,1.247425 q 0,0.218059 -0.0962,0.378397 -0.0962,0.160337 -0.272573,0.243713 -0.173165,0.08658 -0.407258,0.08658 h -0.169957 v -1.176877 q -0.291815,0.0064 -0.445739,0.14751 -0.150717,0.144304 -0.150717,0.400844 0,0.163544 0.02886,0.288608 0.03207,0.12827 0.08979,0.262953 h -0.24692 q -0.05772,-0.131477 -0.08338,-0.259747 -0.02886,-0.12827 -0.02886,-0.304641 0,-0.24692 0.09941,-0.432911 0.09941,-0.185992 0.295021,-0.291814 0.195612,-0.102616 0.484219,-0.102616 0.282194,0 0.48422,0.093 0.202025,0.0962 0.311054,0.266161 0.10903,0.173164 0.10903,0.400843 z m -0.230886,-0.0032 q 0,-0.202026 -0.131477,-0.320675 -0.12827,-0.115443 -0.359156,-0.137891 v 0.875443 q 0.218059,-0.0032 0.352743,-0.102616 0.13789,-0.09941 0.13789,-0.314261 z"
     id="text3"
     style="font-size:12px;text-anchor:middle;stroke:#FF0000;stroke-width:0.01;fill:#FF0000"
     aria-label="teste" />
  <path
     d="m 11.411499,-93.302876 q 0,0.06413 0.0096,0.131477 0.0096,0.06734 0.02565,0.109029 h -0.214852 q -0.02245,-0.04489 -0.03527,-0.128269 -0.01603,-0.08338 -0.01603,-0.160338 0,-0.134683 0.0449,-0.250126 0.0481,-0.112237 0.163544,-0.182785 0.115443,-0.07055 0.323882,-0.07055 h 1.000505 v -0.243713 h 0.134684 l 0.112236,0.24692 0.36557,0.112236 v 0.166751 h -0.394431 v 0.497046 h -0.218059 v -0.497046 h -0.994092 q -0.157131,0 -0.234093,0.07376 -0.07376,0.07696 -0.07376,0.195611 z m 1.552067,1.247426 q 0,0.218059 -0.0962,0.378397 -0.0962,0.160337 -0.272573,0.243713 -0.173165,0.08658 -0.407257,0.08658 h -0.169958 v -1.176877 q -0.291814,0.0064 -0.445738,0.14751 -0.150718,0.144304 -0.150718,0.400844 0,0.163544 0.02886,0.288607 0.03207,0.12827 0.08979,0.262954 h -0.24692 q -0.05772,-0.131477 -0.08338,-0.259747 -0.02886,-0.12827 -0.02886,-0.304641 0,-0.24692 0.09941,-0.432911 0.09941,-0.185992 0.295021,-0.291815 0.195612,-0.102616 0.48422,-0.102616 0.282194,0 0.484219,0.093 0.202025,0.0962 0.311054,0.26616 0.10903,0.173165 0.10903,0.400844 z m -0.230886,-0.0032 q 0,-0.202025 -0.131477,-0.320675 -0.12827,-0.115443 -0.359156,-0.13789 v 0.875443 q 0.218059,-0.0032 0.352743,-0.102616 0.13789,-0.09941 0.13789,-0.314262 z m -1.0454,2.26717 q -0.250127,0 -0.378397,-0.185992 -0.12827,-0.185991 -0.12827,-0.500253 0,-0.179578 0.02886,-0.311054 0.02886,-0.12827 0.08017,-0.22768 h 0.25654 q -0.05131,0.102616 -0.0962,0.24692 -0.04169,0.147511 -0.04169,0.298228 0,0.214852 0.06734,0.311054 0.07055,0.0962 0.185992,0.0962 0.06414,0 0.115443,-0.03527 0.05131,-0.03527 0.102616,-0.12827 0.05131,-0.08979 0.115443,-0.259747 0.06414,-0.166751 0.12827,-0.285401 0.06414,-0.118649 0.153924,-0.182784 0.08979,-0.06413 0.230885,-0.06413 0.218059,0 0.336709,0.176371 0.11865,0.179578 0.11865,0.468185 0,0.157131 -0.03207,0.291814 -0.03207,0.137891 -0.08338,0.25654 l -0.224473,-0.0962 q 0.0449,-0.10903 0.07696,-0.227679 0.03207,-0.11865 0.03207,-0.243713 0,-0.173165 -0.05772,-0.26616 -0.05451,-0.08979 -0.150717,-0.08979 -0.07376,0 -0.121856,0.04169 -0.0481,0.04169 -0.0962,0.13789 -0.0481,0.09941 -0.109029,0.262954 -0.06093,0.163544 -0.125063,0.278987 -0.06413,0.115443 -0.157131,0.176371 -0.08979,0.06093 -0.227679,0.06093 z m -0.275781,0.990886 q 0,0.06414 0.0096,0.131476 0.0096,0.06734 0.02565,0.10903 h -0.214852 q -0.02245,-0.04489 -0.03527,-0.12827 -0.01603,-0.08338 -0.01603,-0.160338 0,-0.134683 0.0449,-0.250126 0.0481,-0.112236 0.163544,-0.182785 0.115443,-0.07055 0.323882,-0.07055 h 1.000505 v -0.243713 h 0.134684 l 0.112236,0.246919 0.36557,0.112237 v 0.166751 h -0.394431 v 0.497046 h -0.218059 v -0.497046 h -0.994092 q -0.157131,0 -0.234093,0.07376 -0.07376,0.07696 -0.07376,0.195612 z m 1.552067,1.247425 q 0,0.218059 -0.0962,0.378397 -0.0962,0.160337 -0.272573,0.243713 -0.173165,0.08658 -0.407257,0.08658 h -0.169958 v -1.176877 q -0.291814,0.0064 -0.445738,0.14751 -0.150718,0.144304 -0.150718,0.400844 0,0.163544 0.02886,0.288608 0.03207,0.12827 0.08979,0.262953 h -0.24692 q -0.05772,-0.131477 -0.08338,-0.259747 -0.02886,-0.12827 -0.02886,-0.304641 0,-0.24692 0.09941,-0.432911 0.09941,-0.185992 0.295021,-0.291814 0.195612,-0.102616 0.48422,-0.102616 0.282194,0 0.484219,0.093 0.202025,0.0962 0.311054,0.266161 0.10903,0.173164 0.10903,0.400843 z m -0.230886,-0.0032 q 0,-0.202026 -0.131477,-0.320675 -0.12827,-0.115443 -0.359156,-0.137891 v 0.875443 q 0.218059,-0.0032 0.352743,-0.102616 0.13789,-0.09941 0.13789,-0.314261 z"
     id="text4"
     style="font-size:12px;text-anchor:middle;stroke:#FF0000;stroke-width:0.01;fill:#FF0000"
     aria-label="teste" />
  <path
     d="m 0.28129631,-93.302876 q 0,0.06413 0.00962,0.131477 0.00962,0.06734 0.025654,0.109029 H 0.10171834 q -0.02244725,-0.04489 -0.03527425,-0.128269 -0.01603374,-0.08338 -0.01603374,-0.160338 0,-0.134683 0.04489449,-0.250126 0.04810124,-0.112237 0.16354423,-0.182785 0.11544298,-0.07055 0.3238817,-0.07055 H 1.5832366 v -0.243713 h 0.1346835 l 0.1122363,0.24692 0.3655694,0.112236 v 0.166751 H 1.8012956 v 0.497046 h -0.218059 v -0.497046 H 0.58914427 q -0.15713073,0 -0.23409272,0.07376 -0.0737552,0.07696 -0.0737552,0.195611 z m 1.55206679,1.247426 q 0,0.218059 -0.096202,0.378397 -0.096202,0.160337 -0.2725737,0.243713 -0.1731645,0.08658 -0.4072572,0.08658 H 0.88737198 v -1.176877 q -0.29181421,0.0064 -0.44573819,0.14751 -0.15071723,0.144304 -0.15071723,0.400844 0,0.163544 0.0288607,0.288607 0.0320675,0.12827 0.089789,0.262954 H 0.16264658 q -0.0577215,-0.131477 -0.08337549,-0.259747 -0.02886074,-0.12827 -0.02886074,-0.304641 0,-0.24692 0.09940923,-0.432911 0.0994092,-0.185992 0.29502096,-0.291815 0.19561173,-0.102616 0.48421919,-0.102616 0.28219397,0 0.48421917,0.093 0.2020252,0.0962 0.3110547,0.26616 0.1090295,0.173165 0.1090295,0.400844 z m -0.230886,-0.0032 q 0,-0.202025 -0.1314767,-0.320675 -0.12827,-0.115443 -0.3591559,-0.13789 v 0.875443 q 0.2180589,-0.0032 0.3527424,-0.102616 0.1378902,-0.09941 0.1378902,-0.314262 z m -1.04540032,2.26717 q -0.25012647,0 -0.37839645,-0.185992 -0.12826998,-0.185991 -0.12826998,-0.500253 0,-0.179578 0.02886074,-0.311054 0.02886075,-0.12827 0.08016874,-0.22768 H 0.4159798 q -0.051308,0.102616 -0.0962025,0.24692 -0.0416877,0.147511 -0.0416877,0.298228 0,0.214852 0.0673417,0.311054 0.0705485,0.0962 0.18599147,0.0962 0.064135,0 0.11544298,-0.03527 0.051308,-0.03527 0.10261599,-0.12827 0.051308,-0.08979 0.11544298,-0.259747 0.064135,-0.166751 0.12826999,-0.285401 0.064135,-0.118649 0.15392399,-0.182784 0.089789,-0.06413 0.230886,-0.06413 0.2180589,0 0.3367087,0.176371 0.1186497,0.179578 0.1186497,0.468185 0,0.157131 -0.032067,0.291814 -0.032067,0.137891 -0.083376,0.25654 l -0.2244725,-0.0962 q 0.044894,-0.10903 0.076962,-0.227679 0.032067,-0.11865 0.032067,-0.243713 0,-0.173165 -0.057721,-0.26616 -0.054515,-0.08979 -0.1507172,-0.08979 -0.073755,0 -0.1218565,0.04169 -0.048101,0.04169 -0.096203,0.13789 -0.048101,0.09941 -0.1090294,0.262954 -0.060928,0.163544 -0.12506329,0.278987 -0.064135,0.115443 -0.15713072,0.176371 -0.089789,0.06093 -0.22767922,0.06093 z m -0.27578047,0.990886 q 0,0.06414 0.00962,0.131476 0.00962,0.06734 0.025654,0.10903 H 0.10171834 q -0.02244725,-0.04489 -0.03527425,-0.12827 -0.01603374,-0.08338 -0.01603374,-0.160338 0,-0.134683 0.04489449,-0.250126 0.04810124,-0.112236 0.16354423,-0.182785 0.11544298,-0.07055 0.3238817,-0.07055 H 1.5832366 v -0.243713 h 0.1346835 l 0.1122363,0.246919 0.3655694,0.112237 v 0.166751 H 1.8012956 v 0.497046 h -0.218059 v -0.497046 H 0.58914427 q -0.15713073,0 -0.23409272,0.07376 -0.0737552,0.07696 -0.0737552,0.195612 z m 1.55206679,1.247425 q 0,0.218059 -0.096202,0.378397 -0.096202,0.160337 -0.2725737,0.243713 -0.1731645,0.08658 -0.4072572,0.08658 H 0.88737198 v -1.176877 q -0.29181421,0.0064 -0.44573819,0.14751 -0.15071723,0.144304 -0.15071723,0.400844 0,0.163544 0.0288607,0.288608 0.0320675,0.12827 0.089789,0.262953 H 0.16264658 q -0.0577215,-0.131477 -0.08337549,-0.259747 -0.02886074,-0.12827 -0.02886074,-0.304641 0,-0.24692 0.09940923,-0.432911 0.0994092,-0.185992 0.29502096,-0.291814 0.19561173,-0.102616 0.48421919,-0.102616 0.28219397,0 0.48421917,0.093 0.2020252,0.0962 0.3110547,0.266161 0.1090295,0.173164 0.1090295,0.400843 z m -0.230886,-0.0032 q 0,-0.202026 -0.1314767,-0.320675 -0.12827,-0.115443 -0.3591559,-0.137891 v 0.875443 q 0.2180589,-0.0032 0.3527424,-0.102616 0.1378902,-0.09941 0.1378902,-0.314261 z"
     id="text5"
     style="font-size:12px;text-anchor:middle;stroke:#FF0000;stroke-width:0.01;fill:#FF0000"
     aria-label="teste" />
  <path
     d="m -10.848904,-93.302876 q 0,0.06413 0.0096,0.131477 0.0096,0.06734 0.02565,0.109029 h -0.214852 q -0.02245,-0.04489 -0.03527,-0.128269 -0.01603,-0.08338 -0.01603,-0.160338 0,-0.134683 0.04489,-0.250126 0.0481,-0.112237 0.163544,-0.182785 0.115443,-0.07055 0.323882,-0.07055 h 1.0005055 V -94.09815 H -9.41228 l 0.1122362,0.24692 0.3655694,0.112236 v 0.166751 h -0.3944301 v 0.497046 h -0.218059 v -0.497046 h -0.9940925 q -0.157131,0 -0.234093,0.07376 -0.07375,0.07696 -0.07375,0.195611 z m 1.5520669,1.247426 q 0,0.218059 -0.096202,0.378397 -0.096203,0.160337 -0.2725738,0.243713 -0.1731644,0.08658 -0.4072571,0.08658 h -0.169958 v -1.176877 q -0.291814,0.0064 -0.445738,0.14751 -0.150718,0.144304 -0.150718,0.400844 0,0.163544 0.02886,0.288607 0.03207,0.12827 0.08979,0.262954 h -0.24692 q -0.05772,-0.131477 -0.08338,-0.259747 -0.02886,-0.12827 -0.02886,-0.304641 0,-0.24692 0.09941,-0.432911 0.09941,-0.185992 0.295021,-0.291815 0.195612,-0.102616 0.48422,-0.102616 0.2821939,0 0.4842192,0.093 0.2020252,0.0962 0.3110547,0.26616 0.1090294,0.173165 0.1090294,0.400844 z m -0.2308859,-0.0032 q 0,-0.202025 -0.1314768,-0.320675 -0.1282699,-0.115443 -0.3591562,-0.13789 v 0.875443 q 0.2180593,-0.0032 0.3527427,-0.102616 0.1378903,-0.09941 0.1378903,-0.314262 z m -1.0454,2.26717 q -0.250127,0 -0.378397,-0.185992 -0.12827,-0.185991 -0.12827,-0.500253 0,-0.179578 0.02886,-0.311054 0.02886,-0.12827 0.08017,-0.22768 h 0.25654 q -0.05131,0.102616 -0.0962,0.24692 -0.04169,0.147511 -0.04169,0.298228 0,0.214852 0.06734,0.311054 0.07055,0.0962 0.185992,0.0962 0.06414,0 0.115443,-0.03527 0.05131,-0.03527 0.102616,-0.12827 0.05131,-0.08979 0.115443,-0.259747 0.06414,-0.166751 0.12827,-0.285401 0.06414,-0.118649 0.1539235,-0.182784 0.089789,-0.06413 0.230886,-0.06413 0.218059,0 0.3367087,0.176371 0.1186497,0.179578 0.1186497,0.468185 0,0.157131 -0.032067,0.291814 -0.032068,0.137891 -0.083376,0.25654 l -0.2244725,-0.0962 q 0.044894,-0.10903 0.076962,-0.227679 0.032068,-0.11865 0.032068,-0.243713 0,-0.173165 -0.057721,-0.26616 -0.054515,-0.08979 -0.1507172,-0.08979 -0.073755,0 -0.1218565,0.04169 -0.048101,0.04169 -0.096203,0.13789 -0.048101,0.09941 -0.1090297,0.262954 -0.06093,0.163544 -0.125063,0.278987 -0.06413,0.115443 -0.157131,0.176371 -0.08979,0.06093 -0.227679,0.06093 z m -0.275781,0.990886 q 0,0.06414 0.0096,0.131476 0.0096,0.06734 0.02565,0.10903 h -0.214852 q -0.02245,-0.04489 -0.03527,-0.12827 -0.01603,-0.08338 -0.01603,-0.160338 0,-0.134683 0.04489,-0.250126 0.0481,-0.112236 0.163544,-0.182785 0.115443,-0.07055 0.323882,-0.07055 h 1.0005055 V -89.59587 H -9.41228 l 0.1122362,0.246919 0.3655694,0.112237 v 0.166751 h -0.3944301 v 0.497046 h -0.218059 v -0.497046 h -0.9940925 q -0.157131,0 -0.234093,0.07376 -0.07375,0.07696 -0.07375,0.195612 z m 1.5520669,1.247425 q 0,0.218059 -0.096202,0.378397 -0.096203,0.160337 -0.2725738,0.243713 -0.1731644,0.08658 -0.4072571,0.08658 h -0.169958 v -1.176877 q -0.291814,0.0064 -0.445738,0.14751 -0.150718,0.144304 -0.150718,0.400844 0,0.163544 0.02886,0.288608 0.03207,0.12827 0.08979,0.262953 h -0.24692 q -0.05772,-0.131477 -0.08338,-0.259747 -0.02886,-0.12827 -0.02886,-0.304641 0,-0.24692 0.09941,-0.432911 0.09941,-0.185992 0.295021,-0.291814 0.195612,-0.102616 0.48422,-0.102616 0.2821939,0 0.4842192,0.093 0.2020252,0.0962 0.3110547,0.266161 0.1090294,0.173164 0.1090294,0.400843 z m -0.2308859,-0.0032 q 0,-0.202026 -0.1314768,-0.320675 -0.1282699,-0.115443 -0.3591562,-0.137891 v 0.875443 q 0.2180593,-0.0032 0.3527427,-0.102616 0.1378903,-0.09941 0.1378903,-0.314261 z"
     id="text6"
     style="font-size:12px;text-anchor:middle;stroke:#FF0000;stroke-width:0.01;fill:#FF0000"
     aria-label="teste" />
  <path
     d="m -21.979101,-93.302876 q 0,0.06413 0.0096,0.131477 0.0096,0.06734 0.02565,0.109029 h -0.214852 q -0.02245,-0.04489 -0.03528,-0.128269 -0.01603,-0.08338 -0.01603,-0.160338 0,-0.134683 0.04489,-0.250126 0.0481,-0.112237 0.163544,-0.182785 0.115443,-0.07055 0.323882,-0.07055 h 1.000506 v -0.243713 h 0.134683 l 0.112237,0.24692 0.365569,0.112236 v 0.166751 h -0.39443 v 0.497046 h -0.218059 v -0.497046 h -0.994092 q -0.157131,0 -0.234093,0.07376 -0.07375,0.07696 -0.07375,0.195611 z m 1.552066,1.247426 q 0,0.218059 -0.0962,0.378397 -0.0962,0.160337 -0.272574,0.243713 -0.173164,0.08658 -0.407257,0.08658 h -0.169958 v -1.176877 q -0.291814,0.0064 -0.445738,0.14751 -0.150717,0.144304 -0.150717,0.400844 0,0.163544 0.02886,0.288607 0.03207,0.12827 0.08979,0.262954 h -0.24692 q -0.05772,-0.131477 -0.08338,-0.259747 -0.02886,-0.12827 -0.02886,-0.304641 0,-0.24692 0.09941,-0.432911 0.09941,-0.185992 0.295021,-0.291815 0.195612,-0.102616 0.484219,-0.102616 0.282194,0 0.484219,0.093 0.202025,0.0962 0.311055,0.26616 0.109029,0.173165 0.109029,0.400844 z m -0.230886,-0.0032 q 0,-0.202025 -0.131476,-0.320675 -0.12827,-0.115443 -0.359156,-0.13789 v 0.875443 q 0.218059,-0.0032 0.352742,-0.102616 0.13789,-0.09941 0.13789,-0.314262 z m -1.0454,2.26717 q -0.250126,0 -0.378396,-0.185992 -0.12827,-0.185991 -0.12827,-0.500253 0,-0.179578 0.02886,-0.311054 0.02886,-0.12827 0.08017,-0.22768 h 0.25654 q -0.05131,0.102616 -0.0962,0.24692 -0.04169,0.147511 -0.04169,0.298228 0,0.214852 0.06734,0.311054 0.07055,0.0962 0.185991,0.0962 0.06413,0 0.115443,-0.03527 0.05131,-0.03527 0.102616,-0.12827 0.05131,-0.08979 0.115443,-0.259747 0.06414,-0.166751 0.12827,-0.285401 0.06414,-0.118649 0.153924,-0.182784 0.08979,-0.06413 0.230886,-0.06413 0.218059,0 0.336709,0.176371 0.118649,0.179578 0.118649,0.468185 0,0.157131 -0.03207,0.291814 -0.03207,0.137891 -0.08338,0.25654 l -0.224472,-0.0962 q 0.0449,-0.10903 0.07696,-0.227679 0.03207,-0.11865 0.03207,-0.243713 0,-0.173165 -0.05772,-0.26616 -0.05452,-0.08979 -0.150717,-0.08979 -0.07376,0 -0.121857,0.04169 -0.0481,0.04169 -0.0962,0.13789 -0.0481,0.09941 -0.10903,0.262954 -0.06093,0.163544 -0.125063,0.278987 -0.06414,0.115443 -0.157131,0.176371 -0.08979,0.06093 -0.227679,0.06093 z m -0.27578,0.990886 q 0,0.06414 0.0096,0.131476 0.0096,0.06734 0.02565,0.10903 h -0.214852 q -0.02245,-0.04489 -0.03528,-0.12827 -0.01603,-0.08338 -0.01603,-0.160338 0,-0.134683 0.04489,-0.250126 0.0481,-0.112236 0.163544,-0.182785 0.115443,-0.07055 0.323882,-0.07055 h 1.000506 v -0.243713 h 0.134683 l 0.112237,0.246919 0.365569,0.112237 v 0.166751 h -0.39443 v 0.497046 h -0.218059 v -0.497046 h -0.994092 q -0.157131,0 -0.234093,0.07376 -0.07375,0.07696 -0.07375,0.195612 z m 1.552066,1.247425 q 0,0.218059 -0.0962,0.378397 -0.0962,0.160337 -0.272574,0.243713 -0.173164,0.08658 -0.407257,0.08658 h -0.169958 v -1.176877 q -0.291814,0.0064 -0.445738,0.14751 -0.150717,0.144304 -0.150717,0.400844 0,0.163544 0.02886,0.288608 0.03207,0.12827 0.08979,0.262953 h -0.24692 q -0.05772,-0.131477 -0.08338,-0.259747 -0.02886,-0.12827 -0.02886,-0.304641 0,-0.24692 0.09941,-0.432911 0.09941,-0.185992 0.295021,-0.291814 0.195612,-0.102616 0.484219,-0.102616 0.282194,0 0.484219,0.093 0.202025,0.0962 0.311055,0.266161 0.109029,0.173164 0.109029,0.400843 z m -0.230886,-0.0032 q 0,-0.202026 -0.131476,-0.320675 -0.12827,-0.115443 -0.359156,-0.137891 v 0.875443 q 0.218059,-0.0032 0.352742,-0.102616 0.13789,-0.09941 0.13789,-0.314261 z"
     id="text7"
     style="font-size:12px;text-anchor:middle;stroke:#FF0000;stroke-width:0.01;fill:#FF0000"
     aria-label="teste" />
  <path
     d="m -33.109299,-93.302876 q 0,0.06413 0.0096,0.131477 0.0096,0.06734 0.02565,0.109029 h -0.214852 q -0.02245,-0.04489 -0.03527,-0.128269 -0.01603,-0.08338 -0.01603,-0.160338 0,-0.134683 0.04489,-0.250126 0.0481,-0.112237 0.163544,-0.182785 0.115443,-0.07055 0.323882,-0.07055 h 1.000506 v -0.243713 h 0.134683 l 0.112236,0.24692 0.36557,0.112236 v 0.166751 h -0.39441 v 0.497046 h -0.218058 v -0.497046 h -0.994093 q -0.157131,0 -0.234093,0.07376 -0.07375,0.07696 -0.07375,0.195611 z m 1.552067,1.247426 q 0,0.218059 -0.0962,0.378397 -0.0962,0.160337 -0.272573,0.243713 -0.173165,0.08658 -0.407257,0.08658 h -0.169958 v -1.176877 q -0.291814,0.0064 -0.445738,0.14751 -0.150718,0.144304 -0.150718,0.400844 0,0.163544 0.02886,0.288607 0.03207,0.12827 0.08979,0.262954 h -0.24692 q -0.05772,-0.131477 -0.08337,-0.259747 -0.02886,-0.12827 -0.02886,-0.304641 0,-0.24692 0.09941,-0.432911 0.09941,-0.185992 0.295021,-0.291815 0.195612,-0.102616 0.48422,-0.102616 0.282194,0 0.484219,0.093 0.202025,0.0962 0.311054,0.26616 0.10903,0.173165 0.10903,0.400844 z m -0.230886,-0.0032 q 0,-0.202025 -0.131477,-0.320675 -0.12827,-0.115443 -0.359156,-0.13789 v 0.875443 q 0.218059,-0.0032 0.352743,-0.102616 0.13789,-0.09941 0.13789,-0.314262 z m -1.0454,2.26717 q -0.250127,0 -0.378397,-0.185992 -0.12827,-0.185991 -0.12827,-0.500253 0,-0.179578 0.02886,-0.311054 0.02886,-0.12827 0.08017,-0.22768 h 0.25654 q -0.05131,0.102616 -0.0962,0.24692 -0.04169,0.147511 -0.04169,0.298228 0,0.214852 0.06734,0.311054 0.07055,0.0962 0.185992,0.0962 0.06414,0 0.115443,-0.03527 0.05131,-0.03527 0.102616,-0.12827 0.05131,-0.08979 0.115443,-0.259747 0.06414,-0.166751 0.12827,-0.285401 0.06414,-0.118649 0.153924,-0.182784 0.08979,-0.06413 0.230886,-0.06413 0.218059,0 0.336708,0.176371 0.11865,0.179578 0.11865,0.468185 0,0.157131 -0.03207,0.291814 -0.03207,0.137891 -0.08338,0.25654 l -0.224472,-0.0962 q 0.04489,-0.10903 0.07696,-0.227679 0.03207,-0.11865 0.03207,-0.243713 0,-0.173165 -0.05772,-0.26616 -0.05451,-0.08979 -0.150718,-0.08979 -0.07376,0 -0.121856,0.04169 -0.0481,0.04169 -0.0962,0.13789 -0.0481,0.09941 -0.109029,0.262954 -0.06093,0.163544 -0.125063,0.278987 -0.06413,0.115443 -0.157131,0.176371 -0.08979,0.06093 -0.227679,0.06093 z m -0.275781,0.990886 q 0,0.06414 0.0096,0.131476 0.0096,0.06734 0.02565,0.10903 h -0.214852 q -0.02245,-0.04489 -0.03527,-0.12827 -0.01603,-0.08338 -0.01603,-0.160338 0,-0.134683 0.04489,-0.250126 0.0481,-0.112236 0.163544,-0.182785 0.115443,-0.07055 0.323882,-0.07055 h 1.000506 v -0.243713 h 0.134683 l 0.112236,0.246919 0.36557,0.112237 v 0.166751 h -0.39441 v 0.497046 h -0.218058 v -0.497046 h -0.994093 q -0.157131,0 -0.234093,0.07376 -0.07375,0.07696 -0.07375,0.195612 z m 1.552067,1.247425 q 0,0.218059 -0.0962,0.378397 -0.0962,0.160337 -0.272573,0.243713 -0.173165,0.08658 -0.407257,0.08658 h -0.169958 v -1.176877 q -0.291814,0.0064 -0.445738,0.14751 -0.150718,0.144304 -0.150718,0.400844 0,0.163544 0.02886,0.288608 0.03207,0.12827 0.08979,0.262953 h -0.24692 q -0.05772,-0.131477 -0.08337,-0.259747 -0.02886,-0.12827 -0.02886,-0.304641 0,-0.24692 0.09941,-0.432911 0.09941,-0.185992 0.295021,-0.291814 0.195612,-0.102616 0.48422,-0.102616 0.282194,0 0.484219,0.093 0.202025,0.0962 0.311054,0.266161 0.10903,0.173164 0.10903,0.400843 z m -0.230886,-0.0032 q 0,-0.202026 -0.131477,-0.320675 -0.12827,-0.115443 -0.359156,-0.137891 v 0.875443 q 0.218059,-0.0032 0.352743,-0.102616 0.13789,-0.09941 0.13789,-0.314261 z"
     id="text8"
     style="font-size:12px;text-anchor:middle;stroke:#FF0000;stroke-width:0.01;fill:#FF0000"
     aria-label="teste" />
  <path
     d="m -44.239504,-93.302876 q 0,0.06413 0.0096,0.131477 0.0096,0.06734 0.02565,0.109029 h -0.214852 q -0.02245,-0.04489 -0.03527,-0.128269 -0.01603,-0.08338 -0.01603,-0.160338 0,-0.134683 0.04489,-0.250126 0.0481,-0.112237 0.163544,-0.182785 0.115443,-0.07055 0.323882,-0.07055 h 1.000506 v -0.243713 h 0.134683 l 0.112237,0.24692 0.365569,0.112236 v 0.166751 h -0.39443 v 0.497046 h -0.218059 v -0.497046 h -0.994092 q -0.157131,0 -0.234093,0.07376 -0.07375,0.07696 -0.07375,0.195611 z m 1.552066,1.247426 q 0,0.218059 -0.0962,0.378397 -0.0962,0.160337 -0.272574,0.243713 -0.173164,0.08658 -0.407257,0.08658 h -0.169958 v -1.176877 q -0.291814,0.0064 -0.445738,0.14751 -0.150717,0.144304 -0.150717,0.400844 0,0.163544 0.02886,0.288607 0.03207,0.12827 0.08979,0.262954 h -0.24692 q -0.05772,-0.131477 -0.08338,-0.259747 -0.02886,-0.12827 -0.02886,-0.304641 0,-0.24692 0.09941,-0.432911 0.09941,-0.185992 0.295021,-0.291815 0.195612,-0.102616 0.484219,-0.102616 0.282194,0 0.484219,0.093 0.202026,0.0962 0.311055,0.26616 0.109029,0.173165 0.109029,0.400844 z m -0.230885,-0.0032 q 0,-0.202025 -0.131477,-0.320675 -0.12827,-0.115443 -0.359156,-0.13789 v 0.875443 q 0.218059,-0.0032 0.352742,-0.102616 0.137891,-0.09941 0.137891,-0.314262 z m -1.045401,2.26717 q -0.250126,0 -0.378396,-0.185992 -0.12827,-0.185991 -0.12827,-0.500253 0,-0.179578 0.02886,-0.311054 0.02886,-0.12827 0.08017,-0.22768 h 0.25654 q -0.05131,0.102616 -0.0962,0.24692 -0.04169,0.147511 -0.04169,0.298228 0,0.214852 0.06734,0.311054 0.07055,0.0962 0.185991,0.0962 0.06414,0 0.115443,-0.03527 0.05131,-0.03527 0.102616,-0.12827 0.05131,-0.08979 0.115443,-0.259747 0.06414,-0.166751 0.12827,-0.285401 0.06414,-0.118649 0.153924,-0.182784 0.08979,-0.06413 0.230886,-0.06413 0.218059,0 0.336709,0.176371 0.118649,0.179578 0.118649,0.468185 0,0.157131 -0.03207,0.291814 -0.03207,0.137891 -0.08338,0.25654 l -0.224472,-0.0962 q 0.04489,-0.10903 0.07696,-0.227679 0.03207,-0.11865 0.03207,-0.243713 0,-0.173165 -0.05772,-0.26616 -0.05452,-0.08979 -0.150717,-0.08979 -0.07375,0 -0.121857,0.04169 -0.0481,0.04169 -0.0962,0.13789 -0.0481,0.09941 -0.10903,0.262954 -0.06093,0.163544 -0.125063,0.278987 -0.06414,0.115443 -0.157131,0.176371 -0.08979,0.06093 -0.227679,0.06093 z m -0.27578,0.990886 q 0,0.06414 0.0096,0.131476 0.0096,0.06734 0.02565,0.10903 h -0.214852 q -0.02245,-0.04489 -0.03527,-0.12827 -0.01603,-0.08338 -0.01603,-0.160338 0,-0.134683 0.04489,-0.250126 0.0481,-0.112236 0.163544,-0.182785 0.115443,-0.07055 0.323882,-0.07055 h 1.000506 v -0.243713 h 0.134683 l 0.112237,0.246919 0.365569,0.112237 v 0.166751 h -0.39443 v 0.497046 h -0.218059 v -0.497046 h -0.994092 q -0.157131,0 -0.234093,0.07376 -0.07375,0.07696 -0.07375,0.195612 z m 1.552066,1.247425 q 0,0.218059 -0.0962,0.378397 -0.0962,0.160337 -0.272574,0.243713 -0.173164,0.08658 -0.407257,0.08658 h -0.169958 v -1.176877 q -0.291814,0.0064 -0.445738,0.14751 -0.150717,0.144304 -0.150717,0.400844 0,0.163544 0.02886,0.288608 0.03207,0.12827 0.08979,0.262953 h -0.24692 q -0.05772,-0.131477 -0.08338,-0.259747 -0.02886,-0.12827 -0.02886,-0.304641 0,-0.24692 0.09941,-0.432911 0.09941,-0.185992 0.295021,-0.291814 0.195612,-0.102616 0.484219,-0.102616 0.282194,0 0.484219,0.093 0.202026,0.0962 0.311055,0.266161 0.109029,0.173164 0.109029,0.400843 z m -0.230885,-0.0032 q 0,-0.202026 -0.131477,-0.320675 -0.12827,-0.115443 -0.359156,-0.137891 v 0.875443 q 0.218059,-0.0032 0.352742,-0.102616 0.137891,-0.09941 0.137891,-0.314261 z"
     id="text9"
     style="font-size:12px;text-anchor:middle;stroke:#FF0000;stroke-width:0.01;fill:#FF0000"
     aria-label="teste" />
  <path
     d="m -55.369678,-93.302876 q 0,0.06413 0.0096,0.131477 0.0096,0.06734 0.02565,0.109029 h -0.214853 q -0.02245,-0.04489 -0.03527,-0.128269 -0.01603,-0.08338 -0.01603,-0.160338 0,-0.134683 0.04489,-0.250126 0.0481,-0.112237 0.163544,-0.182785 0.115443,-0.07055 0.323882,-0.07055 h 1.000506 v -0.243713 h 0.134683 l 0.112236,0.24692 0.36557,0.112236 v 0.166751 h -0.39443 v 0.497046 h -0.218059 v -0.497046 h -0.994093 q -0.157131,0 -0.234093,0.07376 -0.07375,0.07696 -0.07375,0.195611 z m 1.552067,1.247426 q 0,0.218059 -0.0962,0.378397 -0.0962,0.160337 -0.272574,0.243713 -0.173165,0.08658 -0.407257,0.08658 H -54.7636 v -1.176877 q -0.291814,0.0064 -0.445738,0.14751 -0.150717,0.144304 -0.150717,0.400844 0,0.163544 0.02886,0.288607 0.03207,0.12827 0.08979,0.262954 h -0.246919 q -0.05772,-0.131477 -0.08338,-0.259747 -0.02886,-0.12827 -0.02886,-0.304641 0,-0.24692 0.09941,-0.432911 0.09941,-0.185992 0.29502,-0.291815 0.195612,-0.102616 0.48422,-0.102616 0.282194,0 0.484219,0.093 0.202025,0.0962 0.311055,0.26616 0.109029,0.173165 0.109029,0.400844 z m -0.230886,-0.0032 q 0,-0.202025 -0.131477,-0.320675 -0.12827,-0.115443 -0.359156,-0.13789 v 0.875443 q 0.218059,-0.0032 0.352743,-0.102616 0.13789,-0.09941 0.13789,-0.314262 z m -1.0454,2.26717 q -0.250127,0 -0.378397,-0.185992 -0.12827,-0.185991 -0.12827,-0.500253 0,-0.179578 0.02886,-0.311054 0.02886,-0.12827 0.08017,-0.22768 h 0.25654 q -0.05131,0.102616 -0.0962,0.24692 -0.04169,0.147511 -0.04169,0.298228 0,0.214852 0.06734,0.311054 0.07055,0.0962 0.185992,0.0962 0.06414,0 0.115443,-0.03527 0.05131,-0.03527 0.102616,-0.12827 0.05131,-0.08979 0.115443,-0.259747 0.06414,-0.166751 0.12827,-0.285401 0.06414,-0.118649 0.153924,-0.182784 0.08979,-0.06413 0.230886,-0.06413 0.218059,0 0.336708,0.176371 0.11865,0.179578 0.11865,0.468185 0,0.157131 -0.03207,0.291814 -0.03207,0.137891 -0.08338,0.25654 l -0.224472,-0.0962 q 0.04489,-0.10903 0.07696,-0.227679 0.03207,-0.11865 0.03207,-0.243713 0,-0.173165 -0.05772,-0.26616 -0.05452,-0.08979 -0.150718,-0.08979 -0.07375,0 -0.121856,0.04169 -0.0481,0.04169 -0.0962,0.13789 -0.0481,0.09941 -0.109029,0.262954 -0.06093,0.163544 -0.125063,0.278987 -0.06414,0.115443 -0.157131,0.176371 -0.08979,0.06093 -0.227679,0.06093 z m -0.275781,0.990886 q 0,0.06414 0.0096,0.131476 0.0096,0.06734 0.02565,0.10903 h -0.214853 q -0.02245,-0.04489 -0.03527,-0.12827 -0.01603,-0.08338 -0.01603,-0.160338 0,-0.134683 0.04489,-0.250126 0.0481,-0.112236 0.163544,-0.182785 0.115443,-0.07055 0.323882,-0.07055 h 1.000506 v -0.243713 h 0.134683 l 0.112236,0.246919 0.36557,0.112237 v 0.166751 h -0.39443 v 0.497046 h -0.218059 v -0.497046 h -0.994093 q -0.157131,0 -0.234093,0.07376 -0.07375,0.07696 -0.07375,0.195612 z m 1.552067,1.247425 q 0,0.218059 -0.0962,0.378397 -0.0962,0.160337 -0.272574,0.243713 -0.173165,0.08658 -0.407257,0.08658 H -54.7636 v -1.176877 q -0.291814,0.0064 -0.445738,0.14751 -0.150717,0.144304 -0.150717,0.400844 0,0.163544 0.02886,0.288608 0.03207,0.12827 0.08979,0.262953 h -0.246919 q -0.05772,-0.131477 -0.08338,-0.259747 -0.02886,-0.12827 -0.02886,-0.304641 0,-0.24692 0.09941,-0.432911 0.09941,-0.185992 0.29502,-0.291814 0.195612,-0.102616 0.48422,-0.102616 0.282194,0 0.484219,0.093 0.202025,0.0962 0.311055,0.266161 0.109029,0.173164 0.109029,0.400843 z m -0.230886,-0.0032 q 0,-0.202026 -0.131477,-0.320675 -0.12827,-0.115443 -0.359156,-0.137891 v 0.875443 q 0.218059,-0.0032 0.352743,-0.102616 0.13789,-0.09941 0.13789,-0.314261 z"
     id="text10"
     style="font-size:12px;text-anchor:middle;stroke:#FF0000;stroke-width:0.01;fill:#FF0000"
     aria-label="teste" />
  <path
     d="m 50.094503,-66.477272 q 0,0.06413 0.0096,0.131477 0.0096,0.06734 0.02565,0.10903 h -0.214852 q -0.02245,-0.04489 -0.03527,-0.12827 -0.01603,-0.08338 -0.01603,-0.160338 0,-0.134683 0.0449,-0.250126 0.0481,-0.112237 0.163544,-0.182785 0.115443,-0.07055 0.323882,-0.07055 h 1.000505 v -0.243713 h 0.134684 l 0.112236,0.24692 0.36557,0.112236 v 0.166751 h -0.394431 v 0.497047 H 51.396432 V -66.74664 H 50.40234 q -0.157131,0 -0.234093,0.07376 -0.07375,0.07696 -0.07375,0.195611 z m 1.552067,1.247426 q 0,0.218059 -0.0962,0.378396 -0.0962,0.160338 -0.272573,0.243713 -0.173165,0.08658 -0.407258,0.08658 h -0.169957 v -1.176878 q -0.291814,0.0064 -0.445738,0.147511 -0.150718,0.144304 -0.150718,0.400844 0,0.163544 0.02886,0.288607 0.03207,0.12827 0.08979,0.262954 h -0.24692 q -0.05772,-0.131477 -0.08338,-0.259747 -0.02886,-0.12827 -0.02886,-0.304641 0,-0.24692 0.09941,-0.432912 0.09941,-0.185991 0.295021,-0.291814 0.195612,-0.102616 0.484219,-0.102616 0.282194,0 0.48422,0.093 0.202025,0.0962 0.311054,0.26616 0.10903,0.173165 0.10903,0.400843 z m -0.230886,-0.0032 q 0,-0.202025 -0.131477,-0.320675 -0.12827,-0.115443 -0.359156,-0.13789 v 0.875443 q 0.218059,-0.0032 0.352743,-0.102616 0.13789,-0.09941 0.13789,-0.314262 z m -1.0454,2.267169 q -0.250127,0 -0.378397,-0.185991 -0.12827,-0.185991 -0.12827,-0.500253 0,-0.179578 0.02886,-0.311055 0.02886,-0.12827 0.08017,-0.227679 h 0.25654 q -0.05131,0.102616 -0.0962,0.24692 -0.04169,0.14751 -0.04169,0.298228 0,0.214852 0.06734,0.311054 0.07055,0.0962 0.185992,0.0962 0.06414,0 0.115443,-0.03528 0.05131,-0.03527 0.102615,-0.128269 0.05131,-0.08979 0.115443,-0.259747 0.06414,-0.166751 0.12827,-0.285401 0.06414,-0.11865 0.153924,-0.182785 0.08979,-0.06413 0.230886,-0.06413 0.218059,0 0.336709,0.176372 0.11865,0.179578 0.11865,0.468185 0,0.157131 -0.03207,0.291814 -0.03207,0.13789 -0.08338,0.25654 l -0.224473,-0.0962 q 0.04489,-0.10903 0.07696,-0.22768 0.03207,-0.118649 0.03207,-0.243712 0,-0.173165 -0.05772,-0.266161 -0.05451,-0.08979 -0.150717,-0.08979 -0.07375,0 -0.121856,0.04169 -0.0481,0.04169 -0.0962,0.13789 -0.0481,0.09941 -0.109029,0.262954 -0.06093,0.163544 -0.125064,0.278987 -0.06414,0.115443 -0.15713,0.176371 -0.08979,0.06093 -0.227679,0.06093 z m -0.275781,0.990886 q 0,0.06414 0.0096,0.131477 0.0096,0.06734 0.02565,0.109029 h -0.214852 q -0.02245,-0.04489 -0.03527,-0.12827 -0.01603,-0.08338 -0.01603,-0.160337 0,-0.134684 0.0449,-0.250127 0.0481,-0.112236 0.163544,-0.182784 0.115443,-0.07055 0.323882,-0.07055 h 1.000505 v -0.243713 h 0.134684 l 0.112236,0.24692 0.36557,0.112236 v 0.166751 h -0.394431 v 0.497046 h -0.218059 v -0.497046 H 50.40234 q -0.157131,0 -0.234093,0.07375 -0.07375,0.07696 -0.07375,0.195612 z m 1.552067,1.247426 q 0,0.218059 -0.0962,0.378396 -0.0962,0.160338 -0.272573,0.243713 -0.173165,0.08658 -0.407258,0.08658 h -0.169957 v -1.176877 q -0.291814,0.0064 -0.445738,0.147511 -0.150718,0.144303 -0.150718,0.400843 0,0.163545 0.02886,0.288608 0.03207,0.12827 0.08979,0.262953 h -0.24692 q -0.05772,-0.131476 -0.08338,-0.259746 -0.02886,-0.12827 -0.02886,-0.304642 0,-0.246919 0.09941,-0.432911 0.09941,-0.185991 0.295021,-0.291814 0.195612,-0.102616 0.484219,-0.102616 0.282194,0 0.48422,0.093 0.202025,0.0962 0.311054,0.26616 0.10903,0.173164 0.10903,0.400844 z m -0.230886,-0.0032 q 0,-0.202025 -0.131477,-0.320675 -0.12827,-0.115443 -0.359156,-0.13789 v 0.875442 q 0.218059,-0.0032 0.352743,-0.102616 0.13789,-0.09941 0.13789,-0.314261 z"
     id="text11"
     style="font-size:12px;text-anchor:middle;stroke:#FF0000;stroke-width:0.01;fill:#FF0000"
     aria-label="teste" />
  <path
     d="m 38.964306,-66.477272 q 0,0.06413 0.0096,0.131477 0.0096,0.06734 0.02565,0.10903 h -0.214853 q -0.02245,-0.04489 -0.03527,-0.12827 -0.01603,-0.08338 -0.01603,-0.160338 0,-0.134683 0.04489,-0.250126 0.0481,-0.112237 0.163544,-0.182785 0.115443,-0.07055 0.323882,-0.07055 h 1.000506 v -0.243713 h 0.134683 l 0.112236,0.24692 0.36557,0.112236 v 0.166751 h -0.39443 v 0.497047 h -0.218059 v -0.497047 h -0.994093 q -0.15713,0 -0.234092,0.07376 -0.07376,0.07696 -0.07376,0.195611 z m 1.552067,1.247426 q 0,0.218059 -0.0962,0.378396 -0.0962,0.160338 -0.272574,0.243713 -0.173165,0.08658 -0.407257,0.08658 h -0.169958 v -1.176878 q -0.291814,0.0064 -0.445738,0.147511 -0.150717,0.144304 -0.150717,0.400844 0,0.163544 0.02886,0.288607 0.03207,0.12827 0.08979,0.262954 H 38.84566 q -0.05772,-0.131477 -0.08338,-0.259747 -0.02886,-0.12827 -0.02886,-0.304641 0,-0.24692 0.09941,-0.432912 0.09941,-0.185991 0.295021,-0.291814 0.195611,-0.102616 0.484219,-0.102616 0.282194,0 0.484219,0.093 0.202025,0.0962 0.311055,0.26616 0.109029,0.173165 0.109029,0.400843 z m -0.230886,-0.0032 q 0,-0.202025 -0.131477,-0.320675 -0.12827,-0.115443 -0.359155,-0.13789 v 0.875443 q 0.218058,-0.0032 0.352742,-0.102616 0.13789,-0.09941 0.13789,-0.314262 z m -1.0454,2.267169 q -0.250127,0 -0.378397,-0.185991 -0.12827,-0.185991 -0.12827,-0.500253 0,-0.179578 0.02886,-0.311055 0.02886,-0.12827 0.08017,-0.227679 h 0.25654 q -0.05131,0.102616 -0.0962,0.24692 -0.04169,0.14751 -0.04169,0.298228 0,0.214852 0.06734,0.311054 0.07055,0.0962 0.185992,0.0962 0.06414,0 0.115443,-0.03528 0.05131,-0.03527 0.102616,-0.128269 0.05131,-0.08979 0.115443,-0.259747 0.06414,-0.166751 0.12827,-0.285401 0.06414,-0.11865 0.153924,-0.182785 0.08979,-0.06413 0.230886,-0.06413 0.218059,0 0.336708,0.176372 0.11865,0.179578 0.11865,0.468185 0,0.157131 -0.03207,0.291814 -0.03207,0.13789 -0.08338,0.25654 l -0.224472,-0.0962 q 0.04489,-0.10903 0.07696,-0.22768 0.03207,-0.118649 0.03207,-0.243712 0,-0.173165 -0.05772,-0.266161 -0.05452,-0.08979 -0.150718,-0.08979 -0.07375,0 -0.121856,0.04169 -0.0481,0.04169 -0.0962,0.13789 -0.0481,0.09941 -0.109029,0.262954 -0.06093,0.163544 -0.125063,0.278987 -0.06414,0.115443 -0.157131,0.176371 -0.08979,0.06093 -0.227679,0.06093 z m -0.275781,0.990886 q 0,0.06414 0.0096,0.131477 0.0096,0.06734 0.02565,0.109029 h -0.214853 q -0.02245,-0.04489 -0.03527,-0.12827 -0.01603,-0.08338 -0.01603,-0.160337 0,-0.134684 0.04489,-0.250127 0.0481,-0.112236 0.163544,-0.182784 0.115443,-0.07055 0.323882,-0.07055 h 1.000506 v -0.243713 h 0.134683 l 0.112236,0.24692 0.36557,0.112236 v 0.166751 h -0.39443 v 0.497046 h -0.218059 v -0.497046 h -0.994093 q -0.15713,0 -0.234092,0.07375 -0.07376,0.07696 -0.07376,0.195612 z m 1.552067,1.247426 q 0,0.218059 -0.0962,0.378396 -0.0962,0.160338 -0.272574,0.243713 -0.173165,0.08658 -0.407257,0.08658 h -0.169958 v -1.176877 q -0.291814,0.0064 -0.445738,0.147511 -0.150717,0.144303 -0.150717,0.400843 0,0.163545 0.02886,0.288608 0.03207,0.12827 0.08979,0.262953 H 38.84566 q -0.05772,-0.131476 -0.08338,-0.259746 -0.02886,-0.12827 -0.02886,-0.304642 0,-0.246919 0.09941,-0.432911 0.09941,-0.185991 0.295021,-0.291814 0.195611,-0.102616 0.484219,-0.102616 0.282194,0 0.484219,0.093 0.202025,0.0962 0.311055,0.26616 0.109029,0.173164 0.109029,0.400844 z m -0.230886,-0.0032 q 0,-0.202025 -0.131477,-0.320675 -0.12827,-0.115443 -0.359155,-0.13789 v 0.875442 q 0.218058,-0.0032 0.352742,-0.102616 0.13789,-0.09941 0.13789,-0.314261 z"
     id="text12"
     style="font-size:12px;text-anchor:middle;stroke:#FF0000;stroke-width:0.01;fill:#FF0000"
     aria-label="teste" />
  <path
     d="m 27.834119,-66.477272 q 0,0.06413 0.0096,0.131477 0.0096,0.06734 0.02565,0.10903 h -0.214852 q -0.02245,-0.04489 -0.03527,-0.12827 -0.01603,-0.08338 -0.01603,-0.160338 0,-0.134683 0.04489,-0.250126 0.0481,-0.112237 0.163545,-0.182785 0.115443,-0.07055 0.323881,-0.07055 h 1.000506 v -0.243713 h 0.134684 l 0.112236,0.24692 0.365569,0.112236 v 0.166751 h -0.39443 v 0.497047 h -0.218059 v -0.497047 h -0.994092 q -0.157131,0 -0.234093,0.07376 -0.07375,0.07696 -0.07375,0.195611 z m 1.552067,1.247426 q 0,0.218059 -0.0962,0.378396 -0.0962,0.160338 -0.272574,0.243713 -0.173164,0.08658 -0.407257,0.08658 h -0.169958 v -1.176878 q -0.291814,0.0064 -0.445738,0.147511 -0.150717,0.144304 -0.150717,0.400844 0,0.163544 0.02886,0.288607 0.03207,0.12827 0.08979,0.262954 h -0.24692 q -0.05772,-0.131477 -0.08338,-0.259747 -0.02886,-0.12827 -0.02886,-0.304641 0,-0.24692 0.09941,-0.432912 0.09941,-0.185991 0.295021,-0.291814 0.195612,-0.102616 0.484219,-0.102616 0.282194,0 0.484219,0.093 0.202026,0.0962 0.311055,0.26616 0.10903,0.173165 0.10903,0.400843 z m -0.230886,-0.0032 q 0,-0.202025 -0.131477,-0.320675 -0.12827,-0.115443 -0.359156,-0.13789 v 0.875443 q 0.218059,-0.0032 0.352742,-0.102616 0.137891,-0.09941 0.137891,-0.314262 z m -1.045401,2.267169 q -0.250126,0 -0.378396,-0.185991 -0.12827,-0.185991 -0.12827,-0.500253 0,-0.179578 0.02886,-0.311055 0.02886,-0.12827 0.08017,-0.227679 h 0.25654 q -0.05131,0.102616 -0.0962,0.24692 -0.04169,0.14751 -0.04169,0.298228 0,0.214852 0.06734,0.311054 0.07055,0.0962 0.185991,0.0962 0.06414,0 0.115443,-0.03528 0.05131,-0.03527 0.102616,-0.128269 0.05131,-0.08979 0.115443,-0.259747 0.06414,-0.166751 0.12827,-0.285401 0.06414,-0.11865 0.153924,-0.182785 0.08979,-0.06413 0.230886,-0.06413 0.218059,0 0.336709,0.176372 0.11865,0.179578 0.11865,0.468185 0,0.157131 -0.03207,0.291814 -0.03207,0.13789 -0.08338,0.25654 l -0.224473,-0.0962 q 0.0449,-0.10903 0.07696,-0.22768 0.03207,-0.118649 0.03207,-0.243712 0,-0.173165 -0.05772,-0.266161 -0.05451,-0.08979 -0.150717,-0.08979 -0.07375,0 -0.121857,0.04169 -0.0481,0.04169 -0.0962,0.13789 -0.0481,0.09941 -0.10903,0.262954 -0.06093,0.163544 -0.125063,0.278987 -0.06414,0.115443 -0.157131,0.176371 -0.08979,0.06093 -0.227679,0.06093 z m -0.27578,0.990886 q 0,0.06414 0.0096,0.131477 0.0096,0.06734 0.02565,0.109029 h -0.214852 q -0.02245,-0.04489 -0.03527,-0.12827 -0.01603,-0.08338 -0.01603,-0.160337 0,-0.134684 0.04489,-0.250127 0.0481,-0.112236 0.163545,-0.182784 0.115443,-0.07055 0.323881,-0.07055 h 1.000506 v -0.243713 h 0.134684 l 0.112236,0.24692 0.365569,0.112236 v 0.166751 h -0.39443 v 0.497046 h -0.218059 v -0.497046 h -0.994092 q -0.157131,0 -0.234093,0.07375 -0.07375,0.07696 -0.07375,0.195612 z m 1.552067,1.247426 q 0,0.218059 -0.0962,0.378396 -0.0962,0.160338 -0.272574,0.243713 -0.173164,0.08658 -0.407257,0.08658 h -0.169958 v -1.176877 q -0.291814,0.0064 -0.445738,0.147511 -0.150717,0.144303 -0.150717,0.400843 0,0.163545 0.02886,0.288608 0.03207,0.12827 0.08979,0.262953 h -0.24692 q -0.05772,-0.131476 -0.08338,-0.259746 -0.02886,-0.12827 -0.02886,-0.304642 0,-0.246919 0.09941,-0.432911 0.09941,-0.185991 0.295021,-0.291814 0.195612,-0.102616 0.484219,-0.102616 0.282194,0 0.484219,0.093 0.202026,0.0962 0.311055,0.26616 0.10903,0.173164 0.10903,0.400844 z m -0.230886,-0.0032 q 0,-0.202025 -0.131477,-0.320675 -0.12827,-0.115443 -0.359156,-0.13789 v 0.875442 q 0.218059,-0.0032 0.352742,-0.102616 0.137891,-0.09941 0.137891,-0.314261 z"
     id="text13"
     style="font-size:12px;text-anchor:middle;stroke:#FF0000;stroke-width:0.01;fill:#FF0000"
     aria-label="teste" />
  <path
     d="m 16.703892,-66.477272 q 0,0.06413 0.0096,0.131477 0.0096,0.06734 0.02565,0.10903 H 16.52429 q -0.02245,-0.04489 -0.03527,-0.12827 -0.01603,-0.08338 -0.01603,-0.160338 0,-0.134683 0.04489,-0.250126 0.0481,-0.112237 0.163545,-0.182785 0.115443,-0.07055 0.323881,-0.07055 h 1.000506 v -0.243713 h 0.134684 l 0.112236,0.24692 0.365569,0.112236 v 0.166751 h -0.39443 v 0.497047 H 18.005812 V -66.74664 H 17.01174 q -0.157131,0 -0.234093,0.07376 -0.07376,0.07696 -0.07376,0.195611 z m 1.552067,1.247426 q 0,0.218059 -0.0962,0.378396 -0.0962,0.160338 -0.272574,0.243713 -0.173164,0.08658 -0.407257,0.08658 h -0.169957 v -1.176878 q -0.291815,0.0064 -0.445739,0.147511 -0.150717,0.144304 -0.150717,0.400844 0,0.163544 0.02886,0.288607 0.03207,0.12827 0.08979,0.262954 h -0.24692 q -0.05772,-0.131477 -0.08338,-0.259747 -0.02886,-0.12827 -0.02886,-0.304641 0,-0.24692 0.09941,-0.432912 0.09941,-0.185991 0.295021,-0.291814 0.195612,-0.102616 0.484219,-0.102616 0.282194,0 0.484219,0.093 0.202026,0.0962 0.311055,0.26616 0.10903,0.173165 0.10903,0.400843 z m -0.230886,-0.0032 q 0,-0.202025 -0.131477,-0.320675 -0.12827,-0.115443 -0.359156,-0.13789 v 0.875443 q 0.218059,-0.0032 0.352742,-0.102616 0.137891,-0.09941 0.137891,-0.314262 z m -1.045401,2.267169 q -0.250126,0 -0.378396,-0.185991 -0.12827,-0.185991 -0.12827,-0.500253 0,-0.179578 0.02886,-0.311055 0.02886,-0.12827 0.08017,-0.227679 h 0.25654 q -0.05131,0.102616 -0.0962,0.24692 -0.04169,0.14751 -0.04169,0.298228 0,0.214852 0.06734,0.311054 0.07055,0.0962 0.185991,0.0962 0.06414,0 0.115443,-0.03528 0.05131,-0.03527 0.102616,-0.128269 0.05131,-0.08979 0.115443,-0.259747 0.06414,-0.166751 0.12827,-0.285401 0.06414,-0.11865 0.153924,-0.182785 0.08979,-0.06413 0.230886,-0.06413 0.218059,0 0.336709,0.176372 0.11865,0.179578 0.11865,0.468185 0,0.157131 -0.03207,0.291814 -0.03207,0.13789 -0.08337,0.25654 l -0.224473,-0.0962 q 0.0449,-0.10903 0.07696,-0.22768 0.03207,-0.118649 0.03207,-0.243712 0,-0.173165 -0.05772,-0.266161 -0.05452,-0.08979 -0.150717,-0.08979 -0.07376,0 -0.121856,0.04169 -0.0481,0.04169 -0.0962,0.13789 -0.0481,0.09941 -0.109029,0.262954 -0.06093,0.163544 -0.125064,0.278987 -0.06414,0.115443 -0.15713,0.176371 -0.08979,0.06093 -0.22768,0.06093 z m -0.27578,0.990886 q 0,0.06414 0.0096,0.131477 0.0096,0.06734 0.02565,0.109029 H 16.52429 q -0.02245,-0.04489 -0.03527,-0.12827 -0.01603,-0.08338 -0.01603,-0.160337 0,-0.134684 0.04489,-0.250127 0.0481,-0.112236 0.163545,-0.182784 0.115443,-0.07055 0.323881,-0.07055 h 1.000506 v -0.243713 h 0.134684 l 0.112236,0.24692 0.365569,0.112236 v 0.166751 h -0.39443 v 0.497046 h -0.218059 v -0.497046 H 17.01174 q -0.157131,0 -0.234093,0.07375 -0.07376,0.07696 -0.07376,0.195612 z m 1.552067,1.247426 q 0,0.218059 -0.0962,0.378396 -0.0962,0.160338 -0.272574,0.243713 -0.173164,0.08658 -0.407257,0.08658 h -0.169957 v -1.176877 q -0.291815,0.0064 -0.445739,0.147511 -0.150717,0.144303 -0.150717,0.400843 0,0.163545 0.02886,0.288608 0.03207,0.12827 0.08979,0.262953 h -0.24692 q -0.05772,-0.131476 -0.08338,-0.259746 -0.02886,-0.12827 -0.02886,-0.304642 0,-0.246919 0.09941,-0.432911 0.09941,-0.185991 0.295021,-0.291814 0.195612,-0.102616 0.484219,-0.102616 0.282194,0 0.484219,0.093 0.202026,0.0962 0.311055,0.26616 0.10903,0.173164 0.10903,0.400844 z m -0.230886,-0.0032 q 0,-0.202025 -0.131477,-0.320675 -0.12827,-0.115443 -0.359156,-0.13789 v 0.875442 q 0.218059,-0.0032 0.352742,-0.102616 0.137891,-0.09941 0.137891,-0.314261 z"
     id="text14"
     style="font-size:12px;text-anchor:middle;stroke:#FF0000;stroke-width:0.01;fill:#FF0000"
     aria-label="teste" />
  <path
     d="m 5.5737185,-66.477272 q 0,0.06413 0.00962,0.131477 0.00962,0.06734 0.025654,0.10903 h -0.214852 q -0.022447,-0.04489 -0.035274,-0.12827 -0.016034,-0.08338 -0.016034,-0.160338 0,-0.134683 0.044894,-0.250126 0.048101,-0.112237 0.1635442,-0.182785 0.115443,-0.07055 0.3238817,-0.07055 h 1.0005059 v -0.243713 h 0.1346835 l 0.1122362,0.24692 0.3655694,0.112236 v 0.166751 H 7.0937178 v 0.497047 H 6.8756588 V -66.74664 H 5.8815664 q -0.1571307,0 -0.2340927,0.07376 -0.073755,0.07696 -0.073755,0.195611 z m 1.5520667,1.247426 q 0,0.218059 -0.096202,0.378396 -0.096203,0.160338 -0.2725738,0.243713 -0.1731644,0.08658 -0.4072571,0.08658 H 6.1797941 v -1.176878 q -0.2918142,0.0064 -0.4457382,0.147511 -0.1507172,0.144304 -0.1507172,0.400844 0,0.163544 0.028861,0.288607 0.032068,0.12827 0.089789,0.262954 h -0.24692 q -0.057722,-0.131477 -0.083375,-0.259747 -0.028861,-0.12827 -0.028861,-0.304641 0,-0.24692 0.099409,-0.432912 0.099409,-0.185991 0.295021,-0.291814 0.1956117,-0.102616 0.4842192,-0.102616 0.2821939,0 0.4842192,0.093 0.2020252,0.0962 0.3110547,0.26616 0.1090294,0.173165 0.1090294,0.400843 z m -0.2308859,-0.0032 q 0,-0.202025 -0.1314768,-0.320675 -0.1282699,-0.115443 -0.3591559,-0.13789 v 0.875443 q 0.218059,-0.0032 0.3527424,-0.102616 0.1378903,-0.09941 0.1378903,-0.314262 z m -1.0454004,2.267169 q -0.2501264,0 -0.3783964,-0.185991 -0.12827,-0.185991 -0.12827,-0.500253 0,-0.179578 0.028861,-0.311055 0.028861,-0.12827 0.080169,-0.227679 h 0.2565399 q -0.051308,0.102616 -0.096202,0.24692 -0.041688,0.14751 -0.041688,0.298228 0,0.214852 0.067342,0.311054 0.070548,0.0962 0.1859914,0.0962 0.064135,0 0.115443,-0.03528 0.051308,-0.03527 0.102616,-0.128269 0.051308,-0.08979 0.115443,-0.259747 0.064135,-0.166751 0.12827,-0.285401 0.064135,-0.11865 0.1539239,-0.182785 0.089789,-0.06413 0.230886,-0.06413 0.218059,0 0.3367087,0.176372 0.1186497,0.179578 0.1186497,0.468185 0,0.157131 -0.032067,0.291814 -0.032068,0.13789 -0.083376,0.25654 l -0.2244725,-0.0962 q 0.044894,-0.10903 0.076962,-0.22768 0.032067,-0.118649 0.032067,-0.243712 0,-0.173165 -0.057721,-0.266161 -0.054515,-0.08979 -0.1507172,-0.08979 -0.073755,0 -0.1218565,0.04169 -0.048101,0.04169 -0.096203,0.13789 -0.048101,0.09941 -0.1090295,0.262954 -0.060928,0.163544 -0.1250632,0.278987 -0.064135,0.115443 -0.1571308,0.176371 -0.089789,0.06093 -0.2276792,0.06093 z m -0.2757804,0.990886 q 0,0.06414 0.00962,0.131477 0.00962,0.06734 0.025654,0.109029 h -0.214852 q -0.022447,-0.04489 -0.035274,-0.12827 -0.016034,-0.08338 -0.016034,-0.160337 0,-0.134684 0.044894,-0.250127 0.048101,-0.112236 0.1635442,-0.182784 0.115443,-0.07055 0.3238817,-0.07055 h 1.0005059 v -0.243713 h 0.1346835 l 0.1122362,0.24692 0.3655694,0.112236 v 0.166751 H 7.0937178 v 0.497046 h -0.218059 v -0.497046 H 5.8815664 q -0.1571307,0 -0.2340927,0.07375 -0.073755,0.07696 -0.073755,0.195612 z m 1.5520667,1.247426 q 0,0.218059 -0.096202,0.378396 -0.096203,0.160338 -0.2725738,0.243713 -0.1731644,0.08658 -0.4072571,0.08658 H 6.1797941 v -1.176877 q -0.2918142,0.0064 -0.4457382,0.147511 -0.1507172,0.144303 -0.1507172,0.400843 0,0.163545 0.028861,0.288608 0.032068,0.12827 0.089789,0.262953 h -0.24692 q -0.057722,-0.131476 -0.083375,-0.259746 -0.028861,-0.12827 -0.028861,-0.304642 0,-0.246919 0.099409,-0.432911 0.099409,-0.185991 0.295021,-0.291814 0.1956117,-0.102616 0.4842192,-0.102616 0.2821939,0 0.4842192,0.093 0.2020252,0.0962 0.3110547,0.26616 0.1090294,0.173164 0.1090294,0.400844 z m -0.2308859,-0.0032 q 0,-0.202025 -0.1314768,-0.320675 -0.1282699,-0.115443 -0.3591559,-0.13789 v 0.875442 q 0.218059,-0.0032 0.3527424,-0.102616 0.1378903,-0.09941 0.1378903,-0.314261 z"
     id="text15"
     style="font-size:12px;text-anchor:middle;stroke:#FF0000;stroke-width:0.01;fill:#FF0000"
     aria-label="teste" />
  <path
     d="m -5.5564817,-66.477272 q 0,0.06413 0.00962,0.131477 0.00962,0.06734 0.025654,0.10903 H -5.73606 q -0.022447,-0.04489 -0.035274,-0.12827 -0.016034,-0.08338 -0.016034,-0.160338 0,-0.134683 0.044894,-0.250126 0.048101,-0.112237 0.1635443,-0.182785 0.1154429,-0.07055 0.3238817,-0.07055 h 1.0005058 v -0.243713 h 0.1346835 l 0.1122362,0.24692 0.3655695,0.112236 v 0.166751 h -0.3944302 v 0.497047 h -0.218059 v -0.497047 h -0.9940923 q -0.1571308,0 -0.2340928,0.07376 -0.073755,0.07696 -0.073755,0.195611 z m 1.5520668,1.247426 q 0,0.218059 -0.096202,0.378396 -0.096203,0.160338 -0.2725737,0.243713 -0.1731645,0.08658 -0.4072572,0.08658 H -4.950406 v -1.176878 q -0.2918142,0.0064 -0.4457382,0.147511 -0.1507172,0.144304 -0.1507172,0.400844 0,0.163544 0.028861,0.288607 0.032068,0.12827 0.089789,0.262954 h -0.2469197 q -0.057722,-0.131477 -0.083376,-0.259747 -0.028861,-0.12827 -0.028861,-0.304641 0,-0.24692 0.099409,-0.432912 0.099409,-0.185991 0.2950209,-0.291814 0.1956118,-0.102616 0.4842192,-0.102616 0.282194,0 0.4842192,0.093 0.2020252,0.0962 0.3110547,0.26616 0.1090295,0.173165 0.1090295,0.400844 z m -0.230886,-0.0032 q 0,-0.202025 -0.1314767,-0.320675 -0.12827,-0.115443 -0.359156,-0.13789 v 0.875443 q 0.218059,-0.0032 0.3527425,-0.102616 0.1378902,-0.09941 0.1378902,-0.314262 z m -1.0454003,2.267169 q -0.2501265,0 -0.3783965,-0.185991 -0.12827,-0.185991 -0.12827,-0.500253 0,-0.179578 0.028861,-0.311055 0.028861,-0.12827 0.080169,-0.227679 h 0.25654 q -0.051308,0.102616 -0.096203,0.24692 -0.041688,0.14751 -0.041688,0.298228 0,0.214852 0.067342,0.311054 0.070549,0.0962 0.1859915,0.0962 0.064135,0 0.115443,-0.03528 0.051308,-0.03527 0.1026159,-0.128269 0.051308,-0.08979 0.115443,-0.259747 0.064135,-0.166751 0.12827,-0.285401 0.064135,-0.11865 0.153924,-0.182785 0.089789,-0.06413 0.230886,-0.06413 0.2180589,0 0.3367087,0.176372 0.1186497,0.179578 0.1186497,0.468185 0,0.157131 -0.032067,0.291814 -0.032068,0.13789 -0.083376,0.25654 l -0.2244725,-0.0962 q 0.044894,-0.10903 0.076962,-0.22768 0.032067,-0.118649 0.032067,-0.243712 0,-0.173165 -0.057721,-0.266161 -0.054515,-0.08979 -0.1507172,-0.08979 -0.073755,0 -0.1218565,0.04169 -0.048101,0.04169 -0.096203,0.13789 -0.048101,0.09941 -0.1090295,0.262954 -0.060928,0.163544 -0.1250632,0.278987 -0.064135,0.115443 -0.1571307,0.176371 -0.089789,0.06093 -0.2276792,0.06093 z m -0.2757805,0.990886 q 0,0.06414 0.00962,0.131477 0.00962,0.06734 0.025654,0.109029 H -5.73606 q -0.022447,-0.04489 -0.035274,-0.12827 -0.016034,-0.08338 -0.016034,-0.160337 0,-0.134684 0.044894,-0.250127 0.048101,-0.112236 0.1635443,-0.182784 0.1154429,-0.07055 0.3238817,-0.07055 h 1.0005058 v -0.243713 h 0.1346835 l 0.1122362,0.24692 0.3655695,0.112236 v 0.166751 h -0.3944302 v 0.497046 h -0.218059 v -0.497046 h -0.9940923 q -0.1571308,0 -0.2340928,0.07375 -0.073755,0.07696 -0.073755,0.195612 z m 1.5520668,1.247426 q 0,0.218059 -0.096202,0.378396 -0.096203,0.160338 -0.2725737,0.243713 -0.1731645,0.08658 -0.4072572,0.08658 H -4.950406 v -1.176877 q -0.2918142,0.0064 -0.4457382,0.147511 -0.1507172,0.144303 -0.1507172,0.400843 0,0.163545 0.028861,0.288608 0.032068,0.12827 0.089789,0.262953 h -0.2469197 q -0.057722,-0.131476 -0.083376,-0.259746 -0.028861,-0.12827 -0.028861,-0.304642 0,-0.246919 0.099409,-0.432911 0.099409,-0.185991 0.2950209,-0.291814 0.1956118,-0.102616 0.4842192,-0.102616 0.282194,0 0.4842192,0.093 0.2020252,0.0962 0.3110547,0.26616 0.1090295,0.173164 0.1090295,0.400844 z m -0.230886,-0.0032 q 0,-0.202025 -0.1314767,-0.320675 -0.12827,-0.115443 -0.359156,-0.13789 v 0.875442 q 0.218059,-0.0032 0.3527425,-0.102616 0.1378902,-0.09941 0.1378902,-0.314261 z"
     id="text16"
     style="font-size:12px;text-anchor:middle;stroke:#FF0000;stroke-width:0.01;fill:#FF0000"
     aria-label="teste" />
  <path
     d="m -16.686679,-66.477272 q 0,0.06413 0.0096,0.131477 0.0096,0.06734 0.02565,0.10903 h -0.214852 q -0.02245,-0.04489 -0.03527,-0.12827 -0.01603,-0.08338 -0.01603,-0.160338 0,-0.134683 0.04489,-0.250126 0.0481,-0.112237 0.163545,-0.182785 0.115443,-0.07055 0.323881,-0.07055 h 1.000506 v -0.243713 h 0.134684 l 0.112236,0.24692 0.365569,0.112236 v 0.166751 h -0.39443 v 0.497047 h -0.218059 v -0.497047 h -0.994092 q -0.157131,0 -0.234093,0.07376 -0.07376,0.07696 -0.07376,0.195611 z m 1.552067,1.247426 q 0,0.218059 -0.0962,0.378396 -0.0962,0.160338 -0.272574,0.243713 -0.173164,0.08658 -0.407257,0.08658 h -0.169958 v -1.176878 q -0.291814,0.0064 -0.445738,0.147511 -0.150717,0.144304 -0.150717,0.400844 0,0.163544 0.02886,0.288607 0.03207,0.12827 0.08979,0.262954 h -0.24692 q -0.05772,-0.131477 -0.08338,-0.259747 -0.02886,-0.12827 -0.02886,-0.304641 0,-0.24692 0.09941,-0.432912 0.09941,-0.185991 0.295021,-0.291814 0.195612,-0.102616 0.484219,-0.102616 0.282194,0 0.484219,0.093 0.202026,0.0962 0.311055,0.26616 0.10903,0.173165 0.10903,0.400843 z m -0.230886,-0.0032 q 0,-0.202025 -0.131477,-0.320675 -0.12827,-0.115443 -0.359156,-0.13789 v 0.875443 q 0.218059,-0.0032 0.352742,-0.102616 0.137891,-0.09941 0.137891,-0.314262 z m -1.045401,2.267169 q -0.250126,0 -0.378396,-0.185991 -0.12827,-0.185991 -0.12827,-0.500253 0,-0.179578 0.02886,-0.311055 0.02886,-0.12827 0.08017,-0.227679 h 0.25654 q -0.05131,0.102616 -0.0962,0.24692 -0.04169,0.14751 -0.04169,0.298228 0,0.214852 0.06734,0.311054 0.07055,0.0962 0.185991,0.0962 0.06414,0 0.115443,-0.03528 0.05131,-0.03527 0.102616,-0.128269 0.05131,-0.08979 0.115443,-0.259747 0.06414,-0.166751 0.12827,-0.285401 0.06414,-0.11865 0.153924,-0.182785 0.08979,-0.06413 0.230886,-0.06413 0.218059,0 0.336709,0.176372 0.11865,0.179578 0.11865,0.468185 0,0.157131 -0.03207,0.291814 -0.03207,0.13789 -0.08338,0.25654 l -0.224473,-0.0962 q 0.04489,-0.10903 0.07696,-0.22768 0.03207,-0.118649 0.03207,-0.243712 0,-0.173165 -0.05772,-0.266161 -0.05451,-0.08979 -0.150717,-0.08979 -0.07375,0 -0.121857,0.04169 -0.0481,0.04169 -0.0962,0.13789 -0.0481,0.09941 -0.10903,0.262954 -0.06093,0.163544 -0.125063,0.278987 -0.06414,0.115443 -0.15713,0.176371 -0.08979,0.06093 -0.22768,0.06093 z m -0.27578,0.990886 q 0,0.06414 0.0096,0.131477 0.0096,0.06734 0.02565,0.109029 h -0.214852 q -0.02245,-0.04489 -0.03527,-0.12827 -0.01603,-0.08338 -0.01603,-0.160337 0,-0.134684 0.04489,-0.250127 0.0481,-0.112236 0.163545,-0.182784 0.115443,-0.07055 0.323881,-0.07055 h 1.000506 v -0.243713 h 0.134684 l 0.112236,0.24692 0.365569,0.112236 v 0.166751 h -0.39443 v 0.497046 h -0.218059 v -0.497046 h -0.994092 q -0.157131,0 -0.234093,0.07375 -0.07376,0.07696 -0.07376,0.195612 z m 1.552067,1.247426 q 0,0.218059 -0.0962,0.378396 -0.0962,0.160338 -0.272574,0.243713 -0.173164,0.08658 -0.407257,0.08658 h -0.169958 v -1.176877 q -0.291814,0.0064 -0.445738,0.147511 -0.150717,0.144303 -0.150717,0.400843 0,0.163545 0.02886,0.288608 0.03207,0.12827 0.08979,0.262953 h -0.24692 q -0.05772,-0.131476 -0.08338,-0.259746 -0.02886,-0.12827 -0.02886,-0.304642 0,-0.246919 0.09941,-0.432911 0.09941,-0.185991 0.295021,-0.291814 0.195612,-0.102616 0.484219,-0.102616 0.282194,0 0.484219,0.093 0.202026,0.0962 0.311055,0.26616 0.10903,0.173164 0.10903,0.400844 z m -0.230886,-0.0032 q 0,-0.202025 -0.131477,-0.320675 -0.12827,-0.115443 -0.359156,-0.13789 v 0.875442 q 0.218059,-0.0032 0.352742,-0.102616 0.137891,-0.09941 0.137891,-0.314261 z"
     id="text17"
     style="font-size:12px;text-anchor:middle;stroke:#FF0000;stroke-width:0.01;fill:#FF0000"
     aria-label="teste" />
  <path
     d="m -27.816885,-66.477272 q 0,0.06413 0.0096,0.131477 0.0096,0.06734 0.02565,0.10903 h -0.214853 q -0.02245,-0.04489 -0.03527,-0.12827 -0.01603,-0.08338 -0.01603,-0.160338 0,-0.134683 0.0449,-0.250126 0.0481,-0.112237 0.163544,-0.182785 0.115443,-0.07055 0.323882,-0.07055 h 1.000506 v -0.243713 h 0.134683 l 0.112236,0.24692 0.36557,0.112236 v 0.166751 h -0.39443 v 0.497047 h -0.218059 v -0.497047 h -0.994093 q -0.15713,0 -0.234092,0.07376 -0.07376,0.07696 -0.07376,0.195611 z m 1.552067,1.247426 q 0,0.218059 -0.0962,0.378396 -0.0962,0.160338 -0.272574,0.243713 -0.173165,0.08658 -0.407257,0.08658 h -0.169958 v -1.176878 q -0.291814,0.0064 -0.445738,0.147511 -0.150717,0.144304 -0.150717,0.400844 0,0.163544 0.02886,0.288607 0.03207,0.12827 0.08979,0.262954 h -0.246919 q -0.05772,-0.131477 -0.08338,-0.259747 -0.02886,-0.12827 -0.02886,-0.304641 0,-0.24692 0.09941,-0.432912 0.09941,-0.185991 0.295021,-0.291814 0.195611,-0.102616 0.484219,-0.102616 0.282194,0 0.484219,0.093 0.202025,0.0962 0.311055,0.26616 0.109029,0.173165 0.109029,0.400843 z m -0.230886,-0.0032 q 0,-0.202025 -0.131477,-0.320675 -0.12827,-0.115443 -0.359156,-0.13789 v 0.875443 q 0.218059,-0.0032 0.352743,-0.102616 0.13789,-0.09941 0.13789,-0.314262 z m -1.0454,2.267169 q -0.250127,0 -0.378397,-0.185991 -0.12827,-0.185991 -0.12827,-0.500253 0,-0.179578 0.02886,-0.311055 0.02886,-0.12827 0.08017,-0.227679 h 0.25654 q -0.05131,0.102616 -0.0962,0.24692 -0.04169,0.14751 -0.04169,0.298228 0,0.214852 0.06734,0.311054 0.07055,0.0962 0.185992,0.0962 0.06414,0 0.115443,-0.03528 0.05131,-0.03527 0.102616,-0.128269 0.05131,-0.08979 0.115443,-0.259747 0.06414,-0.166751 0.12827,-0.285401 0.06414,-0.11865 0.153924,-0.182785 0.08979,-0.06413 0.230886,-0.06413 0.218059,0 0.336708,0.176372 0.11865,0.179578 0.11865,0.468185 0,0.157131 -0.03207,0.291814 -0.03207,0.13789 -0.08338,0.25654 l -0.224472,-0.0962 q 0.04489,-0.10903 0.07696,-0.22768 0.03207,-0.118649 0.03207,-0.243712 0,-0.173165 -0.05772,-0.266161 -0.05451,-0.08979 -0.150718,-0.08979 -0.07376,0 -0.121856,0.04169 -0.0481,0.04169 -0.0962,0.13789 -0.0481,0.09941 -0.109029,0.262954 -0.06093,0.163544 -0.125063,0.278987 -0.06414,0.115443 -0.157131,0.176371 -0.08979,0.06093 -0.227679,0.06093 z m -0.275781,0.990886 q 0,0.06414 0.0096,0.131477 0.0096,0.06734 0.02565,0.109029 h -0.214853 q -0.02245,-0.04489 -0.03527,-0.12827 -0.01603,-0.08338 -0.01603,-0.160337 0,-0.134684 0.0449,-0.250127 0.0481,-0.112236 0.163544,-0.182784 0.115443,-0.07055 0.323882,-0.07055 h 1.000506 v -0.243713 h 0.134683 l 0.112236,0.24692 0.36557,0.112236 v 0.166751 h -0.39443 v 0.497046 h -0.218059 v -0.497046 h -0.994093 q -0.15713,0 -0.234092,0.07375 -0.07376,0.07696 -0.07376,0.195612 z m 1.552067,1.247426 q 0,0.218059 -0.0962,0.378396 -0.0962,0.160338 -0.272574,0.243713 -0.173165,0.08658 -0.407257,0.08658 h -0.169958 v -1.176877 q -0.291814,0.0064 -0.445738,0.147511 -0.150717,0.144303 -0.150717,0.400843 0,0.163545 0.02886,0.288608 0.03207,0.12827 0.08979,0.262953 h -0.246919 q -0.05772,-0.131476 -0.08338,-0.259746 -0.02886,-0.12827 -0.02886,-0.304642 0,-0.246919 0.09941,-0.432911 0.09941,-0.185991 0.295021,-0.291814 0.195611,-0.102616 0.484219,-0.102616 0.282194,0 0.484219,0.093 0.202025,0.0962 0.311055,0.26616 0.109029,0.173164 0.109029,0.400844 z m -0.230886,-0.0032 q 0,-0.202025 -0.131477,-0.320675 -0.12827,-0.115443 -0.359156,-0.13789 v 0.875442 q 0.218059,-0.0032 0.352743,-0.102616 0.13789,-0.09941 0.13789,-0.314261 z"
     id="text18"
     style="font-size:12px;text-anchor:middle;stroke:#FF0000;stroke-width:0.01;fill:#FF0000"
     aria-label="teste" />
  <path
     d="m -38.947082,-66.477272 q 0,0.06413 0.0096,0.131477 0.0096,0.06734 0.02565,0.10903 h -0.214852 q -0.02245,-0.04489 -0.03527,-0.12827 -0.01603,-0.08338 -0.01603,-0.160338 0,-0.134683 0.04489,-0.250126 0.0481,-0.112237 0.163545,-0.182785 0.115443,-0.07055 0.323881,-0.07055 h 1.000506 v -0.243713 h 0.134684 l 0.112236,0.24692 0.365569,0.112236 v 0.166751 h -0.39443 v 0.497047 h -0.218059 v -0.497047 h -0.994092 q -0.157131,0 -0.234093,0.07376 -0.07375,0.07696 -0.07375,0.195611 z m 1.552067,1.247426 q 0,0.218059 -0.0962,0.378396 -0.0962,0.160338 -0.272574,0.243713 -0.173164,0.08658 -0.407257,0.08658 h -0.169957 v -1.176878 q -0.291815,0.0064 -0.445739,0.147511 -0.150717,0.144304 -0.150717,0.400844 0,0.163544 0.02886,0.288607 0.03207,0.12827 0.08979,0.262954 h -0.24692 q -0.05772,-0.131477 -0.08338,-0.259747 -0.02886,-0.12827 -0.02886,-0.304641 0,-0.24692 0.09941,-0.432912 0.09941,-0.185991 0.295021,-0.291814 0.195612,-0.102616 0.484219,-0.102616 0.282194,0 0.484219,0.093 0.202026,0.0962 0.311055,0.26616 0.10903,0.173165 0.10903,0.400843 z m -0.230886,-0.0032 q 0,-0.202025 -0.131477,-0.320675 -0.12827,-0.115443 -0.359156,-0.13789 v 0.875443 q 0.218059,-0.0032 0.352742,-0.102616 0.137891,-0.09941 0.137891,-0.314262 z m -1.045401,2.267169 q -0.250126,0 -0.378396,-0.185991 -0.12827,-0.185991 -0.12827,-0.500253 0,-0.179578 0.02886,-0.311055 0.02886,-0.12827 0.08017,-0.227679 h 0.25654 q -0.05131,0.102616 -0.0962,0.24692 -0.04169,0.14751 -0.04169,0.298228 0,0.214852 0.06734,0.311054 0.07055,0.0962 0.185991,0.0962 0.06414,0 0.115443,-0.03528 0.05131,-0.03527 0.102616,-0.128269 0.05131,-0.08979 0.115443,-0.259747 0.06414,-0.166751 0.12827,-0.285401 0.06414,-0.11865 0.153924,-0.182785 0.08979,-0.06413 0.230886,-0.06413 0.218059,0 0.336709,0.176372 0.11865,0.179578 0.11865,0.468185 0,0.157131 -0.03207,0.291814 -0.03207,0.13789 -0.08337,0.25654 l -0.224473,-0.0962 q 0.0449,-0.10903 0.07696,-0.22768 0.03207,-0.118649 0.03207,-0.243712 0,-0.173165 -0.05772,-0.266161 -0.05452,-0.08979 -0.150717,-0.08979 -0.07376,0 -0.121857,0.04169 -0.0481,0.04169 -0.0962,0.13789 -0.0481,0.09941 -0.10903,0.262954 -0.06093,0.163544 -0.125063,0.278987 -0.06414,0.115443 -0.15713,0.176371 -0.08979,0.06093 -0.22768,0.06093 z m -0.27578,0.990886 q 0,0.06414 0.0096,0.131477 0.0096,0.06734 0.02565,0.109029 h -0.214852 q -0.02245,-0.04489 -0.03527,-0.12827 -0.01603,-0.08338 -0.01603,-0.160337 0,-0.134684 0.04489,-0.250127 0.0481,-0.112236 0.163545,-0.182784 0.115443,-0.07055 0.323881,-0.07055 h 1.000506 v -0.243713 h 0.134684 l 0.112236,0.24692 0.365569,0.112236 v 0.166751 h -0.39443 v 0.497046 h -0.218059 v -0.497046 h -0.994092 q -0.157131,0 -0.234093,0.07375 -0.07375,0.07696 -0.07375,0.195612 z m 1.552067,1.247426 q 0,0.218059 -0.0962,0.378396 -0.0962,0.160338 -0.272574,0.243713 -0.173164,0.08658 -0.407257,0.08658 h -0.169957 v -1.176877 q -0.291815,0.0064 -0.445739,0.147511 -0.150717,0.144303 -0.150717,0.400843 0,0.163545 0.02886,0.288608 0.03207,0.12827 0.08979,0.262953 h -0.24692 q -0.05772,-0.131476 -0.08338,-0.259746 -0.02886,-0.12827 -0.02886,-0.304642 0,-0.246919 0.09941,-0.432911 0.09941,-0.185991 0.295021,-0.291814 0.195612,-0.102616 0.484219,-0.102616 0.282194,0 0.484219,0.093 0.202026,0.0962 0.311055,0.26616 0.10903,0.173164 0.10903,0.400844 z m -0.230886,-0.0032 q 0,-0.202025 -0.131477,-0.320675 -0.12827,-0.115443 -0.359156,-0.13789 v 0.875442 q 0.218059,-0.0032 0.352742,-0.102616 0.137891,-0.09941 0.137891,-0.314261 z"
     id="text19"
     style="font-size:12px;text-anchor:middle;stroke:#FF0000;stroke-width:0.01;fill:#FF0000"
     aria-label="teste" />
  <path
     d="m -50.077282,-66.477272 q 0,0.06413 0.0096,0.131477 0.0096,0.06734 0.02565,0.10903 h -0.214852 q -0.02245,-0.04489 -0.03527,-0.12827 -0.01603,-0.08338 -0.01603,-0.160338 0,-0.134683 0.04489,-0.250126 0.0481,-0.112237 0.163544,-0.182785 0.115443,-0.07055 0.323882,-0.07055 h 1.000506 v -0.243713 h 0.134683 l 0.112237,0.24692 0.365569,0.112236 v 0.166751 h -0.39443 v 0.497047 h -0.218059 v -0.497047 h -0.994092 q -0.157131,0 -0.234093,0.07376 -0.07375,0.07696 -0.07375,0.195611 z m 1.552066,1.247426 q 0,0.218059 -0.0962,0.378396 -0.0962,0.160338 -0.272574,0.243713 -0.173164,0.08658 -0.407257,0.08658 h -0.169958 v -1.176878 q -0.291814,0.0064 -0.445738,0.147511 -0.150717,0.144304 -0.150717,0.400844 0,0.163544 0.02886,0.288607 0.03207,0.12827 0.08979,0.262954 h -0.24692 q -0.05772,-0.131477 -0.08338,-0.259747 -0.02886,-0.12827 -0.02886,-0.304641 0,-0.24692 0.09941,-0.432912 0.09941,-0.185991 0.295021,-0.291814 0.195612,-0.102616 0.484219,-0.102616 0.282194,0 0.484219,0.093 0.202025,0.0962 0.311055,0.26616 0.109029,0.173165 0.109029,0.400844 z m -0.230886,-0.0032 q 0,-0.202025 -0.131476,-0.320675 -0.12827,-0.115443 -0.359156,-0.13789 v 0.875443 q 0.218059,-0.0032 0.352742,-0.102616 0.13789,-0.09941 0.13789,-0.314262 z m -1.0454,2.267169 q -0.250126,0 -0.378396,-0.185991 -0.12827,-0.185991 -0.12827,-0.500253 0,-0.179578 0.02886,-0.311055 0.02886,-0.12827 0.08017,-0.227679 h 0.25654 q -0.05131,0.102616 -0.0962,0.24692 -0.04169,0.14751 -0.04169,0.298228 0,0.214852 0.06734,0.311054 0.07055,0.0962 0.185991,0.0962 0.06414,0 0.115443,-0.03528 0.05131,-0.03527 0.102616,-0.128269 0.05131,-0.08979 0.115443,-0.259747 0.06414,-0.166751 0.12827,-0.285401 0.06414,-0.11865 0.153924,-0.182785 0.08979,-0.06413 0.230886,-0.06413 0.218059,0 0.336709,0.176372 0.118649,0.179578 0.118649,0.468185 0,0.157131 -0.03207,0.291814 -0.03207,0.13789 -0.08338,0.25654 l -0.224472,-0.0962 q 0.04489,-0.10903 0.07696,-0.22768 0.03207,-0.118649 0.03207,-0.243712 0,-0.173165 -0.05772,-0.266161 -0.05452,-0.08979 -0.150717,-0.08979 -0.07375,0 -0.121857,0.04169 -0.0481,0.04169 -0.0962,0.13789 -0.0481,0.09941 -0.10903,0.262954 -0.06093,0.163544 -0.125063,0.278987 -0.06414,0.115443 -0.157131,0.176371 -0.08979,0.06093 -0.227679,0.06093 z m -0.27578,0.990886 q 0,0.06414 0.0096,0.131477 0.0096,0.06734 0.02565,0.109029 h -0.214852 q -0.02245,-0.04489 -0.03527,-0.12827 -0.01603,-0.08338 -0.01603,-0.160337 0,-0.134684 0.04489,-0.250127 0.0481,-0.112236 0.163544,-0.182784 0.115443,-0.07055 0.323882,-0.07055 h 1.000506 v -0.243713 h 0.134683 l 0.112237,0.24692 0.365569,0.112236 v 0.166751 h -0.39443 v 0.497046 h -0.218059 v -0.497046 h -0.994092 q -0.157131,0 -0.234093,0.07375 -0.07375,0.07696 -0.07375,0.195612 z m 1.552066,1.247426 q 0,0.218059 -0.0962,0.378396 -0.0962,0.160338 -0.272574,0.243713 -0.173164,0.08658 -0.407257,0.08658 h -0.169958 v -1.176877 q -0.291814,0.0064 -0.445738,0.147511 -0.150717,0.144303 -0.150717,0.400843 0,0.163545 0.02886,0.288608 0.03207,0.12827 0.08979,0.262953 h -0.24692 q -0.05772,-0.131476 -0.08338,-0.259746 -0.02886,-0.12827 -0.02886,-0.304642 0,-0.246919 0.09941,-0.432911 0.09941,-0.185991 0.295021,-0.291814 0.195612,-0.102616 0.484219,-0.102616 0.282194,0 0.484219,0.093 0.202025,0.0962 0.311055,0.26616 0.109029,0.173164 0.109029,0.400844 z m -0.230886,-0.0032 q 0,-0.202025 -0.131476,-0.320675 -0.12827,-0.115443 -0.359156,-0.13789 v 0.875442 q 0.218059,-0.0032 0.352742,-0.102616 0.13789,-0.09941 0.13789,-0.314261 z"
     id="text20"
     style="font-size:12px;text-anchor:middle;stroke:#FF0000;stroke-width:0.01;fill:#FF0000"
     aria-label="teste" />
  <path
     d="m 63.240959,-97.942909 -0.27558,-0.01879 v 0.168062 q 0,0.03132 -0.01253,0.04489 -0.01148,0.01357 -0.03132,0.01357 -0.01983,0 -0.03236,-0.01357 -0.01148,-0.01357 -0.01148,-0.04489 v -0.174326 l -0.488529,-0.03445 q -0.03132,-0.0021 -0.04384,-0.01461 -0.01253,-0.01148 -0.01253,-0.02923 l 0.0042,-0.01775 q 0.01566,-0.0261 0.0428,-0.0261 h 0.01566 l 0.482265,0.03445 v -0.198334 l -0.488529,-0.0334 q -0.03132,-0.0021 -0.04384,-0.01461 -0.01253,-0.01253 -0.01253,-0.02923 l 0.0042,-0.01879 q 0.01566,-0.0261 0.0428,-0.0261 l 0.01566,10e-4 0.482265,0.0334 v -0.182677 q 0,-0.03132 0.01148,-0.04489 0.01253,-0.01357 0.03236,-0.01357 0.01983,0 0.03132,0.01357 0.01253,0.01357 0.01253,0.04489 v 0.188939 l 0.27558,0.01879 v -0.162843 q 0,-0.03236 0.01148,-0.04593 0.01253,-0.01357 0.03236,-0.01357 0.01983,0 0.03132,0.01357 0.01253,0.01357 0.01253,0.04593 v 0.169106 l 0.488528,0.03445 q 0.03027,0.0021 0.0428,0.01461 0.01357,0.01253 0.01357,0.02923 l -0.0042,0.01879 q -0.0167,0.0261 -0.04175,0.0261 l -0.0167,-10e-4 -0.482265,-0.0334 v 0.197292 l 0.488528,0.03445 q 0.03027,0.0021 0.0428,0.01357 0.01357,0.01253 0.01357,0.03027 l -0.0042,0.01775 q -0.0167,0.02714 -0.04175,0.02714 l -0.0167,-0.001 -0.482265,-0.03445 v 0.186852 q 0,0.03132 -0.01253,0.04489 -0.01148,0.01357 -0.03132,0.01357 -0.01983,0 -0.03236,-0.01357 -0.01148,-0.01357 -0.01148,-0.04489 z m 0,-0.08768 v -0.19729 l -0.27558,-0.01983 v 0.198334 z m 0.555336,1.220277 h -1.24011 v 0.300633 q 0,0.03132 -0.01253,0.04489 -0.01148,0.01357 -0.03132,0.01357 -0.01879,0 -0.03132,-0.01357 -0.01253,-0.01357 -0.01253,-0.04489 v -0.68895 q 0,-0.03132 0.01253,-0.04489 0.01253,-0.01357 0.03132,-0.01357 0.01983,0 0.03132,0.01357 0.01253,0.01357 0.01253,0.04489 v 0.300633 h 1.119022 l -0.08977,-0.286019 q -0.0063,-0.02088 -0.0063,-0.03027 0,-0.01566 0.01253,-0.02923 0.01357,-0.01253 0.03132,-0.01253 0.01566,0 0.02923,0.01044 0.0084,0.0084 0.01774,0.03445 z m 0.04593,1.633647 -1.511515,-0.705652 q -0.03862,-0.01775 -0.03862,-0.04593 0,-0.01775 0.01357,-0.03132 0.01253,-0.01252 0.02819,-0.01252 0.01253,0 0.03445,0.01044 l 1.511515,0.704608 q 0.02401,0.01148 0.03132,0.02192 0.0073,0.01044 0.0073,0.02505 0,0.01775 -0.01357,0.03027 -0.01253,0.01357 -0.02819,0.01357 -0.01148,0 -0.03445,-0.01044 z m -0.04593,0.93217 h -1.24011 v 0.300633 q 0,0.03132 -0.01253,0.04489 -0.01148,0.01357 -0.03132,0.01357 -0.01879,0 -0.03132,-0.01357 -0.01253,-0.01357 -0.01253,-0.04489 v -0.68895 q 0,-0.03132 0.01253,-0.04489 0.01253,-0.01357 0.03132,-0.01357 0.01983,0 0.03132,0.01357 0.01253,0.01357 0.01253,0.04489 v 0.300633 h 1.119022 l -0.08977,-0.286019 q -0.0063,-0.02088 -0.0063,-0.03027 0,-0.01566 0.01253,-0.02923 0.01357,-0.01253 0.03132,-0.01253 0.01566,0 0.02923,0.01044 0.0084,0.0084 0.01774,0.03445 z"
     id="text21"
     style="font-size:8px;font-family:'Courier New';stroke:#FF0000;stroke-width:0.01;fill:#FF0000"
     aria-label="#1/1" />
  <path
     d="m 59.916591,-98.420999 h -0.390405 v 0.161799 q 0,0.03236 -0.01253,0.04593 -0.01148,0.01357 -0.03132,0.01357 -0.01879,0 -0.03132,-0.01357 -0.01252,-0.01357 -0.01252,-0.04593 v -0.36744 q 0,-0.03132 0.01252,-0.04489 0.01253,-0.01357 0.03132,-0.01357 0.01983,0 0.03132,0.01357 0.01253,0.01357 0.01253,0.04489 v 0.117957 h 1.045951 v -0.117957 q 0,-0.03132 0.01148,-0.04489 0.01252,-0.01357 0.03236,-0.01357 0.01983,0 0.03132,0.01357 0.01253,0.01357 0.01253,0.04489 v 0.36744 q 0,0.03236 -0.01253,0.04593 -0.01148,0.01357 -0.03132,0.01357 -0.01983,0 -0.03236,-0.01357 -0.01148,-0.01357 -0.01148,-0.04593 v -0.161799 H 60.03246 l 0.539677,0.605441 v -0.09604 q 0,-0.03236 0.01148,-0.04593 0.01252,-0.01357 0.03236,-0.01357 0.01983,0 0.03132,0.01357 0.01253,0.01357 0.01253,0.04593 v 0.257834 q 0,0.03132 -0.01253,0.04489 -0.01148,0.01357 -0.03132,0.01357 -0.01983,0 -0.03236,-0.01357 -0.01148,-0.01357 -0.01148,-0.04489 v -0.03549 l -0.431116,-0.482265 q -0.04384,0.107518 -0.109605,0.178501 -0.06576,0.07098 -0.186852,0.136746 -0.06785,0.03758 -0.318378,0.13779 v 0.109605 q 0,0.03236 -0.01253,0.04593 -0.01148,0.01357 -0.03132,0.01357 -0.01879,0 -0.03132,-0.01357 -0.01252,-0.01357 -0.01252,-0.04593 v -0.169106 q 0.376835,-0.13779 0.484353,-0.231737 0.108562,-0.09395 0.152404,-0.23487 z m 0.875801,1.610682 h -0.226518 v -0.129439 h 0.226518 z m -0.449905,0.0031 h -0.816301 v 0.344475 q 0,0.03236 -0.01253,0.04593 -0.01148,0.01357 -0.03132,0.01357 -0.01879,0 -0.03132,-0.01357 -0.01252,-0.01357 -0.01252,-0.04593 v -0.776635 q 0,-0.03132 0.01252,-0.04489 0.01253,-0.01357 0.03132,-0.01357 0.01983,0 0.03132,0.01357 0.01253,0.01357 0.01253,0.04489 v 0.344475 h 0.727573 v -0.255746 q 0,-0.03132 0.01252,-0.04593 0.01253,-0.01357 0.03132,-0.01357 0.01983,0 0.03236,0.01357 0.01252,0.01357 0.01252,0.04593 z m 0,0.906074 h -0.159711 q 0.09499,0.07829 0.143009,0.168062 0.04802,0.08977 0.04802,0.211904 0,0.129439 -0.06054,0.239045 -0.06054,0.109606 -0.169106,0.169106 -0.107518,0.06054 -0.226518,0.06054 -0.18894,0 -0.323598,-0.135702 -0.133615,-0.134659 -0.133615,-0.331949 0,-0.234869 0.191027,-0.38101 H 59.12326 v 0.212948 q 0,0.03132 -0.01148,0.04489 -0.01252,0.01357 -0.03236,0.01357 -0.01879,0 -0.03132,-0.01357 -0.01253,-0.01357 -0.01253,-0.04489 v -0.418589 q 0,-0.03132 0.01253,-0.04489 0.01148,-0.01357 0.03132,-0.01357 0.01983,0 0.03236,0.01357 0.01148,0.01357 0.01148,0.04489 v 0.117956 h 1.130505 v -0.117956 q 0,-0.03132 0.01252,-0.04489 0.01253,-0.01357 0.03236,-0.01357 0.01879,0 0.03131,0.01357 0.01252,0.01357 0.01252,0.04489 z m -0.424852,0.759933 q 0.15136,0 0.258878,-0.11065 0.108562,-0.109606 0.108562,-0.268273 0,-0.159711 -0.108562,-0.270361 -0.108562,-0.110649 -0.258878,-0.110649 -0.151361,0 -0.259923,0.110649 -0.108561,0.11065 -0.108561,0.270361 0,0.157624 0.107518,0.268273 0.108562,0.11065 0.260966,0.11065 z m 0.848661,0.896679 h -1.24011 v 0.300633 q 0,0.03132 -0.01253,0.04488 -0.01148,0.01357 -0.03132,0.01357 -0.01879,0 -0.03132,-0.01357 -0.01252,-0.01357 -0.01252,-0.04488 v -0.688951 q 0,-0.03132 0.01252,-0.04489 0.01253,-0.01357 0.03132,-0.01357 0.01983,0 0.03132,0.01357 0.01253,0.01357 0.01253,0.04489 v 0.300633 h 1.119022 l -0.08977,-0.286019 q -0.0063,-0.02088 -0.0063,-0.03027 0,-0.01566 0.01253,-0.02923 0.01357,-0.01253 0.03131,-0.01253 0.01566,0 0.02923,0.01044 0.0084,0.0084 0.01775,0.03445 z m -0.648239,1.419655 q -0.05324,0.109605 -0.140922,0.16493 -0.08664,0.05637 -0.186852,0.05637 -0.155535,0 -0.269316,-0.116913 -0.113782,-0.116913 -0.113782,-0.283931 0,-0.167018 0.113782,-0.283931 0.113781,-0.116913 0.269316,-0.116913 0.09917,0 0.185808,0.05532 0.08769,0.05637 0.141966,0.167018 0.05532,-0.09604 0.114824,-0.139878 0.08455,-0.06054 0.186852,-0.06054 0.144053,0 0.251571,0.11065 0.108562,0.111693 0.108562,0.268273 0,0.157623 -0.108562,0.268273 -0.107518,0.110649 -0.251571,0.110649 -0.102299,0 -0.185808,-0.06054 -0.06054,-0.0428 -0.115868,-0.138833 z m 0.298545,0.109605 q 0.112737,0 0.193114,-0.08455 0.08142,-0.08351 0.08142,-0.205641 0,-0.121088 -0.08142,-0.205641 -0.08142,-0.08351 -0.192071,-0.08351 -0.102298,0 -0.179544,0.08246 -0.0762,0.08351 -0.0762,0.206685 0,0.12422 0.0762,0.206685 0.07725,0.08351 0.178501,0.08351 z m -0.628406,0.02401 q 0.115868,0 0.201465,-0.08977 0.0856,-0.08977 0.0856,-0.223387 0,-0.133615 -0.0856,-0.223387 -0.0856,-0.08977 -0.200422,-0.08977 -0.119,0 -0.206685,0.08977 -0.08768,0.09082 -0.08768,0.223387 0,0.13257 0.08768,0.222343 0.08769,0.09082 0.205642,0.09082 z"
     id="text22"
     style="font-size:8px;font-family:'Courier New';stroke:#FF0000;stroke-width:0.01;fill:#FF0000"
     aria-label="Kip18" />
  <path
     d="m 57.736294,-98.093225 h -1.24011 v 0.300632 q 0,0.03132 -0.01252,0.04489 -0.01148,0.01357 -0.03132,0.01357 -0.01879,0 -0.03132,-0.01357 -0.01253,-0.01357 -0.01253,-0.04489 v -0.68895 q 0,-0.03132 0.01253,-0.04489 0.01252,-0.01357 0.03132,-0.01357 0.01983,0 0.03132,0.01357 0.01252,0.01357 0.01252,0.04489 v 0.300633 h 1.119022 l -0.08977,-0.286019 q -0.0063,-0.02088 -0.0063,-0.03027 0,-0.01566 0.01252,-0.02923 0.01357,-0.01253 0.03132,-0.01253 0.01566,0 0.02923,0.01044 0.0084,0.0083 0.01775,0.03445 z m -0.648239,1.419654 q -0.05324,0.109606 -0.140922,0.164931 -0.08664,0.05637 -0.186851,0.05637 -0.155536,0 -0.269317,-0.116913 -0.113781,-0.116913 -0.113781,-0.283931 0,-0.167018 0.113781,-0.283931 0.113781,-0.116913 0.269317,-0.116913 0.09917,0 0.185807,0.05532 0.08769,0.05637 0.141966,0.167018 0.05533,-0.09604 0.114825,-0.139878 0.08455,-0.06054 0.186851,-0.06054 0.144054,0 0.251572,0.11065 0.108562,0.111693 0.108562,0.268273 0,0.157623 -0.108562,0.268273 -0.107518,0.110649 -0.251572,0.110649 -0.102298,0 -0.185807,-0.06054 -0.06054,-0.0428 -0.115869,-0.138834 z m 0.298545,0.109606 q 0.112737,0 0.193115,-0.08455 0.08142,-0.08351 0.08142,-0.205641 0,-0.121088 -0.08142,-0.205641 -0.08142,-0.08351 -0.192071,-0.08351 -0.102299,0 -0.179545,0.08246 -0.0762,0.08351 -0.0762,0.206685 0,0.12422 0.0762,0.206685 0.07725,0.08351 0.178501,0.08351 z m -0.628406,0.02401 q 0.115869,0 0.201465,-0.08977 0.0856,-0.08977 0.0856,-0.223386 0,-0.133615 -0.0856,-0.223387 -0.0856,-0.08977 -0.200421,-0.08977 -0.119001,0 -0.206685,0.08977 -0.08769,0.09082 -0.08769,0.223387 0,0.132571 0.08769,0.222343 0.08768,0.09082 0.205641,0.09082 z m -0.03445,0.795424 v 0.284975 l -0.576212,-0.310028 q -0.05219,-0.02818 -0.05219,-0.06785 0,-0.0261 0.01879,-0.04489 0.01775,-0.01775 0.04384,-0.01775 0.01044,0 0.02297,0.0031 z m 0.906074,1.215057 H 57.20079 q 0.03236,0.07725 0.04802,0.148229 0.0167,0.07098 0.0167,0.134659 0,0.16493 -0.115869,0.27558 -0.115869,0.111693 -0.304808,0.111693 -0.208773,0 -0.338212,-0.125264 -0.129439,-0.125263 -0.129439,-0.313159 0,-0.12422 0.05532,-0.239044 0.03862,-0.08142 0.09604,-0.148229 0.03445,-0.03967 0.05741,-0.03967 0.01879,0 0.03132,0.01252 0.01357,0.01252 0.01357,0.02923 0,0.01775 -0.01879,0.03758 -0.147185,0.157624 -0.147185,0.343432 0,0.153448 0.104387,0.253658 0.10543,0.100211 0.279755,0.100211 0.148229,0 0.238001,-0.08664 0.09082,-0.08664 0.09082,-0.220256 0,-0.136746 -0.07203,-0.273492 -0.0167,-0.0334 -0.0167,-0.04697 0,-0.01879 0.01253,-0.03027 0.01252,-0.01148 0.03549,-0.01148 h 0.581432 v 0.611705 q 0,0.03132 -0.01253,0.04489 -0.01252,0.01357 -0.03236,0.01357 -0.01879,0 -0.03132,-0.01357 -0.01253,-0.01357 -0.01253,-0.04489 z m -0.667029,1.263076 q 0.120045,0.08142 0.177457,0.167018 0.05741,0.08664 0.05741,0.192071 0,0.139877 -0.116912,0.248439 -0.115869,0.108562 -0.287063,0.108562 -0.156579,0 -0.287062,-0.09917 -0.129439,-0.09917 -0.129439,-0.273492 0,-0.113781 0.06994,-0.212948 0.06994,-0.09812 0.215035,-0.154492 0.180589,-0.06994 0.3998,-0.06994 0.164931,0 0.306896,0.06576 0.109606,0.05011 0.192071,0.133615 0.08351,0.08351 0.135702,0.194159 0.05324,0.111693 0.05324,0.241132 0,0.08768 -0.03549,0.146141 -0.01566,0.02505 -0.04175,0.02505 -0.01879,0 -0.03132,-0.01148 -0.01148,-0.01148 -0.01148,-0.02923 0,-0.01357 0.01044,-0.03236 0.02088,-0.0428 0.02088,-0.106474 0,-0.203554 -0.175369,-0.371616 -0.174325,-0.167018 -0.415457,-0.167018 -0.03445,0 -0.107518,0.0063 z m -0.145097,0.01983 q -0.189983,0.03967 -0.271405,0.12422 -0.08142,0.0856 -0.08142,0.201466 0,0.116913 0.09082,0.199378 0.09186,0.08351 0.238001,0.08351 0.136746,0 0.226519,-0.08351 0.08977,-0.08351 0.08977,-0.18894 0,-0.101254 -0.08664,-0.195202 -0.05741,-0.06263 -0.205641,-0.140922 z m 0.494792,2.408194 h -0.08873 q 0.120044,0.111694 0.120044,0.224431 0,0.06785 -0.03654,0.119 -0.03549,0.05115 -0.108562,0.0856 0.07307,0.05846 0.108562,0.117957 0.03654,0.06054 0.03654,0.121088 0,0.09499 -0.06159,0.15136 -0.07933,0.07411 -0.173282,0.07411 h -0.612748 v 0.07412 q 0,0.03132 -0.01252,0.04489 -0.01148,0.01357 -0.03132,0.01357 -0.01879,0 -0.03132,-0.01357 -0.01253,-0.01357 -0.01253,-0.04489 v -0.161798 h 0.692082 q 0.06681,0 0.11065,-0.04071 0.04384,-0.04071 0.04384,-0.09395 0,-0.04802 -0.03654,-0.101254 -0.03549,-0.05324 -0.140921,-0.121089 h -0.581432 v 0.07307 q 0,0.03132 -0.01252,0.04489 -0.01148,0.01357 -0.03132,0.01357 -0.01879,0 -0.03132,-0.01357 -0.01253,-0.01357 -0.01253,-0.04489 v -0.161799 h 0.685818 q 0.06994,0 0.114825,-0.04175 0.04593,-0.04071 0.04593,-0.09186 0,-0.04697 -0.03027,-0.0929 -0.0428,-0.06368 -0.147184,-0.133614 h -0.581433 v 0.07411 q 0,0.03132 -0.01253,0.04489 -0.01148,0.01357 -0.03132,0.01357 -0.01879,0 -0.03132,-0.01357 -0.01252,-0.01357 -0.01252,-0.04489 v -0.235913 q 0,-0.03132 0.01252,-0.04489 0.01253,-0.01357 0.03132,-0.01357 0.01983,0 0.03132,0.01357 0.01253,0.01357 0.01253,0.04489 v 0.07411 h 0.727574 v -0.07411 q 0,-0.03132 0.01253,-0.04489 0.01252,-0.01357 0.03236,-0.01357 0.01879,0 0.03132,0.01357 0.01253,0.01357 0.01253,0.04489 z m 0,1.282909 h -0.08873 q 0.120044,0.111693 0.120044,0.22443 0,0.06785 -0.03654,0.119001 -0.03549,0.05115 -0.108562,0.0856 0.07307,0.05846 0.108562,0.117956 0.03654,0.06054 0.03654,0.121089 0,0.09499 -0.06159,0.15136 -0.07933,0.07411 -0.173282,0.07411 h -0.612748 v 0.07411 q 0,0.03132 -0.01252,0.04489 -0.01148,0.01357 -0.03132,0.01357 -0.01879,0 -0.03132,-0.01357 -0.01253,-0.01357 -0.01253,-0.04489 v -0.161798 h 0.692082 q 0.06681,0 0.11065,-0.04071 0.04384,-0.04071 0.04384,-0.09395 0,-0.04802 -0.03654,-0.101255 -0.03549,-0.05324 -0.140921,-0.121088 h -0.581432 v 0.07307 q 0,0.03131 -0.01252,0.04489 -0.01148,0.01357 -0.03132,0.01357 -0.01879,0 -0.03132,-0.01357 -0.01253,-0.01357 -0.01253,-0.04489 v -0.161799 h 0.685818 q 0.06994,0 0.114825,-0.04176 0.04593,-0.04071 0.04593,-0.09186 0,-0.04697 -0.03027,-0.0929 -0.0428,-0.06368 -0.147184,-0.133614 h -0.581433 v 0.07411 q 0,0.03132 -0.01253,0.04489 -0.01148,0.01357 -0.03132,0.01357 -0.01879,0 -0.03132,-0.01357 -0.01252,-0.01357 -0.01252,-0.04489 v -0.235913 q 0,-0.03132 0.01252,-0.04489 0.01253,-0.01357 0.03132,-0.01357 0.01983,0 0.03132,0.01357 0.01253,0.01357 0.01253,0.04489 v 0.07411 h 0.727574 v -0.07411 q 0,-0.03132 0.01253,-0.04489 0.01252,-0.01357 0.03236,-0.01357 0.01879,0 0.03132,0.01357 0.01253,0.01357 0.01253,0.04489 z m -0.431116,3.025117 -0.385186,0.401887 q 0,0.03967 -0.0042,0.05011 -0.0031,0.01044 -0.01461,0.01775 -0.01148,0.0084 -0.02505,0.0084 -0.01879,0 -0.03132,-0.01357 -0.01253,-0.01357 -0.01253,-0.04593 v -0.281843 q 0,-0.03236 0.01253,-0.04593 0.01252,-0.01357 0.03132,-0.01357 0.01983,0 0.03131,0.01357 0.01253,0.01357 0.01253,0.04593 v 0.145097 l 0.32673,-0.341344 -0.32673,-0.339256 v 0.146141 q 0,0.03132 -0.01253,0.04489 -0.01148,0.01357 -0.03131,0.01357 -0.01879,0 -0.03132,-0.01357 -0.01253,-0.01357 -0.01253,-0.04489 v -0.284975 q 0,-0.03132 0.01253,-0.04489 0.01252,-0.01357 0.03132,-0.01357 0.01357,0 0.02505,0.0073 0.01148,0.0084 0.01461,0.01775 0.0042,0.01044 0.0042,0.05011 l 0.385186,0.401888 0.342387,-0.357002 q 0,-0.03758 0.0042,-0.04802 0.0042,-0.0094 0.01566,-0.01775 0.01148,-0.0073 0.02505,-0.0073 0.01879,0 0.03132,0.01357 0.01253,0.01357 0.01253,0.04593 v 0.239045 q 0,0.03236 -0.01253,0.04489 -0.01252,0.01357 -0.03236,0.01357 -0.01879,0 -0.03132,-0.01357 -0.01252,-0.01253 -0.01252,-0.04489 v -0.104387 l -0.284975,0.295414 0.284975,0.297501 v -0.104386 q 0,-0.03132 0.01252,-0.04593 0.01253,-0.01357 0.03236,-0.01357 0.01879,0 0.03132,0.01357 0.01253,0.01357 0.01253,0.04593 v 0.239044 q 0,0.03132 -0.01253,0.04489 -0.01252,0.01357 -0.03236,0.01357 -0.01253,0 -0.02401,-0.0083 -0.01148,-0.0073 -0.01566,-0.01775 -0.0042,-0.0094 -0.0042,-0.04697 z m -0.106474,2.66916 v -0.581432 h 0.101254 l 0.842399,0.487485 v 0.182676 H 56.86258 v 0.07307 q 0,0.03236 -0.01253,0.04593 -0.01148,0.01357 -0.03132,0.01357 -0.01879,0 -0.03132,-0.01357 -0.01252,-0.01357 -0.01252,-0.04593 v -0.07307 h -0.278711 v 0.07307 q 0,0.03236 -0.01252,0.04593 -0.01148,0.01357 -0.03132,0.01357 -0.01879,0 -0.03132,-0.01357 -0.01253,-0.01357 -0.01253,-0.04593 v -0.325685 q 0,-0.03236 0.01253,-0.04593 0.01252,-0.01357 0.03132,-0.01357 0.01983,0 0.03132,0.01357 0.01252,0.01357 0.01252,0.04593 v 0.163886 z m 0.08768,0 h 0.76724 v -0.04593 l -0.76724,-0.443642 z m -0.138834,0.94574 v 0.284975 L 56.147528,-82.9405 q -0.05219,-0.02818 -0.05219,-0.06785 0,-0.0261 0.01879,-0.04489 0.01775,-0.01775 0.04384,-0.01775 0.01044,0 0.02297,0.0031 z m 0.447818,1.859122 H 56.95444 q -0.282887,0 -0.447817,-0.134659 -0.129439,-0.10543 -0.129439,-0.266185 0,-0.07725 0.03131,-0.146141 0.03027,-0.06785 0.0856,-0.115869 0.03445,-0.03027 0.11065,-0.06681 0.0762,-0.03549 0.139878,-0.05115 0.08977,-0.02401 0.209816,-0.02401 h 0.217124 q 0.283931,0 0.448861,0.134658 0.12944,0.10543 0.12944,0.266185 0,0.07829 -0.03132,0.146141 -0.03027,0.06785 -0.0856,0.115869 -0.03549,0.03132 -0.111694,0.06681 -0.0762,0.03549 -0.138833,0.05219 -0.08977,0.02297 -0.210861,0.02297 z m -0.01148,-0.08768 q 0.12422,0 0.230694,-0.03549 0.107518,-0.03445 0.171194,-0.07829 0.03654,-0.0261 0.06263,-0.06785 0.03654,-0.0595 0.03654,-0.133615 0,-0.147185 -0.150317,-0.230694 -0.150316,-0.08351 -0.350738,-0.08351 h -0.193115 q -0.12422,0 -0.231737,0.03445 -0.107518,0.03549 -0.171194,0.08038 -0.03549,0.02505 -0.06159,0.06681 -0.03758,0.0595 -0.03758,0.134658 0,0.146141 0.150316,0.22965 0.15136,0.08351 0.351782,0.08351 z m -0.19729,0.706696 q 0.120044,0.08142 0.177457,0.167018 0.05741,0.08664 0.05741,0.192071 0,0.139878 -0.116913,0.24844 -0.115868,0.108562 -0.287062,0.108562 -0.15658,0 -0.287063,-0.09917 -0.129439,-0.09917 -0.129439,-0.273492 0,-0.113781 0.06994,-0.212948 0.06994,-0.09812 0.215036,-0.154492 0.180588,-0.06994 0.3998,-0.06994 0.16493,0 0.306896,0.06576 0.109606,0.05011 0.192071,0.133614 0.08351,0.08351 0.135702,0.194159 0.05324,0.111693 0.05324,0.241132 0,0.08768 -0.03549,0.146141 -0.01566,0.02505 -0.04176,0.02505 -0.01879,0 -0.03132,-0.01148 -0.01148,-0.01148 -0.01148,-0.02923 0,-0.01357 0.01044,-0.03236 0.02088,-0.0428 0.02088,-0.106474 0,-0.203553 -0.175369,-0.371615 -0.174325,-0.167018 -0.415458,-0.167018 -0.03445,0 -0.107518,0.0063 z m -0.145097,0.01983 q -0.189983,0.03967 -0.271405,0.124219 -0.08142,0.0856 -0.08142,0.201466 0,0.116913 0.09082,0.199378 0.09186,0.08351 0.238001,0.08351 0.136746,0 0.226518,-0.08351 0.08977,-0.08351 0.08977,-0.188939 0,-0.101255 -0.08664,-0.195203 -0.05741,-0.06263 -0.205641,-0.140921 z m 0.494791,2.408193 h -0.08873 q 0.120044,0.111694 0.120044,0.224431 0,0.06785 -0.03654,0.119001 -0.03549,0.05115 -0.108562,0.0856 0.07307,0.05846 0.108562,0.117957 0.03654,0.06054 0.03654,0.121088 0,0.09499 -0.06159,0.15136 -0.07933,0.07411 -0.173281,0.07411 h -0.612748 v 0.07411 q 0,0.03132 -0.01252,0.04489 -0.01148,0.01357 -0.03132,0.01357 -0.01879,0 -0.03132,-0.01357 -0.01253,-0.01357 -0.01253,-0.04489 v -0.161799 h 0.692082 q 0.06681,0 0.110649,-0.04071 0.04384,-0.04071 0.04384,-0.09395 0,-0.04802 -0.03654,-0.101255 -0.03549,-0.05324 -0.140921,-0.121088 h -0.581433 v 0.07307 q 0,0.03132 -0.01253,0.04489 -0.01148,0.01357 -0.03131,0.01357 -0.01879,0 -0.03132,-0.01357 -0.01253,-0.01357 -0.01253,-0.04489 v -0.161799 h 0.685819 q 0.06994,0 0.114825,-0.04175 0.04593,-0.04071 0.04593,-0.09186 0,-0.04697 -0.03027,-0.0929 -0.0428,-0.06368 -0.147185,-0.133615 h -0.581432 v 0.07412 q 0,0.03132 -0.01253,0.04489 -0.01148,0.01357 -0.03132,0.01357 -0.01879,0 -0.03132,-0.01357 -0.01252,-0.01357 -0.01252,-0.04489 v -0.235914 q 0,-0.03131 0.01252,-0.04489 0.01253,-0.01357 0.03132,-0.01357 0.01983,0 0.03132,0.01357 0.01253,0.01357 0.01253,0.04489 v 0.07412 h 0.727573 v -0.07412 q 0,-0.03131 0.01252,-0.04489 0.01253,-0.01357 0.03236,-0.01357 0.01879,0 0.03132,0.01357 0.01253,0.01357 0.01253,0.04489 z m 0,1.282909 h -0.08873 q 0.120044,0.111693 0.120044,0.224431 0,0.06785 -0.03654,0.119 -0.03549,0.05115 -0.108562,0.0856 0.07307,0.05846 0.108562,0.117957 0.03654,0.06054 0.03654,0.121088 0,0.09499 -0.06159,0.15136 -0.07933,0.07411 -0.173281,0.07411 h -0.612748 v 0.07411 q 0,0.03132 -0.01252,0.04489 -0.01148,0.01357 -0.03132,0.01357 -0.01879,0 -0.03132,-0.01357 -0.01253,-0.01357 -0.01253,-0.04489 v -0.161799 h 0.692082 q 0.06681,0 0.110649,-0.04071 0.04384,-0.04071 0.04384,-0.09395 0,-0.04802 -0.03654,-0.101254 -0.03549,-0.05324 -0.140921,-0.121089 h -0.581433 v 0.07307 q 0,0.03132 -0.01253,0.04489 -0.01148,0.01357 -0.03131,0.01357 -0.01879,0 -0.03132,-0.01357 -0.01253,-0.01357 -0.01253,-0.04489 v -0.161799 h 0.685819 q 0.06994,0 0.114825,-0.04175 0.04593,-0.04071 0.04593,-0.09186 0,-0.04697 -0.03027,-0.0929 -0.0428,-0.06368 -0.147185,-0.133614 h -0.581432 v 0.07411 q 0,0.03132 -0.01253,0.04489 -0.01148,0.01357 -0.03132,0.01357 -0.01879,0 -0.03132,-0.01357 -0.01252,-0.01357 -0.01252,-0.04489 v -0.235912 q 0,-0.03132 0.01252,-0.04489 0.01253,-0.01357 0.03132,-0.01357 0.01983,0 0.03132,0.01357 0.01253,0.01357 0.01253,0.04489 v 0.07411 h 0.727568 v -0.07411 q 0,-0.03132 0.01253,-0.04489 0.01252,-0.01357 0.03236,-0.01357 0.01879,0 0.03132,0.01357 0.01253,0.01357 0.01253,0.04489 z"
     id="text23"
     style="font-size:8px;font-family:'Courier New';stroke:#FF0000;stroke-width:0.01;fill:#FF0000"
     aria-label="18,56 mm x 4,06 mm" />
</svg>
