<?xml version="1.0" encoding="UTF-8" standalone="no"?>
<svg
   version="1.1"
   id="svg23"
   sodipodi:docname="meu_vetor.ezcad.svg"
   width="297mm"
   height="210mm"
   inkscape:version="1.3.2 (091e20e, 2023-11-25, custom)"
   xmlns:inkscape="http://www.inkscape.org/namespaces/inkscape"
   xmlns:sodipodi="http://sodipodi.sourceforge.net/DTD/sodipodi-0.dtd"
   xmlns="http://www.w3.org/2000/svg"
   xmlns:svg="http://www.w3.org/2000/svg">
  <defs
     id="defs23" />
  <sodipodi:namedview
     id="namedview23"
     pagecolor="#ffffff"
     bordercolor="#000000"
     borderopacity="0.25"
     inkscape:showpageshadow="2"
     inkscape:pageopacity="0.0"
     inkscape:pagecheckerboard="0"
     inkscape:deskcolor="#d1d1d1"
     inkscape:zoom="2.2273864"
     inkscape:cx="-26.263966"
     inkscape:cy="54.997194"
     inkscape:window-width="1920"
     inkscape:window-height="991"
     inkscape:window-x="-9"
     inkscape:window-y="-9"
     inkscape:window-maximized="1"
     inkscape:current-layer="svg23"
     inkscape:document-units="mm" />
  <g
     id="Objetos"
     transform="matrix(3.7797169,0,0,3.779587,369.30996,239.19464)"
     style="stroke-width:0.264575">
    <path
       d="m 24.268029,71.400882 q 0.24,0 0.492,-0.036 0.252,-0.036 0.408,-0.096 v 0.804 q -0.168,0.084 -0.48,0.132 -0.312,0.06 -0.6,0.06 -0.504,0 -0.936,-0.168 -0.42,-0.18 -0.684,-0.612 -0.264,-0.432 -0.264,-1.212 v -3.744 h -0.912 v -0.504 l 0.924,-0.42 0.42,-1.368 h 0.624 v 1.476 h 1.86 v 0.816 h -1.86 v 3.72 q 0,0.588 0.276,0.876 0.288,0.276 0.732,0.276 z m 4.668001,-5.808 q 0.816,0 1.416,0.36 0.6,0.36 0.912,1.02 0.324,0.648 0.324,1.524 v 0.636 h -4.404 q 0.024,1.092 0.552,1.668 0.54,0.564 1.5,0.564 0.612,0 1.08,-0.108 0.48,-0.12 0.984,-0.336 v 0.924 q -0.492,0.216 -0.972,0.312 -0.48,0.108 -1.14,0.108 -0.924,0 -1.62,-0.372 -0.696,-0.372 -1.092,-1.104 -0.384,-0.732 -0.384,-1.812 0,-1.056 0.348,-1.812 0.36,-0.756 0.996,-1.164 0.648,-0.408 1.5,-0.408 z m -0.012,0.864 q -0.756,0 -1.2,0.492 -0.432,0.48 -0.516,1.344 h 3.276 q -0.012,-0.816 -0.384,-1.32 -0.372,-0.516 -1.176,-0.516 z m 8.48399,3.912 q 0,0.936 -0.696,1.416 -0.696,0.48 -1.872,0.48 -0.672,0 -1.164,-0.108 -0.48,-0.108 -0.852,-0.3 v -0.96 q 0.384,0.192 0.924,0.36 0.552,0.156 1.116,0.156 0.804,0 1.164,-0.252 0.36,-0.264 0.36,-0.696 0,-0.24 -0.132,-0.432 -0.132,-0.192 -0.48,-0.384 -0.336,-0.192 -0.972,-0.432 -0.624,-0.24 -1.068,-0.48 -0.444,-0.24 -0.684,-0.576 -0.24,-0.336 -0.24,-0.864 0,-0.816 0.66,-1.26 0.672,-0.444 1.752,-0.444 0.588,0 1.092,0.12 0.516,0.12 0.96,0.312 l -0.36,0.84 q -0.408,-0.168 -0.852,-0.288 -0.444,-0.12 -0.912,-0.12 -0.648,0 -0.996,0.216 -0.336,0.204 -0.336,0.564 0,0.276 0.156,0.456 0.156,0.18 0.516,0.36 0.372,0.18 0.984,0.408 0.612,0.228 1.044,0.468 0.432,0.24 0.66,0.588 0.228,0.336 0.228,0.852 z m 3.708001,1.032 q 0.24,0 0.492,-0.036 0.252,-0.036 0.408,-0.096 v 0.804 q -0.168,0.084 -0.48,0.132 -0.312,0.06 -0.6,0.06 -0.504,0 -0.936,-0.168 -0.42,-0.18 -0.684,-0.612 -0.264,-0.432 -0.264,-1.212 v -3.744 h -0.912 v -0.504 l 0.924,-0.42 0.42,-1.368 h 0.624 v 1.476 h 1.86 v 0.816 h -1.86 v 3.72 q 0,0.588 0.276,0.876 0.288,0.276 0.732,0.276 z m 4.668001,-5.808 q 0.816,0 1.416,0.36 0.6,0.36 0.912,1.02 0.324,0.648 0.324,1.524 v 0.636 h -4.404 q 0.024,1.092 0.552,1.668 0.54,0.564 1.5,0.564 0.612,0 1.08,-0.108 0.48,-0.12 0.984,-0.336 v 0.924 q -0.492,0.216 -0.972,0.312 -0.48,0.108 -1.14,0.108 -0.924,0 -1.62,-0.372 -0.696,-0.372 -1.092,-1.104 -0.384,-0.732 -0.384,-1.812 0,-1.056 0.348,-1.812 0.36,-0.756 0.996,-1.164 0.648,-0.408 1.5,-0.408 z m -0.012,0.864 q -0.756,0 -1.2,0.492 -0.432,0.48 -0.516,1.344 h 3.276 q -0.012,-0.816 -0.384,-1.32 -0.372,-0.516 -1.176,-0.516 z"
       id="text1"
       style="font-size:12px;text-anchor:middle;stroke:#000000;stroke-width:0.00264575"
       transform="matrix(0.2645833,0,0,0.2645833,-98.8,-63.25)"
       aria-label="teste" />
    <path
       d="m 24.268029,113.0513 q 0.24,0 0.492,-0.036 0.252,-0.036 0.408,-0.096 v 0.804 q -0.168,0.084 -0.48,0.132 -0.312,0.06 -0.6,0.06 -0.504,0 -0.936,-0.168 -0.42,-0.18 -0.684,-0.612 -0.264,-0.432 -0.264,-1.212 v -3.744 h -0.912 v -0.504 l 0.924,-0.42 0.42,-1.368 h 0.624 v 1.476 h 1.86 v 0.816 h -1.86 v 3.72 q 0,0.588 0.276,0.876 0.288,0.276 0.732,0.276 z m 4.668001,-5.808 q 0.816,0 1.416,0.36 0.6,0.36 0.912,1.02 0.324,0.648 0.324,1.524 v 0.636 h -4.404 q 0.024,1.092 0.552,1.668 0.54,0.564 1.5,0.564 0.612,0 1.08,-0.108 0.48,-0.12 0.984,-0.336 v 0.924 q -0.492,0.216 -0.972,0.312 -0.48,0.108 -1.14,0.108 -0.924,0 -1.62,-0.372 -0.696,-0.372 -1.092,-1.104 -0.384,-0.732 -0.384,-1.812 0,-1.056 0.348,-1.812 0.36,-0.756 0.996,-1.164 0.648,-0.408 1.5,-0.408 z m -0.012,0.864 q -0.756,0 -1.2,0.492 -0.432,0.48 -0.516,1.344 h 3.276 q -0.012,-0.816 -0.384,-1.32 -0.372,-0.516 -1.176,-0.516 z m 8.48399,3.912 q 0,0.936 -0.696,1.416 -0.696,0.48 -1.872,0.48 -0.672,0 -1.164,-0.108 -0.48,-0.108 -0.852,-0.3 v -0.96 q 0.384,0.192 0.924,0.36 0.552,0.156 1.116,0.156 0.804,0 1.164,-0.252 0.36,-0.264 0.36,-0.696 0,-0.24 -0.132,-0.432 -0.132,-0.192 -0.48,-0.384 -0.336,-0.192 -0.972,-0.432 -0.624,-0.24 -1.068,-0.48 -0.444,-0.24 -0.684,-0.576 -0.24,-0.336 -0.24,-0.864 0,-0.816 0.66,-1.26 0.672,-0.444 1.752,-0.444 0.588,0 1.092,0.12 0.516,0.12 0.96,0.312 l -0.36,0.84 q -0.408,-0.168 -0.852,-0.288 -0.444,-0.12 -0.912,-0.12 -0.648,0 -0.996,0.216 -0.336,0.204 -0.336,0.564 0,0.276 0.156,0.456 0.156,0.18 0.516,0.36 0.372,0.18 0.984,0.408 0.612,0.228 1.044,0.468 0.432,0.24 0.66,0.588 0.228,0.336 0.228,0.852 z m 3.708001,1.032 q 0.24,0 0.492,-0.036 0.252,-0.036 0.408,-0.096 v 0.804 q -0.168,0.084 -0.48,0.132 -0.312,0.06 -0.6,0.06 -0.504,0 -0.936,-0.168 -0.42,-0.18 -0.684,-0.612 -0.264,-0.432 -0.264,-1.212 v -3.744 h -0.912 v -0.504 l 0.924,-0.42 0.42,-1.368 h 0.624 v 1.476 h 1.86 v 0.816 h -1.86 v 3.72 q 0,0.588 0.276,0.876 0.288,0.276 0.732,0.276 z m 4.668001,-5.808 q 0.816,0 1.416,0.36 0.6,0.36 0.912,1.02 0.324,0.648 0.324,1.524 v 0.636 h -4.404 q 0.024,1.092 0.552,1.668 0.54,0.564 1.5,0.564 0.612,0 1.08,-0.108 0.48,-0.12 0.984,-0.336 v 0.924 q -0.492,0.216 -0.972,0.312 -0.48,0.108 -1.14,0.108 -0.924,0 -1.62,-0.372 -0.696,-0.372 -1.092,-1.104 -0.384,-0.732 -0.384,-1.812 0,-1.056 0.348,-1.812 0.36,-0.756 0.996,-1.164 0.648,-0.408 1.5,-0.408 z m -0.012,0.864 q -0.756,0 -1.2,0.492 -0.432,0.48 -0.516,1.344 h 3.276 q -0.012,-0.816 -0.384,-1.32 -0.372,-0.516 -1.176,-0.516 z"
       id="text2"
       style="font-size:12px;text-anchor:middle;stroke:#000000;stroke-width:0.00264575"
       transform="matrix(0.2645833,0,0,0.2645833,-98.8,-63.25)"
       aria-label="teste" />
    <path
       d="m 24.268029,154.70169 q 0.24,0 0.492,-0.036 0.252,-0.036 0.408,-0.096 v 0.804 q -0.168,0.084 -0.48,0.132 -0.312,0.06 -0.6,0.06 -0.504,0 -0.936,-0.168 -0.42,-0.18 -0.684,-0.612 -0.264,-0.432 -0.264,-1.212 v -3.744 h -0.912 v -0.504 l 0.924,-0.42 0.42,-1.368 h 0.624 v 1.476 h 1.86 v 0.816 h -1.86 v 3.72 q 0,0.588 0.276,0.876 0.288,0.276 0.732,0.276 z m 4.668001,-5.808 q 0.816,0 1.416,0.36 0.6,0.36 0.912,1.02 0.324,0.648 0.324,1.524 v 0.636 h -4.404 q 0.024,1.092 0.552,1.668 0.54,0.564 1.5,0.564 0.612,0 1.08,-0.108 0.48,-0.12 0.984,-0.336 v 0.924 q -0.492,0.216 -0.972,0.312 -0.48,0.108 -1.14,0.108 -0.924,0 -1.62,-0.372 -0.696,-0.372 -1.092,-1.104 -0.384,-0.732 -0.384,-1.812 0,-1.056 0.348,-1.812 0.36,-0.756 0.996,-1.164 0.648,-0.408 1.5,-0.408 z m -0.012,0.864 q -0.756,0 -1.2,0.492 -0.432,0.48 -0.516,1.344 h 3.276 q -0.012,-0.816 -0.384,-1.32 -0.372,-0.516 -1.176,-0.516 z m 8.48399,3.912 q 0,0.936 -0.696,1.416 -0.696,0.48 -1.872,0.48 -0.672,0 -1.164,-0.108 -0.48,-0.108 -0.852,-0.3 v -0.96 q 0.384,0.192 0.924,0.36 0.552,0.156 1.116,0.156 0.804,0 1.164,-0.252 0.36,-0.264 0.36,-0.696 0,-0.24 -0.132,-0.432 -0.132,-0.192 -0.48,-0.384 -0.336,-0.192 -0.972,-0.432 -0.624,-0.24 -1.068,-0.48 -0.444,-0.24 -0.684,-0.576 -0.24,-0.336 -0.24,-0.864 0,-0.816 0.66,-1.26 0.672,-0.444 1.752,-0.444 0.588,0 1.092,0.12 0.516,0.12 0.96,0.312 l -0.36,0.84 q -0.408,-0.168 -0.852,-0.288 -0.444,-0.12 -0.912,-0.12 -0.648,0 -0.996,0.216 -0.336,0.204 -0.336,0.564 0,0.276 0.156,0.456 0.156,0.18 0.516,0.36 0.372,0.18 0.984,0.408 0.612,0.228 1.044,0.468 0.432,0.24 0.66,0.588 0.228,0.336 0.228,0.852 z m 3.708001,1.032 q 0.24,0 0.492,-0.036 0.252,-0.036 0.408,-0.096 v 0.804 q -0.168,0.084 -0.48,0.132 -0.312,0.06 -0.6,0.06 -0.504,0 -0.936,-0.168 -0.42,-0.18 -0.684,-0.612 -0.264,-0.432 -0.264,-1.212 v -3.744 h -0.912 v -0.504 l 0.924,-0.42 0.42,-1.368 h 0.624 v 1.476 h 1.86 v 0.816 h -1.86 v 3.72 q 0,0.588 0.276,0.876 0.288,0.276 0.732,0.276 z m 4.668001,-5.808 q 0.816,0 1.416,0.36 0.6,0.36 0.912,1.02 0.324,0.648 0.324,1.524 v 0.636 h -4.404 q 0.024,1.092 0.552,1.668 0.54,0.564 1.5,0.564 0.612,0 1.08,-0.108 0.48,-0.12 0.984,-0.336 v 0.924 q -0.492,0.216 -0.972,0.312 -0.48,0.108 -1.14,0.108 -0.924,0 -1.62,-0.372 -0.696,-0.372 -1.092,-1.104 -0.384,-0.732 -0.384,-1.812 0,-1.056 0.348,-1.812 0.36,-0.756 0.996,-1.164 0.648,-0.408 1.5,-0.408 z m -0.012,0.864 q -0.756,0 -1.2,0.492 -0.432,0.48 -0.516,1.344 h 3.276 q -0.012,-0.816 -0.384,-1.32 -0.372,-0.516 -1.176,-0.516 z"
       id="text3"
       style="font-size:12px;text-anchor:middle;stroke:#000000;stroke-width:0.00264575"
       transform="matrix(0.2645833,0,0,0.2645833,-98.8,-63.25)"
       aria-label="teste" />
    <path
       d="m 24.268029,196.3521 q 0.24,0 0.492,-0.036 0.252,-0.036 0.408,-0.096 v 0.804 q -0.168,0.084 -0.48,0.132 -0.312,0.06 -0.6,0.06 -0.504,0 -0.936,-0.168 -0.42,-0.18 -0.684,-0.612 -0.264,-0.432 -0.264,-1.212 v -3.744 h -0.912 v -0.504 l 0.924,-0.42 0.42,-1.368 h 0.624 v 1.476 h 1.86 v 0.816 h -1.86 v 3.72 q 0,0.588 0.276,0.876 0.288,0.276 0.732,0.276 z m 4.668001,-5.808 q 0.816,0 1.416,0.36 0.6,0.36 0.912,1.02 0.324,0.648 0.324,1.524 v 0.636 h -4.404 q 0.024,1.092 0.552,1.668 0.54,0.564 1.5,0.564 0.612,0 1.08,-0.108 0.48,-0.12 0.984,-0.336 v 0.924 q -0.492,0.216 -0.972,0.312 -0.48,0.108 -1.14,0.108 -0.924,0 -1.62,-0.372 -0.696,-0.372 -1.092,-1.104 -0.384,-0.732 -0.384,-1.812 0,-1.056 0.348,-1.812 0.36,-0.756 0.996,-1.164 0.648,-0.408 1.5,-0.408 z m -0.012,0.864 q -0.756,0 -1.2,0.492 -0.432,0.48 -0.516,1.344 h 3.276 q -0.012,-0.816 -0.384,-1.32 -0.372,-0.516 -1.176,-0.516 z m 8.48399,3.912 q 0,0.936 -0.696,1.416 -0.696,0.48 -1.872,0.48 -0.672,0 -1.164,-0.108 -0.48,-0.108 -0.852,-0.3 v -0.96 q 0.384,0.192 0.924,0.36 0.552,0.156 1.116,0.156 0.804,0 1.164,-0.252 0.36,-0.264 0.36,-0.696 0,-0.24 -0.132,-0.432 -0.132,-0.192 -0.48,-0.384 -0.336,-0.192 -0.972,-0.432 -0.624,-0.24 -1.068,-0.48 -0.444,-0.24 -0.684,-0.576 -0.24,-0.336 -0.24,-0.864 0,-0.816 0.66,-1.26 0.672,-0.444 1.752,-0.444 0.588,0 1.092,0.12 0.516,0.12 0.96,0.312 l -0.36,0.84 q -0.408,-0.168 -0.852,-0.288 -0.444,-0.12 -0.912,-0.12 -0.648,0 -0.996,0.216 -0.336,0.204 -0.336,0.564 0,0.276 0.156,0.456 0.156,0.18 0.516,0.36 0.372,0.18 0.984,0.408 0.612,0.228 1.044,0.468 0.432,0.24 0.66,0.588 0.228,0.336 0.228,0.852 z m 3.708001,1.032 q 0.24,0 0.492,-0.036 0.252,-0.036 0.408,-0.096 v 0.804 q -0.168,0.084 -0.48,0.132 -0.312,0.06 -0.6,0.06 -0.504,0 -0.936,-0.168 -0.42,-0.18 -0.684,-0.612 -0.264,-0.432 -0.264,-1.212 v -3.744 h -0.912 v -0.504 l 0.924,-0.42 0.42,-1.368 h 0.624 v 1.476 h 1.86 v 0.816 h -1.86 v 3.72 q 0,0.588 0.276,0.876 0.288,0.276 0.732,0.276 z m 4.668001,-5.808 q 0.816,0 1.416,0.36 0.6,0.36 0.912,1.02 0.324,0.648 0.324,1.524 v 0.636 h -4.404 q 0.024,1.092 0.552,1.668 0.54,0.564 1.5,0.564 0.612,0 1.08,-0.108 0.48,-0.12 0.984,-0.336 v 0.924 q -0.492,0.216 -0.972,0.312 -0.48,0.108 -1.14,0.108 -0.924,0 -1.62,-0.372 -0.696,-0.372 -1.092,-1.104 -0.384,-0.732 -0.384,-1.812 0,-1.056 0.348,-1.812 0.36,-0.756 0.996,-1.164 0.648,-0.408 1.5,-0.408 z m -0.012,0.864 q -0.756,0 -1.2,0.492 -0.432,0.48 -0.516,1.344 h 3.276 q -0.012,-0.816 -0.384,-1.32 -0.372,-0.516 -1.176,-0.516 z"
       id="text4"
       style="font-size:12px;text-anchor:middle;stroke:#000000;stroke-width:0.00264575"
       transform="matrix(0.2645833,0,0,0.2645833,-98.8,-63.25)"
       aria-label="teste" />
    <path
       d="m 24.268029,238.00251 q 0.24,0 0.492,-0.036 0.252,-0.036 0.408,-0.096 v 0.804 q -0.168,0.084 -0.48,0.132 -0.312,0.06 -0.6,0.06 -0.504,0 -0.936,-0.168 -0.42,-0.18 -0.684,-0.612 -0.264,-0.432 -0.264,-1.212 v -3.744 h -0.912 v -0.504 l 0.924,-0.42 0.42,-1.368 h 0.624 v 1.476 h 1.86 v 0.816 h -1.86 v 3.72 q 0,0.588 0.276,0.876 0.288,0.276 0.732,0.276 z m 4.668001,-5.808 q 0.816,0 1.416,0.36 0.6,0.36 0.912,1.02 0.324,0.648 0.324,1.524 v 0.636 h -4.404 q 0.024,1.092 0.552,1.668 0.54,0.564 1.5,0.564 0.612,0 1.08,-0.108 0.48,-0.12 0.984,-0.336 v 0.924 q -0.492,0.216 -0.972,0.312 -0.48,0.108 -1.14,0.108 -0.924,0 -1.62,-0.372 -0.696,-0.372 -1.092,-1.104 -0.384,-0.732 -0.384,-1.812 0,-1.056 0.348,-1.812 0.36,-0.756 0.996,-1.164 0.648,-0.408 1.5,-0.408 z m -0.012,0.864 q -0.756,0 -1.2,0.492 -0.432,0.48 -0.516,1.344 h 3.276 q -0.012,-0.816 -0.384,-1.32 -0.372,-0.516 -1.176,-0.516 z m 8.48399,3.912 q 0,0.936 -0.696,1.416 -0.696,0.48 -1.872,0.48 -0.672,0 -1.164,-0.108 -0.48,-0.108 -0.852,-0.3 v -0.96 q 0.384,0.192 0.924,0.36 0.552,0.156 1.116,0.156 0.804,0 1.164,-0.252 0.36,-0.264 0.36,-0.696 0,-0.24 -0.132,-0.432 -0.132,-0.192 -0.48,-0.384 -0.336,-0.192 -0.972,-0.432 -0.624,-0.24 -1.068,-0.48 -0.444,-0.24 -0.684,-0.576 -0.24,-0.336 -0.24,-0.864 0,-0.816 0.66,-1.26 0.672,-0.444 1.752,-0.444 0.588,0 1.092,0.12 0.516,0.12 0.96,0.312 l -0.36,0.84 q -0.408,-0.168 -0.852,-0.288 -0.444,-0.12 -0.912,-0.12 -0.648,0 -0.996,0.216 -0.336,0.204 -0.336,0.564 0,0.276 0.156,0.456 0.156,0.18 0.516,0.36 0.372,0.18 0.984,0.408 0.612,0.228 1.044,0.468 0.432,0.24 0.66,0.588 0.228,0.336 0.228,0.852 z m 3.708001,1.032 q 0.24,0 0.492,-0.036 0.252,-0.036 0.408,-0.096 v 0.804 q -0.168,0.084 -0.48,0.132 -0.312,0.06 -0.6,0.06 -0.504,0 -0.936,-0.168 -0.42,-0.18 -0.684,-0.612 -0.264,-0.432 -0.264,-1.212 v -3.744 h -0.912 v -0.504 l 0.924,-0.42 0.42,-1.368 h 0.624 v 1.476 h 1.86 v 0.816 h -1.86 v 3.72 q 0,0.588 0.276,0.876 0.288,0.276 0.732,0.276 z m 4.668001,-5.808 q 0.816,0 1.416,0.36 0.6,0.36 0.912,1.02 0.324,0.648 0.324,1.524 v 0.636 h -4.404 q 0.024,1.092 0.552,1.668 0.54,0.564 1.5,0.564 0.612,0 1.08,-0.108 0.48,-0.12 0.984,-0.336 v 0.924 q -0.492,0.216 -0.972,0.312 -0.48,0.108 -1.14,0.108 -0.924,0 -1.62,-0.372 -0.696,-0.372 -1.092,-1.104 -0.384,-0.732 -0.384,-1.812 0,-1.056 0.348,-1.812 0.36,-0.756 0.996,-1.164 0.648,-0.408 1.5,-0.408 z m -0.012,0.864 q -0.756,0 -1.2,0.492 -0.432,0.48 -0.516,1.344 h 3.276 q -0.012,-0.816 -0.384,-1.32 -0.372,-0.516 -1.176,-0.516 z"
       id="text5"
       style="font-size:12px;text-anchor:middle;stroke:#000000;stroke-width:0.00264575"
       transform="matrix(0.2645833,0,0,0.2645833,-98.8,-63.25)"
       aria-label="teste" />
    <path
       d="m 24.268029,279.65291 q 0.24,0 0.492,-0.036 0.252,-0.036 0.408,-0.096 v 0.804 q -0.168,0.084 -0.48,0.132 -0.312,0.06 -0.6,0.06 -0.504,0 -0.936,-0.168 -0.42,-0.18 -0.684,-0.612 -0.264,-0.432 -0.264,-1.212 v -3.744 h -0.912 v -0.504 l 0.924,-0.42 0.42,-1.368 h 0.624 v 1.476 h 1.86 v 0.816 h -1.86 v 3.72 q 0,0.588 0.276,0.876 0.288,0.276 0.732,0.276 z m 4.668001,-5.808 q 0.816,0 1.416,0.36 0.6,0.36 0.912,1.02 0.324,0.648 0.324,1.524 v 0.636 h -4.404 q 0.024,1.092 0.552,1.668 0.54,0.564 1.5,0.564 0.612,0 1.08,-0.108 0.48,-0.12 0.984,-0.336 v 0.924 q -0.492,0.216 -0.972,0.312 -0.48,0.108 -1.14,0.108 -0.924,0 -1.62,-0.372 -0.696,-0.372 -1.092,-1.104 -0.384,-0.732 -0.384,-1.812 0,-1.056 0.348,-1.812 0.36,-0.756 0.996,-1.164 0.648,-0.408 1.5,-0.408 z m -0.012,0.864 q -0.756,0 -1.2,0.492 -0.432,0.48 -0.516,1.344 h 3.276 q -0.012,-0.816 -0.384,-1.32 -0.372,-0.516 -1.176,-0.516 z m 8.48399,3.912 q 0,0.936 -0.696,1.416 -0.696,0.48 -1.872,0.48 -0.672,0 -1.164,-0.108 -0.48,-0.108 -0.852,-0.3 v -0.96 q 0.384,0.192 0.924,0.36 0.552,0.156 1.116,0.156 0.804,0 1.164,-0.252 0.36,-0.264 0.36,-0.696 0,-0.24 -0.132,-0.432 -0.132,-0.192 -0.48,-0.384 -0.336,-0.192 -0.972,-0.432 -0.624,-0.24 -1.068,-0.48 -0.444,-0.24 -0.684,-0.576 -0.24,-0.336 -0.24,-0.864 0,-0.816 0.66,-1.26 0.672,-0.444 1.752,-0.444 0.588,0 1.092,0.12 0.516,0.12 0.96,0.312 l -0.36,0.84 q -0.408,-0.168 -0.852,-0.288 -0.444,-0.12 -0.912,-0.12 -0.648,0 -0.996,0.216 -0.336,0.204 -0.336,0.564 0,0.276 0.156,0.456 0.156,0.18 0.516,0.36 0.372,0.18 0.984,0.408 0.612,0.228 1.044,0.468 0.432,0.24 0.66,0.588 0.228,0.336 0.228,0.852 z m 3.708001,1.032 q 0.24,0 0.492,-0.036 0.252,-0.036 0.408,-0.096 v 0.804 q -0.168,0.084 -0.48,0.132 -0.312,0.06 -0.6,0.06 -0.504,0 -0.936,-0.168 -0.42,-0.18 -0.684,-0.612 -0.264,-0.432 -0.264,-1.212 v -3.744 h -0.912 v -0.504 l 0.924,-0.42 0.42,-1.368 h 0.624 v 1.476 h 1.86 v 0.816 h -1.86 v 3.72 q 0,0.588 0.276,0.876 0.288,0.276 0.732,0.276 z m 4.668001,-5.808 q 0.816,0 1.416,0.36 0.6,0.36 0.912,1.02 0.324,0.648 0.324,1.524 v 0.636 h -4.404 q 0.024,1.092 0.552,1.668 0.54,0.564 1.5,0.564 0.612,0 1.08,-0.108 0.48,-0.12 0.984,-0.336 v 0.924 q -0.492,0.216 -0.972,0.312 -0.48,0.108 -1.14,0.108 -0.924,0 -1.62,-0.372 -0.696,-0.372 -1.092,-1.104 -0.384,-0.732 -0.384,-1.812 0,-1.056 0.348,-1.812 0.36,-0.756 0.996,-1.164 0.648,-0.408 1.5,-0.408 z m -0.012,0.864 q -0.756,0 -1.2,0.492 -0.432,0.48 -0.516,1.344 h 3.276 q -0.012,-0.816 -0.384,-1.32 -0.372,-0.516 -1.176,-0.516 z"
       id="text6"
       style="font-size:12px;text-anchor:middle;stroke:#000000;stroke-width:0.00264575"
       transform="matrix(0.2645833,0,0,0.2645833,-98.8,-63.25)"
       aria-label="teste" />
    <path
       d="m 24.268029,321.3033 q 0.24,0 0.492,-0.036 0.252,-0.036 0.408,-0.096 v 0.804 q -0.168,0.084 -0.48,0.132 -0.312,0.06 -0.6,0.06 -0.504,0 -0.936,-0.168 -0.42,-0.18 -0.684,-0.612 -0.264,-0.432 -0.264,-1.212 v -3.744 h -0.912 v -0.504 l 0.924,-0.42 0.42,-1.368 h 0.624 v 1.476 h 1.86 v 0.816 h -1.86 v 3.72 q 0,0.588 0.276,0.876 0.288,0.276 0.732,0.276 z m 4.668001,-5.808 q 0.816,0 1.416,0.36 0.6,0.36 0.912,1.02 0.324,0.648 0.324,1.524 v 0.636 h -4.404 q 0.024,1.092 0.552,1.668 0.54,0.564 1.5,0.564 0.612,0 1.08,-0.108 0.48,-0.12 0.984,-0.336 v 0.924 q -0.492,0.216 -0.972,0.312 -0.48,0.108 -1.14,0.108 -0.924,0 -1.62,-0.372 -0.696,-0.372 -1.092,-1.104 -0.384,-0.732 -0.384,-1.812 0,-1.056 0.348,-1.812 0.36,-0.756 0.996,-1.164 0.648,-0.408 1.5,-0.408 z m -0.012,0.864 q -0.756,0 -1.2,0.492 -0.432,0.48 -0.516,1.344 h 3.276 q -0.012,-0.816 -0.384,-1.32 -0.372,-0.516 -1.176,-0.516 z m 8.48399,3.912 q 0,0.936 -0.696,1.416 -0.696,0.48 -1.872,0.48 -0.672,0 -1.164,-0.108 -0.48,-0.108 -0.852,-0.3 v -0.96 q 0.384,0.192 0.924,0.36 0.552,0.156 1.116,0.156 0.804,0 1.164,-0.252 0.36,-0.264 0.36,-0.696 0,-0.24 -0.132,-0.432 -0.132,-0.192 -0.48,-0.384 -0.336,-0.192 -0.972,-0.432 -0.624,-0.24 -1.068,-0.48 -0.444,-0.24 -0.684,-0.576 -0.24,-0.336 -0.24,-0.864 0,-0.816 0.66,-1.26 0.672,-0.444 1.752,-0.444 0.588,0 1.092,0.12 0.516,0.12 0.96,0.312 l -0.36,0.84 q -0.408,-0.168 -0.852,-0.288 -0.444,-0.12 -0.912,-0.12 -0.648,0 -0.996,0.216 -0.336,0.204 -0.336,0.564 0,0.276 0.156,0.456 0.156,0.18 0.516,0.36 0.372,0.18 0.984,0.408 0.612,0.228 1.044,0.468 0.432,0.24 0.66,0.588 0.228,0.336 0.228,0.852 z m 3.708001,1.032 q 0.24,0 0.492,-0.036 0.252,-0.036 0.408,-0.096 v 0.804 q -0.168,0.084 -0.48,0.132 -0.312,0.06 -0.6,0.06 -0.504,0 -0.936,-0.168 -0.42,-0.18 -0.684,-0.612 -0.264,-0.432 -0.264,-1.212 v -3.744 h -0.912 v -0.504 l 0.924,-0.42 0.42,-1.368 h 0.624 v 1.476 h 1.86 v 0.816 h -1.86 v 3.72 q 0,0.588 0.276,0.876 0.288,0.276 0.732,0.276 z m 4.668001,-5.808 q 0.816,0 1.416,0.36 0.6,0.36 0.912,1.02 0.324,0.648 0.324,1.524 v 0.636 h -4.404 q 0.024,1.092 0.552,1.668 0.54,0.564 1.5,0.564 0.612,0 1.08,-0.108 0.48,-0.12 0.984,-0.336 v 0.924 q -0.492,0.216 -0.972,0.312 -0.48,0.108 -1.14,0.108 -0.924,0 -1.62,-0.372 -0.696,-0.372 -1.092,-1.104 -0.384,-0.732 -0.384,-1.812 0,-1.056 0.348,-1.812 0.36,-0.756 0.996,-1.164 0.648,-0.408 1.5,-0.408 z m -0.012,0.864 q -0.756,0 -1.2,0.492 -0.432,0.48 -0.516,1.344 h 3.276 q -0.012,-0.816 -0.384,-1.32 -0.372,-0.516 -1.176,-0.516 z"
       id="text7"
       style="font-size:12px;text-anchor:middle;stroke:#000000;stroke-width:0.00264575"
       transform="matrix(0.2645833,0,0,0.2645833,-98.8,-63.25)"
       aria-label="teste" />
    <path
       d="m 24.268029,362.95369 q 0.24,0 0.492,-0.036 0.252,-0.036 0.408,-0.096 v 0.804 q -0.168,0.084 -0.48,0.132 -0.312,0.06 -0.6,0.06 -0.504,0 -0.936,-0.168 -0.42,-0.18 -0.684,-0.612 -0.264,-0.432 -0.264,-1.212 v -3.744 h -0.912 v -0.504 l 0.924,-0.42 0.42,-1.368 h 0.624 v 1.476 h 1.86 v 0.816 h -1.86 v 3.72 q 0,0.588 0.276,0.876 0.288,0.276 0.732,0.276 z m 4.668001,-5.808 q 0.816,0 1.416,0.36 0.6,0.36 0.912,1.02 0.324,0.648 0.324,1.524 v 0.636 h -4.404 q 0.024,1.092 0.552,1.668 0.54,0.564 1.5,0.564 0.612,0 1.08,-0.108 0.48,-0.12 0.984,-0.336 v 0.924 q -0.492,0.216 -0.972,0.312 -0.48,0.108 -1.14,0.108 -0.924,0 -1.62,-0.372 -0.696,-0.372 -1.092,-1.104 -0.384,-0.732 -0.384,-1.812 0,-1.056 0.348,-1.812 0.36,-0.756 0.996,-1.164 0.648,-0.408 1.5,-0.408 z m -0.012,0.864 q -0.756,0 -1.2,0.492 -0.432,0.48 -0.516,1.344 h 3.276 q -0.012,-0.816 -0.384,-1.32 -0.372,-0.516 -1.176,-0.516 z m 8.48399,3.912 q 0,0.936 -0.696,1.416 -0.696,0.48 -1.872,0.48 -0.672,0 -1.164,-0.108 -0.48,-0.108 -0.852,-0.3 v -0.96 q 0.384,0.192 0.924,0.36 0.552,0.156 1.116,0.156 0.804,0 1.164,-0.252 0.36,-0.264 0.36,-0.696 0,-0.24 -0.132,-0.432 -0.132,-0.192 -0.48,-0.384 -0.336,-0.192 -0.972,-0.432 -0.624,-0.24 -1.068,-0.48 -0.444,-0.24 -0.684,-0.576 -0.24,-0.336 -0.24,-0.864 0,-0.816 0.66,-1.26 0.672,-0.444 1.752,-0.444 0.588,0 1.092,0.12 0.516,0.12 0.96,0.312 l -0.36,0.84 q -0.408,-0.168 -0.852,-0.288 -0.444,-0.12 -0.912,-0.12 -0.648,0 -0.996,0.216 -0.336,0.204 -0.336,0.564 0,0.276 0.156,0.456 0.156,0.18 0.516,0.36 0.372,0.18 0.984,0.408 0.612,0.228 1.044,0.468 0.432,0.24 0.66,0.588 0.228,0.336 0.228,0.852 z m 3.708001,1.032 q 0.24,0 0.492,-0.036 0.252,-0.036 0.408,-0.096 v 0.804 q -0.168,0.084 -0.48,0.132 -0.312,0.06 -0.6,0.06 -0.504,0 -0.936,-0.168 -0.42,-0.18 -0.684,-0.612 -0.264,-0.432 -0.264,-1.212 v -3.744 h -0.912 v -0.504 l 0.924,-0.42 0.42,-1.368 h 0.624 v 1.476 h 1.86 v 0.816 h -1.86 v 3.72 q 0,0.588 0.276,0.876 0.288,0.276 0.732,0.276 z m 4.668001,-5.808 q 0.816,0 1.416,0.36 0.6,0.36 0.912,1.02 0.324,0.648 0.324,1.524 v 0.636 h -4.404 q 0.024,1.092 0.552,1.668 0.54,0.564 1.5,0.564 0.612,0 1.08,-0.108 0.48,-0.12 0.984,-0.336 v 0.924 q -0.492,0.216 -0.972,0.312 -0.48,0.108 -1.14,0.108 -0.924,0 -1.62,-0.372 -0.696,-0.372 -1.092,-1.104 -0.384,-0.732 -0.384,-1.812 0,-1.056 0.348,-1.812 0.36,-0.756 0.996,-1.164 0.648,-0.408 1.5,-0.408 z m -0.012,0.864 q -0.756,0 -1.2,0.492 -0.432,0.48 -0.516,1.344 h 3.276 q -0.012,-0.816 -0.384,-1.32 -0.372,-0.516 -1.176,-0.516 z"
       id="text8"
       style="font-size:12px;text-anchor:middle;stroke:#000000;stroke-width:0.00264575"
       transform="matrix(0.2645833,0,0,0.2645833,-98.8,-63.25)"
       aria-label="teste" />
    <path
       d="m 24.268029,404.60411 q 0.24,0 0.492,-0.036 0.252,-0.036 0.408,-0.096 v 0.804 q -0.168,0.084 -0.48,0.132 -0.312,0.06 -0.6,0.06 -0.504,0 -0.936,-0.168 -0.42,-0.18 -0.684,-0.612 -0.264,-0.432 -0.264,-1.212 v -3.744 h -0.912 v -0.504 l 0.924,-0.42 0.42,-1.368 h 0.624 v 1.476 h 1.86 v 0.816 h -1.86 v 3.72 q 0,0.588 0.276,0.876 0.288,0.276 0.732,0.276 z m 4.668001,-5.808 q 0.816,0 1.416,0.36 0.6,0.36 0.912,1.02 0.324,0.648 0.324,1.524 v 0.636 h -4.404 q 0.024,1.092 0.552,1.668 0.54,0.564 1.5,0.564 0.612,0 1.08,-0.108 0.48,-0.12 0.984,-0.336 v 0.924 q -0.492,0.216 -0.972,0.312 -0.48,0.108 -1.14,0.108 -0.924,0 -1.62,-0.372 -0.696,-0.372 -1.092,-1.104 -0.384,-0.732 -0.384,-1.812 0,-1.056 0.348,-1.812 0.36,-0.756 0.996,-1.164 0.648,-0.408 1.5,-0.408 z m -0.012,0.864 q -0.756,0 -1.2,0.492 -0.432,0.48 -0.516,1.344 h 3.276 q -0.012,-0.816 -0.384,-1.32 -0.372,-0.516 -1.176,-0.516 z m 8.48399,3.912 q 0,0.936 -0.696,1.416 -0.696,0.48 -1.872,0.48 -0.672,0 -1.164,-0.108 -0.48,-0.108 -0.852,-0.3 v -0.96 q 0.384,0.192 0.924,0.36 0.552,0.156 1.116,0.156 0.804,0 1.164,-0.252 0.36,-0.264 0.36,-0.696 0,-0.24 -0.132,-0.432 -0.132,-0.192 -0.48,-0.384 -0.336,-0.192 -0.972,-0.432 -0.624,-0.24 -1.068,-0.48 -0.444,-0.24 -0.684,-0.576 -0.24,-0.336 -0.24,-0.864 0,-0.816 0.66,-1.26 0.672,-0.444 1.752,-0.444 0.588,0 1.092,0.12 0.516,0.12 0.96,0.312 l -0.36,0.84 q -0.408,-0.168 -0.852,-0.288 -0.444,-0.12 -0.912,-0.12 -0.648,0 -0.996,0.216 -0.336,0.204 -0.336,0.564 0,0.276 0.156,0.456 0.156,0.18 0.516,0.36 0.372,0.18 0.984,0.408 0.612,0.228 1.044,0.468 0.432,0.24 0.66,0.588 0.228,0.336 0.228,0.852 z m 3.708001,1.032 q 0.24,0 0.492,-0.036 0.252,-0.036 0.408,-0.096 v 0.804 q -0.168,0.084 -0.48,0.132 -0.312,0.06 -0.6,0.06 -0.504,0 -0.936,-0.168 -0.42,-0.18 -0.684,-0.612 -0.264,-0.432 -0.264,-1.212 v -3.744 h -0.912 v -0.504 l 0.924,-0.42 0.42,-1.368 h 0.624 v 1.476 h 1.86 v 0.816 h -1.86 v 3.72 q 0,0.588 0.276,0.876 0.288,0.276 0.732,0.276 z m 4.668001,-5.808 q 0.816,0 1.416,0.36 0.6,0.36 0.912,1.02 0.324,0.648 0.324,1.524 v 0.636 h -4.404 q 0.024,1.092 0.552,1.668 0.54,0.564 1.5,0.564 0.612,0 1.08,-0.108 0.48,-0.12 0.984,-0.336 v 0.924 q -0.492,0.216 -0.972,0.312 -0.48,0.108 -1.14,0.108 -0.924,0 -1.62,-0.372 -0.696,-0.372 -1.092,-1.104 -0.384,-0.732 -0.384,-1.812 0,-1.056 0.348,-1.812 0.36,-0.756 0.996,-1.164 0.648,-0.408 1.5,-0.408 z m -0.012,0.864 q -0.756,0 -1.2,0.492 -0.432,0.48 -0.516,1.344 h 3.276 q -0.012,-0.816 -0.384,-1.32 -0.372,-0.516 -1.176,-0.516 z"
       id="text9"
       style="font-size:12px;text-anchor:middle;stroke:#000000;stroke-width:0.00264575"
       transform="matrix(0.2645833,0,0,0.2645833,-98.8,-63.25)"
       aria-label="teste" />
    <path
       d="m 24.268029,446.25441 q 0.24,0 0.492,-0.036 0.252,-0.036 0.408,-0.096 v 0.804 q -0.168,0.084 -0.48,0.132 -0.312,0.06 -0.6,0.06 -0.504,0 -0.936,-0.168 -0.42,-0.18 -0.684,-0.612 -0.264,-0.432 -0.264,-1.212 v -3.744 h -0.912 v -0.504 l 0.924,-0.42 0.42,-1.368 h 0.624 v 1.476 h 1.86 v 0.816 h -1.86 v 3.72 q 0,0.588 0.276,0.876 0.288,0.276 0.732,0.276 z m 4.668001,-5.808 q 0.816,0 1.416,0.36 0.6,0.36 0.912,1.02 0.324,0.648 0.324,1.524 v 0.636 h -4.404 q 0.024,1.092 0.552,1.668 0.54,0.564 1.5,0.564 0.612,0 1.08,-0.108 0.48,-0.12 0.984,-0.336 v 0.924 q -0.492,0.216 -0.972,0.312 -0.48,0.108 -1.14,0.108 -0.924,0 -1.62,-0.372 -0.696,-0.372 -1.092,-1.104 -0.384,-0.732 -0.384,-1.812 0,-1.056 0.348,-1.812 0.36,-0.756 0.996,-1.164 0.648,-0.408 1.5,-0.408 z m -0.012,0.864 q -0.756,0 -1.2,0.492 -0.432,0.48 -0.516,1.344 h 3.276 q -0.012,-0.816 -0.384,-1.32 -0.372,-0.516 -1.176,-0.516 z m 8.48399,3.912 q 0,0.936 -0.696,1.416 -0.696,0.48 -1.872,0.48 -0.672,0 -1.164,-0.108 -0.48,-0.108 -0.852,-0.3 v -0.96 q 0.384,0.192 0.924,0.36 0.552,0.156 1.116,0.156 0.804,0 1.164,-0.252 0.36,-0.264 0.36,-0.696 0,-0.24 -0.132,-0.432 -0.132,-0.192 -0.48,-0.384 -0.336,-0.192 -0.972,-0.432 -0.624,-0.24 -1.068,-0.48 -0.444,-0.24 -0.684,-0.576 -0.24,-0.336 -0.24,-0.864 0,-0.816 0.66,-1.26 0.672,-0.444 1.752,-0.444 0.588,0 1.092,0.12 0.516,0.12 0.96,0.312 l -0.36,0.84 q -0.408,-0.168 -0.852,-0.288 -0.444,-0.12 -0.912,-0.12 -0.648,0 -0.996,0.216 -0.336,0.204 -0.336,0.564 0,0.276 0.156,0.456 0.156,0.18 0.516,0.36 0.372,0.18 0.984,0.408 0.612,0.228 1.044,0.468 0.432,0.24 0.66,0.588 0.228,0.336 0.228,0.852 z m 3.708001,1.032 q 0.24,0 0.492,-0.036 0.252,-0.036 0.408,-0.096 v 0.804 q -0.168,0.084 -0.48,0.132 -0.312,0.06 -0.6,0.06 -0.504,0 -0.936,-0.168 -0.42,-0.18 -0.684,-0.612 -0.264,-0.432 -0.264,-1.212 v -3.744 h -0.912 v -0.504 l 0.924,-0.42 0.42,-1.368 h 0.624 v 1.476 h 1.86 v 0.816 h -1.86 v 3.72 q 0,0.588 0.276,0.876 0.288,0.276 0.732,0.276 z m 4.668001,-5.808 q 0.816,0 1.416,0.36 0.6,0.36 0.912,1.02 0.324,0.648 0.324,1.524 v 0.636 h -4.404 q 0.024,1.092 0.552,1.668 0.54,0.564 1.5,0.564 0.612,0 1.08,-0.108 0.48,-0.12 0.984,-0.336 v 0.924 q -0.492,0.216 -0.972,0.312 -0.48,0.108 -1.14,0.108 -0.924,0 -1.62,-0.372 -0.696,-0.372 -1.092,-1.104 -0.384,-0.732 -0.384,-1.812 0,-1.056 0.348,-1.812 0.36,-0.756 0.996,-1.164 0.648,-0.408 1.5,-0.408 z m -0.012,0.864 q -0.756,0 -1.2,0.492 -0.432,0.48 -0.516,1.344 h 3.276 q -0.012,-0.816 -0.384,-1.32 -0.372,-0.516 -1.176,-0.516 z"
       id="text10"
       style="font-size:12px;text-anchor:middle;stroke:#000000;stroke-width:0.00264575"
       transform="matrix(0.2645833,0,0,0.2645833,-98.8,-63.25)"
       aria-label="teste" />
    <path
       d="m 124.65231,51.59616 q 0.24,0 0.492,-0.036 0.252,-0.036 0.408,-0.096 v 0.804 q -0.168,0.084 -0.48,0.132 -0.312,0.06 -0.6,0.06 -0.504,0 -0.936,-0.168 -0.42,-0.18 -0.684,-0.612 -0.264,-0.432 -0.264,-1.212 v -3.744 h -0.912 v -0.504 l 0.924,-0.42 0.42,-1.368 h 0.624 v 1.476 h 1.86 v 0.816 h -1.86 v 3.72 q 0,0.588 0.276,0.876 0.288,0.276 0.732,0.276 z m 4.668,-5.808 q 0.816,0 1.416,0.36 0.6,0.36 0.912,1.02 0.324,0.648 0.324,1.524 v 0.636 h -4.404 q 0.024,1.092 0.552,1.668 0.54,0.564 1.5,0.564 0.612,0 1.08,-0.108 0.48,-0.12 0.984,-0.336 v 0.924 q -0.492,0.216 -0.972,0.312 -0.48,0.108 -1.14,0.108 -0.924,0 -1.62,-0.372 -0.696,-0.372 -1.092,-1.104 -0.384,-0.732 -0.384,-1.812 0,-1.056 0.348,-1.812 0.36,-0.756 0.996,-1.164 0.648,-0.408 1.5,-0.408 z m -0.012,0.864 q -0.756,0 -1.2,0.492 -0.432,0.48 -0.516,1.344 h 3.276 q -0.012,-0.816 -0.384,-1.32 -0.372,-0.516 -1.176,-0.516 z m 8.48399,3.912 q 0,0.936 -0.696,1.416 -0.696,0.48 -1.872,0.48 -0.672,0 -1.164,-0.108 -0.48,-0.108 -0.852,-0.3 v -0.96 q 0.384,0.192 0.924,0.36 0.552,0.156 1.116,0.156 0.804,0 1.164,-0.252 0.36,-0.264 0.36,-0.696 0,-0.24 -0.132,-0.432 -0.132,-0.192 -0.48,-0.384 -0.336,-0.192 -0.972,-0.432 -0.624,-0.24 -1.068,-0.48 -0.444,-0.24 -0.684,-0.576 -0.24,-0.336 -0.24,-0.864 0,-0.816 0.66,-1.26 0.672,-0.444 1.752,-0.444 0.588,0 1.092,0.12 0.516,0.12 0.96,0.312 l -0.36,0.84 q -0.408,-0.168 -0.852,-0.288 -0.444,-0.12 -0.912,-0.12 -0.648,0 -0.996,0.216 -0.336,0.204 -0.336,0.564 0,0.276 0.156,0.456 0.156,0.18 0.516,0.36 0.372,0.18 0.984,0.408 0.612,0.228 1.044,0.468 0.432,0.24 0.66,0.588 0.228,0.336 0.228,0.852 z m 3.708,1.032 q 0.24,0 0.492,-0.036 0.252,-0.036 0.408,-0.096 v 0.804 q -0.168,0.084 -0.48,0.132 -0.312,0.06 -0.6,0.06 -0.504,0 -0.936,-0.168 -0.42,-0.18 -0.684,-0.612 -0.264,-0.432 -0.264,-1.212 v -3.744 h -0.912 v -0.504 l 0.924,-0.42 0.42,-1.368 h 0.624 v 1.476 h 1.86 v 0.816 h -1.86 v 3.72 q 0,0.588 0.276,0.876 0.288,0.276 0.732,0.276 z m 4.668,-5.808 q 0.816,0 1.416,0.36 0.6,0.36 0.912,1.02 0.324,0.648 0.324,1.524 v 0.636 h -4.404 q 0.024,1.092 0.552,1.668 0.54,0.564 1.5,0.564 0.612,0 1.08,-0.108 0.48,-0.12 0.984,-0.336 v 0.924 q -0.492,0.216 -0.972,0.312 -0.48,0.108 -1.14,0.108 -0.924,0 -1.62,-0.372 -0.696,-0.372 -1.092,-1.104 -0.384,-0.732 -0.384,-1.812 0,-1.056 0.348,-1.812 0.36,-0.756 0.996,-1.164 0.648,-0.408 1.5,-0.408 z m -0.012,0.864 q -0.756,0 -1.2,0.492 -0.432,0.48 -0.516,1.344 h 3.276 q -0.012,-0.816 -0.384,-1.32 -0.372,-0.516 -1.176,-0.516 z"
       id="text11"
       style="font-size:12px;text-anchor:middle;stroke:#000000;stroke-width:0.00264575"
       transform="matrix(0.2645833,0,0,0.2645833,-98.8,-63.25)"
       aria-label="teste" />
    <path
       d="m 124.65231,93.246547 q 0.24,0 0.492,-0.036 0.252,-0.036 0.408,-0.096 v 0.804 q -0.168,0.084 -0.48,0.132 -0.312,0.06 -0.6,0.06 -0.504,0 -0.936,-0.168 -0.42,-0.18 -0.684,-0.612 -0.264,-0.432 -0.264,-1.212 v -3.744 h -0.912 v -0.504 l 0.924,-0.42 0.42,-1.368 h 0.624 v 1.476 h 1.86 v 0.816 h -1.86 v 3.72 q 0,0.588 0.276,0.876 0.288,0.276 0.732,0.276 z m 4.668,-5.808 q 0.816,0 1.416,0.36 0.6,0.36 0.912,1.02 0.324,0.648 0.324,1.524 v 0.636 h -4.404 q 0.024,1.092 0.552,1.668 0.54,0.564 1.5,0.564 0.612,0 1.08,-0.108 0.48,-0.12 0.984,-0.336 v 0.924 q -0.492,0.216 -0.972,0.312 -0.48,0.108 -1.14,0.108 -0.924,0 -1.62,-0.372 -0.696,-0.372 -1.092,-1.104 -0.384,-0.732 -0.384,-1.812 0,-1.056 0.348,-1.812 0.36,-0.756 0.996,-1.164 0.648,-0.408 1.5,-0.408 z m -0.012,0.864 q -0.756,0 -1.2,0.492 -0.432,0.48 -0.516,1.344 h 3.276 q -0.012,-0.816 -0.384,-1.32 -0.372,-0.516 -1.176,-0.516 z m 8.48399,3.912 q 0,0.936 -0.696,1.416 -0.696,0.48 -1.872,0.48 -0.672,0 -1.164,-0.108 -0.48,-0.108 -0.852,-0.3 v -0.96 q 0.384,0.192 0.924,0.36 0.552,0.156 1.116,0.156 0.804,0 1.164,-0.252 0.36,-0.264 0.36,-0.696 0,-0.24 -0.132,-0.432 -0.132,-0.192 -0.48,-0.384 -0.336,-0.192 -0.972,-0.432 -0.624,-0.24 -1.068,-0.48 -0.444,-0.24 -0.684,-0.576 -0.24,-0.336 -0.24,-0.864 0,-0.816 0.66,-1.26 0.672,-0.444 1.752,-0.444 0.588,0 1.092,0.12 0.516,0.12 0.96,0.312 l -0.36,0.84 q -0.408,-0.168 -0.852,-0.288 -0.444,-0.12 -0.912,-0.12 -0.648,0 -0.996,0.216 -0.336,0.204 -0.336,0.564 0,0.276 0.156,0.456 0.156,0.18 0.516,0.36 0.372,0.18 0.984,0.408 0.612,0.228 1.044,0.468 0.432,0.24 0.66,0.588 0.228,0.336 0.228,0.852 z m 3.708,1.032 q 0.24,0 0.492,-0.036 0.252,-0.036 0.408,-0.096 v 0.804 q -0.168,0.084 -0.48,0.132 -0.312,0.06 -0.6,0.06 -0.504,0 -0.936,-0.168 -0.42,-0.18 -0.684,-0.612 -0.264,-0.432 -0.264,-1.212 v -3.744 h -0.912 v -0.504 l 0.924,-0.42 0.42,-1.368 h 0.624 v 1.476 h 1.86 v 0.816 h -1.86 v 3.72 q 0,0.588 0.276,0.876 0.288,0.276 0.732,0.276 z m 4.668,-5.808 q 0.816,0 1.416,0.36 0.6,0.36 0.912,1.02 0.324,0.648 0.324,1.524 v 0.636 h -4.404 q 0.024,1.092 0.552,1.668 0.54,0.564 1.5,0.564 0.612,0 1.08,-0.108 0.48,-0.12 0.984,-0.336 v 0.924 q -0.492,0.216 -0.972,0.312 -0.48,0.108 -1.14,0.108 -0.924,0 -1.62,-0.372 -0.696,-0.372 -1.092,-1.104 -0.384,-0.732 -0.384,-1.812 0,-1.056 0.348,-1.812 0.36,-0.756 0.996,-1.164 0.648,-0.408 1.5,-0.408 z m -0.012,0.864 q -0.756,0 -1.2,0.492 -0.432,0.48 -0.516,1.344 h 3.276 q -0.012,-0.816 -0.384,-1.32 -0.372,-0.516 -1.176,-0.516 z"
       id="text12"
       style="font-size:12px;text-anchor:middle;stroke:#000000;stroke-width:0.00264575"
       transform="matrix(0.2645833,0,0,0.2645833,-98.8,-63.25)"
       aria-label="teste" />
    <path
       d="m 124.65231,134.8969 q 0.24,0 0.492,-0.036 0.252,-0.036 0.408,-0.096 v 0.804 q -0.168,0.084 -0.48,0.132 -0.312,0.06 -0.6,0.06 -0.504,0 -0.936,-0.168 -0.42,-0.18 -0.684,-0.612 -0.264,-0.432 -0.264,-1.212 v -3.744 h -0.912 v -0.504 l 0.924,-0.42 0.42,-1.368 h 0.624 v 1.476 h 1.86 v 0.816 h -1.86 v 3.72 q 0,0.588 0.276,0.876 0.288,0.276 0.732,0.276 z m 4.668,-5.808 q 0.816,0 1.416,0.36 0.6,0.36 0.912,1.02 0.324,0.648 0.324,1.524 v 0.636 h -4.404 q 0.024,1.092 0.552,1.668 0.54,0.564 1.5,0.564 0.612,0 1.08,-0.108 0.48,-0.12 0.984,-0.336 v 0.924 q -0.492,0.216 -0.972,0.312 -0.48,0.108 -1.14,0.108 -0.924,0 -1.62,-0.372 -0.696,-0.372 -1.092,-1.104 -0.384,-0.732 -0.384,-1.812 0,-1.056 0.348,-1.812 0.36,-0.756 0.996,-1.164 0.648,-0.408 1.5,-0.408 z m -0.012,0.864 q -0.756,0 -1.2,0.492 -0.432,0.48 -0.516,1.344 h 3.276 q -0.012,-0.816 -0.384,-1.32 -0.372,-0.516 -1.176,-0.516 z m 8.48399,3.912 q 0,0.936 -0.696,1.416 -0.696,0.48 -1.872,0.48 -0.672,0 -1.164,-0.108 -0.48,-0.108 -0.852,-0.3 v -0.96 q 0.384,0.192 0.924,0.36 0.552,0.156 1.116,0.156 0.804,0 1.164,-0.252 0.36,-0.264 0.36,-0.696 0,-0.24 -0.132,-0.432 -0.132,-0.192 -0.48,-0.384 -0.336,-0.192 -0.972,-0.432 -0.624,-0.24 -1.068,-0.48 -0.444,-0.24 -0.684,-0.576 -0.24,-0.336 -0.24,-0.864 0,-0.816 0.66,-1.26 0.672,-0.444 1.752,-0.444 0.588,0 1.092,0.12 0.516,0.12 0.96,0.312 l -0.36,0.84 q -0.408,-0.168 -0.852,-0.288 -0.444,-0.12 -0.912,-0.12 -0.648,0 -0.996,0.216 -0.336,0.204 -0.336,0.564 0,0.276 0.156,0.456 0.156,0.18 0.516,0.36 0.372,0.18 0.984,0.408 0.612,0.228 1.044,0.468 0.432,0.24 0.66,0.588 0.228,0.336 0.228,0.852 z m 3.708,1.032 q 0.24,0 0.492,-0.036 0.252,-0.036 0.408,-0.096 v 0.804 q -0.168,0.084 -0.48,0.132 -0.312,0.06 -0.6,0.06 -0.504,0 -0.936,-0.168 -0.42,-0.18 -0.684,-0.612 -0.264,-0.432 -0.264,-1.212 v -3.744 h -0.912 v -0.504 l 0.924,-0.42 0.42,-1.368 h 0.624 v 1.476 h 1.86 v 0.816 h -1.86 v 3.72 q 0,0.588 0.276,0.876 0.288,0.276 0.732,0.276 z m 4.668,-5.808 q 0.816,0 1.416,0.36 0.6,0.36 0.912,1.02 0.324,0.648 0.324,1.524 v 0.636 h -4.404 q 0.024,1.092 0.552,1.668 0.54,0.564 1.5,0.564 0.612,0 1.08,-0.108 0.48,-0.12 0.984,-0.336 v 0.924 q -0.492,0.216 -0.972,0.312 -0.48,0.108 -1.14,0.108 -0.924,0 -1.62,-0.372 -0.696,-0.372 -1.092,-1.104 -0.384,-0.732 -0.384,-1.812 0,-1.056 0.348,-1.812 0.36,-0.756 0.996,-1.164 0.648,-0.408 1.5,-0.408 z m -0.012,0.864 q -0.756,0 -1.2,0.492 -0.432,0.48 -0.516,1.344 h 3.276 q -0.012,-0.816 -0.384,-1.32 -0.372,-0.516 -1.176,-0.516 z"
       id="text13"
       style="font-size:12px;text-anchor:middle;stroke:#000000;stroke-width:0.00264575"
       transform="matrix(0.2645833,0,0,0.2645833,-98.8,-63.25)"
       aria-label="teste" />
    <path
       d="m 124.65231,176.5474 q 0.24,0 0.492,-0.036 0.252,-0.036 0.408,-0.096 v 0.804 q -0.168,0.084 -0.48,0.132 -0.312,0.06 -0.6,0.06 -0.504,0 -0.936,-0.168 -0.42,-0.18 -0.684,-0.612 -0.264,-0.432 -0.264,-1.212 v -3.744 h -0.912 v -0.504 l 0.924,-0.42 0.42,-1.368 h 0.624 v 1.476 h 1.86 v 0.816 h -1.86 v 3.72 q 0,0.588 0.276,0.876 0.288,0.276 0.732,0.276 z m 4.668,-5.808 q 0.816,0 1.416,0.36 0.6,0.36 0.912,1.02 0.324,0.648 0.324,1.524 v 0.636 h -4.404 q 0.024,1.092 0.552,1.668 0.54,0.564 1.5,0.564 0.612,0 1.08,-0.108 0.48,-0.12 0.984,-0.336 v 0.924 q -0.492,0.216 -0.972,0.312 -0.48,0.108 -1.14,0.108 -0.924,0 -1.62,-0.372 -0.696,-0.372 -1.092,-1.104 -0.384,-0.732 -0.384,-1.812 0,-1.056 0.348,-1.812 0.36,-0.756 0.996,-1.164 0.648,-0.408 1.5,-0.408 z m -0.012,0.864 q -0.756,0 -1.2,0.492 -0.432,0.48 -0.516,1.344 h 3.276 q -0.012,-0.816 -0.384,-1.32 -0.372,-0.516 -1.176,-0.516 z m 8.48399,3.912 q 0,0.936 -0.696,1.416 -0.696,0.48 -1.872,0.48 -0.672,0 -1.164,-0.108 -0.48,-0.108 -0.852,-0.3 v -0.96 q 0.384,0.192 0.924,0.36 0.552,0.156 1.116,0.156 0.804,0 1.164,-0.252 0.36,-0.264 0.36,-0.696 0,-0.24 -0.132,-0.432 -0.132,-0.192 -0.48,-0.384 -0.336,-0.192 -0.972,-0.432 -0.624,-0.24 -1.068,-0.48 -0.444,-0.24 -0.684,-0.576 -0.24,-0.336 -0.24,-0.864 0,-0.816 0.66,-1.26 0.672,-0.444 1.752,-0.444 0.588,0 1.092,0.12 0.516,0.12 0.96,0.312 l -0.36,0.84 q -0.408,-0.168 -0.852,-0.288 -0.444,-0.12 -0.912,-0.12 -0.648,0 -0.996,0.216 -0.336,0.204 -0.336,0.564 0,0.276 0.156,0.456 0.156,0.18 0.516,0.36 0.372,0.18 0.984,0.408 0.612,0.228 1.044,0.468 0.432,0.24 0.66,0.588 0.228,0.336 0.228,0.852 z m 3.708,1.032 q 0.24,0 0.492,-0.036 0.252,-0.036 0.408,-0.096 v 0.804 q -0.168,0.084 -0.48,0.132 -0.312,0.06 -0.6,0.06 -0.504,0 -0.936,-0.168 -0.42,-0.18 -0.684,-0.612 -0.264,-0.432 -0.264,-1.212 v -3.744 h -0.912 v -0.504 l 0.924,-0.42 0.42,-1.368 h 0.624 v 1.476 h 1.86 v 0.816 h -1.86 v 3.72 q 0,0.588 0.276,0.876 0.288,0.276 0.732,0.276 z m 4.668,-5.808 q 0.816,0 1.416,0.36 0.6,0.36 0.912,1.02 0.324,0.648 0.324,1.524 v 0.636 h -4.404 q 0.024,1.092 0.552,1.668 0.54,0.564 1.5,0.564 0.612,0 1.08,-0.108 0.48,-0.12 0.984,-0.336 v 0.924 q -0.492,0.216 -0.972,0.312 -0.48,0.108 -1.14,0.108 -0.924,0 -1.62,-0.372 -0.696,-0.372 -1.092,-1.104 -0.384,-0.732 -0.384,-1.812 0,-1.056 0.348,-1.812 0.36,-0.756 0.996,-1.164 0.648,-0.408 1.5,-0.408 z m -0.012,0.864 q -0.756,0 -1.2,0.492 -0.432,0.48 -0.516,1.344 h 3.276 q -0.012,-0.816 -0.384,-1.32 -0.372,-0.516 -1.176,-0.516 z"
       id="text14"
       style="font-size:12px;text-anchor:middle;stroke:#000000;stroke-width:0.00264575"
       transform="matrix(0.2645833,0,0,0.2645833,-98.8,-63.25)"
       aria-label="teste" />
    <path
       d="m 124.65231,218.1977 q 0.24,0 0.492,-0.036 0.252,-0.036 0.408,-0.096 v 0.804 q -0.168,0.084 -0.48,0.132 -0.312,0.06 -0.6,0.06 -0.504,0 -0.936,-0.168 -0.42,-0.18 -0.684,-0.612 -0.264,-0.432 -0.264,-1.212 v -3.744 h -0.912 v -0.504 l 0.924,-0.42 0.42,-1.368 h 0.624 v 1.476 h 1.86 v 0.816 h -1.86 v 3.72 q 0,0.588 0.276,0.876 0.288,0.276 0.732,0.276 z m 4.668,-5.808 q 0.816,0 1.416,0.36 0.6,0.36 0.912,1.02 0.324,0.648 0.324,1.524 v 0.636 h -4.404 q 0.024,1.092 0.552,1.668 0.54,0.564 1.5,0.564 0.612,0 1.08,-0.108 0.48,-0.12 0.984,-0.336 v 0.924 q -0.492,0.216 -0.972,0.312 -0.48,0.108 -1.14,0.108 -0.924,0 -1.62,-0.372 -0.696,-0.372 -1.092,-1.104 -0.384,-0.732 -0.384,-1.812 0,-1.056 0.348,-1.812 0.36,-0.756 0.996,-1.164 0.648,-0.408 1.5,-0.408 z m -0.012,0.864 q -0.756,0 -1.2,0.492 -0.432,0.48 -0.516,1.344 h 3.276 q -0.012,-0.816 -0.384,-1.32 -0.372,-0.516 -1.176,-0.516 z m 8.48399,3.912 q 0,0.936 -0.696,1.416 -0.696,0.48 -1.872,0.48 -0.672,0 -1.164,-0.108 -0.48,-0.108 -0.852,-0.3 v -0.96 q 0.384,0.192 0.924,0.36 0.552,0.156 1.116,0.156 0.804,0 1.164,-0.252 0.36,-0.264 0.36,-0.696 0,-0.24 -0.132,-0.432 -0.132,-0.192 -0.48,-0.384 -0.336,-0.192 -0.972,-0.432 -0.624,-0.24 -1.068,-0.48 -0.444,-0.24 -0.684,-0.576 -0.24,-0.336 -0.24,-0.864 0,-0.816 0.66,-1.26 0.672,-0.444 1.752,-0.444 0.588,0 1.092,0.12 0.516,0.12 0.96,0.312 l -0.36,0.84 q -0.408,-0.168 -0.852,-0.288 -0.444,-0.12 -0.912,-0.12 -0.648,0 -0.996,0.216 -0.336,0.204 -0.336,0.564 0,0.276 0.156,0.456 0.156,0.18 0.516,0.36 0.372,0.18 0.984,0.408 0.612,0.228 1.044,0.468 0.432,0.24 0.66,0.588 0.228,0.336 0.228,0.852 z m 3.708,1.032 q 0.24,0 0.492,-0.036 0.252,-0.036 0.408,-0.096 v 0.804 q -0.168,0.084 -0.48,0.132 -0.312,0.06 -0.6,0.06 -0.504,0 -0.936,-0.168 -0.42,-0.18 -0.684,-0.612 -0.264,-0.432 -0.264,-1.212 v -3.744 h -0.912 v -0.504 l 0.924,-0.42 0.42,-1.368 h 0.624 v 1.476 h 1.86 v 0.816 h -1.86 v 3.72 q 0,0.588 0.276,0.876 0.288,0.276 0.732,0.276 z m 4.668,-5.808 q 0.816,0 1.416,0.36 0.6,0.36 0.912,1.02 0.324,0.648 0.324,1.524 v 0.636 h -4.404 q 0.024,1.092 0.552,1.668 0.54,0.564 1.5,0.564 0.612,0 1.08,-0.108 0.48,-0.12 0.984,-0.336 v 0.924 q -0.492,0.216 -0.972,0.312 -0.48,0.108 -1.14,0.108 -0.924,0 -1.62,-0.372 -0.696,-0.372 -1.092,-1.104 -0.384,-0.732 -0.384,-1.812 0,-1.056 0.348,-1.812 0.36,-0.756 0.996,-1.164 0.648,-0.408 1.5,-0.408 z m -0.012,0.864 q -0.756,0 -1.2,0.492 -0.432,0.48 -0.516,1.344 h 3.276 q -0.012,-0.816 -0.384,-1.32 -0.372,-0.516 -1.176,-0.516 z"
       id="text15"
       style="font-size:12px;text-anchor:middle;stroke:#000000;stroke-width:0.00264575"
       transform="matrix(0.2645833,0,0,0.2645833,-98.8,-63.25)"
       aria-label="teste" />
    <path
       d="m 124.65231,259.8481 q 0.24,0 0.492,-0.036 0.252,-0.036 0.408,-0.096 v 0.804 q -0.168,0.084 -0.48,0.132 -0.312,0.06 -0.6,0.06 -0.504,0 -0.936,-0.168 -0.42,-0.18 -0.684,-0.612 -0.264,-0.432 -0.264,-1.212 v -3.744 h -0.912 v -0.504 l 0.924,-0.42 0.42,-1.368 h 0.624 v 1.476 h 1.86 v 0.816 h -1.86 v 3.72 q 0,0.588 0.276,0.876 0.288,0.276 0.732,0.276 z m 4.668,-5.808 q 0.816,0 1.416,0.36 0.6,0.36 0.912,1.02 0.324,0.648 0.324,1.524 v 0.636 h -4.404 q 0.024,1.092 0.552,1.668 0.54,0.564 1.5,0.564 0.612,0 1.08,-0.108 0.48,-0.12 0.984,-0.336 v 0.924 q -0.492,0.216 -0.972,0.312 -0.48,0.108 -1.14,0.108 -0.924,0 -1.62,-0.372 -0.696,-0.372 -1.092,-1.104 -0.384,-0.732 -0.384,-1.812 0,-1.056 0.348,-1.812 0.36,-0.756 0.996,-1.164 0.648,-0.408 1.5,-0.408 z m -0.012,0.864 q -0.756,0 -1.2,0.492 -0.432,0.48 -0.516,1.344 h 3.276 q -0.012,-0.816 -0.384,-1.32 -0.372,-0.516 -1.176,-0.516 z m 8.48399,3.912 q 0,0.936 -0.696,1.416 -0.696,0.48 -1.872,0.48 -0.672,0 -1.164,-0.108 -0.48,-0.108 -0.852,-0.3 v -0.96 q 0.384,0.192 0.924,0.36 0.552,0.156 1.116,0.156 0.804,0 1.164,-0.252 0.36,-0.264 0.36,-0.696 0,-0.24 -0.132,-0.432 -0.132,-0.192 -0.48,-0.384 -0.336,-0.192 -0.972,-0.432 -0.624,-0.24 -1.068,-0.48 -0.444,-0.24 -0.684,-0.576 -0.24,-0.336 -0.24,-0.864 0,-0.816 0.66,-1.26 0.672,-0.444 1.752,-0.444 0.588,0 1.092,0.12 0.516,0.12 0.96,0.312 l -0.36,0.84 q -0.408,-0.168 -0.852,-0.288 -0.444,-0.12 -0.912,-0.12 -0.648,0 -0.996,0.216 -0.336,0.204 -0.336,0.564 0,0.276 0.156,0.456 0.156,0.18 0.516,0.36 0.372,0.18 0.984,0.408 0.612,0.228 1.044,0.468 0.432,0.24 0.66,0.588 0.228,0.336 0.228,0.852 z m 3.708,1.032 q 0.24,0 0.492,-0.036 0.252,-0.036 0.408,-0.096 v 0.804 q -0.168,0.084 -0.48,0.132 -0.312,0.06 -0.6,0.06 -0.504,0 -0.936,-0.168 -0.42,-0.18 -0.684,-0.612 -0.264,-0.432 -0.264,-1.212 v -3.744 h -0.912 v -0.504 l 0.924,-0.42 0.42,-1.368 h 0.624 v 1.476 h 1.86 v 0.816 h -1.86 v 3.72 q 0,0.588 0.276,0.876 0.288,0.276 0.732,0.276 z m 4.668,-5.808 q 0.816,0 1.416,0.36 0.6,0.36 0.912,1.02 0.324,0.648 0.324,1.524 v 0.636 h -4.404 q 0.024,1.092 0.552,1.668 0.54,0.564 1.5,0.564 0.612,0 1.08,-0.108 0.48,-0.12 0.984,-0.336 v 0.924 q -0.492,0.216 -0.972,0.312 -0.48,0.108 -1.14,0.108 -0.924,0 -1.62,-0.372 -0.696,-0.372 -1.092,-1.104 -0.384,-0.732 -0.384,-1.812 0,-1.056 0.348,-1.812 0.36,-0.756 0.996,-1.164 0.648,-0.408 1.5,-0.408 z m -0.012,0.864 q -0.756,0 -1.2,0.492 -0.432,0.48 -0.516,1.344 h 3.276 q -0.012,-0.816 -0.384,-1.32 -0.372,-0.516 -1.176,-0.516 z"
       id="text16"
       style="font-size:12px;text-anchor:middle;stroke:#000000;stroke-width:0.00264575"
       transform="matrix(0.2645833,0,0,0.2645833,-98.8,-63.25)"
       aria-label="teste" />
    <path
       d="m 124.65231,301.49849 q 0.24,0 0.492,-0.036 0.252,-0.036 0.408,-0.096 v 0.804 q -0.168,0.084 -0.48,0.132 -0.312,0.06 -0.6,0.06 -0.504,0 -0.936,-0.168 -0.42,-0.18 -0.684,-0.612 -0.264,-0.432 -0.264,-1.212 v -3.744 h -0.912 v -0.504 l 0.924,-0.42 0.42,-1.368 h 0.624 v 1.476 h 1.86 v 0.816 h -1.86 v 3.72 q 0,0.588 0.276,0.876 0.288,0.276 0.732,0.276 z m 4.668,-5.808 q 0.816,0 1.416,0.36 0.6,0.36 0.912,1.02 0.324,0.648 0.324,1.524 v 0.636 h -4.404 q 0.024,1.092 0.552,1.668 0.54,0.564 1.5,0.564 0.612,0 1.08,-0.108 0.48,-0.12 0.984,-0.336 v 0.924 q -0.492,0.216 -0.972,0.312 -0.48,0.108 -1.14,0.108 -0.924,0 -1.62,-0.372 -0.696,-0.372 -1.092,-1.104 -0.384,-0.732 -0.384,-1.812 0,-1.056 0.348,-1.812 0.36,-0.756 0.996,-1.164 0.648,-0.408 1.5,-0.408 z m -0.012,0.864 q -0.756,0 -1.2,0.492 -0.432,0.48 -0.516,1.344 h 3.276 q -0.012,-0.816 -0.384,-1.32 -0.372,-0.516 -1.176,-0.516 z m 8.48399,3.912 q 0,0.936 -0.696,1.416 -0.696,0.48 -1.872,0.48 -0.672,0 -1.164,-0.108 -0.48,-0.108 -0.852,-0.3 v -0.96 q 0.384,0.192 0.924,0.36 0.552,0.156 1.116,0.156 0.804,0 1.164,-0.252 0.36,-0.264 0.36,-0.696 0,-0.24 -0.132,-0.432 -0.132,-0.192 -0.48,-0.384 -0.336,-0.192 -0.972,-0.432 -0.624,-0.24 -1.068,-0.48 -0.444,-0.24 -0.684,-0.576 -0.24,-0.336 -0.24,-0.864 0,-0.816 0.66,-1.26 0.672,-0.444 1.752,-0.444 0.588,0 1.092,0.12 0.516,0.12 0.96,0.312 l -0.36,0.84 q -0.408,-0.168 -0.852,-0.288 -0.444,-0.12 -0.912,-0.12 -0.648,0 -0.996,0.216 -0.336,0.204 -0.336,0.564 0,0.276 0.156,0.456 0.156,0.18 0.516,0.36 0.372,0.18 0.984,0.408 0.612,0.228 1.044,0.468 0.432,0.24 0.66,0.588 0.228,0.336 0.228,0.852 z m 3.708,1.032 q 0.24,0 0.492,-0.036 0.252,-0.036 0.408,-0.096 v 0.804 q -0.168,0.084 -0.48,0.132 -0.312,0.06 -0.6,0.06 -0.504,0 -0.936,-0.168 -0.42,-0.18 -0.684,-0.612 -0.264,-0.432 -0.264,-1.212 v -3.744 h -0.912 v -0.504 l 0.924,-0.42 0.42,-1.368 h 0.624 v 1.476 h 1.86 v 0.816 h -1.86 v 3.72 q 0,0.588 0.276,0.876 0.288,0.276 0.732,0.276 z m 4.668,-5.808 q 0.816,0 1.416,0.36 0.6,0.36 0.912,1.02 0.324,0.648 0.324,1.524 v 0.636 h -4.404 q 0.024,1.092 0.552,1.668 0.54,0.564 1.5,0.564 0.612,0 1.08,-0.108 0.48,-0.12 0.984,-0.336 v 0.924 q -0.492,0.216 -0.972,0.312 -0.48,0.108 -1.14,0.108 -0.924,0 -1.62,-0.372 -0.696,-0.372 -1.092,-1.104 -0.384,-0.732 -0.384,-1.812 0,-1.056 0.348,-1.812 0.36,-0.756 0.996,-1.164 0.648,-0.408 1.5,-0.408 z m -0.012,0.864 q -0.756,0 -1.2,0.492 -0.432,0.48 -0.516,1.344 h 3.276 q -0.012,-0.816 -0.384,-1.32 -0.372,-0.516 -1.176,-0.516 z"
       id="text17"
       style="font-size:12px;text-anchor:middle;stroke:#000000;stroke-width:0.00264575"
       transform="matrix(0.2645833,0,0,0.2645833,-98.8,-63.25)"
       aria-label="teste" />
    <path
       d="m 124.65231,343.14891 q 0.24,0 0.492,-0.036 0.252,-0.036 0.408,-0.096 v 0.804 q -0.168,0.084 -0.48,0.132 -0.312,0.06 -0.6,0.06 -0.504,0 -0.936,-0.168 -0.42,-0.18 -0.684,-0.612 -0.264,-0.432 -0.264,-1.212 v -3.744 h -0.912 v -0.504 l 0.924,-0.42 0.42,-1.368 h 0.624 v 1.476 h 1.86 v 0.816 h -1.86 v 3.72 q 0,0.588 0.276,0.876 0.288,0.276 0.732,0.276 z m 4.668,-5.808 q 0.816,0 1.416,0.36 0.6,0.36 0.912,1.02 0.324,0.648 0.324,1.524 v 0.636 h -4.404 q 0.024,1.092 0.552,1.668 0.54,0.564 1.5,0.564 0.612,0 1.08,-0.108 0.48,-0.12 0.984,-0.336 v 0.924 q -0.492,0.216 -0.972,0.312 -0.48,0.108 -1.14,0.108 -0.924,0 -1.62,-0.372 -0.696,-0.372 -1.092,-1.104 -0.384,-0.732 -0.384,-1.812 0,-1.056 0.348,-1.812 0.36,-0.756 0.996,-1.164 0.648,-0.408 1.5,-0.408 z m -0.012,0.864 q -0.756,0 -1.2,0.492 -0.432,0.48 -0.516,1.344 h 3.276 q -0.012,-0.816 -0.384,-1.32 -0.372,-0.516 -1.176,-0.516 z m 8.48399,3.912 q 0,0.936 -0.696,1.416 -0.696,0.48 -1.872,0.48 -0.672,0 -1.164,-0.108 -0.48,-0.108 -0.852,-0.3 v -0.96 q 0.384,0.192 0.924,0.36 0.552,0.156 1.116,0.156 0.804,0 1.164,-0.252 0.36,-0.264 0.36,-0.696 0,-0.24 -0.132,-0.432 -0.132,-0.192 -0.48,-0.384 -0.336,-0.192 -0.972,-0.432 -0.624,-0.24 -1.068,-0.48 -0.444,-0.24 -0.684,-0.576 -0.24,-0.336 -0.24,-0.864 0,-0.816 0.66,-1.26 0.672,-0.444 1.752,-0.444 0.588,0 1.092,0.12 0.516,0.12 0.96,0.312 l -0.36,0.84 q -0.408,-0.168 -0.852,-0.288 -0.444,-0.12 -0.912,-0.12 -0.648,0 -0.996,0.216 -0.336,0.204 -0.336,0.564 0,0.276 0.156,0.456 0.156,0.18 0.516,0.36 0.372,0.18 0.984,0.408 0.612,0.228 1.044,0.468 0.432,0.24 0.66,0.588 0.228,0.336 0.228,0.852 z m 3.708,1.032 q 0.24,0 0.492,-0.036 0.252,-0.036 0.408,-0.096 v 0.804 q -0.168,0.084 -0.48,0.132 -0.312,0.06 -0.6,0.06 -0.504,0 -0.936,-0.168 -0.42,-0.18 -0.684,-0.612 -0.264,-0.432 -0.264,-1.212 v -3.744 h -0.912 v -0.504 l 0.924,-0.42 0.42,-1.368 h 0.624 v 1.476 h 1.86 v 0.816 h -1.86 v 3.72 q 0,0.588 0.276,0.876 0.288,0.276 0.732,0.276 z m 4.668,-5.808 q 0.816,0 1.416,0.36 0.6,0.36 0.912,1.02 0.324,0.648 0.324,1.524 v 0.636 h -4.404 q 0.024,1.092 0.552,1.668 0.54,0.564 1.5,0.564 0.612,0 1.08,-0.108 0.48,-0.12 0.984,-0.336 v 0.924 q -0.492,0.216 -0.972,0.312 -0.48,0.108 -1.14,0.108 -0.924,0 -1.62,-0.372 -0.696,-0.372 -1.092,-1.104 -0.384,-0.732 -0.384,-1.812 0,-1.056 0.348,-1.812 0.36,-0.756 0.996,-1.164 0.648,-0.408 1.5,-0.408 z m -0.012,0.864 q -0.756,0 -1.2,0.492 -0.432,0.48 -0.516,1.344 h 3.276 q -0.012,-0.816 -0.384,-1.32 -0.372,-0.516 -1.176,-0.516 z"
       id="text18"
       style="font-size:12px;text-anchor:middle;stroke:#000000;stroke-width:0.00264575"
       transform="matrix(0.2645833,0,0,0.2645833,-98.8,-63.25)"
       aria-label="teste" />
    <path
       d="m 124.65231,384.7993 q 0.24,0 0.492,-0.036 0.252,-0.036 0.408,-0.096 v 0.804 q -0.168,0.084 -0.48,0.132 -0.312,0.06 -0.6,0.06 -0.504,0 -0.936,-0.168 -0.42,-0.18 -0.684,-0.612 -0.264,-0.432 -0.264,-1.212 v -3.744 h -0.912 v -0.504 l 0.924,-0.42 0.42,-1.368 h 0.624 v 1.476 h 1.86 v 0.816 h -1.86 v 3.72 q 0,0.588 0.276,0.876 0.288,0.276 0.732,0.276 z m 4.668,-5.808 q 0.816,0 1.416,0.36 0.6,0.36 0.912,1.02 0.324,0.648 0.324,1.524 v 0.636 h -4.404 q 0.024,1.092 0.552,1.668 0.54,0.564 1.5,0.564 0.612,0 1.08,-0.108 0.48,-0.12 0.984,-0.336 v 0.924 q -0.492,0.216 -0.972,0.312 -0.48,0.108 -1.14,0.108 -0.924,0 -1.62,-0.372 -0.696,-0.372 -1.092,-1.104 -0.384,-0.732 -0.384,-1.812 0,-1.056 0.348,-1.812 0.36,-0.756 0.996,-1.164 0.648,-0.408 1.5,-0.408 z m -0.012,0.864 q -0.756,0 -1.2,0.492 -0.432,0.48 -0.516,1.344 h 3.276 q -0.012,-0.816 -0.384,-1.32 -0.372,-0.516 -1.176,-0.516 z m 8.48399,3.912 q 0,0.936 -0.696,1.416 -0.696,0.48 -1.872,0.48 -0.672,0 -1.164,-0.108 -0.48,-0.108 -0.852,-0.3 v -0.96 q 0.384,0.192 0.924,0.36 0.552,0.156 1.116,0.156 0.804,0 1.164,-0.252 0.36,-0.264 0.36,-0.696 0,-0.24 -0.132,-0.432 -0.132,-0.192 -0.48,-0.384 -0.336,-0.192 -0.972,-0.432 -0.624,-0.24 -1.068,-0.48 -0.444,-0.24 -0.684,-0.576 -0.24,-0.336 -0.24,-0.864 0,-0.816 0.66,-1.26 0.672,-0.444 1.752,-0.444 0.588,0 1.092,0.12 0.516,0.12 0.96,0.312 l -0.36,0.84 q -0.408,-0.168 -0.852,-0.288 -0.444,-0.12 -0.912,-0.12 -0.648,0 -0.996,0.216 -0.336,0.204 -0.336,0.564 0,0.276 0.156,0.456 0.156,0.18 0.516,0.36 0.372,0.18 0.984,0.408 0.612,0.228 1.044,0.468 0.432,0.24 0.66,0.588 0.228,0.336 0.228,0.852 z m 3.708,1.032 q 0.24,0 0.492,-0.036 0.252,-0.036 0.408,-0.096 v 0.804 q -0.168,0.084 -0.48,0.132 -0.312,0.06 -0.6,0.06 -0.504,0 -0.936,-0.168 -0.42,-0.18 -0.684,-0.612 -0.264,-0.432 -0.264,-1.212 v -3.744 h -0.912 v -0.504 l 0.924,-0.42 0.42,-1.368 h 0.624 v 1.476 h 1.86 v 0.816 h -1.86 v 3.72 q 0,0.588 0.276,0.876 0.288,0.276 0.732,0.276 z m 4.668,-5.808 q 0.816,0 1.416,0.36 0.6,0.36 0.912,1.02 0.324,0.648 0.324,1.524 v 0.636 h -4.404 q 0.024,1.092 0.552,1.668 0.54,0.564 1.5,0.564 0.612,0 1.08,-0.108 0.48,-0.12 0.984,-0.336 v 0.924 q -0.492,0.216 -0.972,0.312 -0.48,0.108 -1.14,0.108 -0.924,0 -1.62,-0.372 -0.696,-0.372 -1.092,-1.104 -0.384,-0.732 -0.384,-1.812 0,-1.056 0.348,-1.812 0.36,-0.756 0.996,-1.164 0.648,-0.408 1.5,-0.408 z m -0.012,0.864 q -0.756,0 -1.2,0.492 -0.432,0.48 -0.516,1.344 h 3.276 q -0.012,-0.816 -0.384,-1.32 -0.372,-0.516 -1.176,-0.516 z"
       id="text19"
       style="font-size:12px;text-anchor:middle;stroke:#000000;stroke-width:0.00264575"
       transform="matrix(0.2645833,0,0,0.2645833,-98.8,-63.25)"
       aria-label="teste" />
    <path
       d="m 124.65231,426.4497 q 0.24,0 0.492,-0.036 0.252,-0.036 0.408,-0.096 v 0.804 q -0.168,0.084 -0.48,0.132 -0.312,0.06 -0.6,0.06 -0.504,0 -0.936,-0.168 -0.42,-0.18 -0.684,-0.612 -0.264,-0.432 -0.264,-1.212 v -3.744 h -0.912 v -0.504 l 0.924,-0.42 0.42,-1.368 h 0.624 v 1.476 h 1.86 v 0.816 h -1.86 v 3.72 q 0,0.588 0.276,0.876 0.288,0.276 0.732,0.276 z m 4.668,-5.808 q 0.816,0 1.416,0.36 0.6,0.36 0.912,1.02 0.324,0.648 0.324,1.524 v 0.636 h -4.404 q 0.024,1.092 0.552,1.668 0.54,0.564 1.5,0.564 0.612,0 1.08,-0.108 0.48,-0.12 0.984,-0.336 v 0.924 q -0.492,0.216 -0.972,0.312 -0.48,0.108 -1.14,0.108 -0.924,0 -1.62,-0.372 -0.696,-0.372 -1.092,-1.104 -0.384,-0.732 -0.384,-1.812 0,-1.056 0.348,-1.812 0.36,-0.756 0.996,-1.164 0.648,-0.408 1.5,-0.408 z m -0.012,0.864 q -0.756,0 -1.2,0.492 -0.432,0.48 -0.516,1.344 h 3.276 q -0.012,-0.816 -0.384,-1.32 -0.372,-0.516 -1.176,-0.516 z m 8.48399,3.912 q 0,0.936 -0.696,1.416 -0.696,0.48 -1.872,0.48 -0.672,0 -1.164,-0.108 -0.48,-0.108 -0.852,-0.3 v -0.96 q 0.384,0.192 0.924,0.36 0.552,0.156 1.116,0.156 0.804,0 1.164,-0.252 0.36,-0.264 0.36,-0.696 0,-0.24 -0.132,-0.432 -0.132,-0.192 -0.48,-0.384 -0.336,-0.192 -0.972,-0.432 -0.624,-0.24 -1.068,-0.48 -0.444,-0.24 -0.684,-0.576 -0.24,-0.336 -0.24,-0.864 0,-0.816 0.66,-1.26 0.672,-0.444 1.752,-0.444 0.588,0 1.092,0.12 0.516,0.12 0.96,0.312 l -0.36,0.84 q -0.408,-0.168 -0.852,-0.288 -0.444,-0.12 -0.912,-0.12 -0.648,0 -0.996,0.216 -0.336,0.204 -0.336,0.564 0,0.276 0.156,0.456 0.156,0.18 0.516,0.36 0.372,0.18 0.984,0.408 0.612,0.228 1.044,0.468 0.432,0.24 0.66,0.588 0.228,0.336 0.228,0.852 z m 3.708,1.032 q 0.24,0 0.492,-0.036 0.252,-0.036 0.408,-0.096 v 0.804 q -0.168,0.084 -0.48,0.132 -0.312,0.06 -0.6,0.06 -0.504,0 -0.936,-0.168 -0.42,-0.18 -0.684,-0.612 -0.264,-0.432 -0.264,-1.212 v -3.744 h -0.912 v -0.504 l 0.924,-0.42 0.42,-1.368 h 0.624 v 1.476 h 1.86 v 0.816 h -1.86 v 3.72 q 0,0.588 0.276,0.876 0.288,0.276 0.732,0.276 z m 4.668,-5.808 q 0.816,0 1.416,0.36 0.6,0.36 0.912,1.02 0.324,0.648 0.324,1.524 v 0.636 h -4.404 q 0.024,1.092 0.552,1.668 0.54,0.564 1.5,0.564 0.612,0 1.08,-0.108 0.48,-0.12 0.984,-0.336 v 0.924 q -0.492,0.216 -0.972,0.312 -0.48,0.108 -1.14,0.108 -0.924,0 -1.62,-0.372 -0.696,-0.372 -1.092,-1.104 -0.384,-0.732 -0.384,-1.812 0,-1.056 0.348,-1.812 0.36,-0.756 0.996,-1.164 0.648,-0.408 1.5,-0.408 z m -0.012,0.864 q -0.756,0 -1.2,0.492 -0.432,0.48 -0.516,1.344 h 3.276 q -0.012,-0.816 -0.384,-1.32 -0.372,-0.516 -1.176,-0.516 z"
       id="text20"
       style="font-size:12px;text-anchor:middle;stroke:#000000;stroke-width:0.00264575"
       transform="matrix(0.2645833,0,0,0.2645833,-98.8,-63.25)"
       aria-label="teste" />
    <path
       d="m 6.9045279,2.4007139 -0.070312,1.03125 h 0.6289063 q 0.1171875,0 0.1679687,0.046875 0.050781,0.042969 0.050781,0.1171875 0,0.074219 -0.050781,0.1210938 -0.050781,0.042969 -0.1679687,0.042969 H 6.8107779 l -0.1289062,1.828125 q -0.00781,0.1171875 -0.054687,0.1640625 -0.042969,0.046875 -0.109375,0.046875 L 6.4514029,5.7835264 Q 6.3537467,5.7249327 6.3537467,5.6233702 V 5.5647764 L 6.4826529,3.7600889 H 5.7404654 l -0.125,1.828125 q -0.00781,0.1171875 -0.054687,0.1640625 -0.046875,0.046875 -0.109375,0.046875 L 5.3810904,5.7835264 Q 5.2834342,5.7249327 5.2834342,5.6233702 l 0.00391,-0.058594 0.125,-1.8046875 H 4.7287467 q -0.1171875,0 -0.1679688,-0.042969 -0.050781,-0.046875 -0.050781,-0.1210938 0,-0.074219 0.050781,-0.1171875 0.050781,-0.046875 0.1679688,-0.046875 h 0.7070312 l 0.070312,-1.03125 h -0.609375 q -0.1210937,0 -0.171875,-0.042969 -0.050781,-0.046875 -0.050781,-0.1210938 0,-0.074219 0.050781,-0.1171875 0.050781,-0.046875 0.171875,-0.046875 h 0.632813 L 5.6584342,0.24446392 q 0.00781,-0.11328125 0.054687,-0.16015625 0.046875,-0.05078125 0.109375,-0.05078125 l 0.070312,0.015625 q 0.097656,0.0625 0.097656,0.15625 l -0.00391,0.0625 -0.125,1.80468748 H 6.5998404 L 6.7287467,0.24446392 Q 6.7365567,0.13118267 6.7795277,0.08430767 6.8264027,0.03352642 6.892809,0.03352642 l 0.066406,0.015625 q 0.1015625,0.0625 0.1015625,0.15625 l -0.00391,0.0625 L 6.9279612,2.0725889 H 7.62718 q 0.1171875,0 0.1679687,0.046875 0.050781,0.042969 0.050781,0.1171875 0,0.074219 -0.050781,0.1210938 -0.050781,0.042969 -0.1679687,0.042969 z m -0.328125,0 H 5.8381217 l -0.074219,1.03125 H 6.5060904 Z M 11.142809,0.32258892 V 4.9632139 h 1.125 q 0.117188,0 0.167969,0.046875 0.05078,0.042969 0.05078,0.1171875 0,0.070312 -0.05078,0.1171875 -0.05078,0.046875 -0.167969,0.046875 H 9.6896842 q -0.1171875,0 -0.1679688,-0.046875 -0.050781,-0.046875 -0.050781,-0.1171875 0,-0.074219 0.050781,-0.1171875 0.050781,-0.046875 0.1679688,-0.046875 H 10.814684 V 0.77571392 L 9.7443717,1.1116514 q -0.078125,0.023437 -0.1132813,0.023437 -0.058594,0 -0.109375,-0.046875 -0.046875,-0.050781 -0.046875,-0.11718748 0,-0.0585938 0.039063,-0.109375 0.03125,-0.03125 0.1289063,-0.0664063 z m 6.113281,-0.171875 -2.640625,5.65624998 q -0.06641,0.1445313 -0.171875,0.1445313 -0.06641,0 -0.117187,-0.050781 -0.04687,-0.046875 -0.04687,-0.1054687 0,-0.046875 0.03906,-0.1289063 l 2.636719,-5.65624998 q 0.04297,-0.08984375 0.08203,-0.1171875 0.03906,-0.0273438 0.09375,-0.0273438 0.06641,0 0.113282,0.05078125 0.05078,0.046875 0.05078,0.10546875 0,0.04296875 -0.03906,0.12890625 z m 3.488282,0.171875 V 4.9632139 h 1.125 q 0.117187,0 0.167968,0.046875 0.05078,0.042969 0.05078,0.1171875 0,0.070312 -0.05078,0.1171875 -0.05078,0.046875 -0.167968,0.046875 h -2.578125 q -0.117188,0 -0.167969,-0.046875 -0.05078,-0.046875 -0.05078,-0.1171875 0,-0.074219 0.05078,-0.1171875 0.05078,-0.046875 0.167969,-0.046875 h 1.125 V 0.77571392 L 19.345934,1.1116514 q -0.07813,0.023437 -0.113281,0.023437 -0.05859,0 -0.109375,-0.046875 -0.04687,-0.050781 -0.04687,-0.11718748 0,-0.0585938 0.03906,-0.109375 0.03125,-0.03125 0.128907,-0.0664063 z"
       id="text21"
       style="font-size:8px;font-family:'Courier New';stroke:#000000;stroke-width:0.00264575"
       transform="matrix(0.2645833,0,0,0.2645833,-98.8,-63.25)"
       aria-label="#1/1" />
    <path
       d="m 5.1154654,14.840857 v 1.460937 h 0.6054688 q 0.1210937,0 0.171875,0.04687 0.050781,0.04297 0.050781,0.117188 0,0.07031 -0.050781,0.117187 -0.050781,0.04687 -0.171875,0.04687 h -1.375 q -0.1171875,0 -0.1679688,-0.04687 -0.050781,-0.04687 -0.050781,-0.117187 0,-0.07422 0.050781,-0.117188 0.050781,-0.04687 0.1679688,-0.04687 H 4.7873404 V 12.387732 H 4.3459342 q -0.1171875,0 -0.1679688,-0.04297 -0.050781,-0.04687 -0.050781,-0.121094 0,-0.07422 0.050781,-0.117187 0.050781,-0.04687 0.1679688,-0.04687 h 1.375 q 0.1210937,0 0.171875,0.04687 0.050781,0.04297 0.050781,0.117187 0,0.07422 -0.050781,0.121094 -0.050781,0.04297 -0.171875,0.04297 H 5.1154654 v 2.019531 l 2.265625,-2.019531 h -0.359375 q -0.1210937,0 -0.171875,-0.04297 -0.050781,-0.04687 -0.050781,-0.121094 0,-0.07422 0.050781,-0.117187 0.050781,-0.04687 0.171875,-0.04687 h 0.9648438 q 0.1171875,0 0.1679687,0.04687 0.050781,0.04297 0.050781,0.117187 0,0.07422 -0.050781,0.121094 -0.050781,0.04297 -0.1679687,0.04297 H 7.8537467 l -1.8046875,1.613281 q 0.4023437,0.164062 0.6679687,0.410156 0.265625,0.246094 0.5117188,0.699219 0.140625,0.253906 0.515625,1.191406 h 0.4101562 q 0.1210938,0 0.171875,0.04687 0.050781,0.04297 0.050781,0.117188 0,0.07031 -0.050781,0.117187 -0.050781,0.04687 -0.171875,0.04687 H 7.5217154 q -0.515625,-1.410156 -0.8671875,-1.8125 -0.3515625,-0.40625 -0.8789062,-0.570312 z m 6.0273436,-3.277344 v 0.847656 h -0.484375 v -0.847656 z m 0.01172,1.683594 v 3.054687 h 1.289062 q 0.121094,0 0.171875,0.04687 0.05078,0.04297 0.05078,0.117188 0,0.07031 -0.05078,0.117187 -0.05078,0.04687 -0.171875,0.04687 H 9.5373404 q -0.1171875,0 -0.1679687,-0.04687 -0.050781,-0.04687 -0.050781,-0.117187 0,-0.07422 0.050781,-0.117188 0.050781,-0.04687 0.1679687,-0.04687 H 10.826403 V 13.579138 H 9.8693717 q -0.1171875,0 -0.171875,-0.04687 -0.050781,-0.04687 -0.050781,-0.117188 0,-0.07422 0.050781,-0.121093 0.050781,-0.04687 0.171875,-0.04687 z m 3.390625,0 v 0.597656 q 0.292969,-0.355469 0.628906,-0.535156 0.335938,-0.179688 0.792969,-0.179688 0.484375,0 0.894531,0.226563 0.410156,0.226562 0.632813,0.632812 0.226562,0.402344 0.226562,0.847656 0,0.707032 -0.507812,1.210938 -0.503907,0.5 -1.242188,0.5 -0.878906,0 -1.425781,-0.714844 v 1.976563 h 0.796875 q 0.117187,0 0.167969,0.04297 0.05078,0.04687 0.05078,0.121094 0,0.07031 -0.05078,0.117188 -0.05078,0.04687 -0.167969,0.04687 h -1.566406 q -0.117188,0 -0.167969,-0.04687 -0.05078,-0.04297 -0.05078,-0.117188 0,-0.07422 0.05078,-0.121094 0.05078,-0.04297 0.167969,-0.04297 h 0.441406 v -4.230469 h -0.441406 q -0.117188,0 -0.167969,-0.04687 -0.05078,-0.04687 -0.05078,-0.121094 0,-0.07031 0.05078,-0.117187 0.05078,-0.04687 0.167969,-0.04687 z m 2.84375,1.589843 q 0,-0.566406 -0.414063,-0.96875 -0.410156,-0.40625 -1.003906,-0.40625 -0.597656,0 -1.011719,0.40625 -0.414062,0.40625 -0.414062,0.96875 0,0.566407 0.414062,0.972657 0.414063,0.40625 1.011719,0.40625 0.589844,0 1.003906,-0.402344 0.414063,-0.40625 0.414063,-0.976563 z m 3.355469,-3.175781 v 4.640625 h 1.125 q 0.117187,0 0.167968,0.04687 0.05078,0.04297 0.05078,0.117188 0,0.07031 -0.05078,0.117187 -0.05078,0.04687 -0.167968,0.04687 h -2.578125 q -0.117188,0 -0.167969,-0.04687 -0.05078,-0.04687 -0.05078,-0.117187 0,-0.07422 0.05078,-0.117188 0.05078,-0.04687 0.167969,-0.04687 h 1.125 v -4.1875 l -1.070313,0.335938 q -0.07813,0.02344 -0.113281,0.02344 -0.05859,0 -0.109375,-0.04687 -0.04687,-0.05078 -0.04687,-0.117187 0,-0.05859 0.03906,-0.109375 0.03125,-0.03125 0.128907,-0.06641 z m 5.3125,2.425781 q 0.410156,0.199219 0.617187,0.527344 0.210938,0.324219 0.210938,0.699219 0,0.582031 -0.4375,1.007812 -0.4375,0.425782 -1.0625,0.425782 -0.625,0 -1.0625,-0.425782 -0.4375,-0.425781 -0.4375,-1.007812 0,-0.371094 0.207031,-0.695313 0.210937,-0.328125 0.625,-0.53125 -0.359375,-0.207031 -0.523438,-0.429687 -0.226562,-0.316406 -0.226562,-0.699219 0,-0.539062 0.414062,-0.941406 0.417969,-0.40625 1.003907,-0.40625 0.589843,0 1.003906,0.40625 0.414062,0.402344 0.414062,0.941406 0,0.382813 -0.226562,0.695313 -0.160156,0.226562 -0.519531,0.433593 z m 0.410156,-1.117187 q 0,-0.421875 -0.316406,-0.722656 -0.3125,-0.304688 -0.769532,-0.304688 -0.453125,0 -0.769531,0.304688 -0.3125,0.304687 -0.3125,0.71875 0,0.382812 0.308594,0.671875 0.3125,0.285156 0.773437,0.285156 0.464844,0 0.773438,-0.285156 0.3125,-0.289063 0.3125,-0.667969 z m 0.08984,2.351562 q 0,-0.433593 -0.335938,-0.753906 -0.335937,-0.320312 -0.835937,-0.320312 -0.5,0 -0.835938,0.320312 -0.335937,0.320313 -0.335937,0.75 0,0.445313 0.335937,0.773438 0.339844,0.328125 0.835938,0.328125 0.496093,0 0.832031,-0.328125 0.339844,-0.328125 0.339844,-0.769532 z"
       id="text22"
       style="font-size:8px;font-family:'Courier New';stroke:#000000;stroke-width:0.00264575"
       transform="matrix(0.2645833,0,0,0.2645833,-98.8,-63.25)"
       aria-label="Kip18" />
    <path
       d="m 6.3420279,22.99976 v 4.640625 h 1.125 q 0.1171875,0 0.1679688,0.04687 0.050781,0.04297 0.050781,0.117187 0,0.07031 -0.050781,0.117188 -0.050781,0.04687 -0.1679688,0.04687 h -2.578125 q -0.1171875,0 -0.1679687,-0.04687 -0.050781,-0.04687 -0.050781,-0.117188 0,-0.07422 0.050781,-0.117187 0.050781,-0.04687 0.1679687,-0.04687 h 1.125 v -4.1875 l -1.0703125,0.335937 q -0.078125,0.02344 -0.1132812,0.02344 -0.058594,0 -0.109375,-0.04687 -0.046875,-0.05078 -0.046875,-0.117188 0,-0.05859 0.039063,-0.109375 0.03125,-0.03125 0.1289062,-0.06641 z m 5.3125001,2.425781 q 0.410156,0.199219 0.617187,0.527344 0.210938,0.324218 0.210938,0.699218 0,0.582032 -0.4375,1.007813 -0.4375,0.425781 -1.0625,0.425781 -0.625,0 -1.0625001,-0.425781 -0.4375,-0.425781 -0.4375,-1.007813 0,-0.371093 0.2070313,-0.695312 0.2109375,-0.328125 0.6249998,-0.53125 Q 9.9553092,25.21851 9.7912467,24.995853 9.5646842,24.679447 9.5646842,24.296635 q 0,-0.539063 0.4140625,-0.941407 0.4179683,-0.40625 1.0039063,-0.40625 0.589844,0 1.003906,0.40625 0.414063,0.402344 0.414063,0.941407 0,0.382812 -0.226563,0.695312 -0.160156,0.226563 -0.519531,0.433594 z m 0.410156,-1.117188 q 0,-0.421875 -0.316406,-0.722656 -0.3125,-0.304687 -0.769531,-0.304687 -0.453125,0 -0.769532,0.304687 -0.3124996,0.304688 -0.3124996,0.71875 0,0.382813 0.3085936,0.671875 0.3125,0.285156 0.773438,0.285156 0.464843,0 0.773437,-0.285156 0.3125,-0.289062 0.3125,-0.667969 z m 0.08984,2.351563 q 0,-0.433594 -0.335938,-0.753906 -0.335937,-0.320313 -0.835937,-0.320313 -0.5,0 -0.835938,0.320313 -0.3359371,0.320312 -0.3359371,0.75 0,0.445312 0.3359371,0.773437 0.339844,0.328125 0.835938,0.328125 0.496094,0 0.832031,-0.328125 0.339844,-0.328125 0.339844,-0.769531 z m 2.976562,0.128906 h 1.066407 l -1.160157,2.15625 q -0.105468,0.195313 -0.253906,0.195313 -0.09766,0 -0.167969,-0.07031 -0.06641,-0.06641 -0.06641,-0.164062 0,-0.03906 0.01172,-0.08594 z m 4.546875,-3.390625 v 1.605469 q 0.289063,-0.121094 0.554688,-0.179688 0.265625,-0.0625 0.503906,-0.0625 0.617188,0 1.03125,0.433594 0.417969,0.433594 0.417969,1.140625 0,0.78125 -0.46875,1.265625 -0.46875,0.484375 -1.171875,0.484375 -0.464844,0 -0.894531,-0.207031 -0.304688,-0.144531 -0.554688,-0.359375 -0.148437,-0.128906 -0.148437,-0.214844 0,-0.07031 0.04687,-0.117187 0.04687,-0.05078 0.109375,-0.05078 0.06641,0 0.140625,0.07031 0.589843,0.550781 1.285156,0.550781 0.574219,0 0.949219,-0.390625 0.375,-0.394531 0.375,-1.046875 0,-0.554687 -0.324219,-0.890625 -0.324219,-0.339844 -0.824219,-0.339844 -0.511719,0 -1.023437,0.269532 -0.125,0.0625 -0.175782,0.0625 -0.07031,0 -0.113281,-0.04687 -0.04297,-0.04687 -0.04297,-0.132813 V 23.06617 h 2.289063 q 0.117187,0 0.167969,0.04687 0.05078,0.04687 0.05078,0.121094 0,0.07031 -0.05078,0.117187 -0.05078,0.04687 -0.167969,0.04687 z m 4.726563,2.496094 q 0.304687,-0.449219 0.625,-0.664063 0.324219,-0.214843 0.71875,-0.214843 0.523437,0 0.929687,0.4375 0.40625,0.433593 0.40625,1.074218 0,0.585938 -0.371093,1.074219 -0.371094,0.484375 -1.023438,0.484375 -0.425781,0 -0.796875,-0.261719 -0.367187,-0.261718 -0.578125,-0.804687 -0.261719,-0.675781 -0.261719,-1.496094 0,-0.617187 0.246094,-1.148437 0.1875,-0.410157 0.5,-0.71875 0.3125,-0.3125 0.726563,-0.507813 0.417968,-0.199219 0.902343,-0.199219 0.328125,0 0.546875,0.132813 0.09375,0.05859 0.09375,0.15625 0,0.07031 -0.04297,0.117187 -0.04297,0.04297 -0.109375,0.04297 -0.05078,0 -0.121094,-0.03906 -0.160156,-0.07813 -0.398438,-0.07813 -0.761718,0 -1.390625,0.65625 -0.625,0.652343 -0.625,1.554687 0,0.128906 0.02344,0.402344 z m 0.07422,0.542969 q 0.148437,0.710937 0.464843,1.015625 0.320313,0.304687 0.753907,0.304687 0.4375,0 0.746093,-0.339844 0.3125,-0.34375 0.3125,-0.890625 0,-0.511718 -0.3125,-0.847656 -0.3125,-0.335937 -0.707031,-0.335937 -0.378906,0 -0.730469,0.324218 -0.234375,0.214844 -0.527343,0.769532 z m 9.011718,-1.851563 v 0.332031 q 0.417969,-0.449218 0.839844,-0.449218 0.253906,0 0.445313,0.136718 0.191406,0.132813 0.320312,0.40625 0.21875,-0.273437 0.441406,-0.40625 0.226563,-0.136718 0.453125,-0.136718 0.355469,0 0.566407,0.230468 0.277343,0.296875 0.277343,0.648438 v 2.292969 h 0.277344 q 0.117188,0 0.167969,0.04687 0.05078,0.04297 0.05078,0.117187 0,0.07031 -0.05078,0.117188 -0.05078,0.04687 -0.167969,0.04687 H 36.50609 v -2.589844 q 0,-0.25 -0.152343,-0.414063 -0.152344,-0.164062 -0.351563,-0.164062 -0.179687,0 -0.378906,0.136719 -0.199219,0.132812 -0.453125,0.527343 v 2.175782 h 0.273437 q 0.117188,0 0.167969,0.04687 0.05078,0.04297 0.05078,0.117187 0,0.07031 -0.05078,0.117188 -0.05078,0.04687 -0.167969,0.04687 h -0.605468 v -2.566407 q 0,-0.261718 -0.15625,-0.429687 -0.152344,-0.171875 -0.34375,-0.171875 -0.175782,0 -0.347657,0.113281 -0.238281,0.160156 -0.5,0.550781 v 2.175782 h 0.277344 q 0.117188,0 0.167969,0.04687 0.05078,0.04297 0.05078,0.117187 0,0.07031 -0.05078,0.117188 -0.05078,0.04687 -0.167969,0.04687 h -0.882812 q -0.117188,0 -0.167969,-0.04687 -0.05078,-0.04687 -0.05078,-0.117188 0,-0.07422 0.05078,-0.117187 0.05078,-0.04687 0.167969,-0.04687 h 0.277343 v -2.722657 h -0.277343 q -0.117188,0 -0.167969,-0.04687 -0.05078,-0.04687 -0.05078,-0.121093 0,-0.07031 0.05078,-0.117188 0.05078,-0.04687 0.167969,-0.04687 z m 4.800782,0 v 0.332031 q 0.417968,-0.449218 0.839843,-0.449218 0.253907,0 0.445313,0.136718 0.191406,0.132813 0.320312,0.40625 0.21875,-0.273437 0.441407,-0.40625 0.226562,-0.136718 0.453125,-0.136718 0.355468,0 0.566406,0.230468 0.277344,0.296875 0.277344,0.648438 v 2.292969 h 0.277343 q 0.117188,0 0.167969,0.04687 0.05078,0.04297 0.05078,0.117187 0,0.07031 -0.05078,0.117188 -0.05078,0.04687 -0.167969,0.04687 h -0.605468 v -2.589844 q 0,-0.25 -0.152344,-0.414063 -0.152344,-0.164062 -0.351563,-0.164062 -0.179687,0 -0.378906,0.136719 -0.199219,0.132812 -0.453125,0.527343 v 2.175782 h 0.273438 q 0.117187,0 0.167968,0.04687 0.05078,0.04297 0.05078,0.117187 0,0.07031 -0.05078,0.117188 -0.05078,0.04687 -0.167968,0.04687 H 39.6389 v -2.566407 q 0,-0.261718 -0.15625,-0.429687 -0.152344,-0.171875 -0.34375,-0.171875 -0.175781,0 -0.347656,0.113281 -0.238282,0.160156 -0.5,0.550781 v 2.175782 h 0.277343 q 0.117188,0 0.167969,0.04687 0.05078,0.04297 0.05078,0.117187 0,0.07031 -0.05078,0.117188 -0.05078,0.04687 -0.167969,0.04687 h -0.882812 q -0.117188,0 -0.167969,-0.04687 -0.05078,-0.04687 -0.05078,-0.117188 0,-0.07422 0.05078,-0.117187 0.05078,-0.04687 0.167969,-0.04687 h 0.277344 v -2.722657 h -0.277344 q -0.117188,0 -0.167969,-0.04687 -0.05078,-0.04687 -0.05078,-0.121093 0,-0.07031 0.05078,-0.117188 0.05078,-0.04687 0.167969,-0.04687 z m 11.320312,1.613281 1.503906,1.441407 q 0.148438,0 0.1875,0.01563 0.03906,0.01172 0.06641,0.05469 0.03125,0.04297 0.03125,0.09375 0,0.07031 -0.05078,0.117188 -0.05078,0.04687 -0.171875,0.04687 H 50.12328 q -0.121094,0 -0.171875,-0.04687 -0.05078,-0.04687 -0.05078,-0.117188 0,-0.07422 0.05078,-0.117187 0.05078,-0.04687 0.171875,-0.04687 h 0.542969 l -1.277344,-1.222657 -1.269531,1.222657 h 0.546875 q 0.117187,0 0.167968,0.04687 0.05078,0.04297 0.05078,0.117187 0,0.07031 -0.05078,0.117188 -0.05078,0.04687 -0.167968,0.04687 H 47.59984 q -0.117187,0 -0.167968,-0.04687 -0.05078,-0.04687 -0.05078,-0.117188 0,-0.05078 0.02734,-0.09375 0.03125,-0.04297 0.06641,-0.05469 0.03906,-0.01563 0.1875,-0.01563 l 1.503907,-1.441407 -1.335938,-1.28125 q -0.140625,0 -0.179687,-0.01563 -0.03516,-0.01563 -0.06641,-0.05859 -0.02734,-0.04297 -0.02734,-0.09375 0,-0.07031 0.05078,-0.117188 0.05078,-0.04687 0.171875,-0.04687 h 0.894531 q 0.121094,0 0.167969,0.04687 0.05078,0.04687 0.05078,0.121094 0,0.07031 -0.05078,0.117187 -0.04687,0.04687 -0.167969,0.04687 h -0.390625 l 1.105469,1.066407 1.113281,-1.066407 H 50.11156 q -0.117187,0 -0.171875,-0.04687 -0.05078,-0.04687 -0.05078,-0.121093 0,-0.07031 0.05078,-0.117188 0.05078,-0.04687 0.171875,-0.04687 h 0.894531 q 0.117188,0 0.167969,0.04687 0.05078,0.04687 0.05078,0.121094 0,0.04687 -0.03125,0.08984 -0.02734,0.04297 -0.06641,0.05859 -0.03516,0.01563 -0.175781,0.01563 z m 9.988281,0.398438 H 57.424059 V 26.21851 l 1.824219,-3.152344 h 0.683594 v 3.203125 h 0.273437 q 0.121094,0 0.171875,0.04687 0.05078,0.04297 0.05078,0.117187 0,0.07031 -0.05078,0.117188 -0.05078,0.04687 -0.171875,0.04687 h -0.273437 v 1.042969 h 0.273437 q 0.121094,0 0.171875,0.04687 0.05078,0.04297 0.05078,0.117187 0,0.07031 -0.05078,0.117188 -0.05078,0.04687 -0.171875,0.04687 h -1.21875 q -0.121094,0 -0.171875,-0.04687 -0.05078,-0.04687 -0.05078,-0.117188 0,-0.07422 0.05078,-0.117187 0.05078,-0.04687 0.171875,-0.04687 h 0.613281 z m 0,-0.328125 v -2.871094 h -0.171875 l -1.660156,2.871094 z m 3.539063,0.519531 h 1.066406 l -1.160156,2.15625 q -0.105469,0.195313 -0.253906,0.195313 -0.09766,0 -0.167969,-0.07031 -0.06641,-0.06641 -0.06641,-0.164062 0,-0.03906 0.01172,-0.08594 z m 6.957031,-1.675781 v 0.8125 q 0,1.058594 -0.503906,1.675781 -0.394531,0.484375 -0.996094,0.484375 -0.289062,0 -0.546875,-0.117187 -0.253906,-0.113282 -0.433594,-0.320313 -0.113281,-0.128906 -0.25,-0.414062 -0.132812,-0.285157 -0.191406,-0.523438 -0.08984,-0.335937 -0.08984,-0.785156 v -0.8125 q 0,-1.0625 0.503907,-1.679688 0.394531,-0.484375 0.996093,-0.484375 0.292969,0 0.546875,0.117188 0.253907,0.113281 0.433594,0.320312 0.117188,0.132813 0.25,0.417969 0.132813,0.285156 0.195313,0.519531 0.08594,0.335938 0.08594,0.789063 z m -0.328125,0.04297 q 0,-0.464844 -0.132812,-0.863282 -0.128907,-0.402343 -0.292969,-0.640625 -0.09766,-0.136718 -0.253906,-0.234375 -0.222657,-0.136718 -0.5,-0.136718 -0.550782,0 -0.863282,0.5625 -0.3125,0.5625 -0.3125,1.3125 v 0.722656 q 0,0.464844 0.128907,0.867187 0.132812,0.402344 0.300781,0.640625 0.09375,0.132813 0.25,0.230469 0.222656,0.140625 0.503906,0.140625 0.546875,0 0.859375,-0.5625 0.3125,-0.566406 0.3125,-1.316406 z m 2.644531,0.738281 q 0.304688,-0.449219 0.625,-0.664063 0.324219,-0.214843 0.71875,-0.214843 0.523438,0 0.929688,0.4375 0.40625,0.433593 0.40625,1.074218 0,0.585938 -0.371094,1.074219 -0.371094,0.484375 -1.023437,0.484375 -0.425782,0 -0.796875,-0.261719 -0.367188,-0.261718 -0.578125,-0.804687 -0.261719,-0.675781 -0.261719,-1.496094 0,-0.617187 0.246094,-1.148437 0.1875,-0.410157 0.5,-0.71875 0.3125,-0.3125 0.726562,-0.507813 0.417969,-0.199219 0.902344,-0.199219 0.328125,0 0.546875,0.132813 0.09375,0.05859 0.09375,0.15625 0,0.07031 -0.04297,0.117187 -0.04297,0.04297 -0.109375,0.04297 -0.05078,0 -0.121094,-0.03906 -0.160156,-0.07813 -0.398437,-0.07813 -0.761719,0 -1.390625,0.65625 -0.625,0.652343 -0.625,1.554687 0,0.128906 0.02344,0.402344 z m 0.07422,0.542969 q 0.148438,0.710937 0.464844,1.015625 0.320312,0.304687 0.753906,0.304687 0.4375,0 0.746094,-0.339844 0.3125,-0.34375 0.3125,-0.890625 0,-0.511718 -0.3125,-0.847656 -0.3125,-0.335937 -0.707031,-0.335937 -0.378907,0 -0.730469,0.324218 -0.234375,0.214844 -0.527344,0.769532 z m 9.011719,-1.851563 v 0.332031 q 0.417969,-0.449218 0.839844,-0.449218 0.253906,0 0.445312,0.136718 0.191406,0.132813 0.320313,0.40625 0.21875,-0.273437 0.441406,-0.40625 0.226562,-0.136718 0.453125,-0.136718 0.355469,0 0.566406,0.230468 0.277344,0.296875 0.277344,0.648438 v 2.292969 h 0.277344 q 0.117187,0 0.167968,0.04687 0.05078,0.04297 0.05078,0.117187 0,0.07031 -0.05078,0.117188 -0.05078,0.04687 -0.167968,0.04687 h -0.605469 v -2.589844 q 0,-0.25 -0.152344,-0.414063 -0.152344,-0.164062 -0.351562,-0.164062 -0.179688,0 -0.378907,0.136719 -0.199218,0.132812 -0.453125,0.527343 v 2.175782 h 0.273438 q 0.117187,0 0.167969,0.04687 0.05078,0.04297 0.05078,0.117187 0,0.07031 -0.05078,0.117188 -0.05078,0.04687 -0.167969,0.04687 h -0.605469 v -2.566407 q 0,-0.261718 -0.15625,-0.429687 -0.152344,-0.171875 -0.34375,-0.171875 -0.175781,0 -0.347656,0.113281 -0.238281,0.160156 -0.5,0.550781 v 2.175782 h 0.277344 q 0.117187,0 0.167968,0.04687 0.05078,0.04297 0.05078,0.117187 0,0.07031 -0.05078,0.117188 -0.05078,0.04687 -0.167968,0.04687 h -0.882813 q -0.117187,0 -0.167969,-0.04687 -0.05078,-0.04687 -0.05078,-0.117188 0,-0.07422 0.05078,-0.117187 0.05078,-0.04687 0.167969,-0.04687 h 0.277344 v -2.722657 h -0.277344 q -0.117187,0 -0.167969,-0.04687 -0.05078,-0.04687 -0.05078,-0.121093 0,-0.07031 0.05078,-0.117188 0.05078,-0.04687 0.167969,-0.04687 z m 4.800781,0 v 0.332031 q 0.417969,-0.449218 0.839844,-0.449218 0.253906,0 0.445312,0.136718 0.191407,0.132813 0.320313,0.40625 0.21875,-0.273437 0.441406,-0.40625 0.226563,-0.136718 0.453125,-0.136718 0.355469,0 0.566406,0.230468 0.277344,0.296875 0.277344,0.648438 v 2.292969 h 0.277344 q 0.117187,0 0.167969,0.04687 0.05078,0.04297 0.05078,0.117187 0,0.07031 -0.05078,0.117188 -0.05078,0.04687 -0.167969,0.04687 h -0.605469 v -2.589844 q 0,-0.25 -0.152344,-0.414063 -0.152343,-0.164062 -0.351562,-0.164062 -0.179688,0 -0.378906,0.136719 -0.199219,0.132812 -0.453125,0.527343 v 2.175782 h 0.273437 q 0.117188,0 0.167969,0.04687 0.05078,0.04297 0.05078,0.117187 0,0.07031 -0.05078,0.117188 -0.05078,0.04687 -0.167969,0.04687 h -0.605469 v -2.566407 q 0,-0.261718 -0.15625,-0.429687 -0.152343,-0.171875 -0.34375,-0.171875 -0.175781,0 -0.347656,0.113281 -0.238281,0.160156 -0.5,0.550781 v 2.175782 h 0.277344 q 0.117187,0 0.167969,0.04687 0.05078,0.04297 0.05078,0.117187 0,0.07031 -0.05078,0.117188 -0.05078,0.04687 -0.167969,0.04687 H 85.69359 q -0.117187,0 -0.167968,-0.04687 -0.05078,-0.04687 -0.05078,-0.117188 0,-0.07422 0.05078,-0.117187 0.05078,-0.04687 0.167968,-0.04687 h 0.277344 V 24.917728 H 85.69359 q -0.117187,0 -0.167968,-0.04687 -0.05078,-0.04687 -0.05078,-0.121093 0,-0.07031 0.05078,-0.117188 0.05078,-0.04687 0.167968,-0.04687 z"
       id="text23"
       style="font-size:8px;font-family:'Courier New';stroke:#000000;stroke-width:0.00264575"
       transform="matrix(0.2645833,0,0,0.2645833,-98.8,-63.25)"
       aria-label="18,56 mm x 4,06 mm" />
  </g>
  <g
     id="Cartela" />
</svg>
